<svg xmlns="http://www.w3.org/2000/svg" viewBox="0 0 335.81 336.25"><defs><style>.cls-1{fill:none;}.cls-2{fill:#9c999d;}.cls-3{fill:#b29376;}.cls-4{fill:#85603f;}.cls-5{fill:#795535;}.cls-6{fill:#92b3ce;}.cls-7{fill:#6a95b5;}.cls-8{fill:#e9c699;}.cls-9{fill:#c1d5e7;}.cls-10{fill:#7ba2bf;}.cls-11{fill:#f4d2a6;}.cls-12{fill:#729bba;}.cls-13{fill:#f8d9ac;}.cls-14{fill:#f7d7aa;}.cls-15{fill:#664226;}.cls-16{fill:#dfe1e7;}.cls-17{fill:#f0f0f3;}</style></defs><title>资源 31</title><g id="图层_2" data-name="图层 2"><g id="OBJECTS"><path class="cls-1" d="M150.1,336.25c.27-.43.54-.85.76-1.29h0C150.64,335.4,150.37,335.82,150.1,336.25Z"/><path class="cls-1" d="M51.75,291.79c0-.43.09-.86.11-1.29C51.84,290.93,51.8,291.36,51.75,291.79Z"/><path class="cls-2" d="M240.69,244.28a2.65,2.65,0,0,1-.54-.84A2.65,2.65,0,0,0,240.69,244.28Z"/><path class="cls-2" d="M193.39,117.8c0,.13.05.26.06.39C193.44,118.06,193.41,117.93,193.39,117.8Z"/><path class="cls-2" d="M199.81,187.43a92,92,0,0,0-6.46,9.11h0A92,92,0,0,1,199.81,187.43Z"/><path class="cls-2" d="M191.5,115.86a3.79,3.79,0,0,0-.93-.08h0A3.79,3.79,0,0,1,191.5,115.86Z"/><path class="cls-2" d="M221.28,226.67a2,2,0,0,1,.24.33A2,2,0,0,0,221.28,226.67Z"/><path class="cls-2" d="M212.06,209.18c1.45,5.48,2.89,11,4.76,16.34h0C215,220.15,213.51,214.66,212.06,209.18Z"/><path class="cls-2" d="M176.79,118.69a1.54,1.54,0,0,0,.58,1.38,1.43,1.43,0,0,0,.09.5c-1.94-.17-3.07-.57-3.57-1.58.5,1,1.63,1.41,3.57,1.58a1.43,1.43,0,0,1-.09-.5A1.54,1.54,0,0,1,176.79,118.69Z"/><path class="cls-2" d="M243.09,244.89q.94,12.75,1.9,25.52h0Q244,257.65,243.09,244.89Z"/><path class="cls-2" d="M189.35,111.69a1.61,1.61,0,0,1,.33.06A1.61,1.61,0,0,0,189.35,111.69Z"/><polygon class="cls-2" points="259.08 308.92 259.08 308.92 259.08 308.91 259.08 308.92"/><path class="cls-2" d="M193.38,197.93a5.3,5.3,0,0,1,0,.69A5.3,5.3,0,0,0,193.38,197.93Z"/><path class="cls-2" d="M82.18,267.05c.22,1,1.53,2.15,1.4,3.27l-5.3,0,5.3,0C83.71,269.2,82.4,268,82.18,267.05Z"/><path class="cls-2" d="M176.79,118.69c0-.2,0-.41,0-.61C176.77,118.28,176.78,118.49,176.79,118.69Z"/><path class="cls-2" d="M205.81,239.87l.35-.07Z"/><path class="cls-2" d="M263.68,256.83a2.25,2.25,0,0,0-.72-1.11,10,10,0,0,1-.73-2,9.77,9.77,0,0,0,.73,2A2.25,2.25,0,0,1,263.68,256.83Z"/><path class="cls-2" d="M179.76,114.44c.27-.2.55-.39.83-.56C180.31,114.05,180,114.24,179.76,114.44Z"/><path class="cls-2" d="M249.89,220c-2.77.23-5.59-.29-8.35.14h0C244.3,219.7,247.12,220.22,249.89,220Z"/><path class="cls-2" d="M128.06,322.83c6.7,2.59,13.24,5.59,19.85,8.43h0C141.3,328.42,134.76,325.42,128.06,322.83Z"/><path class="cls-2" d="M141,110.64a4.15,4.15,0,0,1,.95-.61A4.15,4.15,0,0,0,141,110.64Z"/><path class="cls-2" d="M145.45,110a6.35,6.35,0,0,1,1.76,1A6.35,6.35,0,0,0,145.45,110Z"/><path class="cls-2" d="M145.45,110A4.64,4.64,0,0,0,142,110,4.64,4.64,0,0,1,145.45,110Z"/><path class="cls-2" d="M133.72,111.88a29.06,29.06,0,0,1,6.47-.3h0A28.47,28.47,0,0,0,133.72,111.88Z"/><path class="cls-2" d="M129.35,117.86c-2.11.68-4.19,1.43-6.29,2.13h0C125.16,119.29,127.24,118.54,129.35,117.86Z"/><path class="cls-2" d="M215.38,295.22h-6.14q1.39,12,2.8,24.05-1.41-12-2.8-24.05Z"/><path class="cls-2" d="M189.9,263.44h0a4.16,4.16,0,0,1-.77,1.66A4.16,4.16,0,0,0,189.9,263.44Z"/><path class="cls-2" d="M288.5,270.4l-.07.06Z"/><path class="cls-2" d="M262.07,253.07a1,1,0,0,0,0,.17A1,1,0,0,1,262.07,253.07Z"/><path class="cls-2" d="M119.18,295.56a1.61,1.61,0,0,1,.39,1h0A1.61,1.61,0,0,0,119.18,295.56Z"/><path class="cls-2" d="M190.67,107.32l.85,0Z"/><path class="cls-2" d="M261,244.8l-.07.06h0Z"/><path class="cls-2" d="M261.05,244.73l-.07.06.07-.06Z"/><path class="cls-2" d="M180.69,272.8a10.63,10.63,0,0,0-1.16.87A10.63,10.63,0,0,1,180.69,272.8Z"/><path class="cls-2" d="M129.83,124.71a6.39,6.39,0,0,0,3.82-.85h0A6.39,6.39,0,0,1,129.83,124.71Z"/><path class="cls-2" d="M212,319.26h0c.39,3.45.79,6.91,1.19,10.36h0C212.83,326.17,212.43,322.71,212,319.26Z"/><path class="cls-2" d="M137.24,242.55a8.07,8.07,0,0,0,3,2.25h0A8.07,8.07,0,0,1,137.24,242.55Z"/><path class="cls-2" d="M199.47,239.24a4.71,4.71,0,0,0-.08-.5A4.71,4.71,0,0,1,199.47,239.24Z"/><path class="cls-2" d="M134.22,95.55c.6,0,1.21,0,1.81.06C135.43,95.57,134.82,95.55,134.22,95.55Z"/><path class="cls-2" d="M131.92,232.17a1.42,1.42,0,0,1-.5.67A1.42,1.42,0,0,0,131.92,232.17Z"/><path class="cls-2" d="M115.38,100.62h0l3.67,1.47h0Z"/><path class="cls-2" d="M126.13,125.5c-.45-.1-.9-.21-1.35-.34C125.23,125.29,125.68,125.4,126.13,125.5Z"/><path class="cls-2" d="M144.43,260a11.91,11.91,0,0,1,.36-2.66,11.91,11.91,0,0,0-.36,2.66c1.94,1.19,3.78,2.6,5.74,3.7C148.21,262.6,146.37,261.19,144.43,260Z"/><path class="cls-2" d="M248.1,315.46h0c-.49-4.7-1-9.4-1.33-14.11C247.05,306.06,247.61,310.76,248.1,315.46Z"/><path class="cls-2" d="M77.43,248c0,1.06-.05,2.13-.1,3.2C77.38,250.14,77.41,249.07,77.43,248Z"/><path class="cls-2" d="M245,270.44h0q.72,12.36,1.42,24.72l-4.36,0,4.37,0Q245.73,282.8,245,270.44Z"/><path class="cls-2" d="M133.78,126.08a1.82,1.82,0,0,0,1-.84h0A1.82,1.82,0,0,1,133.78,126.08Z"/><path class="cls-2" d="M124.78,125.16c-.45-.13-.89-.28-1.33-.45C123.89,124.88,124.33,125,124.78,125.16Z"/><path class="cls-2" d="M123.45,124.71c-.43-.18-.87-.37-1.29-.59C122.58,124.34,123,124.53,123.45,124.71Z"/><path class="cls-2" d="M243.07,244.86l0,0h0Z"/><path class="cls-2" d="M172.09,112.41a1.93,1.93,0,0,0,2,1.31h0A1.93,1.93,0,0,1,172.09,112.41Z"/><path class="cls-2" d="M146.35,233.06a7.64,7.64,0,0,0-3.35-2.73h0A7.64,7.64,0,0,1,146.35,233.06Z"/><polygon class="cls-2" points="104.35 219.98 104.35 219.99 104.35 219.99 104.35 219.98"/><path class="cls-2" d="M109.39,220.23a2.41,2.41,0,0,1,.43.14A2.41,2.41,0,0,0,109.39,220.23Z"/><path class="cls-2" d="M127.11,283.46a13.34,13.34,0,0,1-.88-4.59,13.34,13.34,0,0,0,.88,4.59,7.33,7.33,0,0,1,0,1A7.33,7.33,0,0,0,127.11,283.46Z"/><path class="cls-2" d="M148.42,239.87c-.08-1.78.1-3.61.1-5.4a2.16,2.16,0,0,0,1.06-.34,2.16,2.16,0,0,1-1.06.34C148.52,236.26,148.34,238.09,148.42,239.87Z"/><path class="cls-2" d="M108.8,220.11l.1,0Z"/><path class="cls-2" d="M205.7,270.34,203.11,269q-1.38-10-2.77-20,1.38,10,2.77,20l2.59,1.36Z"/><path class="cls-2" d="M204.13,278.06c.08.19.16.38.25.57h0Z"/><path class="cls-2" d="M200.25,208.24c2.49.43,4.21,1.93,5.83,3.57-1.62-1.64-3.34-3.14-5.83-3.57-.88-2.6-2-4.24-3.59-5.17C198.28,204,199.37,205.64,200.25,208.24Z"/><path class="cls-2" d="M203.07,248.85a2.93,2.93,0,0,0-2.18-2.16h0A2.93,2.93,0,0,1,203.07,248.85Z"/><path class="cls-2" d="M134.63,211.14c0,.87,0,1.76.07,2.64a27,27,0,0,0,5.38,10.52,27,27,0,0,1-5.38-10.52C134.67,212.9,134.63,212,134.63,211.14Z"/><path class="cls-2" d="M149.68,233.85a.36.36,0,0,1-.1.28A.36.36,0,0,0,149.68,233.85Z"/><path class="cls-2" d="M147.89,204.11c-1.63-3-4.48-5-7.66-6.91a5.78,5.78,0,0,1-1-3.08,5.78,5.78,0,0,0,1,3.08C143.41,199.11,146.26,201.14,147.89,204.11Z"/><path class="cls-2" d="M192.25,196c-.41-.67-.18-1.78-.85-2.26a26,26,0,0,0-2-6.86,26,26,0,0,1,2,6.86C192.07,194.23,191.84,195.34,192.25,196Z"/><path class="cls-2" d="M102.26,270.33h0c0-.24,0-.47,0-.71,0,.24,0,.47,0,.71Z"/><path class="cls-2" d="M266.48,295.17l0,0Z"/><path class="cls-2" d="M74.72,294.54h0c-.06.39-.13.78-.2,1.17C74.59,295.32,74.66,294.93,74.72,294.54Z"/><path class="cls-2" d="M127.29,270.31h-.13l-24.9,0,24.9,0Z"/><path class="cls-2" d="M103,244.82,78,244.62h0l24.93.2Z"/><path class="cls-2" d="M133.43,219.3a33.15,33.15,0,0,0,2.91,4.55A33.15,33.15,0,0,1,133.43,219.3Z"/><path class="cls-2" d="M131.61,207.61c.15-.44.29-.87.45-1.3C131.9,206.74,131.76,207.17,131.61,207.61Z"/><path class="cls-2" d="M131.88,215.77h0a27,27,0,0,0,1.46,3.34A27,27,0,0,1,131.88,215.77Z"/><path class="cls-2" d="M127,222.78c.06-.28.12-.56.19-.84C127.1,222.22,127,222.5,127,222.78Z"/><path class="cls-2" d="M127.16,228.83h0c-1.67,1.32-3.58.59-5.36.6C123.58,229.42,125.49,230.15,127.16,228.83Z"/><path class="cls-2" d="M128.61,242.57c3.48.78,6.22,2.88,9,4.87-2.83-2-5.57-4.09-9-4.87-.86-1.59-2.52-1.8-4-2.37C126.09,240.77,127.75,241,128.61,242.57Z"/><path class="cls-2" d="M141.15,229.41a4.78,4.78,0,0,0,.54.47A4.78,4.78,0,0,1,141.15,229.41Z"/><path class="cls-2" d="M110.57,221a1.84,1.84,0,0,1,.16.41A1.84,1.84,0,0,0,110.57,221Z"/><path class="cls-2" d="M127.42,221l.45-1.61Z"/><path class="cls-2" d="M131.88,215.77c-.26.71-.52,1.42-.77,2.12h0C131.36,217.19,131.62,216.48,131.88,215.77Z"/><path class="cls-2" d="M127.8,245.48v.69c0,3.56-.22,7.1-.43,10.64.21-3.54.44-7.08.43-10.63Z"/><path class="cls-2" d="M103,244.74l.07-.07Z"/><path class="cls-2" d="M142.07,230.1l.06,0Z"/><path class="cls-2" d="M215.55,116.79a.93.93,0,0,1,0-.3c.16.25.33.49.5.73l-.5-.73-.19-.69c.06.23.13.46.19.69A.93.93,0,0,0,215.55,116.79Z"/><path class="cls-2" d="M210.54,152.36c-.67.95-1.38,1.87-2.14,2.78C209.16,154.23,209.87,153.31,210.54,152.36Z"/><path class="cls-2" d="M263.77,257.57s0,.06,0,.08S263.77,257.6,263.77,257.57Z"/><path class="cls-2" d="M172.29,105a4.8,4.8,0,0,1-.67-1.28A4.8,4.8,0,0,0,172.29,105Z"/><path class="cls-2" d="M216.78,120.62h0a4,4,0,0,1-1-.21A4,4,0,0,0,216.78,120.62Z"/><path class="cls-2" d="M87.83,290.28c-.2-3.66-.87-7.31-.7-11h0C87,283,87.63,286.62,87.83,290.28Z"/><path class="cls-2" d="M215.75,120.41a2.34,2.34,0,0,1-.7-.4A2.34,2.34,0,0,0,215.75,120.41Z"/><path class="cls-2" d="M216.92,295.28h0q-.72-6-1.45-12.1.72,6,1.45,12.1Z"/><path class="cls-2" d="M172.29,105c.1.15.22.3.34.46h0C172.51,105.33,172.39,105.18,172.29,105Z"/><path class="cls-2" d="M199,75.17a13.33,13.33,0,0,1-.53-1.9A13.33,13.33,0,0,0,199,75.17Z"/><path class="cls-2" d="M225.13,295.12c.28-5.43-.28-10.82-.61-16.23.33,5.41.89,10.8.61,16.23l.21.06Z"/><path class="cls-2" d="M214,270.51h0a62.16,62.16,0,0,1,6.54-.12A65,65,0,0,0,214,270.51Z"/><path class="cls-2" d="M212.21,267.27c0,.12,0,.24,0,.36C212.22,267.51,212.21,267.39,212.21,267.27Z"/><path class="cls-2" d="M196.62,68.37a4.86,4.86,0,0,1,.9.91A4.86,4.86,0,0,0,196.62,68.37Z"/><path class="cls-2" d="M172.09,112.41a2.76,2.76,0,0,1-.13-.77A2.76,2.76,0,0,0,172.09,112.41Z"/><path class="cls-2" d="M213,227.32a10.37,10.37,0,0,0-.93-8.15c-1-4.85-1.77-9.72-3.21-14.46,1.44,4.74,2.22,9.61,3.21,14.46A10.37,10.37,0,0,1,213,227.32Z"/><path class="cls-2" d="M218.37,120l-1.31.08h0Z"/><path class="cls-2" d="M222.22,102.17c0-.3-.05-.59-.06-.88C222.17,101.58,222.2,101.87,222.22,102.17Z"/><path class="cls-2" d="M108.8,142.93a4,4,0,0,1,.44-1.25h0A3.9,3.9,0,0,0,108.8,142.93Z"/><path class="cls-2" d="M96.84,91.57a6.25,6.25,0,0,1,.78.86A6.25,6.25,0,0,0,96.84,91.57Z"/><path class="cls-2" d="M78.83,228.15l0,1.1Z"/><path class="cls-2" d="M98.65,94.53a6,6,0,0,0-.53-1.34A6,6,0,0,1,98.65,94.53Z"/><path class="cls-2" d="M118.83,295.32a1.37,1.37,0,0,0-.36-.11A1.37,1.37,0,0,1,118.83,295.32Z"/><path class="cls-2" d="M212.22,267.63c0,1.51-.42,2.2-1.71,2.5C211.8,269.83,212.25,269.14,212.22,267.63Z"/><path class="cls-2" d="M102.07,291a6.66,6.66,0,0,1-.37-.91A6.66,6.66,0,0,0,102.07,291Z"/><path class="cls-2" d="M205.11,240h0a5.05,5.05,0,0,1-1.27,2.18A5.05,5.05,0,0,0,205.11,240Z"/><path class="cls-2" d="M76.88,257.85c.18-2.21.34-4.43.45-6.64C77.22,253.42,77.06,255.64,76.88,257.85Z"/><path class="cls-2" d="M136.73,126.26s0,.07,0,.1S136.72,126.29,136.73,126.26Z"/><path class="cls-2" d="M120,122.68a2.64,2.64,0,0,1-.34-.55A2.64,2.64,0,0,0,120,122.68Z"/><path class="cls-2" d="M221.66,237.27l-2.22-.19h0Z"/><path class="cls-2" d="M205.8,292.13a3.26,3.26,0,0,0,.56,2.54c.18,2.51.29,5,.55,7.53-.26-2.5-.37-5-.55-7.53A3.26,3.26,0,0,1,205.8,292.13Z"/><path class="cls-2" d="M78,244.62a3.42,3.42,0,0,1-.6.18h0A3.42,3.42,0,0,0,78,244.62Z"/><path class="cls-2" d="M161,309.65h0l5.48-11.55.73-1.5-.73,1.5Z"/><path class="cls-2" d="M52.63,270.37c-.06,1.56-.13,3.13-.19,4.69.06-1.56.13-3.13.19-4.69Z"/><path class="cls-2" d="M203.07,248.85a10.57,10.57,0,0,1,.28,1.86A10.57,10.57,0,0,0,203.07,248.85Z"/><path class="cls-2" d="M144.78,265.8a4.08,4.08,0,0,1-1.42-1.47A4.08,4.08,0,0,0,144.78,265.8Z"/><path class="cls-2" d="M134.8,270.52c2.69-2.33,4.73-4.94,5.31-8.35-.58,3.41-2.62,6-5.31,8.35-.3,2.42-2.13,4-3.34,6C132.67,274.56,134.5,272.94,134.8,270.52Z"/><path class="cls-2" d="M143.09,260.68a1.39,1.39,0,0,0,1.34-.68,1.39,1.39,0,0,1-1.34.68l-.09,1.46Z"/><path class="cls-2" d="M151.29,332.52a9.71,9.71,0,0,0,2-3.85,9.71,9.71,0,0,1-2,3.85,3.73,3.73,0,0,1-.43,2.44h0A3.73,3.73,0,0,0,151.29,332.52Z"/><path class="cls-2" d="M170.8,278.71c3.75,1.73,2.95,4,1.78,6.34,1.17-2.34,2-4.61-1.78-6.34,4.15.46,6.15-2.83,8.73-5C177,275.88,175,279.17,170.8,278.71Z"/><path class="cls-2" d="M147,162c2.59-4.17,6.5-5.87,10.69-7.25-4.19,1.38-8.1,3.08-10.69,7.24-3,2.89-4.53,5.79-3.65,9.29C142.47,167.75,144,164.85,147,162Z"/><polygon class="cls-2" points="149.2 163.41 149.19 163.41 149.19 163.41 149.2 163.41"/><path class="cls-2" d="M148.94,163.73a.4.4,0,0,0,.13-.13A.4.4,0,0,1,148.94,163.73Z"/><path class="cls-2" d="M188.5,159.3a2.75,2.75,0,0,0,2.11-.72l.89-.13-.9.13A2.72,2.72,0,0,1,188.5,159.3Z"/><path class="cls-2" d="M120.9,123.39a2.92,2.92,0,0,1-.86-.71,2.92,2.92,0,0,0,.86.71c.42.27.83.51,1.26.73C121.73,123.9,121.32,123.66,120.9,123.39Z"/><path class="cls-2" d="M184.62,154.39a38.42,38.42,0,0,1,3.47,1.82A38.42,38.42,0,0,0,184.62,154.39Z"/><path class="cls-2" d="M131.46,276.5a9.64,9.64,0,0,0-.54,1A9.64,9.64,0,0,1,131.46,276.5Z"/><path class="cls-2" d="M149.88,149.93a5,5,0,0,0,1.43-1.65h0A5,5,0,0,1,149.88,149.93Z"/><path class="cls-2" d="M193.21,158.84a3.54,3.54,0,0,0-1.71-.39c-1.13-.81-2.26-1.56-3.41-2.24,1.15.68,2.28,1.43,3.41,2.24A3.54,3.54,0,0,1,193.21,158.84Z"/><path class="cls-2" d="M218.26,133.16a43.77,43.77,0,0,1-7.72,19.2,43.77,43.77,0,0,0,7.72-19.2,1.47,1.47,0,0,1,1.09.5A1.47,1.47,0,0,0,218.26,133.16Z"/><path class="cls-2" d="M210,270.22l.39-.07Z"/><path class="cls-2" d="M52.58,245.52A2.68,2.68,0,0,1,54,244.15a1.37,1.37,0,0,1,.2.52l23.19.13-23.19-.13a1.37,1.37,0,0,0-.2-.52c1.57-4.7,5.59-7.13,9.26-9.83A45.65,45.65,0,0,1,78.76,227l14.56-5.68.76-.46,2.7-.89c2.49-1.26,4.87-2.76,7.65-3.36-.07,1.06-.15,2.12-.23,3.18.08-1.06.16-2.12.23-3.18l1.43-.73c.06-.37.24-.57.65-.46,4.8-1.64,8.86-3.89,11.78-8.57,4.11-6.6,9.43-12.29,17-15.23l1.34-.86a5.31,5.31,0,0,0,1.07-2.67A108.65,108.65,0,0,0,123,174.42c-7.23-5.42-12.15-11.92-12.61-21.23-3.25.18-4.91-1.91-6.34-4.39-2.83-4.9-4.3-10.29-5.83-15.67a65.73,65.73,0,0,0-2.63-7.77c-2.2-5.18-2.11-5.82,2.21-9.25.44-.35.83-.76,1.25-1.14a1.05,1.05,0,0,1,.24.06A1.05,1.05,0,0,0,99,115c-.92-8-2.69-15.92-3-24h0L96,89.84c-1.41-9.63-2.78-19.26-1.3-29A8.14,8.14,0,0,1,96,57c.12-.39.23-.79.35-1.18a8.32,8.32,0,0,1,1.72-3.87c1.74-.37.93,3.93,3.51,1.75,0-.69-.07-1.37-.11-2-.1-3.4,0-3.6,2.44-7.41.79,2.12,1.41,4.07,2.81,5.51.82.83,1.63,1.76,2.58,0,5.93-11.24,16.61-16.25,27.76-19.89,13.52-4.41,27.54-4.36,41.52-1.82,5.76,1.05,10.83,4,16,6.55,6.13,3.07,11.78,7.07,18.16,9.71,2.24.3,2.88,1.36,1.63,3.37-.46.76-.85,1.56-1.27,2.33-.17.27-.55.65-.48.77.3.52.74.28,1.14,0,2.05-1.14,2.78-.65,3.1,1.8,2.09,15.81,4.21,31.61,5.49,47.5.38,2.87,1.47,5.16,4.55,6.06a2.3,2.3,0,0,1,1.58,2.74c-1.53,10.2-.17,20.74-3.78,30.72a5.51,5.51,0,0,1-4.82,4h0a70.6,70.6,0,0,1-.22,12.92c.06.15.12.3.19.44l-.28.09c-2,6.43-6.28,11.51-9.75,17.09-1.73,2.76-4.23,5.08-5,8.4,1.12,2.46.82,5.14,1.23,7.71,2.12.71,4.48.87,6.06,2.74a1.54,1.54,0,0,1-.29.23A1.54,1.54,0,0,0,212,193a22.49,22.49,0,0,1,11.61,9.13A24.42,24.42,0,0,0,237,212.53a27.23,27.23,0,0,1,3.93,2c4,1.53,8.23,2.35,11.73,5l1.32.1.74.44,5.06,1.83c9.13,2.51,17.63,6.12,24,13.6a5.63,5.63,0,0,1,1.65,2.92c2.15,1.69,2.74,4,2.68,6.58,2.59,2.88,2.9,6.67,3.81,10.14,1.32,5.06,3.09,10,3.54,15.3l-6.84-.05,6.84.05c.47,1.74.91,3.48,1.31,5.24a167.91,167.91,0,1,0-252.12,6.23q.34-5.76,1.16-11.48C46.4,261.64,48.06,253.19,52.58,245.52Z"/><path class="cls-2" d="M218.78,123.9a13.46,13.46,0,0,0-.41-3.92c.6-4.57-.17-9.34,2-13.69a2.81,2.81,0,0,0,1.94-3.23,2.81,2.81,0,0,1-1.94,3.23c-2.16,4.35-1.39,9.12-2,13.69A13.46,13.46,0,0,1,218.78,123.9Z"/><path class="cls-2" d="M203.35,250.71c0,.24,0,.49.07.72C203.39,251.2,203.37,251,203.35,250.71Z"/><path class="cls-2" d="M138,293.24c1.19-2.36,2.45-4.69,3.66-7h0C140.49,288.55,139.23,290.88,138,293.24Z"/><path class="cls-2" d="M127.75,270.29c-.11-5,1-9.9,1.33-14.88-.3,5-1.44,9.89-1.33,14.88l.06.07h0Z"/><path class="cls-2" d="M106,116.83a2.75,2.75,0,0,1-1.83,3.17h0A2.75,2.75,0,0,0,106,116.83Z"/><path class="cls-2" d="M138.81,125.05a2.53,2.53,0,0,0,0,.28,2.53,2.53,0,0,1,0-.28Z"/><path class="cls-2" d="M136.79,125.89a5.32,5.32,0,0,0,0-.56h0A5.32,5.32,0,0,1,136.79,125.89Z"/><path class="cls-2" d="M212.21,267.27c0-.26-.05-.53-.08-.82C212.16,266.74,212.19,267,212.21,267.27Z"/><path class="cls-2" d="M123,293.08a12.22,12.22,0,0,1,1.35-4.8,12.22,12.22,0,0,0-1.35,4.8,4.79,4.79,0,0,0-1.42,1.64A4.79,4.79,0,0,1,123,293.08Z"/><path class="cls-2" d="M217.22,106.65a2.51,2.51,0,0,0-.43-.22,2.51,2.51,0,0,1,.43.22Z"/><path class="cls-2" d="M119.22,297a.81.81,0,0,0,.34.26h0A.81.81,0,0,1,119.22,297Z"/><path class="cls-3" d="M138.86,189.05a17,17,0,0,1,1.36,2,11.53,11.53,0,0,1,7.74,1.39,15,15,0,0,1,2.11,1.5,21.74,21.74,0,0,1,2.56,2.6,6.25,6.25,0,0,1,2,1,7.36,7.36,0,0,1,.77.7,8.47,8.47,0,0,1,.67.79,35.21,35.21,0,0,1,2.15,3.62c3.6-1.41,5.66-4.74,8.61-7,5-3.81,9.55-8.11,14.32-12.17,3-2.55,5.12-2.17,7.18,1.29a22.53,22.53,0,0,1,1.11,2.12,26,26,0,0,1,2,6.86c.67.48.44,1.59.85,2.26a1.2,1.2,0,0,0,1.1.53,92,92,0,0,1,6.46-9.11c.78-1,1.57-1.92,2.38-2.87s1.14-2.06,2.55-2c.79-3.32,3.29-5.64,5-8.4,3.47-5.58,7.78-10.66,9.75-17.09a.81.81,0,0,1,.09-.53,70.6,70.6,0,0,0,.22-12.92h0c-.1-2.6-.16-5.21-.32-7.81a4.1,4.1,0,0,1,0-.6,2.33,2.33,0,0,0-.17-1.54,1.47,1.47,0,0,0-1.09-.5,43.77,43.77,0,0,1-7.72,19.2c-.67.95-1.38,1.87-2.14,2.78s-1.54,1.8-2.37,2.66-1.75.78-2.78.26c-6.23-3.13-12.4-6.39-18.74-9.27-5.21-2.37-10.24-5.42-16.59-2.51a9.59,9.59,0,0,1-2,.65,18.43,18.43,0,0,1-9.19-.84c-1.92-.17-3.39.78-4.84,1.77l-.62.42a5,5,0,0,1-1.43,1.65,5.16,5.16,0,0,1-.63.4C144,155.09,139,160.05,133.09,164c-2.46,1.63-4.35,1.32-6.48-.2a44.7,44.7,0,0,1-12.87-14c-1.55-2.67-3-5.39-4.5-8.09a4,4,0,0,0-.44,1.25c-.26,1.51.41,3,.66,4.47a7.4,7.4,0,0,1,.08.81c.06,1.68,1.1,3.23.82,5,.46,9.31,5.38,15.81,12.61,21.23a108.65,108.65,0,0,1,14.75,13.71A3.85,3.85,0,0,1,138.86,189.05ZM147,162c2.59-4.16,6.5-5.86,10.69-7.24,1.4-.47,2.83-.89,4.25-1.36a29.88,29.88,0,0,1,22.68,1,38.42,38.42,0,0,1,3.47,1.82c1.15.68,2.28,1.43,3.41,2.24a3.54,3.54,0,0,1,1.71.39,2,2,0,0,1,.77,2.41,31,31,0,0,1-3.49,9.95,5,5,0,0,1-5.61,2.38l-1.76-.35a46.43,46.43,0,0,0-12.44-1.13l-5.45.44c-3.78,1.89-7.5,3.91-11.35,5.64-4.54,2.06-6.08.86-8.79-3.21a12,12,0,0,1-1.74-3.72C142.47,167.75,144,164.85,147,162Z"/><path class="cls-4" d="M106.54,51.6c1.6,1.41,3.19.85,4-1.29.32-.84.74-1.64,1.32-2.92.7,3.29,2,3.07,4.45,1.9,6.69-3.17,13.35-5,20.94-1.42a178.5,178.5,0,0,0,20.52,8.23c5.63,1.88,11.29,2,17,1.63,8.11-.6,15.89-3.08,23.72-5.19.73-.2,1.66-.15,2.1-1.35-3-1.92-7-2.36-9.72-5,.93-1.1,1.81-.67,2.62-.32,4.93,2.08,10.13,1.83,15.27,1.56,1.68-.09,4.55.25,4-3.15-6.38-2.64-12-6.64-18.16-9.71C189.4,32,184.33,29,178.57,28c-14-2.54-28-2.59-41.52,1.82-11.15,3.64-21.83,8.65-27.76,19.89-1,1.79-1.76.86-2.58,0-1.4-1.44-2-3.39-2.81-5.51-2.48,3.81-2.54,4-2.44,7.41C103.15,50,104.64,49.91,106.54,51.6Z"/><path class="cls-5" d="M96.84,91.57a6.25,6.25,0,0,1,.78.86,5.24,5.24,0,0,1,.5.76,6,6,0,0,1,.53,1.34,9.48,9.48,0,0,1,.23,2.83c-.25,5-.33,10,1.16,14.86a3.83,3.83,0,0,1-.56,2.93,5.93,5.93,0,0,0,1.57,2,15.56,15.56,0,0,1,3.09,2.86,2.75,2.75,0,0,0,1.83-3.17c0-.75-.2-1.49-.2-2.1,0-10.31-.86-20.62-.57-30.91.16-5.59.34-11.21.54-16.81.27-7.26,3-9.79,10-9.87,7.65-.09,14.83,2.53,22.22,3.83a122.21,122.21,0,0,0,37.25.88c5.38-.71,10.55-2.9,15.87-4.19a91.8,91.8,0,0,1,10.42-1.78c1.85-.22,2.8,1.38,3.58,2.8.94,1.72,1,3.77,1.59,5.56,3.55,10.14,4.15,20.93,7.14,31.18a8,8,0,0,1,0,2.35c0,2.57.59,5,3.37,6.06a8.28,8.28,0,0,1,3.19,2.46,2.81,2.81,0,0,0,1.94-3.23l0-.45c0-.15,0-.3-.05-.44,0-.3-.05-.59-.06-.88a3.91,3.91,0,0,1,.13-1.24c-1.28-15.89-3.4-31.69-5.49-47.5-.32-2.45-1.05-2.94-3.1-1.8-.4.25-.84.49-1.14,0-.07-.12.31-.5.48-.77.42-.77.81-1.57,1.27-2.33,1.25-2,.61-3.07-1.63-3.37.58,3.4-2.29,3.06-4,3.15-5.14.27-10.34.52-15.27-1.56-.81-.35-1.69-.78-2.62.32,2.74,2.67,6.68,3.11,9.72,5-.44,1.2-1.37,1.15-2.1,1.35-7.83,2.11-15.61,4.59-23.72,5.19-5.67.42-11.33.25-17-1.63a178.5,178.5,0,0,1-20.52-8.23c-7.59-3.62-14.25-1.75-20.94,1.42-2.47,1.17-3.75,1.39-4.45-1.9-.58,1.28-1,2.08-1.32,2.92-.8,2.14-2.39,2.7-4,1.29-1.9-1.69-3.39-1.62-5.08,0,0,.68.07,1.36.11,2,.74,1.62,1.66,3.27-1.57,2.4a18.46,18.46,0,0,0-3.66-.28c-.12.39-.23.79-.35,1.18-1.74,11,.76,21.9,0,32.86L96.06,91A8,8,0,0,1,96.84,91.57Z"/><path class="cls-6" d="M208.86,192.88a2.43,2.43,0,0,0-1.66,0c.72,2,1.38,4,2,6,.41,1.36.81,2.71,1.19,4.08.57,2,1.12,4.1,1.67,6.15,1.45,5.48,2.89,11,4.76,16.34,2.32,0,3.74.31,4.46,1.15a2,2,0,0,1,.24.33c.48.86.45,2.15,0,4.07a51,51,0,0,1-2.11,6l2.22.19,17.21,7c0,.17,0,.34-.05.5H222.35l.66,11.14c.23,3.71.46,7.42.74,11.13.19,2.55-.62,3.56-3.26,3.34a62.16,62.16,0,0,0-6.54.12q.77,6.33,1.52,12.66.72,6,1.45,12.1l8.21-.16c.28-5.43-.28-10.82-.61-16.23-.11-1.8-.19-3.6-.2-5.41,0-2.36.62-3.25,3.09-3.18l4.39.09c4.4.05,8.79,0,13.19,0q-1-12.77-1.9-25.52l0,0-.12-.11a2.28,2.28,0,0,1-2.26-.47,2.65,2.65,0,0,1-.54-.84q-.1-.25-.21-.57c-2-6.78-4.17-13.53-6.3-20.28-.56-1.75-.11-2.63,1.83-2.6s3.67,0,5.5,0c0-1.82,0-3.64-.05-5.46a27.23,27.23,0,0,0-3.93-2,24.42,24.42,0,0,1-13.35-10.4A22.49,22.49,0,0,0,212,193a1.54,1.54,0,0,1-.29.23C210.78,193.86,209.89,193.19,208.86,192.88Z"/><path class="cls-6" d="M104.35,220a34.53,34.53,0,0,1,4.45.12l.1,0,.49.1a2.41,2.41,0,0,1,.43.14,1.69,1.69,0,0,1,.49.3,1.31,1.31,0,0,1,.26.32,1.84,1.84,0,0,1,.16.41c.23,1-.22,2.65-1,5.44-1.58,5.58-3.52,11.06-5.27,16.6-.23.71-.45,1.3-1.34,1.23l-.07.07-.08.08q-.33,12.41-.68,24.8c0,.24,0,.47,0,.71l24.9,0a106.51,106.51,0,0,1,.21-13.49c.21-3.54.44-7.08.43-10.64v-.69c-6.83-1.76-13.45.34-20.13,1.35l-.25-.85,16.37-6.18a7.54,7.54,0,0,0-.55-2.64c-.95-2.5-2.81-4.71-2.64-7.58a4.39,4.39,0,0,1,1.2-.15c1.78,0,3.69.72,5.36-.6a11,11,0,0,1-.18-6.05c.06-.28.12-.56.19-.84s.16-.64.25-.95l.45-1.61c.21-.71.4-1.41.57-2.11.37-1.57.44-3.7,2.12-4.87a22,22,0,0,1,1.05-4.79c.15-.44.29-.87.45-1.3s.24-.66.37-1c.25-.65.51-1.3.77-2a41.78,41.78,0,0,0,2.32-6.93c.35-1.66,1.28-3.26-.21-4.79-7.59,2.94-12.91,8.63-17,15.23-2.92,4.68-7,6.93-11.78,8.57l-.65.46-1.43.73c-.07,1.06-.15,2.12-.23,3.18l.15.15Z"/><path class="cls-6" d="M288.56,270.33l-.06.07-.07.06h0c.45,4.26,1,8.51,1.5,12.77,2.33-2.47,4.59-5,6.78-7.62-.4-1.76-.84-3.5-1.31-5.24Z"/><path class="cls-6" d="M266.52,295.14l0,0-.1.1c.42,2.64.7,5.3.93,8q5.24-3.86,10.16-8.09Z"/><path class="cls-6" d="M277.89,244.81c-5.61,0-11.23-.05-16.84-.08l-.07.06h0l-.07.06c.78,2.66.59,5.51,1.16,8.21a1,1,0,0,0,0,.17,4.7,4.7,0,0,0,.12.51,10,10,0,0,0,.73,2,2.25,2.25,0,0,1,.72,1.11,3.06,3.06,0,0,1,.09.74s0,.06,0,.08a7.92,7.92,0,0,1,0,.85c0,.14,0,.28,0,.42-.84,10-1.76,20-2.6,30.05-.17,2-.11,4.12-.16,6.18l5.45.12.1-.1,0,0c-.71-6.9-1.34-13.81-2.16-20.7-.41-3.39.89-4.29,4.16-4.16,6.63.28,13.27.15,19.91.19h0l.07-.06.06-.07c-.87-7.33-1.77-14.66-2.58-22-.17-1.54-1.06-3.76,2.07-3.4.06-2.58-.53-4.89-2.68-6.58C284.61,244.82,284.61,244.83,277.89,244.81Z"/><path class="cls-6" d="M266.48,295.17l-.1.1h0Z"/><polygon class="cls-6" points="288.43 270.46 288.43 270.46 288.43 270.46 288.43 270.46"/><path class="cls-6" d="M288.56,270.33l-.06.07Z"/><path class="cls-6" d="M78.86,229.25c0,.36,0,.73,0,1.1s0,.73,0,1.1c-.21,4.39-1,8.76-.78,13.17l24.93.2.08-.08.07-.07c1.25-8.19-.29-16.51,1.24-24.68h0l-.15-.15-7.42.18-2.7.89-.76.46L78.76,227c0,.37,0,.74.07,1.11Z"/><path class="cls-6" d="M104.2,219.83l.15.15Z"/><path class="cls-6" d="M103,244.74l-.08.08h0Z"/><path class="cls-7" d="M259,224.56c.64,6.73,1.39,13.45,2.1,20.17h0c5.61,0,11.23.07,16.84.08,6.72,0,6.72,0,7.48-6.45a5.63,5.63,0,0,0-1.65-2.92c-6.32-7.48-14.82-11.09-24-13.6C257.87,222.24,258.87,223.65,259,224.56Z"/><path class="cls-7" d="M261.05,244.73h0c5.61,0,11.23.07,16.84.08C272.28,244.8,266.66,244.76,261.05,244.73Z"/><path class="cls-6" d="M241.54,220.13,243,244.75l.12.11,0,0,17.82,0,.07-.06h0l.07-.06c-.71-6.72-1.46-13.44-2.1-20.17-.08-.91-1.08-2.32.82-2.72L254.71,220l-.74-.44-1.32-.1a12,12,0,0,1-2.76.52C247.12,220.22,244.3,219.7,241.54,220.13Z"/><path class="cls-6" d="M243,244.75l.12.11-.12-.11Z"/><path class="cls-6" d="M261,244.8h0Z"/><path class="cls-8" d="M202.19,184.56c-.81.95-1.6,1.9-2.38,2.87a92,92,0,0,0-6.46,9.11c0,.46,0,.93,0,1.39a5.3,5.3,0,0,1,0,.69,4.55,4.55,0,0,1-.1.66c-.52,2.06-2.11,1.78-3.06.72s-1.37-3.39-3.39-2.45-3.53,2.61-3.16,5.2c2.75.39,5.37-.73,8.1-.72a9.59,9.59,0,0,1,4.9,1c1.62.93,2.71,2.57,3.59,5.17,2.49.43,4.21,1.93,5.83,3.57,1,1,1.9,2,2.93,2.89.86.74,0,2.34-.86,3.38a6.48,6.48,0,0,0-1.7,5.35,1.11,1.11,0,0,0,.28.35,2,2,0,0,0,1.18.4c1.68-.9,1.89-3,3.12-4.29a2.89,2.89,0,0,1,1-.72c-1-4.85-1.77-9.72-3.21-14.46a46.18,46.18,0,0,0-1.69-4.69,21.18,21.18,0,0,1-1.2-9.76c-.41-2.57-.11-5.25-1.23-7.71C203.33,182.5,202.91,183.72,202.19,184.56Z"/><path class="cls-8" d="M109.54,148.21a7.4,7.4,0,0,0-.08-.81c-.25-1.49-.92-3-.66-4.47a3.9,3.9,0,0,1,.44-1.25c-.26-2.88-.53-5.76-.79-8.65l-.4-.05a1.78,1.78,0,0,1-.84-.4,1.2,1.2,0,0,1-.31-.4,2,2,0,0,1-.17-.48c-.15-.69,0-1.49-.12-2.1a40.7,40.7,0,0,0-2.47-9.6h0a15.56,15.56,0,0,0-3.09-2.86,5.93,5.93,0,0,1-1.57-2,.94.94,0,0,0-.22-.12A1.05,1.05,0,0,0,99,115c-.42.38-.81.79-1.25,1.14-4.32,3.43-4.41,4.07-2.21,9.25a65.73,65.73,0,0,1,2.63,7.77c1.53,5.38,3,10.77,5.83,15.67,1.43,2.48,3.09,4.57,6.34,4.39C110.64,151.44,109.6,149.89,109.54,148.21Z"/><path class="cls-8" d="M109.46,147.4c-.25-1.49-.92-3-.66-4.47C108.54,144.44,109.21,145.91,109.46,147.4Z"/><path class="cls-8" d="M101.05,117.14a15.56,15.56,0,0,1,3.09,2.86h0A15.56,15.56,0,0,0,101.05,117.14Z"/><path class="cls-8" d="M222.22,102.17c0,.14,0,.29.05.44l0,.45a2.81,2.81,0,0,1-1.94,3.23c-2.16,4.35-1.39,9.12-2,13.69a13.46,13.46,0,0,1,.41,3.92,3.77,3.77,0,0,1-.49,1.3l0,8a1.47,1.47,0,0,1,1.09.5,2.33,2.33,0,0,1,.17,1.54,4.1,4.1,0,0,0,0,.6c.16,2.6.22,5.21.32,7.81a5.51,5.51,0,0,0,4.82-4c3.61-10,2.25-20.52,3.78-30.72a2.3,2.3,0,0,0-1.58-2.74c-3.08-.9-4.17-3.19-4.55-6.06a3.91,3.91,0,0,0-.13,1.24C222.17,101.58,222.2,101.87,222.22,102.17Z"/><path class="cls-8" d="M219.35,133.66a2.33,2.33,0,0,1,.17,1.54A2.33,2.33,0,0,0,219.35,133.66Z"/><path class="cls-8" d="M219.82,143.61h0c-.1-2.6-.16-5.21-.32-7.81C219.66,138.4,219.72,141,219.82,143.61Z"/><path class="cls-8" d="M222.3,103.06l0-.45Z"/><path class="cls-7" d="M78,244.62h0c-.2-4.41.57-8.78.78-13.17,0-.37,0-.74,0-1.1s0-.74,0-1.1l0-1.1c0-.37,0-.74-.07-1.11a45.65,45.65,0,0,0-15.46,7.28c-3.67,2.7-7.69,5.13-9.26,9.83a1.37,1.37,0,0,1,.2.52l23.19.13a3.42,3.42,0,0,0,.6-.18Z"/><path class="cls-7" d="M78.86,229.25c0,.36,0,.73,0,1.1C78.85,230,78.86,229.61,78.86,229.25Z"/><path class="cls-7" d="M78.81,231.45c-.21,4.39-1,8.76-.78,13.17h0C77.83,240.21,78.6,235.84,78.81,231.45Z"/><path class="cls-6" d="M51.92,289.31v-.18c.13-4.69.32-9.38.52-14.07.06-1.56.13-3.13.19-4.69H45.75q-.82,5.73-1.16,11.48Q48.15,285.69,51.92,289.31Z"/><path class="cls-9" d="M52.63,270.37l.56-.16,1.05-25.54a1.37,1.37,0,0,0-.2-.52,2.68,2.68,0,0,0-1.46,1.37c-4.52,7.67-6.18,16.12-6.83,24.85Z"/><path class="cls-9" d="M45.75,270.37h0Z"/><path class="cls-9" d="M286,248.34c.81,7.33,1.71,14.66,2.58,22l6.84.05c-.45-5.27-2.22-10.24-3.54-15.3-.91-3.47-1.22-7.26-3.81-10.14C284.92,244.58,285.81,246.8,286,248.34Z"/><path class="cls-10" d="M207.17,200a46.18,46.18,0,0,1,1.69,4.69c1.44,4.74,2.22,9.61,3.21,14.46a10.37,10.37,0,0,1,.93,8.15c-.1.32-.22.64-.35,1a13.38,13.38,0,0,1-1.75,2.91c-2.14,2.76-3.87,5.84-5.79,8.77h0c.21,0,.47,0,.7-.08l.35-.07a.65.65,0,0,0,.24-.15c3.62-4.12,7.44-8.08,10.31-12.79.21-.34.08-.89.11-1.34-1.87-5.37-3.31-10.86-4.76-16.34-.55-2.05-1.1-4.11-1.67-6.15-.38-1.37-.78-2.72-1.19-4.08-.62-2-1.28-4-2-6a2.43,2.43,0,0,1,1.66,0c1,.31,1.92,1,2.88.35A1.54,1.54,0,0,0,212,193c-1.58-1.87-3.94-2-6.06-2.74A21.18,21.18,0,0,0,207.17,200Z"/><path class="cls-10" d="M208.86,192.88c1,.31,1.92,1,2.88.35C210.78,193.86,209.89,193.19,208.86,192.88Z"/><path class="cls-10" d="M212.06,209.18c-.55-2.05-1.1-4.11-1.67-6.15C211,205.07,211.51,207.13,212.06,209.18Z"/><path class="cls-10" d="M210.39,203c-.38-1.37-.78-2.72-1.19-4.08C209.61,200.31,210,201.66,210.39,203Z"/><path class="cls-11" d="M134.94,204.76a9.59,9.59,0,0,0-1.16,1.86c-1.37,2.79-1.5,6-1.9,9.15a27,27,0,0,0,1.46,3.34l.09.19a33.15,33.15,0,0,0,2.91,4.55c.44.59.89,1.18,1.37,1.74.81,1,1.68,1.94,2.57,2.87.3.31.57.65.87.95a4.78,4.78,0,0,0,.54.47,2.08,2.08,0,0,0,.38.22l.06,0a2.32,2.32,0,0,0,.87.19h0a7.64,7.64,0,0,1,3.35,2.73,9.84,9.84,0,0,1,.77,1.26l1.4.15a2.16,2.16,0,0,0,1.06-.34.36.36,0,0,0,.1-.28,1.52,1.52,0,0,0-.49-.77c-.19-.21-.4-.41-.62-.61s-.44-.38-.65-.59a2.59,2.59,0,0,1-.8-1.55,29.13,29.13,0,0,1-7-6,27,27,0,0,1-5.38-10.52c0-.88-.07-1.77-.07-2.64a13.18,13.18,0,0,1,.24-2.54,6.42,6.42,0,0,1,3-4.28c1.42-.9.83-2.46,1-3.78s-.73-2.91,1.37-3.34a5.78,5.78,0,0,1-1-3.08,5,5,0,0,1,.06-.77,5.92,5.92,0,0,1,.93-2.31,17,17,0,0,0-1.36-2,3.85,3.85,0,0,0-1.14-.92,5.31,5.31,0,0,1-1.07,2.67C138.61,195,137.55,201.46,134.94,204.76Z"/><path class="cls-11" d="M138.86,189.05a17,17,0,0,1,1.36,2h0A17,17,0,0,0,138.86,189.05Z"/><path class="cls-12" d="M135.52,196.45a41.78,41.78,0,0,1-2.32,6.93c-.26.65-.52,1.3-.77,2-.13.32-.25.65-.37,1s-.3.86-.45,1.3a22,22,0,0,0-1.05,4.79c.25,1.82-.56,3.75.55,5.49.25-.7.51-1.41.77-2.12h0c.4-3.1.53-6.36,1.9-9.15a9.59,9.59,0,0,1,1.16-1.86c2.61-3.3,3.67-9.78,1.71-14l-1.34.86C136.8,193.19,135.87,194.79,135.52,196.45Z"/><path class="cls-12" d="M131.61,207.61a22,22,0,0,0-1.05,4.79h0A22,22,0,0,1,131.61,207.61Z"/><path class="cls-12" d="M132.43,205.33c.25-.65.51-1.3.77-2C132.94,204,132.68,204.68,132.43,205.33Z"/><path class="cls-12" d="M131.88,215.77h0c.4-3.1.53-6.36,1.9-9.15C132.41,209.41,132.28,212.67,131.88,215.77Z"/><path class="cls-4" d="M100,112.22c-1.49-4.87-1.41-9.89-1.16-14.86a9.48,9.48,0,0,0-.23-2.83,6,6,0,0,0-.53-1.34,5.24,5.24,0,0,0-.5-.76,6.25,6.25,0,0,0-.78-.86,8,8,0,0,0-.78-.6h0c.27,8.08,2,16,3,24a1.05,1.05,0,0,1,.24.06.94.94,0,0,1,.22.12A3.83,3.83,0,0,0,100,112.22Z"/><path class="cls-4" d="M96.84,91.57a8,8,0,0,0-.78-.6h0A8,8,0,0,1,96.84,91.57Z"/><path class="cls-4" d="M98.12,93.19a5.24,5.24,0,0,0-.5-.76A5.24,5.24,0,0,1,98.12,93.19Z"/><path class="cls-4" d="M96,57a8.14,8.14,0,0,0-1.32,3.85c-1.48,9.75-.11,19.38,1.3,29C96.75,78.88,94.25,67.93,96,57Z"/><path class="cls-9" d="M241.54,220.13c2.76-.43,5.58.09,8.35-.14a12,12,0,0,0,2.76-.52c-3.5-2.62-7.77-3.44-11.73-5,0,1.82,0,3.64.05,5.46A2.21,2.21,0,0,1,241.54,220.13Z"/><path class="cls-4" d="M101.57,53.68c-2.58,2.18-1.77-2.12-3.51-1.75a8.32,8.32,0,0,0-1.72,3.87,18.46,18.46,0,0,1,3.66.28C103.23,57,102.31,55.3,101.57,53.68Z"/><path class="cls-9" d="M104.43,216.65c-2.78.6-5.16,2.1-7.65,3.36l7.42-.18C104.28,218.77,104.36,217.71,104.43,216.65Z"/><path class="cls-8" d="M219.79,157c-.07-.14-.13-.29-.19-.44a.81.81,0,0,0-.09.53Z"/><path class="cls-9" d="M105.86,215.92l.65-.46C106.1,215.35,105.92,215.55,105.86,215.92Z"/><path class="cls-13" d="M148.42,239.87a12.94,12.94,0,0,0,.17,1.77c.93,5.48-1.85,10-3.52,14.79-.11.31-.2.61-.28.91a11.91,11.91,0,0,0-.36,2.66c1.94,1.19,3.78,2.6,5.74,3.7a17.72,17.72,0,0,0,2,1c5.93,2.35,10.87,6.34,16.42,9.31,1.68.9,2.34-.13,3.06-1.11,1.4-1.93,2.69-3.93,4-5.9a19.5,19.5,0,0,1,10.7-7.82c1.22-.39,2.11-1.71,3.27-2.42.79-.48,1.86-1.46,2.7-.25a2.2,2.2,0,0,1-.38,2.82c-1,1.18-2.29,2.32-2.08,4.15h0a5.37,5.37,0,0,0,2.6-1.57,9.49,9.49,0,0,0,2.91-4.95c.17-1.86-.91-4.32,2.21-4.89.2,0,.47-.58.43-.85a9,9,0,0,1,0-2.49c.33-2.44,1.42-4.75,1.54-7.22-.1-.74,0-1.48-.13-2.23a4.71,4.71,0,0,0-.08-.5,3.59,3.59,0,0,0-.3-.91c-1.34-2.81-.07-4.61,3.09-4.77a20,20,0,0,1,4.31.71c2.76-2.2,3.89-4.68,1.52-7.9-.28-.38-.08-1.12-.1-1.69a2,2,0,0,1-1.18-.4,1.11,1.11,0,0,1-.28-.35c-4.42-2-9.65-2.1-14.34-5.81,4.56-.16,7.64,2.19,11.16,2.56.65.07,1.32.71,1.93.17.81-.73,0-1.53-.2-2.2-1.22-3.52-3.52-5-8-5.06-3.09-.06-6.19,0-9.28-.07-1,0-2.37-.24-2.29-1.51s1.52-1.37,2.47-1.14c2.93.7,5.89.55,8.85.67,2.13.09,3.27-.69,3.47-2.8-.88-2.6-2-4.24-3.59-5.17a9.59,9.59,0,0,0-4.9-1c-2.73,0-5.35,1.11-8.1.72a30.48,30.48,0,0,1-7.95,1.33c.19-.66.22-1,.31-1,2.52-.42,4.6-.77,5-4.27.3-2.52,2.31-4.82,3.46-7.26.57-1.21,1.83-1.4,2.75-1.86,1.9-.93.86,1.52,1.82,1.94s.73,2.31,2.33,2.16a26,26,0,0,0-2-6.86,22.53,22.53,0,0,0-1.11-2.12c-2.06-3.46-4.18-3.84-7.18-1.29-4.77,4.06-9.36,8.36-14.32,12.17-2.95,2.26-5,5.59-8.61,7a2.65,2.65,0,0,1-2.17,2.67c-1.59.27-1-1.46-1.61-2.09-1.89-1.91-2-4.24-1.77-6.7a21.74,21.74,0,0,0-2.56-2.6,15,15,0,0,0-2.11-1.5,11.53,11.53,0,0,0-7.74-1.39h0a5.92,5.92,0,0,0-.93,2.31,5,5,0,0,0-.06.77,5.78,5.78,0,0,0,1,3.08c3.18,1.91,6,3.94,7.66,6.91a12.28,12.28,0,0,1,1.42,6.52c-.26,6.8-.67,13.66.33,20.47a5.83,5.83,0,0,1-.45,2h0a1.52,1.52,0,0,1,.49.77.36.36,0,0,1-.1.28,2.16,2.16,0,0,1-1.06.34C148.52,236.26,148.34,238.09,148.42,239.87Z"/><path class="cls-13" d="M148,192.43a11.53,11.53,0,0,0-7.74-1.39h0A11.53,11.53,0,0,1,148,192.43Z"/><path class="cls-13" d="M148,192.43a15,15,0,0,1,2.11,1.5A15,15,0,0,0,148,192.43Z"/><path class="cls-13" d="M152.63,196.53h0a21.74,21.74,0,0,0-2.56-2.6A21.74,21.74,0,0,1,152.63,196.53Z"/><path class="cls-13" d="M207.91,224.18a2,2,0,0,1-1.18-.4,2,2,0,0,0,1.18.4Z"/><path class="cls-13" d="M139.23,194.12a5,5,0,0,1,.06-.77A5,5,0,0,0,139.23,194.12Z"/><path class="cls-13" d="M149.19,233.08h0a1.52,1.52,0,0,1,.49.77A1.52,1.52,0,0,0,149.19,233.08Z"/><path class="cls-11" d="M218.29,125.2l-1-2.65c-4.39,1.39-8.69,3.13-13.23,3.9-.76.13-1.52.23-2.29.3s-1.55.1-2.34.1c-1.94,0-3.67-.2-4.3-2.51-.19-.68-.52-1.72-1.64-1.24-3.56,1.53-7.22,1.31-11,1-2.87-.2-3.69,2-3.61,4.33s-.19,4.27-2.57,5.42c-2.22,1.08-1.84,3.65-2.41,5.43-1.11,3.45-4.56,3.76-6.21,3.54-3.3-.43-6.87.24-9.84-1-2.36-1-6.22-1.12-6-5.49.1-2-2.74-2.66-3.07-4.35-.86-4.5-5-3.66-7.7-5.06a5.83,5.83,0,0,0-.58-.23c-.78-.24-1.57-.33-1.68-1.37a2.53,2.53,0,0,1,0-.28l-2,.28a5.32,5.32,0,0,1,0,.56c0,.13,0,.25-.06.37s0,.07,0,.1a1.4,1.4,0,0,1-1.09,1.11,3.54,3.54,0,0,1-1.06.06c-3.63-.29-7.28-.42-10.89-.86-1.67-.21-3-1.21-2.77-3.28a2.92,2.92,0,0,1-.86-.71,2.64,2.64,0,0,1-.34-.55,3.17,3.17,0,0,1,.36-3c2.44-3.47-.17-5.21-2.07-7.09a5.94,5.94,0,0,1-1.8-3.38,5.18,5.18,0,0,1,0-1.18c0-.2,0-.39.09-.59a5.87,5.87,0,0,1,2.67-3.57l.12-1.26-3.67-1.47c-.62,3.93-1.16,7.86-1.79,11.78s-1.34,7.83-2.31,11.7c-.29,1.12-.69,1.9-1.91,2.07h0l-.92,6.86c.26,2.89.53,5.77.79,8.65h0c1.5,2.7,3,5.42,4.5,8.09a44.7,44.7,0,0,0,12.87,14c2.13,1.52,4,1.83,6.48.2,5.93-3.94,10.95-8.9,16.16-13.66-.67-1.72-.46-1.93,2.05-2.06,0-1.34-.37-3,1.46-3.31,1.34-.2,3.23-1.15,4,1.13h0a18.43,18.43,0,0,0,9.19.84,9.59,9.59,0,0,0,2-.65c6.35-2.91,11.38.14,16.59,2.51,6.34,2.88,12.51,6.14,18.74,9.27,1,.52,1.89.68,2.78-.26s1.62-1.75,2.37-2.66,1.47-1.83,2.14-2.78a43.77,43.77,0,0,0,7.72-19.2Z"/><path class="cls-11" d="M156.77,146.09h0a18.43,18.43,0,0,0,9.19.84A18.43,18.43,0,0,1,156.77,146.09Z"/><path class="cls-11" d="M108.45,133h0c.26,2.89.53,5.77.79,8.65h0C109,138.8,108.71,135.92,108.45,133Z"/><path class="cls-11" d="M218.26,133.16l0-8h0Z"/><path class="cls-14" d="M190.61,158.58a2.75,2.75,0,0,1-2.11.72,4.24,4.24,0,0,1-1-.24c-.79-.26-1.56-.68-2.3-.87-6-1.5-11.66-.82-17.51.71-6.12,1.6-12.46,2.32-18.45,4.5h0a1,1,0,0,1-.12.19.4.4,0,0,1-.13.13.15.15,0,0,1-.12,0c-.12,0-.22-.15-.33-.4,0-1-.61-1.33-1.49-1.4-3,2.88-4.53,5.78-3.65,9.28a12,12,0,0,0,1.74,3.72c2.71,4.07,4.25,5.27,8.79,3.21,3.85-1.73,7.57-3.75,11.35-5.64-1.69-1.54-4.06-1.12-6.2-2,1.09-1.37,2.44-.91,3.55-.86a31.4,31.4,0,0,0,16.35-4c.57-.29,1.16-1.13,1.72-.29s-.05,1.6-.82,2c-2.49,1.13-4.63,3-7.38,3.58-.77.16-1.67.05-1.77,1.18h0a46.43,46.43,0,0,1,12.44,1.13l1.76.35a5,5,0,0,0,5.61-2.38,31,31,0,0,0,3.49-9.95,2,2,0,0,0-.77-2.41,3.54,3.54,0,0,0-1.71-.39Z"/><path class="cls-14" d="M170.68,172.1h0a46.43,46.43,0,0,1,12.44,1.13A46.43,46.43,0,0,0,170.68,172.1Z"/><path class="cls-11" d="M147,162c.88.07,1.47.44,1.49,1.4l.7,0h0a12,12,0,0,1,8.49-5,80.33,80.33,0,0,0,13.21-3.15c5.16-1.63,9.86-.32,14.6,1.43l5.1,1.88.9-.13c-1.13-.81-2.26-1.56-3.41-2.24a38.42,38.42,0,0,0-3.47-1.82,29.88,29.88,0,0,0-22.68-1c-1.42.47-2.85.89-4.25,1.36C153.5,156.1,149.59,157.8,147,162Z"/><path class="cls-11" d="M191.4,193.75c-1.6.15-1.34-1.72-2.33-2.16s.08-2.87-1.82-1.94c-.92.46-2.18.65-2.75,1.86-1.15,2.44-3.16,4.74-3.46,7.26-.42,3.5-2.5,3.85-5,4.27-.09,0-.12.38-.31,1a30.48,30.48,0,0,0,7.95-1.33c-.37-2.59,1.18-4.29,3.16-5.2s2.38,1.31,3.39,2.45,2.54,1.34,3.06-.72a4.55,4.55,0,0,0,.1-.66,5.3,5.3,0,0,0,0-.69c0-.46,0-.93,0-1.39h0a1.2,1.2,0,0,1-1.1-.53C191.84,195.34,192.07,194.23,191.4,193.75Z"/><path class="cls-11" d="M193.38,197.93c0-.46,0-.93,0-1.39h0C193.34,197,193.37,197.47,193.38,197.93Z"/><path class="cls-8" d="M172.45,170.92c2.75-.59,4.89-2.45,7.38-3.58.77-.35,1.37-1.12.82-2s-1.15,0-1.72.29a31.4,31.4,0,0,1-16.35,4c-1.11-.05-2.46-.51-3.55.86,2.14.91,4.51.49,6.2,2l5.45-.44C170.78,171,171.68,171.08,172.45,170.92Z"/><path class="cls-8" d="M165.23,172.54l5.45-.44h0Z"/><path class="cls-11" d="M152.63,196.53c-.27,2.46-.12,4.79,1.77,6.7.63.63,0,2.36,1.61,2.09a2.65,2.65,0,0,0,2.17-2.67A35.21,35.21,0,0,0,156,199a8.47,8.47,0,0,0-.67-.79,7.36,7.36,0,0,0-.77-.7,6.25,6.25,0,0,0-2-1Z"/><path class="cls-11" d="M155.36,198.24a8.47,8.47,0,0,1,.67.79A8.47,8.47,0,0,0,155.36,198.24Z"/><path class="cls-11" d="M152.63,196.53a6.25,6.25,0,0,1,2,1,6.25,6.25,0,0,0-2-1Z"/><path class="cls-13" d="M156.77,146.09c-.78-2.28-2.67-1.33-4-1.13-1.83.27-1.47,2-1.46,3.31h0l.62-.42C153.38,146.87,154.85,145.92,156.77,146.09Z"/><path class="cls-13" d="M151.93,147.86c1.45-1,2.92-1.94,4.84-1.77h0C154.85,145.92,153.38,146.87,151.93,147.86Z"/><polygon class="cls-13" points="151.31 148.27 151.31 148.28 151.31 148.28 151.31 148.27 151.31 148.27"/><path class="cls-13" d="M151.31,148.28h0c-2.51.13-2.72.34-2.05,2.06a5.16,5.16,0,0,0,.63-.4A5,5,0,0,0,151.31,148.28Z"/><polygon class="cls-13" points="151.31 148.27 151.31 148.27 151.3 148.28 151.31 148.27"/><polygon class="cls-13" points="151.31 148.28 151.31 148.27 151.3 148.28 151.31 148.28"/><polygon class="cls-13" points="151.31 148.27 151.3 148.27 151.3 148.28 151.31 148.27"/><path class="cls-10" d="M98.16,314.64c-2.11-8.75-4-17.55-6.42-26.23-.71-2.58-2.15-4.89-2-7.77a1.07,1.07,0,0,0-.51-1.13,7.28,7.28,0,0,0-2.12-.21c-.17,3.67.5,7.32.7,11a27.12,27.12,0,0,1-.13,5c-.88,6.27-1.12,12.62-2.37,18.84Q92,317.9,99,321.07c0-.53-.05-1.05-.1-1.58A31.11,31.11,0,0,0,98.16,314.64Z"/><path class="cls-9" d="M119.87,319.18c-3.53-1.66-7.13-3.14-10.7-4.7-2.28,2.61-4.15,5.53-6.2,8.31a167.65,167.65,0,0,0,17.6,6.25c.47-.92.93-1.83,1.43-2.74C124.49,321.76,124.49,321.37,119.87,319.18Z"/><path class="cls-15" d="M108.45,133l.92-6.86q.57-8,1.12-15.88c.38-5.3.76-10.59,1.18-15.88.35-4.45.43-8.93,1.07-13.35.12-.8.25-1.6.41-2.4a34.53,34.53,0,0,1,.9-3.57,10.81,10.81,0,0,1,1.32-3.1,7.49,7.49,0,0,1,.95-1.2c1.75-1.82,4.36-2.69,8.07-2.7,10.56,0,21.14-.16,31.69.19a97.33,97.33,0,0,0,38.76-6.46c2.67-1,4-.65,4.67,2.19.42,1.89,1.09,3.73,1.64,5.6,4.42,11.8,7.88,23.91,11.5,36,1,3.38,2.58,6.62,2.76,10.23l.19.69.5.73,1,2.84,1.31-.08c.6-4.57-.17-9.34,2-13.69a8.28,8.28,0,0,0-3.19-2.46c-2.78-1-3.34-3.49-3.37-6.06a8,8,0,0,0,0-2.35c-3-10.25-3.59-21-7.14-31.18-.63-1.79-.65-3.84-1.59-5.56-.78-1.42-1.73-3-3.58-2.8a91.8,91.8,0,0,0-10.42,1.78c-5.32,1.29-10.49,3.48-15.87,4.19A122.21,122.21,0,0,1,138,61c-7.39-1.3-14.57-3.92-22.22-3.83-7.06.08-9.75,2.61-10,9.87-.2,5.6-.38,11.22-.54,16.81-.29,10.29.56,20.6.57,30.91,0,.61.16,1.35.2,2.1a2.75,2.75,0,0,1-1.83,3.17,40.7,40.7,0,0,1,2.47,9.6c.09.61,0,1.41.12,2.1a2,2,0,0,0,.17.48,1.2,1.2,0,0,0,.31.4,1.78,1.78,0,0,0,.84.4l.4.05Zm108.22-26.6s.07,0,.12,0a2.51,2.51,0,0,1,.43.22h0a3.86,3.86,0,0,1-.17.45s-.05.07-.09.08-.36-.13-.55-.21C216.49,106.78,216.53,106.48,216.67,106.43Z"/><path class="cls-15" d="M108.05,133a1.78,1.78,0,0,1-.84-.4A1.78,1.78,0,0,0,108.05,133Z"/><path class="cls-15" d="M107.21,132.58a1.2,1.2,0,0,1-.31-.4A1.2,1.2,0,0,0,107.21,132.58Z"/><path class="cls-15" d="M106.9,132.18a2,2,0,0,1-.17-.48A2,2,0,0,0,106.9,132.18Z"/><path class="cls-15" d="M108.45,133l-.4-.05.4.05Z"/><path class="cls-15" d="M108.45,133h0l.92-6.86h0Z"/><path class="cls-9" d="M200.89,246.69a2.93,2.93,0,0,1,2.18,2.16h0a10.57,10.57,0,0,1,.28,1.86c0,.24,0,.49.07.72s0,.24,0,.35c1,6.14,1.64,12.35,2.42,18.53h0a28.17,28.17,0,0,0,4.14-.09l.39-.07.1,0c1.29-.3,1.74-1,1.71-2.5h0c0-.12,0-.24,0-.36s-.05-.53-.08-.82c-.11-.89-.31-2-.56-3.28-.48-2.56-.66-5.18-.92-7.78a5.82,5.82,0,0,1,.29-2.24c.67,5.76,2.38,11.34,2.43,17.16l.58.2a65,65,0,0,1,6.54-.11c2.64.22,3.45-.79,3.26-3.34-.28-3.71-.51-7.42-.74-11.13l-.66-11.14h0l-10.43-.11-4,.09c-1.09,0-2,.9-3.2,1a3,3,0,0,1-.92-.06c1.07-1.56,2.56-2,4-2.4a75.31,75.31,0,0,1,11.68-6.25h0a49.36,49.36,0,0,0,2.12-6c.42-1.92.45-3.21,0-4.07a2,2,0,0,0-.24-.33c-.72-.84-2.14-1.13-4.46-1.15h0c0,.45.1,1-.11,1.34-2.87,4.71-6.69,8.67-10.31,12.79a.65.65,0,0,1-.24.15l-.35.07c-.23,0-.49,0-.7.08a5.05,5.05,0,0,1-1.27,2.18C202.61,243.49,201,244.62,200.89,246.69Z"/><path class="cls-9" d="M219.44,237.08a51,51,0,0,0,2.11-6,49.36,49.36,0,0,1-2.12,6Z"/><path class="cls-9" d="M221.28,226.67c-.72-.84-2.14-1.13-4.46-1.15h0C219.14,225.54,220.56,225.83,221.28,226.67Z"/><path class="cls-9" d="M223,255.93l-.66-11.14h0Z"/><path class="cls-9" d="M205.11,240h0c.21,0,.47,0,.7-.08C205.58,239.9,205.32,239.91,205.11,240Z"/><path class="cls-7" d="M225.13,295.12l.21.06.34.1,16.4-.1,4.36,0q-.7-12.36-1.42-24.72h0l0,0h0c-4.4,0-8.79,0-13.19,0l-4.39-.09c-2.47-.07-3.11.82-3.09,3.18,0,1.81.09,3.61.2,5.41C224.85,284.3,225.41,289.69,225.13,295.12Z"/><path class="cls-7" d="M245,270.41h0c-4.4,0-8.79,0-13.19,0C236.2,270.44,240.59,270.39,245,270.41Z"/><path class="cls-9" d="M245,270.44h13.24q2.36-7.36,4.7-14.73a9.77,9.77,0,0,1-.73-2,4.7,4.7,0,0,1-.12-.51,1,1,0,0,1,0-.17c-.57-2.7-.38-5.55-1.16-8.21h0l-17.82,0h0q.94,12.75,1.9,25.52Z"/><polygon class="cls-9" points="245.02 270.44 245.02 270.44 245.02 270.44 245.02 270.44"/><path class="cls-9" d="M262.07,253.07c-.57-2.7-.38-5.55-1.16-8.21h0C261.69,247.52,261.5,250.37,262.07,253.07Z"/><path class="cls-9" d="M262.11,253.24a4.7,4.7,0,0,0,.12.51A4.7,4.7,0,0,1,262.11,253.24Z"/><path class="cls-9" d="M260.91,244.86l-17.82,0h0Z"/><polygon class="cls-9" points="244.99 270.41 245.02 270.44 245.02 270.44 245.02 270.44 244.99 270.41"/><polygon class="cls-12" points="215.38 295.22 215.38 295.22 215.38 295.22 215.38 295.22"/><path class="cls-12" d="M213.37,270.31c-1.78,2.88-.24,5.78,0,8.63.13,1.36.27,2.72.43,4.08.47,4.07,1,8.13,1.54,12.2q1.38,12,2.77,24.07c.31,2.86.62,5.71.94,8.57.83-.27,1.67-.53,2.5-.81-.36-2.52-.61-5.05-.73-7.59h0c-1.38-4.77-1.8-9.7-2.48-14.58-.23-1.63-.49-3.26-.82-4.87-.24-1.16-.36-2.35-.5-3.54,0-.4-.09-.79-.14-1.19h0q-.72-6-1.45-12.1-.76-6.33-1.52-12.66h0Z"/><path class="cls-12" d="M215.47,283.18q-.76-6.33-1.52-12.66h0Q214.72,276.85,215.47,283.18Z"/><path class="cls-9" d="M217.06,296.47c.14,1.19.26,2.38.5,3.54.33,1.61.59,3.24.82,4.87.68,4.88,1.1,9.81,2.48,14.58l6.29-.13h0q-.75-12-1.48-24.05h0l-.34-.1-.21-.06-8.21.16h0C217,295.68,217,296.07,217.06,296.47Z"/><path class="cls-9" d="M225.13,295.12l-8.21.16h0Z"/><path class="cls-9" d="M225.34,295.18l.34.1h0Z"/><path class="cls-9" d="M218.38,304.88c.68,4.88,1.1,9.81,2.48,14.58h0C219.48,314.69,219.06,309.76,218.38,304.88Z"/><path class="cls-9" d="M216.92,295.28c.05.4.1.79.14,1.19,0-.4-.09-.79-.14-1.19Z"/><path class="cls-7" d="M243,244.75h0l-1.41-24.62h0A2.21,2.21,0,0,0,241,220c-1.83,0-3.66.06-5.5,0s-2.39.85-1.83,2.6c2.13,6.75,4.27,13.5,6.3,20.28q.1.31.21.57a2.65,2.65,0,0,0,.54.84A2.28,2.28,0,0,0,243,244.75Z"/><path class="cls-7" d="M243,244.75a2.28,2.28,0,0,1-2.26-.47,2.28,2.28,0,0,0,2.26.47Z"/><path class="cls-7" d="M243,244.75h0l-1.41-24.62h0Z"/><path class="cls-7" d="M222.31,242.07l0,2.72h16.48c0-.16,0-.33.05-.5l-17.21-7a5.32,5.32,0,0,0-.5,1.9A3.68,3.68,0,0,0,222.31,242.07Z"/><polygon class="cls-7" points="222.34 244.79 222.34 244.79 222.34 244.79 222.35 244.79 222.35 244.79 222.35 244.79 222.34 244.79"/><path class="cls-10" d="M207.75,243.34c0,.48.07.95.11,1.43h0l4-.09c.12-.76.09-1.92,1.07-1.79,3.19.41,6.08-2.31,9.33-.82a3.68,3.68,0,0,1-1.15-2.9,5.32,5.32,0,0,1,.5-1.9l-2.23-.18A75.31,75.31,0,0,0,207.75,243.34Z"/><path class="cls-10" d="M207.86,244.77h0l4-.09-4,.09Z"/><path class="cls-10" d="M221.16,239.17a3.68,3.68,0,0,0,1.15,2.9h0A3.68,3.68,0,0,1,221.16,239.17Z"/><path class="cls-9" d="M76,270.36h2.24l5.3,0c.13-1.12-1.18-2.3-1.4-3.27a1,1,0,0,1,.61-1.17c2-1.11,2.92,1.78,4.32,2.9.38.31.49,1,.73,1.47h0l1.27.18,13.15-.1h0c0-.24,0-.47,0-.71q.34-12.39.68-24.8h0L78,244.62a3.42,3.42,0,0,1-.6.18q0,1.6,0,3.21c0,1.06-.05,2.13-.1,3.2-.11,2.21-.27,4.43-.45,6.64-.33,4.16-.71,8.33-.84,12.51Z"/><path class="cls-9" d="M103,244.82q-.33,12.41-.68,24.8.34-12.39.68-24.8Z"/><polygon class="cls-7" points="127.81 270.36 127.81 270.36 127.81 270.36 127.81 270.36"/><path class="cls-7" d="M102.26,270.33a123,123,0,0,1-.32,12.44c-.1,1.38-.22,2.76-.35,4.14a6.46,6.46,0,0,0,.11,3.18,6.66,6.66,0,0,0,.37.91,14.48,14.48,0,0,0,3.66,4.2l12.42,0a1.66,1.66,0,0,1,.32,0,1.37,1.37,0,0,1,.36.11,1.45,1.45,0,0,1,.35.24,1.61,1.61,0,0,1,.39,1,3.83,3.83,0,0,0,2-1.87,4.79,4.79,0,0,1,1.42-1.64,12.22,12.22,0,0,1,1.35-4.8,8.53,8.53,0,0,1,1.93-2.35,2.32,2.32,0,0,0,.63-.84,2.88,2.88,0,0,0,.19-.67,7.33,7.33,0,0,0,0-1,13.34,13.34,0,0,1-.88-4.59,10.21,10.21,0,0,1,1.06-4.51c.67-1.34.36-2.67.52-4l-.52-.05h-.13l-24.9,0Z"/><polygon class="cls-7" points="102.26 270.33 102.26 270.33 102.26 270.33 102.26 270.33 102.26 270.33"/><path class="cls-9" d="M127.29,270.31l.52.05-.06-.07c-.11-5,1-9.9,1.33-14.88,0-.71.07-1.42.07-2.14v17.11l5.64.14c2.69-2.33,4.73-4.94,5.31-8.35a12.67,12.67,0,0,0,.16-2.5,32.08,32.08,0,0,1,.46-8.23c.32-1.42.81-2.05,2.25-1.8h0v-.5c0-1.15-.34-2.1-1.87-2.24-.9-.34-.93-1.05-.9-1.79,0-.1,0-.2,0-.31a8.07,8.07,0,0,1-3-2.25c-1.34-1.55-2.31-3.45-3.69-5a37.18,37.18,0,0,1-3-4.46h0a10.3,10.3,0,0,1-2.53-3.22,7.94,7.94,0,0,0-.83-1.08c-1.67,1.32-3.58.59-5.36.6a4.39,4.39,0,0,0-1.2.15c-.17,2.87,1.69,5.08,2.64,7.58a7.54,7.54,0,0,1,.55,2.64,5.08,5.08,0,0,0,.85.4c1.45.57,3.11.78,4,2.37,3.48.78,6.22,2.88,9,4.87.65.46,1.31.92,2,1.35l-11.84-2.61c0,3.55-.22,7.09-.43,10.63a106.51,106.51,0,0,0-.21,13.49h.13Zm7.2-9.64c2.16-.08,3.09,1.09,3.58,3-.48,1.75-1.55,3.11-3.51,3-1.74-.07-3.63-.75-3.68-2.84S132.3,260.75,134.49,260.67Z"/><path class="cls-9" d="M127.37,256.81a106.51,106.51,0,0,0-.21,13.49h0A106.51,106.51,0,0,1,127.37,256.81Z"/><path class="cls-9" d="M123.24,237.16a7.54,7.54,0,0,1,.55,2.64h0A7.54,7.54,0,0,0,123.24,237.16Z"/><path class="cls-9" d="M127.81,270.36l-.52-.05.52.05Z"/><path class="cls-7" d="M104.45,243.44c1.75-5.54,3.69-11,5.27-16.6.79-2.79,1.24-4.45,1-5.44a1.84,1.84,0,0,0-.16-.41,1.31,1.31,0,0,0-.26-.32,1.69,1.69,0,0,0-.49-.3,2.41,2.41,0,0,0-.43-.14l-.49-.1-.1,0a34.53,34.53,0,0,0-4.45-.12h0c-1.53,8.17,0,16.49-1.24,24.68C104,244.74,104.22,244.15,104.45,243.44Z"/><path class="cls-7" d="M108.9,220.13l.49.1Z"/><path class="cls-7" d="M110.31,220.67a1.31,1.31,0,0,1,.26.32A1.31,1.31,0,0,0,110.31,220.67Z"/><path class="cls-7" d="M108.8,220.11a34.53,34.53,0,0,0-4.45-.12h0A34.53,34.53,0,0,1,108.8,220.11Z"/><path class="cls-7" d="M109.82,220.37a1.69,1.69,0,0,1,.49.3A1.69,1.69,0,0,0,109.82,220.37Z"/><path class="cls-12" d="M128.61,242.57c-.86-1.59-2.52-1.8-4-2.37a5.08,5.08,0,0,1-.85-.4h0L107.42,246l.25.85c6.68-1,13.3-3.11,20.13-1.35A4.76,4.76,0,0,1,128.61,242.57Z"/><path class="cls-12" d="M124.64,240.2a5.08,5.08,0,0,1-.85-.4h0A5.08,5.08,0,0,0,124.64,240.2Z"/><path class="cls-10" d="M128,229.91a10.3,10.3,0,0,0,2.53,3.22,1.81,1.81,0,0,0,.9-.29,1.42,1.42,0,0,0,.5-.67,2.91,2.91,0,0,0,.15-.63c-2.65-4.38-1.64-9-1-13.64h0c-1.11-1.75-.3-3.68-.55-5.5h0c-1.68,1.17-1.75,3.3-2.12,4.87-.17.7-.36,1.4-.57,2.11l-.45,1.61c-.09.31-.17.63-.25.95s-.13.56-.19.84a11.05,11.05,0,0,0,.18,6.05h0A7.94,7.94,0,0,1,128,229.91Z"/><path class="cls-10" d="M127,222.78a11,11,0,0,0,.18,6.05h0A11.05,11.05,0,0,1,127,222.78Z"/><path class="cls-10" d="M127.17,221.94c.08-.32.16-.64.25-.95C127.33,221.3,127.25,221.62,127.17,221.94Z"/><path class="cls-10" d="M131.11,217.9h0c-1.11-1.74-.3-3.67-.55-5.49h0C130.81,214.22,130,216.15,131.11,217.9Z"/><path class="cls-10" d="M128,229.91a10.3,10.3,0,0,0,2.53,3.22h0A10.3,10.3,0,0,1,128,229.91Z"/><path class="cls-10" d="M139.64,248.79c-.67-.43-1.33-.89-2-1.35-2.83-2-5.57-4.09-9-4.87a4.76,4.76,0,0,0-.81,2.91v.7Z"/><path class="cls-7" d="M289.93,283.24c-.47-4.26-1.05-8.51-1.5-12.77h0c-6.64,0-13.28.09-19.91-.19-3.27-.13-4.57.77-4.16,4.16.82,6.89,1.45,13.8,2.16,20.7h11A170.72,170.72,0,0,0,289.93,283.24Z"/><path class="cls-7" d="M288.43,270.47c.45,4.26,1,8.51,1.5,12.77h0c-.47-4.26-1.05-8.51-1.5-12.77Z"/><path class="cls-9" d="M259.08,308.92q4.2-2.73,8.23-5.69c-.24-2.66-.51-5.32-.93-8h0l-5.45-.12a130.61,130.61,0,0,0-1.85,13.76Z"/><path class="cls-9" d="M266.38,295.27h0c.42,2.63.69,5.29.93,8h0c-.23-2.66-.51-5.32-.93-8Z"/><path class="cls-12" d="M258.26,270.45c.05,5.06-2.22,9.71-2.46,14.76a28.49,28.49,0,0,1-.47,3.78c-.4,2.09-.94,4.17-1.34,6.26q-1.47,9.28-2.94,18.56,4.08-2.34,8-4.89h0a130.61,130.61,0,0,1,1.85-13.76c.05-2.06,0-4.13.16-6.18.84-10,1.76-20,2.6-30.05,0-.14,0-.28,0-.42a7.92,7.92,0,0,0,0-.85s0,0,0-.08a3.06,3.06,0,0,0-.09-.74,2.25,2.25,0,0,0-.72-1.11Q260.61,263.08,258.26,270.45Z"/><path class="cls-12" d="M263.78,257.65a7.92,7.92,0,0,1,0,.85A7.92,7.92,0,0,0,263.78,257.65Z"/><path class="cls-12" d="M263.68,256.83a3.06,3.06,0,0,1,.09.74A3.06,3.06,0,0,0,263.68,256.83Z"/><path class="cls-16" d="M207.91,224.18h0c0,.57-.18,1.31.1,1.69,2.37,3.22,1.24,5.7-1.52,7.9-.87,3.85-3.92,5.74-6.89,7.7h0c-.12,2.47-1.21,4.78-1.54,7.22a9,9,0,0,0,0,2.49c0,.27-.23.82-.43.85-3.12.57-2,3-2.21,4.89a9.49,9.49,0,0,1-2.91,4.95,5.37,5.37,0,0,1-2.6,1.57,4.16,4.16,0,0,1-.77,1.66,5.4,5.4,0,0,1-.69.74,6.21,6.21,0,0,1-1.3.88c-2.85,1.43-4,4.55-6.45,6.08a10.63,10.63,0,0,0-1.16.87c-2.58,2.21-4.58,5.5-8.73,5,3.75,1.73,2.95,4,1.78,6.34-.27.54-.56,1.08-.82,1.62-1.56,3.29-3,6.62-4.57,9.93l-.73,1.5L161,309.65h0a75.65,75.65,0,0,1-4.28,11.13c-.66,1.45-1.33,2.89-2,4.35-.32.72-.64,1.45-.95,2.19-.18.44-.34.89-.5,1.35a9.71,9.71,0,0,1-2,3.85,3.73,3.73,0,0,1-.43,2.44c2.12.21,4.25.37,6.39.51,1.2-3.08,2.41-6.15,3.67-9.2,1.71-4.16,3.19-8.73,4.63-13.09s3.53-9.07,5.51-13.54c2.56-5.77,4.6-11.79,7.26-17.52,1.54-3.32,4.92-5.28,7.35-8,3.57-4,8-7.19,11.52-12.64.63,5.88.94,10.85,1.72,15.75,1.49,9.34,1.63,18.83,3.18,28.18,1.14,6.85,1.28,13.86,2.35,20.73.29,1.82.53,3.66.76,5.49,1.58-.36,3.16-.74,4.72-1.14-1-9.44-2-18.87-3-28.31-.26-2.5-.37-5-.55-7.53a3.26,3.26,0,0,1-.56-2.54c0-.13,0-.26,0-.38q-.6-4.87-1.22-9.75c-.08-1.13-.15-2.25-.23-3.38h0c-.09-.19-.17-.38-.25-.57l-1-9.08q-1.38-10-2.77-20a2.52,2.52,0,0,1,.55-2.26h0c.1-2.07,1.72-3.2,3-4.56a5.05,5.05,0,0,0,1.27-2.18c1.92-2.93,3.65-6,5.79-8.77a13.38,13.38,0,0,0,1.75-2.91c.13-.31.25-.63.35-1a10.37,10.37,0,0,0-.93-8.15,2.89,2.89,0,0,0-1,.72C209.8,221.16,209.59,223.28,207.91,224.18Z"/><path class="cls-16" d="M207.91,224.18c1.68-.9,1.89-3,3.12-4.29-1.23,1.27-1.44,3.39-3.12,4.29Z"/><path class="cls-16" d="M213,227.32c-.1.32-.22.64-.35,1C212.78,228,212.9,227.64,213,227.32Z"/><path class="cls-16" d="M189.9,263.44h0a5.37,5.37,0,0,0,2.6-1.57A5.37,5.37,0,0,1,189.9,263.44Z"/><path class="cls-16" d="M199.6,241.47h0c-.12,2.47-1.21,4.78-1.54,7.22.33-2.44,1.42-4.75,1.54-7.22Z"/><path class="cls-16" d="M200.89,246.69h0c.1-2.07,1.72-3.2,3-4.56C202.61,243.49,201,244.62,200.89,246.69Z"/><path class="cls-11" d="M196.78,211c-3-.12-5.92,0-8.85-.67-1-.23-2.38-.18-2.47,1.14s1.31,1.48,2.29,1.51c3.09.1,6.19,0,9.28.07,4.45.09,6.75,1.54,8,5.06.23.67,1,1.47.2,2.2-.61.54-1.28-.1-1.93-.17-3.52-.37-6.6-2.72-11.16-2.56,4.69,3.71,9.92,3.78,14.34,5.81a6.48,6.48,0,0,1,1.7-5.35c.84-1,1.72-2.64.86-3.38-1-.88-2-1.91-2.93-2.89-1.62-1.64-3.34-3.14-5.83-3.57C200.05,210.35,198.91,211.13,196.78,211Z"/><path class="cls-5" d="M218.37,120l-1.31.08a.91.91,0,0,1-.28.56h0l.51,1.93h0l1,2.65h0a3.77,3.77,0,0,0,.49-1.3A13.46,13.46,0,0,0,218.37,120Z"/><path class="cls-5" d="M217.29,122.55h0l1,2.65h0Z"/><path class="cls-6" d="M76,270.36c.13-4.18.51-8.35.84-12.51.18-2.21.34-4.43.45-6.64,0-1.07.08-2.14.1-3.2s0-2.14,0-3.21h0l-23.19-.13-1.05,25.54Z"/><path class="cls-6" d="M77.43,244.8h0q0,1.6,0,3.21Q77.46,246.41,77.43,244.8Z"/><path class="cls-6" d="M76.88,257.85c-.33,4.16-.71,8.33-.84,12.51h0C76.17,266.18,76.55,262,76.88,257.85Z"/><path class="cls-7" d="M74.72,294.54h0a115.51,115.51,0,0,1,.74-15.11c.27-3,.52-6,.58-9.06h0l-22.85-.15-.56.16h0c-.06,1.56-.13,3.13-.19,4.69-.2,4.69-.39,9.38-.52,14.07v.18c1.86,1.78,3.77,3.51,5.71,5.21Z"/><path class="cls-7" d="M52.63,270.37h0l.56-.16-.56.16Z"/><polygon class="cls-7" points="76.04 270.36 76.04 270.36 76.04 270.36 76.04 270.36 76.04 270.36 76.04 270.36 76.04 270.36"/><path class="cls-6" d="M74.52,295.71c.07-.39.14-.78.2-1.17l-17.09,0a168.93,168.93,0,0,0,16,12.37c.12-2.55.23-5.09.36-7.64A33.08,33.08,0,0,1,74.52,295.71Z"/><path class="cls-6" d="M74.72,294.54l-17.09,0h0l17.09,0Z"/><path class="cls-16" d="M132.07,231.54c3.84,3.73,6,8.52,8.17,13.27.85.46.67,1.35.87,2.09h0c1.52.14,1.84,1.09,1.86,2.24v.5q0,5.52.11,11a1.39,1.39,0,0,0,1.34-.68,11.91,11.91,0,0,1,.36-2.66c.08-.3.17-.6.28-.91,1.67-4.79,4.45-9.31,3.52-14.79a12.94,12.94,0,0,1-.17-1.77c-.08-1.78.1-3.61.1-5.4l-1.4-.15c-3.49.86-4.6-.74-4.12-4a2.32,2.32,0,0,1-.87-.19l-.06,0a2.08,2.08,0,0,1-.38-.22,4.78,4.78,0,0,1-.54-.47c-.3-.3-.57-.64-.87-.95-.89-.93-1.76-1.89-2.57-2.87-.48-.56-.93-1.15-1.37-1.74a33.15,33.15,0,0,1-2.91-4.55l-.09-.19a27,27,0,0,1-1.46-3.34c-.26.71-.52,1.42-.77,2.13C130.43,222.51,129.42,227.16,132.07,231.54Z"/><path class="cls-16" d="M133.34,219.11l.09.19Z"/><path class="cls-16" d="M136.34,223.85c.44.59.89,1.18,1.37,1.74C137.23,225,136.78,224.44,136.34,223.85Z"/><path class="cls-16" d="M141.69,229.88a2.08,2.08,0,0,0,.38.22A2.08,2.08,0,0,1,141.69,229.88Z"/><path class="cls-16" d="M143,230.33a2.32,2.32,0,0,1-.87-.19,2.32,2.32,0,0,0,.87.19Z"/><path class="cls-16" d="M141.12,246.9h0c1.53.14,1.85,1.09,1.87,2.24C143,248,142.64,247,141.12,246.9Z"/><path class="cls-16" d="M143,249.14v.5h0Z"/><path class="cls-14" d="M147.79,228.5c-.74-6-.21-12.15-1.25-18.18-.35-2.08-1.9-2.67-3.07-3.78a1,1,0,0,0-1.67.38c-.85,3.91-4.66,4.66-7.1,6.86a27,27,0,0,0,5.38,10.52,29.13,29.13,0,0,0,7,6A1.85,1.85,0,0,0,147.79,228.5Z"/><path class="cls-8" d="M149.19,233.08a5.83,5.83,0,0,0,.45-2c-1-6.81-.59-13.67-.33-20.47a12.28,12.28,0,0,0-1.42-6.52c-1.63-3-4.48-5-7.66-6.91-2.1.43-1.21,2.12-1.37,3.34s.41,2.88-1,3.78a6.42,6.42,0,0,0-3,4.28,13.18,13.18,0,0,0-.24,2.54c0,.87,0,1.76.07,2.64,2.44-2.2,6.25-2.95,7.1-6.86a1,1,0,0,1,1.67-.38c1.17,1.11,2.72,1.7,3.07,3.78,1,6,.51,12.14,1.25,18.18a1.85,1.85,0,0,1-.67,1.83,2.59,2.59,0,0,0,.8,1.55c.21.21.43.4.65.59S149,232.87,149.19,233.08Z"/><path class="cls-8" d="M134.63,211.14a13.18,13.18,0,0,1,.24-2.54A13.18,13.18,0,0,0,134.63,211.14Z"/><path class="cls-8" d="M148.57,232.47c-.22-.19-.44-.38-.65-.59C148.13,232.09,148.35,232.28,148.57,232.47Z"/><path class="cls-8" d="M148.57,232.47c.22.2.43.4.62.61h0C149,232.87,148.79,232.67,148.57,232.47Z"/><path class="cls-13" d="M147.12,234.32a9.84,9.84,0,0,0-.77-1.26,7.64,7.64,0,0,0-3.35-2.73h0C142.52,233.58,143.63,235.18,147.12,234.32Z"/><polygon class="cls-13" points="143 230.33 143 230.33 143 230.33 143 230.33"/><path class="cls-11" d="M143.09,260.68l-.09,1.46c0,.4-.05.8-.07,1.2a4.93,4.93,0,0,0,.43,1,4.08,4.08,0,0,0,1.42,1.47,4.66,4.66,0,0,0,1,.46,105.63,105.63,0,0,1,15.31,7.07,91.13,91.13,0,0,0,9.73,5.38c4.15.46,6.15-2.83,8.73-5a10.63,10.63,0,0,1,1.16-.87c2.41-1.53,3.6-4.65,6.45-6.08a6.21,6.21,0,0,0,1.3-.88,5.4,5.4,0,0,0,.69-.74,4.16,4.16,0,0,0,.77-1.66c-.21-1.83,1-3,2.08-4.15a2.2,2.2,0,0,0,.38-2.82c-.84-1.21-1.91-.23-2.7.25-1.16.71-2,2-3.27,2.42a19.5,19.5,0,0,0-10.7,7.82c-1.33,2-2.62,4-4,5.9-.72,1-1.38,2-3.06,1.11-5.55-3-10.49-7-16.42-9.31a17.72,17.72,0,0,1-2-1c-2-1.1-3.8-2.51-5.74-3.7A1.39,1.39,0,0,1,143.09,260.68Z"/><path class="cls-11" d="M188.44,265.84a5.4,5.4,0,0,0,.69-.74A5.4,5.4,0,0,1,188.44,265.84Z"/><path class="cls-11" d="M206.49,233.77a20,20,0,0,0-4.31-.71c-3.16.16-4.43,2-3.09,4.77a3.59,3.59,0,0,1,.3.91,4.71,4.71,0,0,1,.08.5c.08.75,0,1.49.13,2.23C202.57,239.51,205.62,237.62,206.49,233.77Z"/><path class="cls-11" d="M199.47,239.24c.08.75,0,1.49.13,2.23h0C199.5,240.73,199.55,240,199.47,239.24Z"/><path class="cls-14" d="M216.78,120.62a4,4,0,0,1-1-.21,2.34,2.34,0,0,1-.7-.4c-1.14-1-.75-2.76-1-4.21-1.78-.94-1.37-3-2.31-4.38-.76-1.08-.76-2.89-3.61-1.26-2.5,1.44-3,2.26-3.22,4.89a3,3,0,0,1-1.15,2.31,5.42,5.42,0,0,1-4.32.43l-2.72,1.47A26.69,26.69,0,0,1,188,121c-2.46,1.5-7.43,1.51-9.73.23a2.94,2.94,0,0,1-.81-.62c-1.94-.17-3.07-.57-3.57-1.58a2.92,2.92,0,0,1-.26-.88,13.31,13.31,0,0,1,.42-4.39,1.93,1.93,0,0,1-2-1.31,2.76,2.76,0,0,1-.13-.77,7.17,7.17,0,0,1,0-1.13c.07-.84.18-1.68.3-2.51s.24-1.67.35-2.51c-.12-.16-.24-.31-.34-.46a4.8,4.8,0,0,1-.67-1.28c-.52-1.61.4-2.85,2.39-4,6.13-3.55,12.57-6.09,19.76-5.92,3.55.08,7,.86,9.29,4a4.64,4.64,0,0,1,3.1,1c.46-1.29.57-2.53-.19-3.17-1.63-1.39-1-3.48-1.75-4.87-2.23-4.15-1.59-9-4.08-13.16A14.66,14.66,0,0,1,199,75.17a13.33,13.33,0,0,1-.53-1.9,11.63,11.63,0,0,1-.24-3,7.09,7.09,0,0,0-.66-1,4.86,4.86,0,0,0-.9-.91,4.07,4.07,0,0,0-.7-.44,3.87,3.87,0,0,0-1-.35,6.61,6.61,0,0,0-1.1-.11,29.75,29.75,0,0,0-4.31.57c-9.79,1.49-19.41,4.13-29.51,3.7a183.3,183.3,0,0,0-29.91.7c-3.83.46-7.81,1.12-11.21,3.34h0c-.23,1.38-.47,2.76-.71,4.13a1.87,1.87,0,0,1-.22,1,1.26,1.26,0,0,1-.46.42l-2.07,19.31,3.67,1.47a22.89,22.89,0,0,1,2.35-2.21A19.74,19.74,0,0,1,123,98.69,18.52,18.52,0,0,1,126.34,97a20.68,20.68,0,0,1,7.88-1.4c.6,0,1.21,0,1.81.06a60.74,60.74,0,0,1,11.13,2.09c2.13.56,3.52,1.65,3.27,4.08.12.56.24,1.12.37,1.67s.25,1.12.36,1.68c.71,3.34,1.11,6.68-.82,10l.21,1.36.58.87c.12,5.19-1.3,6.74-5.69,6.21l-3.14,1.14a1.24,1.24,0,0,1-.82.61,2.38,2.38,0,0,1-1,0,1.67,1.67,0,0,0-1.65-.22,2.53,2.53,0,0,0,0,.28c.12,1,.9,1.13,1.68,1.37a5.83,5.83,0,0,1,.58.23c2.7,1.4,6.84.56,7.7,5.06.33,1.69,3.17,2.34,3.07,4.35-.19,4.37,3.67,4.49,6,5.49,3,1.27,6.54.6,9.84,1,1.65.22,5.1-.09,6.21-3.54.57-1.78.19-4.35,2.41-5.43,2.38-1.15,2.64-3.07,2.57-5.42s.74-4.53,3.61-4.33c3.75.27,7.41.49,11-1,1.12-.48,1.45.56,1.64,1.24.63,2.31,2.36,2.5,4.3,2.51.79,0,1.57,0,2.34-.1s1.53-.17,2.29-.3c4.54-.77,8.84-2.51,13.23-3.9Z"/><path class="cls-14" d="M204.06,126.45c4.54-.77,8.84-2.51,13.23-3.9h0C212.9,123.94,208.6,125.68,204.06,126.45Z"/><path class="cls-14" d="M204.06,126.45c-.76.13-1.52.23-2.29.3C202.54,126.68,203.3,126.58,204.06,126.45Z"/><path class="cls-14" d="M138.82,125.33c.11,1,.9,1.13,1.68,1.37C139.72,126.46,138.94,126.37,138.82,125.33Z"/><path class="cls-8" d="M120.9,123.39c.42.27.83.51,1.26.73s.86.41,1.29.59.88.32,1.33.45.9.24,1.35.34a34.77,34.77,0,0,0,5.61.62,5.59,5.59,0,0,0,2,0,1.82,1.82,0,0,0,1-.84l-1.14-1.38a6.39,6.39,0,0,1-3.82.85,10.5,10.5,0,0,1-4.79-2,1.87,1.87,0,0,1-2-1.82c-.1-.11-.27-.22-.38-.34a.35.35,0,0,1-.1-.11c-.09-.14,0-.29.43-.45a4.94,4.94,0,0,1,.34-3.1,7.05,7.05,0,0,1,3.77-3,27.49,27.49,0,0,1,4.77-1.58c.62-.14,1.24-.25,1.86-.35a28.47,28.47,0,0,1,6.47-.3,4.1,4.1,0,0,1,.8-.94,4.15,4.15,0,0,1,.95-.61h0a4.64,4.64,0,0,1,3.48-.06,6.35,6.35,0,0,1,1.76,1,7.86,7.86,0,0,1,1.56,1.59,28.8,28.8,0,0,1,1.57,2.62c1.93-3.32,1.53-6.66.82-10-.11-.56-.24-1.12-.36-1.68s-.25-1.11-.37-1.67c-1.64,2.09-3.86,1.64-6,1.28-3.26-.55-6.48-1.36-9.75-1.83a30.65,30.65,0,0,0-15.77,2.12h0a5.87,5.87,0,0,0-2.67,3.57c0,.2-.07.39-.09.59a5.18,5.18,0,0,0,0,1.18,5.94,5.94,0,0,0,1.8,3.38c1.9,1.88,4.51,3.62,2.07,7.09a3.17,3.17,0,0,0-.36,3,2.64,2.64,0,0,0,.34.55A2.92,2.92,0,0,0,120.9,123.39Z"/><path class="cls-8" d="M116.17,107.51a5.18,5.18,0,0,0,0,1.18A5.18,5.18,0,0,1,116.17,107.51Z"/><path class="cls-8" d="M118.93,103.35h0a5.87,5.87,0,0,0-2.67,3.57A5.87,5.87,0,0,1,118.93,103.35Z"/><path class="cls-8" d="M150.8,103.45c.12.56.25,1.12.36,1.68C151.05,104.57,150.92,104,150.8,103.45Z"/><path class="cls-8" d="M150.34,115.13h0c1.93-3.32,1.53-6.66.82-10C151.87,108.47,152.27,111.81,150.34,115.13Z"/><path class="cls-15" d="M140.46,125.27c.44-.77,1.14-.66,1.84-.56h0l3.14-1.14c1.43-1,.41-3.85,3.16-4,.7,0,.06-1.16-.17-1.71a10.37,10.37,0,0,0-8.24-6.29,29.06,29.06,0,0,0-6.47.3c-.62.1-1.24.21-1.86.35a27.49,27.49,0,0,0-4.77,1.58,7.05,7.05,0,0,0-3.77,3A4.94,4.94,0,0,0,123,120h0s0,0,0,0c2.1-.7,4.18-1.45,6.29-2.13.71-.23,1.42-.45,2.14-.66,2.69-.78,2,.67,1.19,2,.33,1.54.65,3.08,1,4.62h0l1.14,1.38h0l2,.09h0l2-.28h0A1.67,1.67,0,0,1,140.46,125.27Zm2.82-6.53a1.49,1.49,0,0,1,1.6,1.39,1.66,1.66,0,0,1-1.79,1.62,1.38,1.38,0,0,1-1.41-1.55A1.6,1.6,0,0,1,143.28,118.74Zm-5.86,5.64a1.86,1.86,0,0,1-2.07-1.75,1.89,1.89,0,0,1,1.84-2.28c1.29.09,2.3.54,2.32,2A1.86,1.86,0,0,1,137.42,124.38Z"/><path class="cls-15" d="M136.78,125.33h0l2-.28h0Z"/><path class="cls-15" d="M142.3,124.71h0l3.14-1.14-3.14,1.14Z"/><path class="cls-15" d="M133.72,111.88c-.62.1-1.24.21-1.86.35C132.48,112.09,133.1,112,133.72,111.88Z"/><path class="cls-15" d="M123,120h0a4.94,4.94,0,0,1,.34-3.1A4.94,4.94,0,0,0,123,120Z"/><path class="cls-15" d="M134.79,125.24l-1.14-1.38h0l1.14,1.38Z"/><path class="cls-8" d="M117.45,81.31c-1-1.1-.18-1.25.68-1.4h0c.24-1.37.48-2.75.71-4.13l-4.79-.69a34.53,34.53,0,0,0-.9,3.57c-.16.8-.29,1.6-.41,2.4-.64,4.42-.72,8.9-1.07,13.35-.42,5.29-.8,10.58-1.18,15.88s-.74,10.58-1.12,15.88c1.22-.17,1.62-1,1.91-2.07,1-3.87,1.68-7.77,2.31-11.7s1.17-7.85,1.79-11.78h0Z"/><path class="cls-8" d="M113.59,112.4c.63-3.92,1.17-7.85,1.79-11.78h0C114.76,104.55,114.22,108.48,113.59,112.4Z"/><path class="cls-8" d="M114.05,75.09a34.53,34.53,0,0,0-.9,3.57,34.53,34.53,0,0,1,.9-3.57Z"/><path class="cls-8" d="M112.74,81.06c.12-.8.25-1.6.41-2.4C113,79.46,112.86,80.26,112.74,81.06Z"/><path class="cls-8" d="M109.37,126.17h0q.57-8,1.12-15.88Q109.94,118.23,109.37,126.17Z"/><path class="cls-8" d="M118.13,79.91h0c.24-1.37.48-2.75.71-4.13h0C118.61,77.16,118.37,78.54,118.13,79.91Z"/><path class="cls-15" d="M134.7,101.23c3.27.47,6.49,1.28,9.75,1.83,2.12.36,4.34.81,6-1.28.25-2.43-1.14-3.52-3.27-4.08A60.74,60.74,0,0,0,136,95.61c-.6,0-1.21-.06-1.81-.06a20.68,20.68,0,0,0-7.88,1.4A18.52,18.52,0,0,0,123,98.69a19.74,19.74,0,0,0-1.62,1.19,22.89,22.89,0,0,0-2.35,2.21h0l-.12,1.26A30.65,30.65,0,0,1,134.7,101.23Z"/><path class="cls-15" d="M119.05,102.09l-.12,1.26h0Z"/><path class="cls-15" d="M121.4,99.88a22.89,22.89,0,0,0-2.35,2.21h0A22.89,22.89,0,0,1,121.4,99.88Z"/><path class="cls-15" d="M123,98.69A18.52,18.52,0,0,1,126.34,97,18.52,18.52,0,0,0,123,98.69Z"/><path class="cls-15" d="M121.4,99.88A19.74,19.74,0,0,1,123,98.69,19.74,19.74,0,0,0,121.4,99.88Z"/><path class="cls-14" d="M134.79,125.24a1.82,1.82,0,0,1-1,.84,5.59,5.59,0,0,1-2,0,34.77,34.77,0,0,1-5.61-.62c-.45-.1-.9-.21-1.35-.34s-.89-.28-1.33-.45-.87-.37-1.29-.59-.84-.46-1.26-.73c-.24,2.07,1.1,3.07,2.77,3.28,3.61.44,7.26.57,10.89.86a3.54,3.54,0,0,0,1.06-.06,1.4,1.4,0,0,0,1.09-1.11s0-.07,0-.1.05-.24.06-.37a5.32,5.32,0,0,0,0-.56Z"/><path class="cls-14" d="M136.79,125.89c0,.13,0,.25-.06.37C136.75,126.14,136.78,126,136.79,125.89Z"/><path class="cls-14" d="M135.62,127.47a1.4,1.4,0,0,0,1.09-1.11A1.4,1.4,0,0,1,135.62,127.47Z"/><path class="cls-8" d="M185.16,158.19c.74.19,1.51.61,2.3.87a4.24,4.24,0,0,0,1,.24,2.72,2.72,0,0,0,2.1-.72l-5.1-1.88c-4.74-1.75-9.44-3.06-14.6-1.43a80.33,80.33,0,0,1-13.21,3.15,12,12,0,0,0-8.49,5c6-2.18,12.33-2.9,18.45-4.5C173.5,157.37,179.2,156.69,185.16,158.19Z"/><path class="cls-8" d="M188.5,159.3a4.24,4.24,0,0,1-1-.24A4.24,4.24,0,0,0,188.5,159.3Z"/><path class="cls-8" d="M148.82,163.77a.15.15,0,0,0,.12,0,.4.4,0,0,0,.13-.13,1,1,0,0,0,.12-.19h0l-.7,0C148.6,163.62,148.7,163.76,148.82,163.77Z"/><path class="cls-8" d="M148.94,163.73a.15.15,0,0,1-.12,0A.15.15,0,0,0,148.94,163.73Z"/><path class="cls-8" d="M149.07,163.6a1,1,0,0,0,.12-.19h0A1,1,0,0,1,149.07,163.6Z"/><path class="cls-12" d="M119,298.89c.06-.13.12-.26.17-.39.14-.39.22-.82.35-1.22a.81.81,0,0,1-.34-.26c-.08-.11,0-.23.15-.35l.18-.09h0a1.61,1.61,0,0,0-.39-1,1.45,1.45,0,0,0-.35-.24,1.37,1.37,0,0,0-.36-.11,1.66,1.66,0,0,0-.32,0c-.86,3.82-4.3,6-5.92,9.44-.76,1.6-1.72.24-2.16-.62-1.5-2.91-2.9-5.86-4.34-8.8h0a14.48,14.48,0,0,1-3.66-4.2,6.66,6.66,0,0,1-.37-.91,6.46,6.46,0,0,1-.11-3.18c-.43-.13-1.11-.14-1.25-.41-3-5.89-8.29-10.16-11.23-16.07h0l-1.27-.18c-.75.72-1.3,1.69-2.33,2.05a2.4,2.4,0,0,1-.48.11c.84,2.26,2,4.41,2.1,6.89h0a7.28,7.28,0,0,1,2.12.21,1.07,1.07,0,0,1,.51,1.13c-.17,2.88,1.27,5.19,2,7.77,2.37,8.68,4.31,17.48,6.42,26.23a31.11,31.11,0,0,1,.75,4.85c0,.53.08,1.05.1,1.58,1.31.59,2.63,1.16,4,1.72,2-2.78,3.92-5.7,6.2-8.31C111.89,308.92,116.19,304.36,119,298.89Z"/><path class="cls-12" d="M98.91,319.49c0,.53.08,1.05.1,1.58h0C99,320.54,99,320,98.91,319.49Z"/><path class="cls-12" d="M87.13,279.3h0a7.28,7.28,0,0,1,2.12.21A7.28,7.28,0,0,0,87.13,279.3Z"/><path class="cls-12" d="M87.84,270.25h0l1.27.18h0Z"/><path class="cls-12" d="M102.07,291a14.48,14.48,0,0,0,3.66,4.2h0A14.48,14.48,0,0,1,102.07,291Z"/><path class="cls-12" d="M118.83,295.32a1.45,1.45,0,0,1,.35.24A1.45,1.45,0,0,0,118.83,295.32Z"/><path class="cls-9" d="M74.72,294.53h0c-.06.39-.13.78-.2,1.17a33.08,33.08,0,0,0-.49,3.54c-.13,2.55-.24,5.09-.36,7.64q5.67,3.86,11.66,7.24c1.25-6.22,1.49-12.57,2.37-18.84C83.42,294.26,79.06,294.53,74.72,294.53Z"/><polygon class="cls-9" points="74.72 294.53 74.72 294.53 74.72 294.53 74.72 294.54 74.72 294.54 74.72 294.54 74.72 294.53"/><path class="cls-6" d="M74.72,294.53c4.34,0,8.7-.27,13,.76a27.12,27.12,0,0,0,.13-5c-.2-3.66-.87-7.31-.7-11-.08-2.48-1.26-4.63-2.1-6.89l-1.45-2.09-5.3,0H76c-.06,3-.31,6-.58,9.06A115.51,115.51,0,0,0,74.72,294.53Z"/><path class="cls-6" d="M76,270.36Z"/><path class="cls-6" d="M75.46,279.42a115.51,115.51,0,0,0-.74,15.11h0A115.51,115.51,0,0,1,75.46,279.42Z"/><path class="cls-6" d="M128.06,322.83c-2.92-1.13-3.4-2.56-2.14-5.14,2.55-5.25,5-10.52,7.56-15.77.94-1.94,2.06-3,4.52-1.92,6,2.66,12,5.12,18.07,7.56,1.94.79,2.32,1.84,1.47,3.7-2.5,5.41-4.83,10.9-7.41,16.27a6.8,6.8,0,0,0-.94,3.55,2.39,2.39,0,0,0,2.1,1.44,9.71,9.71,0,0,0,2-3.85c.16-.46.32-.91.5-1.35.31-.74.63-1.47.95-2.19.64-1.46,1.31-2.9,2-4.35A75.65,75.65,0,0,0,161,309.65c-1.48,0-1.87-.72-1.7-1.61a2.6,2.6,0,0,1,.12-.46,5,5,0,0,1,.21-.48c1.6-3.27,2.62-6.83,4.77-9.83-6.72-3.41-13.45-6.79-20.14-10.26l-.31-.16a3.93,3.93,0,0,0-2.23-.65c-1.21,2.35-2.47,4.68-3.66,7-.5,1-1,2-1.44,2.95-.95,2.05-2.08,3.12-4.16,1.62-2.74-2-6.68-1.69-8.83-4.73H123a4.79,4.79,0,0,0-1.42,1.64,3.83,3.83,0,0,1-2,1.87h0c0,.23,0,.47,0,.7h0c-.13.4-.21.83-.35,1.22,0,.13-.11.26-.17.39-2.85,5.47-7.15,10-9.87,15.59,3.57,1.56,7.17,3,10.7,4.7,4.62,2.19,4.62,2.58,2.13,7.12-.5.91-1,1.82-1.43,2.74a167.06,167.06,0,0,0,26.22,5.45c.4-1.06.79-2.14,1.12-3.23C141.3,328.42,134.76,325.42,128.06,322.83Z"/><polygon class="cls-6" points="160.98 309.65 160.98 309.65 160.98 309.65 160.98 309.65"/><path class="cls-6" d="M122,326.3c-.5.91-1,1.82-1.43,2.74h0C121,328.12,121.5,327.21,122,326.3Z"/><path class="cls-6" d="M121.54,294.72a3.83,3.83,0,0,1-2,1.87h0A3.83,3.83,0,0,0,121.54,294.72Z"/><path class="cls-6" d="M156.7,320.78c-.66,1.45-1.33,2.89-2,4.35C155.37,323.67,156,322.23,156.7,320.78Z"/><path class="cls-6" d="M156.7,320.78A75.65,75.65,0,0,0,161,309.65h0A75.65,75.65,0,0,1,156.7,320.78Z"/><path class="cls-6" d="M119.56,297.28c-.13.4-.21.83-.35,1.22.14-.39.22-.82.35-1.22Z"/><path class="cls-8" d="M198.18,70.27a11.63,11.63,0,0,0,.24,3,13.33,13.33,0,0,0,.53,1.9,14.66,14.66,0,0,0,1.19,2.52c2.49,4.13,1.85,9,4.08,13.16.74,1.39.12,3.48,1.75,4.87.76.64.65,1.88.19,3.17a4.64,4.64,0,0,0-3.1-1c-6.94-.56-13.31,1.19-19.44,4.38-3.4,1.77-6.83,3.86-11,3.24h0c-.11.84-.24,1.67-.35,2.51s-.23,1.67-.3,2.51a7.17,7.17,0,0,0,0,1.13,2.76,2.76,0,0,0,.13.77,1.93,1.93,0,0,0,2,1.31c.31-3.66,1.09-5.67,2.65-6.68a4.87,4.87,0,0,1,1.31-.58,16.9,16.9,0,0,1,5.94-.11c-1.15.62-2.72.61-2.21,2.22a22.61,22.61,0,0,1,8.93-1.25l.85,0c1.1.06,2.2.15,3.3.26a11,11,0,0,1,3.88,1.16c2.44,1.28,2.64,2.74,1.74,5.13-.44,1.21-.35,2.67-1,3.89a5.42,5.42,0,0,0,4.32-.43,3,3,0,0,0,1.15-2.31c.21-2.63.72-3.45,3.22-4.89,2.85-1.63,2.85.18,3.61,1.26.94,1.34.53,3.44,2.31,4.38h1.37c-.18-3.61-1.74-6.85-2.76-10.23-3.62-12-7.08-24.16-11.5-36l-3,.66Z"/><path class="cls-8" d="M199.43,117.79h0a5.42,5.42,0,0,0,4.32-.43A5.42,5.42,0,0,1,199.43,117.79Z"/><path class="cls-8" d="M172.63,105.49c-.11.84-.24,1.67-.35,2.51.11-.84.24-1.67.35-2.51Z"/><path class="cls-8" d="M198.18,70.27h0a11.63,11.63,0,0,0,.24,3A11.63,11.63,0,0,1,198.18,70.27Z"/><path class="cls-11" d="M114.05,75.09l4.79.69c3.4-2.22,7.38-2.88,11.21-3.34a183.3,183.3,0,0,1,29.91-.7c10.1.43,19.72-2.21,29.51-3.7a29.75,29.75,0,0,1,4.31-.57,6.61,6.61,0,0,1,1.1.11,3.87,3.87,0,0,1,1,.35,4.07,4.07,0,0,1,.7.44,4.86,4.86,0,0,1,.9.91,7.09,7.09,0,0,1,.66,1l3-.66c-.55-1.87-1.22-3.71-1.64-5.6-.65-2.84-2-3.21-4.67-2.19a97.33,97.33,0,0,1-38.76,6.46c-10.55-.35-21.13-.22-31.69-.19-3.71,0-6.32.88-8.07,2.7a7.49,7.49,0,0,0-.95,1.2,10.81,10.81,0,0,0-1.32,3.1Z"/><path class="cls-11" d="M115.37,72a7.49,7.49,0,0,1,.95-1.2A7.49,7.49,0,0,0,115.37,72Z"/><path class="cls-11" d="M114.05,75.09a10.81,10.81,0,0,1,1.32-3.1,10.81,10.81,0,0,0-1.32,3.1Z"/><path class="cls-11" d="M197.52,69.28a7.09,7.09,0,0,1,.66,1h0A7.09,7.09,0,0,0,197.52,69.28Z"/><path class="cls-11" d="M194.88,67.58a6.61,6.61,0,0,0-1.1-.11A6.61,6.61,0,0,1,194.88,67.58Z"/><path class="cls-11" d="M196.62,68.37a4.07,4.07,0,0,0-.7-.44A4.07,4.07,0,0,1,196.62,68.37Z"/><path class="cls-11" d="M114.05,75.09l4.79.69h0l-4.79-.69Z"/><polygon class="cls-11" points="114.05 75.09 114.05 75.09 114.05 75.09 114.05 75.09"/><path class="cls-11" d="M215.05,120a2.34,2.34,0,0,0,.7.4,4,4,0,0,0,1,.21.91.91,0,0,0,.28-.56h0l-1-2.84a.7.7,0,0,1-.52-.32l0-.11a.93.93,0,0,1,0-.3c-.06-.23-.13-.46-.19-.69H214C214.3,117.25,213.91,119.06,215.05,120Z"/><path class="cls-11" d="M216.78,120.62h0a.91.91,0,0,0,.28-.56h0A.91.91,0,0,1,216.78,120.62Z"/><path class="cls-5" d="M217,107.18s.06,0,.09-.08a3.86,3.86,0,0,0,.17-.45,2.51,2.51,0,0,0-.43-.22s-.09,0-.12,0-.18.35-.26.54C216.6,107.05,216.83,107.24,217,107.18Z"/><path class="cls-5" d="M217.22,106.65h0a3.86,3.86,0,0,1-.17.45A3.86,3.86,0,0,0,217.22,106.65Z"/><path class="cls-5" d="M215.55,116.79l0,.11a.7.7,0,0,0,.52.32c-.17-.24-.34-.48-.5-.73A.93.93,0,0,0,215.55,116.79Z"/><path class="cls-5" d="M215.58,116.9l0-.11Z"/><path class="cls-6" d="M205.88,270.31l-.18,0a53.39,53.39,0,0,0,1.44,9.66,1.26,1.26,0,0,1,.46.42,1.66,1.66,0,0,1,.18,1,76.25,76.25,0,0,0,1.46,13.81h6.14c-.5-4.07-1.07-8.13-1.54-12.2-.16-1.36-.3-2.72-.43-4.08-.28-2.85-1.82-5.75,0-8.63-.05-5.82-1.76-11.4-2.43-17.16a5.82,5.82,0,0,0-.29,2.24c.26,2.6.44,5.22.92,7.78.25,1.32.45,2.39.56,3.28,0,.29.06.56.08.82s0,.24,0,.36h0c0,1.51-.42,2.2-1.71,2.5l-.1,0-.39.07A28.17,28.17,0,0,1,205.88,270.31Z"/><polygon class="cls-6" points="205.7 270.34 205.7 270.34 205.71 270.34 205.7 270.34"/><path class="cls-6" d="M212.22,267.63Z"/><path class="cls-6" d="M210.41,270.15l.1,0Z"/><path class="cls-6" d="M210,270.22a28.17,28.17,0,0,1-4.14.09h0A28.17,28.17,0,0,0,210,270.22Z"/><path class="cls-6" d="M215.38,295.22c-.5-4.07-1.07-8.13-1.54-12.2.47,4.07,1,8.13,1.54,12.2Z"/><path class="cls-10" d="M205.7,270.34l.18,0c-.78-6.18-1.41-12.39-2.42-18.53,0-.11,0-.23,0-.35s0-.48-.07-.72a10.57,10.57,0,0,0-.28-1.86h0a2.93,2.93,0,0,0-2.18-2.16,2.52,2.52,0,0,0-.55,2.26q1.38,10,2.77,20Z"/><path class="cls-10" d="M203.07,248.85Z"/><polygon class="cls-10" points="205.71 270.34 205.88 270.31 205.88 270.31 205.7 270.34 205.71 270.34"/><path class="cls-6" d="M222.31,242.07h0c-3.25-1.49-6.14,1.23-9.33.82-1-.13-.95,1-1.07,1.79l10.43.11Z"/><path class="cls-6" d="M211.91,244.68l10.43.11h0Z"/><path class="cls-6" d="M222.34,244.79h0l0-2.72h0Z"/><polygon class="cls-6" points="222.34 244.79 222.34 244.79 222.34 244.79 222.34 244.79"/><path class="cls-6" d="M207.75,243.34c-1.45.44-2.94.84-4,2.4a3,3,0,0,0,.92.06c1.24-.13,2.11-1,3.2-1C207.82,244.29,207.79,243.82,207.75,243.34Z"/><path class="cls-6" d="M204.66,245.8c1.24-.13,2.11-1,3.2-1h0C206.77,244.77,205.9,245.67,204.66,245.8Z"/><path class="cls-6" d="M248.1,315.46c-.49-4.7-1-9.4-1.33-14.11q-.18-3-.17-6l-.15-.15-4.37,0-16.4.1q.73,12,1.48,24.05l13.33,0C243.07,318.12,245.6,316.82,248.1,315.46Z"/><path class="cls-6" d="M225.68,295.28h0l16.4-.1Z"/><path class="cls-6" d="M246.45,295.16l.15.15,7.39-.06c.4-2.09.94-4.17,1.34-6.26a28.49,28.49,0,0,0,.47-3.78c.24-5,2.51-9.7,2.46-14.76H245Q245.74,282.8,246.45,295.16Z"/><path class="cls-6" d="M258.26,270.45h0Z"/><path class="cls-6" d="M254,295.25c.4-2.09.94-4.17,1.34-6.26-.4,2.09-.94,4.17-1.34,6.26Z"/><path class="cls-7" d="M227.15,319.33c.1,1.87.19,3.74.28,5.61q6.67-2.52,13.06-5.59l-13.33,0Z"/><path class="cls-7" d="M227.16,319.33l13.33,0h0Z"/><path class="cls-9" d="M212,319.26l6.11,0h0l-2.77-24.07h-6.14q1.39,12,2.8,24.05Z"/><path class="cls-9" d="M215.38,295.22l2.77,24.07h0q-1.38-12-2.77-24.07Z"/><path class="cls-6" d="M213.23,329.62q3-.83,5.85-1.76l-.93-8.57-6.11,0C212.43,322.71,212.83,326.17,213.23,329.62Z"/><path class="cls-6" d="M219.08,327.86h0c-.32-2.86-.63-5.71-.94-8.57h0Z"/><path class="cls-6" d="M212,319.26l6.11,0h0l-6.11,0Z"/><polygon class="cls-6" points="218.15 319.29 218.15 319.29 218.15 319.29 218.15 319.29"/><path class="cls-6" d="M220.86,319.46c.12,2.54.37,5.07.73,7.59,2-.67,3.91-1.38,5.84-2.11-.09-1.87-.18-3.74-.28-5.61Z"/><path class="cls-6" d="M220.86,319.46h0l6.29-.13Z"/><path class="cls-6" d="M102.26,270.33l-13.15.1c2.94,5.91,8.24,10.18,11.23,16.07.14.27.82.28,1.25.41.13-1.38.25-2.76.35-4.14A123,123,0,0,0,102.26,270.33Z"/><path class="cls-6" d="M102.26,270.33l-13.15.1h0l13.15-.1Z"/><path class="cls-6" d="M101.94,282.77a123,123,0,0,0,.32-12.44h0A123,123,0,0,1,101.94,282.77Z"/><polygon class="cls-6" points="102.26 270.33 102.26 270.33 102.26 270.33 102.26 270.33"/><path class="cls-10" d="M87.84,270.25c-.24-.5-.35-1.16-.73-1.47-1.4-1.12-2.36-4-4.32-2.9a1,1,0,0,0-.61,1.17c.22,1,1.53,2.15,1.4,3.27L85,272.41a2.4,2.4,0,0,0,.48-.11C86.54,271.94,87.09,271,87.84,270.25Z"/><path class="cls-10" d="M85.51,272.3c1-.36,1.58-1.33,2.33-2.05h0C87.09,271,86.54,271.94,85.51,272.3Z"/><path class="cls-12" d="M123.29,293.09h.32l7.17-10.34c.59-.87,1.27-1.92,2.43-1.3,2.85,1.54,6.38,1.89,8.49,4.76h0a3.93,3.93,0,0,1,2.23.65l.31.16c6.69,3.47,13.42,6.85,20.14,10.26l2.08.83.73-1.5a163.1,163.1,0,0,0-15.09-8.37q-8.31-4.25-16.58-8.59c-.36-.19-.55-.7-.82-1.06s-.47-.62-.58-.87c0-.08-.05-.15,0-.2,2.5-5,4.67-10.21,8.83-14.17h0c0-.4,0-.8.07-1.2l.09-1.46q-.06-5.52-.11-11c-1.44-.25-1.93.38-2.25,1.8a32.08,32.08,0,0,0-.46,8.23,12.67,12.67,0,0,1-.16,2.5c-.58,3.41-2.62,6-5.31,8.35-.3,2.42-2.13,4-3.34,6a9.64,9.64,0,0,0-.54,1,7.79,7.79,0,0,0-.38,1.09c-1,1.74-3.07,2.7-3.43,4.87a7.33,7.33,0,0,1,0,1,2.88,2.88,0,0,1-.19.67,2.32,2.32,0,0,1-.63.84,8.53,8.53,0,0,0-1.93,2.35,12.22,12.22,0,0,0-1.35,4.8Z"/><path class="cls-12" d="M126.87,285.09a2.88,2.88,0,0,0,.19-.67A2.88,2.88,0,0,1,126.87,285.09Z"/><path class="cls-12" d="M143,249.64h0q0,5.52.11,11Q143,255.16,143,249.64Z"/><path class="cls-12" d="M143,262.14c0,.4-.05.8-.07,1.2h0C143,262.94,143,262.54,143,262.14Z"/><path class="cls-12" d="M141.7,286.2h0a3.93,3.93,0,0,1,2.23.65A3.93,3.93,0,0,0,141.7,286.2Z"/><path class="cls-6" d="M110.07,304c.44.86,1.4,2.22,2.16.62,1.62-3.4,5.06-5.62,5.92-9.44l-12.42,0C107.17,298.14,108.57,301.09,110.07,304Z"/><path class="cls-6" d="M105.73,295.2l12.42,0-12.42,0Z"/><path class="cls-10" d="M130.54,278.59c-1.68-.18-1.34-1.48-1.36-2.54,0-1.89,0-3.78,0-5.67h0v0l-1.4-.07.06.07h0c-.16,1.33.15,2.66-.52,4a10.21,10.21,0,0,0-1.06,4.51,13.34,13.34,0,0,0,.88,4.59C127.47,281.29,129.55,280.33,130.54,278.59Z"/><polygon class="cls-10" points="129.16 270.38 129.16 270.38 129.15 270.36 129.16 270.38 129.16 270.38"/><polygon class="cls-10" points="127.81 270.36 127.81 270.36 127.81 270.36 127.81 270.36"/><path class="cls-12" d="M134.56,266.74c2,.08,3-1.28,3.51-3-.49-1.95-1.42-3.12-3.58-3s-3.65,1.1-3.61,3.23S132.82,266.67,134.56,266.74Z"/><path class="cls-6" d="M140.23,244.8h0c-2.19-4.75-4.33-9.54-8.17-13.27a2.91,2.91,0,0,1-.15.63,1.42,1.42,0,0,1-.5.67,1.81,1.81,0,0,1-.9.29,37.18,37.18,0,0,0,3,4.46c1.38,1.51,2.35,3.41,3.69,5A8.07,8.07,0,0,0,140.23,244.8Z"/><path class="cls-6" d="M131.92,232.17a2.91,2.91,0,0,0,.15-.63A2.91,2.91,0,0,1,131.92,232.17Z"/><path class="cls-6" d="M130.52,233.13h0a1.81,1.81,0,0,0,.9-.29A1.81,1.81,0,0,1,130.52,233.13Z"/><path class="cls-6" d="M129.18,276.05c0,1.06-.32,2.36,1.36,2.54a7.79,7.79,0,0,1,.38-1.09,9.64,9.64,0,0,1,.54-1c1.21-1.94,3-3.56,3.34-6l-5.64-.14C129.16,272.27,129.15,274.16,129.18,276.05Z"/><path class="cls-6" d="M134.8,270.52l-5.64-.14h0Z"/><path class="cls-6" d="M129.15,270.36V253.27c0,.72,0,1.43-.07,2.14-.3,5-1.44,9.89-1.33,14.88Z"/><path class="cls-6" d="M141.11,246.9c-.2-.74,0-1.63-.87-2.09h0c0,.11,0,.21,0,.31C140.18,245.85,140.21,246.56,141.11,246.9Z"/><path class="cls-6" d="M140.21,245.11c0,.74,0,1.45.9,1.79h0C140.21,246.56,140.18,245.85,140.21,245.11Z"/><path class="cls-6" d="M140.24,244.81h0Z"/><polygon class="cls-6" points="140.24 244.81 140.24 244.81 140.23 244.8 140.24 244.81"/><path class="cls-6" d="M140.23,244.8h0Z"/><path class="cls-6" d="M140.24,244.81Z"/><path class="cls-9" d="M254,295.25l-7.39.06q0,3,.17,6c.28,4.71.84,9.41,1.33,14.11,1-.54,2-1.09,3-1.65q1.48-9.29,2.94-18.56Z"/><path class="cls-9" d="M254,295.25q-1.47,9.28-2.94,18.56h0q1.48-9.29,2.94-18.56Z"/><path class="cls-17" d="M202.09,305.43c-1.55-9.35-1.69-18.84-3.18-28.18-.78-4.9-1.09-9.87-1.72-15.75-3.55,5.45-7.95,8.66-11.52,12.64-2.43,2.7-5.81,4.66-7.35,8-2.66,5.73-4.7,11.75-7.26,17.52-2,4.47-4,9-5.51,13.54s-2.92,8.93-4.63,13.09c-1.26,3.05-2.47,6.12-3.67,9.2,3.53.22,7.08.34,10.66.34a168.39,168.39,0,0,0,37.29-4.16c-.23-1.83-.47-3.67-.76-5.49C203.37,319.29,203.23,312.28,202.09,305.43Z"/><path class="cls-6" d="M170.8,278.71a91.13,91.13,0,0,1-9.73-5.38,105.63,105.63,0,0,0-15.31-7.07c.08,1.18,1.1,1.7,1.78,2.41a3.4,3.4,0,0,1,1.25,3c-.33,1.27-1.84.35-2.65.77-3.83,2-8.54,2.41-11.44,6.14.27.36.46.87.82,1.06q8.28,4.33,16.58,8.59a163.1,163.1,0,0,1,15.09,8.37c1.52-3.31,3-6.64,4.57-9.93.26-.54.55-1.08.82-1.62C173.75,282.71,174.55,280.44,170.8,278.71Z"/><path class="cls-6" d="M134.7,278.58h0c.27.36.46.87.82,1.06C135.16,279.45,135,278.94,134.7,278.58Z"/><path class="cls-12" d="M212,319.26q-1.41-12-2.8-24.05a76.25,76.25,0,0,1-1.46-13.81c-.86-.17-1.68-.35-.64-1.4h0a53.39,53.39,0,0,1-1.44-9.66h0L203.11,269l1,9.08a1.06,1.06,0,0,1,.25.57,2.52,2.52,0,0,1,.22,3.36h0q.61,4.89,1.22,9.76c1,.83.57,1.91.54,2.92.18,2.51.29,5,.55,7.53,1,9.44,2.05,18.87,3,28.31,1.11-.28,2.21-.59,3.31-.89C212.83,326.17,212.43,322.71,212,319.26Z"/><path class="cls-12" d="M204.6,282h0q.61,4.88,1.22,9.75-.6-4.87-1.22-9.76Z"/><path class="cls-12" d="M205.7,270.34h0a53.39,53.39,0,0,0,1.44,9.66h0A53.39,53.39,0,0,1,205.7,270.34Z"/><path class="cls-9" d="M149.19,331.08l-1.28.17h0c-.33,1.09-.72,2.17-1.12,3.23,1.35.17,2.71.33,4.07.47a3.73,3.73,0,0,0,.43-2.44A2.39,2.39,0,0,1,149.19,331.08Z"/><path class="cls-9" d="M147.91,331.26h0c-.33,1.09-.72,2.17-1.12,3.23h0C147.19,333.43,147.58,332.35,147.91,331.26Z"/><path class="cls-9" d="M161,309.65l5.48-11.55-2.08-.83c-2.15,3-3.17,6.56-4.77,9.83a5,5,0,0,0-.21.48,2.6,2.6,0,0,0-.12.46C159.11,308.93,159.5,309.63,161,309.65Z"/><path class="cls-9" d="M159.28,308c-.17.89.22,1.59,1.7,1.61h0C159.5,309.63,159.11,308.93,159.28,308Z"/><path class="cls-9" d="M159.28,308a2.6,2.6,0,0,1,.12-.46A2.6,2.6,0,0,0,159.28,308Z"/><path class="cls-10" d="M204.38,278.63h0l.23,3.37A2.52,2.52,0,0,0,204.38,278.63Z"/><path class="cls-10" d="M204.37,278.62c.08,1.13.15,2.25.23,3.38h0Z"/><polygon class="cls-10" points="204.38 278.63 204.37 278.62 204.38 278.63 204.38 278.63"/><polygon class="cls-10" points="204.38 278.63 204.38 278.63 204.38 278.63 204.38 278.63 204.38 278.63"/><polygon class="cls-10" points="204.38 278.63 204.37 278.62 204.38 278.63 204.38 278.63"/><path class="cls-10" d="M206.36,294.67c0-1,.42-2.09-.54-2.92,0,.12,0,.25,0,.38A3.26,3.26,0,0,0,206.36,294.67Z"/><path class="cls-10" d="M204.38,278.63a1.06,1.06,0,0,0-.25-.57l.25.57Z"/><polygon class="cls-10" points="204.38 278.63 204.38 278.63 204.38 278.63 204.38 278.63"/><path class="cls-9" d="M134.7,278.58c2.9-3.73,7.61-4.12,11.44-6.14.81-.42,2.32.5,2.65-.77a3.4,3.4,0,0,0-1.25-3c-.68-.71-1.7-1.23-1.78-2.41a4.66,4.66,0,0,1-1-.46,4.08,4.08,0,0,1-1.42-1.47,4.93,4.93,0,0,1-.43-1c-4.16,4-6.33,9.17-8.83,14.17,0,.05,0,.12,0,.2.11.25.42.6.58.87Z"/><path class="cls-9" d="M142.93,263.34h0a4.93,4.93,0,0,0,.43,1A4.93,4.93,0,0,1,142.93,263.34Z"/><path class="cls-9" d="M134.7,278.58c-.16-.27-.47-.62-.58-.87.11.25.42.6.58.87Z"/><path class="cls-15" d="M183.62,102.25c6.13-3.19,12.5-4.94,19.44-4.38-2.29-3.18-5.74-4-9.29-4-7.19-.17-13.63,2.37-19.76,5.92-2,1.15-2.91,2.39-2.39,4a4.8,4.8,0,0,0,.67,1.28c.1.15.22.3.34.46C176.79,106.11,180.22,104,183.62,102.25Z"/><path class="cls-15" d="M181.74,108.57a10.06,10.06,0,0,0-5.63,9.28,1.78,1.78,0,0,1,.56-.06l.71-.67a9.42,9.42,0,0,1,2.38-2.68c.27-.2.55-.39.83-.56a9.77,9.77,0,0,1,1.38-.67c.37-.14.76-.26,1.15-.37l.6-.14a12.79,12.79,0,0,1,1.9-.26h0a21.64,21.64,0,0,1,3.33-.75h.4a1.61,1.61,0,0,1,.33.06c.88.26.88,1.41.89,4a3.79,3.79,0,0,1,.93.08,2.21,2.21,0,0,1,1.46.89,2.83,2.83,0,0,1,.43,1c0,.13.05.26.06.39a6.34,6.34,0,0,1,0,1.08h3.22l2.72-1.47h0c.66-1.22.57-2.68,1-3.89.9-2.39.7-3.85-1.74-5.13a11,11,0,0,0-3.88-1.16c-1.1-.11-2.2-.2-3.3-.26l-.85,0A22.61,22.61,0,0,0,181.74,108.57Zm14.36,5c1,.07,1.55.55,1.57,1.49a1.51,1.51,0,0,1-3,.09A1.5,1.5,0,0,1,196.1,113.61Z"/><path class="cls-15" d="M199.43,117.79l-2.72,1.47h0l2.72-1.47Z"/><path class="cls-15" d="M190.67,107.32a22.61,22.61,0,0,0-8.93,1.25h0A22.61,22.61,0,0,1,190.67,107.32Z"/><path class="cls-3" d="M150.34,115.13h0a28.8,28.8,0,0,0-1.57-2.62,7.86,7.86,0,0,0-1.56-1.59,6.35,6.35,0,0,0-1.76-1A4.64,4.64,0,0,0,142,110h0a4.15,4.15,0,0,0-.95.61,4.36,4.36,0,0,0-.8.94h0a10.37,10.37,0,0,1,8.24,6.29c.23.55.87,1.67.17,1.71-2.75.14-1.73,3-3.16,4,4.39.53,5.81-1,5.69-6.21l-.58-.87Z"/><path class="cls-3" d="M150.34,115.13l.21,1.36.58.87-.58-.87-.21-1.36Z"/><path class="cls-3" d="M141.94,110h0Z"/><path class="cls-3" d="M141,110.64a4.1,4.1,0,0,0-.8.94h0A4.36,4.36,0,0,1,141,110.64Z"/><path class="cls-3" d="M177.46,120.57a1.43,1.43,0,0,1-.09-.5,1.54,1.54,0,0,1-.58-1.38c0-.2,0-.41,0-.61s0-.19-.07-.29a1.78,1.78,0,0,0-.56.06v0L176,118l.1-.12h0a10.06,10.06,0,0,1,5.63-9.28h0c-.51-1.61,1.06-1.6,2.21-2.22a16.9,16.9,0,0,0-5.94.11,4.87,4.87,0,0,0-1.31.58c-1.56,1-2.34,3-2.65,6.68h0a13.31,13.31,0,0,0-.42,4.39,2.92,2.92,0,0,0,.26.88C174.39,120,175.52,120.4,177.46,120.57Z"/><path class="cls-3" d="M176.11,117.88l0,0,0,0v0h0Z"/><path class="cls-3" d="M173.89,119a2.92,2.92,0,0,1-.26-.88A2.92,2.92,0,0,0,173.89,119Z"/><path class="cls-3" d="M176.7,107c-1.56,1-2.34,3-2.65,6.68h0C174.36,110.06,175.14,108.05,176.7,107Z"/><path class="cls-3" d="M176.7,107a4.87,4.87,0,0,1,1.31-.58A4.87,4.87,0,0,0,176.7,107Z"/><path class="cls-3" d="M176.11,117.85h0l0,0Z"/><path class="cls-3" d="M176.11,117.85h0a10.06,10.06,0,0,1,5.63-9.28h0A10.06,10.06,0,0,0,176.11,117.85Z"/><path class="cls-4" d="M189.67,119.19c-1.06-1.42-.27-2.5.9-3.41h0c0-2.62,0-3.77-.89-4a1.61,1.61,0,0,0-.33-.06H189a21.64,21.64,0,0,0-3.33.75h0l-.36,3.42c.5,1.31,1,2.63,1.51,4A1.31,1.31,0,0,1,188,121h0a26.69,26.69,0,0,0,8.71-1.7h-3.22C192.2,120.1,190.84,120.75,189.67,119.19Z"/><path class="cls-4" d="M196.71,119.26A26.69,26.69,0,0,1,188,121h0a26.69,26.69,0,0,0,8.71-1.7Z"/><path class="cls-4" d="M189,111.69h0Z"/><path class="cls-4" d="M190.57,115.78h0c0-2.62,0-3.77-.89-4C190.56,112,190.56,113.16,190.57,115.78Z"/><path class="cls-4" d="M185.62,112.44h0a21.64,21.64,0,0,1,3.33-.75,21.64,21.64,0,0,0-3.33.75Z"/><path class="cls-8" d="M188,121a1.31,1.31,0,0,0-1.23-1.15c-3.08,2.06-6.27-.14-9.4.26a1.43,1.43,0,0,0,.09.5,2.94,2.94,0,0,0,.81.62C180.57,122.47,185.54,122.46,188,121Z"/><path class="cls-8" d="M178.27,121.19c2.3,1.28,7.27,1.27,9.73-.23h0C185.54,122.46,180.57,122.47,178.27,121.19Z"/><path class="cls-11" d="M117.45,81.31a1.26,1.26,0,0,0,.46-.42,1.87,1.87,0,0,0,.22-1C117.27,80.06,116.4,80.21,117.45,81.31Z"/><path class="cls-11" d="M117.91,80.89a1.87,1.87,0,0,0,.22-1h0A1.87,1.87,0,0,1,117.91,80.89Z"/><path class="cls-11" d="M142.3,124.71c-.7-.1-1.4-.21-1.84.56a2.38,2.38,0,0,0,1,0A1.24,1.24,0,0,0,142.3,124.71Z"/><path class="cls-11" d="M141.48,125.32a1.24,1.24,0,0,0,.82-.61h0A1.24,1.24,0,0,1,141.48,125.32Z"/><path class="cls-17" d="M125,122.68a10.5,10.5,0,0,0,4.79,2,6.39,6.39,0,0,0,3.82-.85c-.32-1.54-.64-3.08-1-4.62C129.38,118.71,127.24,120.76,125,122.68Z"/><path class="cls-17" d="M125,122.68a10.5,10.5,0,0,0,4.79,2,10.5,10.5,0,0,1-4.79-2Z"/><path class="cls-16" d="M123,120.86h0a1.85,1.85,0,0,0,2,1.82h0c2.2-1.92,4.34-4,7.64-3.44.77-1.37,1.5-2.82-1.19-2-.72.21-1.43.43-2.14.66-2.11.68-4.19,1.43-6.29,2.13A.55.55,0,0,1,123,120.86Z"/><path class="cls-16" d="M125,122.68a1.85,1.85,0,0,1-2-1.82h0a1.87,1.87,0,0,0,2,1.82Z"/><path class="cls-15" d="M123,120.86a.55.55,0,0,0,0-.87l-.07,0h0a.07.07,0,0,1,0-.05c-.46.16-.52.31-.43.45a.35.35,0,0,0,.1.11C122.76,120.64,122.93,120.75,123,120.86Z"/><path class="cls-15" d="M122.65,120.52c.11.12.28.23.38.34h0C122.93,120.75,122.76,120.64,122.65,120.52Z"/><path class="cls-15" d="M122.65,120.52a.35.35,0,0,1-.1-.11A.35.35,0,0,0,122.65,120.52Z"/><polygon class="cls-15" points="122.99 120.01 122.99 120.01 122.99 120.01 122.99 120.01"/><path class="cls-15" d="M123,120v0h0Z"/><path class="cls-15" d="M123,120h0a.07.07,0,0,1,0-.05h0A.07.07,0,0,0,123,120Z"/><path class="cls-15" d="M123,120v0l0,0h0a.07.07,0,0,0,0,.05Z"/><path class="cls-15" d="M123,120l.07,0h0l-.07,0Z"/><path class="cls-15" d="M123,120l.07,0s0,0,0,0l0,0Z"/><path class="cls-16" d="M139.51,122.3c0-1.41-1-1.86-2.32-2a1.89,1.89,0,0,0-1.84,2.28,2.09,2.09,0,0,0,4.16-.33Z"/><path class="cls-9" d="M143.09,121.75a1.66,1.66,0,0,0,1.79-1.62,1.49,1.49,0,0,0-1.6-1.39,1.6,1.6,0,0,0-1.6,1.46A1.38,1.38,0,0,0,143.09,121.75Z"/><path class="cls-7" d="M119.56,297.28c0-.23,0-.47,0-.7l-.18.09c-.19.12-.23.24-.15.35A.81.81,0,0,0,119.56,297.28Z"/><path class="cls-7" d="M119.37,296.67c-.19.12-.23.24-.15.35C119.14,296.91,119.18,296.79,119.37,296.67Z"/><path class="cls-7" d="M149.19,331.08a6.8,6.8,0,0,1,.94-3.55c2.58-5.37,4.91-10.86,7.41-16.27.85-1.86.47-2.91-1.47-3.7C150,305.12,144,302.66,138,300c-2.46-1.1-3.58,0-4.52,1.92-2.52,5.25-5,10.52-7.56,15.77-1.26,2.58-.78,4,2.14,5.14,6.7,2.59,13.24,5.59,19.85,8.42Z"/><path class="cls-9" d="M133.21,281.44c-1.16-.62-1.84.43-2.43,1.3l-7.17,10.34c2.15,3,6.09,2.74,8.83,4.73,2.08,1.5,3.21.43,4.16-1.62.46-1,.94-2,1.44-2.95,1.19-2.36,2.45-4.69,3.66-7C139.59,283.33,136.06,283,133.21,281.44Z"/><path class="cls-9" d="M138,293.24c-.5,1-1,2-1.44,2.95C137.06,295.2,137.54,294.22,138,293.24Z"/><path class="cls-10" d="M207.6,280.42a1.26,1.26,0,0,0-.46-.42c-1,1.05-.22,1.23.64,1.4A1.66,1.66,0,0,0,207.6,280.42Z"/><path class="cls-10" d="M207.6,280.42a1.26,1.26,0,0,0-.46-.42h0A1.26,1.26,0,0,1,207.6,280.42Z"/><path class="cls-17" d="M177.38,117.12l-.71.67c0,.1.05.19.07.29s0,.41,0,.61a1.54,1.54,0,0,0,.58,1.38c3.13-.4,6.32,1.8,9.4-.26-.5-1.32-1-2.64-1.51-4C182.42,115,180.21,118,177.38,117.12Z"/><path class="cls-17" d="M177.38,117.12l-.71.67.71-.67Z"/><path class="cls-16" d="M177.38,117.12h0c2.83.86,5-2.14,7.88-1.26l.36-3.42a12.79,12.79,0,0,0-1.9.26l-.6.14c-.39.11-.78.23-1.15.37a9.77,9.77,0,0,0-1.38.67c-.28.17-.56.36-.83.56A9.42,9.42,0,0,0,177.38,117.12Z"/><path class="cls-16" d="M180.59,113.88a9.77,9.77,0,0,1,1.38-.67A9.77,9.77,0,0,0,180.59,113.88Z"/><path class="cls-16" d="M177.38,117.12a9.42,9.42,0,0,1,2.38-2.68,9.42,9.42,0,0,0-2.38,2.68Z"/><path class="cls-16" d="M182,113.21c.37-.14.76-.26,1.15-.37C182.73,113,182.34,113.07,182,113.21Z"/><path class="cls-16" d="M185.62,112.44a12.79,12.79,0,0,0-1.9.26,12.79,12.79,0,0,1,1.9-.26Z"/><path class="cls-16" d="M185.26,115.86l.36-3.42h0Z"/><path class="cls-16" d="M189.67,119.19c1.17,1.56,2.53.91,3.82.08a6.34,6.34,0,0,0,0-1.08c0-.13,0-.26-.06-.39a2.83,2.83,0,0,0-.43-1,2.21,2.21,0,0,0-1.46-.89,3.79,3.79,0,0,0-.93-.08C189.4,116.69,188.61,117.77,189.67,119.19Z"/><path class="cls-16" d="M193,116.75a2.21,2.21,0,0,0-1.46-.89A2.21,2.21,0,0,1,193,116.75Z"/><path class="cls-16" d="M193,116.75a2.83,2.83,0,0,1,.43,1A2.83,2.83,0,0,0,193,116.75Z"/><path class="cls-16" d="M196.21,116.63a1.37,1.37,0,0,0,1.46-1.53c0-.94-.61-1.42-1.57-1.49a1.5,1.5,0,0,0-1.44,1.58A1.37,1.37,0,0,0,196.21,116.63Z"/><polygon class="cls-15" points="175.99 117.97 176.11 117.88 176.09 117.86 175.99 117.97"/></g></g></svg>