<svg xmlns="http://www.w3.org/2000/svg" viewBox="0 0 350.94 350.94"><defs><style>.cls-1{fill:none;}.cls-2{fill:#9c999d;}.cls-3{fill:#5682ab;}.cls-4{fill:#804136;}.cls-5{fill:#333;}.cls-6{fill:#683126;}.cls-7{fill:#6e3529;}.cls-8{fill:#7ea6c5;}.cls-9{fill:#2f628a;}.cls-10{fill:#ece4df;}.cls-11{fill:#6791b5;}.cls-12{fill:#40719a;}.cls-13{fill:#f5d2aa;}.cls-14{fill:#eec49a;}.cls-15{fill:#4e251b;}.cls-16{fill:#fefefe;}</style></defs><title>资源 30</title><g id="图层_2" data-name="图层 2"><g id="OBJECTS"><path class="cls-1" d="M198.2,349.58l-.16-.08h0Z"/><path class="cls-2" d="M238.56,177.86c-1.71,3.66-1.2,7.27-3.26,10.73a127.4,127.4,0,0,0-8.66,16.49,147.54,147.54,0,0,1,8.92-16.62A65.19,65.19,0,0,0,238.83,178c4.75-10.14,5.08-20.66,1.43-31.8C243.91,157.33,243.31,167.73,238.56,177.86Z"/><path class="cls-2" d="M224.88,208.09c.09.21.14.38,0,.43-.23.22-.44.44-.67.65-.79,5.65.61,11.94.75,17.59-.16-6.35-1-12.9.6-19,.08-.21.18-.42.26-.64A5.09,5.09,0,0,0,224.88,208.09Z"/><path class="cls-2" d="M220,316.85l.45-.37Z"/><path class="cls-2" d="M157.8,193.16h0c.29.85.59,1.71.89,2.56h0C158.39,194.87,158.09,194,157.8,193.16Z"/><path class="cls-2" d="M264.06,298.47l-1.87.15,1.86-.15q4.14,11.79,7.67,23.73h0Q268.21,310.25,264.06,298.47Z"/><path class="cls-2" d="M213.89,226.25a40.13,40.13,0,0,0-.43-6.18h0A40.13,40.13,0,0,1,213.89,226.25Z"/><path class="cls-2" d="M154.23,322.12h0Z"/><path class="cls-2" d="M146.18,190.87c-.15-.29-.42-.63-.57-.93.15.3.42.64.57.93l2.5.76Z"/><path class="cls-2" d="M159.91,197.16c-.83,0-1.62-.08-1.44-1-.18.92.61,1,1.44,1a13.41,13.41,0,0,0,4.58,4.43A13.41,13.41,0,0,1,159.91,197.16Z"/><path class="cls-2" d="M211.87,190.24l-.06-.16h0Z"/><path class="cls-2" d="M213.46,220.07c3.89-3.63,6.95-7.26,10.75-10.9,0-.18,0-.35.08-.53C220.24,212.45,217.54,216.26,213.46,220.07Z"/><path class="cls-2" d="M105.22,291.86c-.06.16-.12.32-.19.48.07-.16.13-.32.19-.48L98,291.71Z"/><path class="cls-2" d="M213.86,230c0-.42,0-.83,0-1.24,0,.41,0,.82,0,1.24Z"/><path class="cls-2" d="M165.8,191c-4.85-.23-9.7-.55-14.56-.39h0C156.1,190.43,161,190.75,165.8,191Z"/><path class="cls-2" d="M131.42,294.28c-.54-.59-1.11-1.17-1.71-1.71C130.31,293.11,130.88,293.69,131.42,294.28Z"/><path class="cls-2" d="M151.69,318.16c-.56-.43-1.15-.85-1.69-1.3h0C150.54,317.31,151.13,317.73,151.69,318.16Z"/><path class="cls-2" d="M230,241.76a2,2,0,0,0-.34,0h0A2,2,0,0,1,230,241.76Z"/><path class="cls-2" d="M158.87,202c-3.07-3.76-5.93-7.72-10.19-10.34h0C152.94,194.25,155.8,198.21,158.87,202Z"/><path class="cls-2" d="M225,232.66a2.8,2.8,0,0,0,.79-1.62,2.8,2.8,0,0,1-.79,1.62Z"/><path class="cls-2" d="M212.63,323.33a39.18,39.18,0,0,0,5.85-5.81,2.29,2.29,0,0,0,1.31-.5,2.29,2.29,0,0,1-1.31.5A39.18,39.18,0,0,1,212.63,323.33Z"/><path class="cls-2" d="M212.59,315h0l-5.82,6.25Z"/><path class="cls-2" d="M116.85,122.28a2.71,2.71,0,0,0-1.51,2.41A2.71,2.71,0,0,1,116.85,122.28Z"/><polygon class="cls-2" points="191.51 337.24 191.5 337.25 191.51 337.24 191.51 337.24"/><path class="cls-2" d="M116.46,121.39l.76.74h0Z"/><path class="cls-2" d="M225,238.91c.59.42,1.2.83,1.81,1.22C226.15,239.74,225.54,239.33,225,238.91Z"/><path class="cls-2" d="M229.69,241.78c-.67-.32-1.32-.67-2-1.05.64.38,1.29.73,2,1.05Z"/><path class="cls-2" d="M203.36,322.12h0a3.54,3.54,0,0,0-1.49-2.72h0A3.54,3.54,0,0,1,203.36,322.12Z"/><path class="cls-2" d="M221.89,114.44a6.8,6.8,0,0,0-.94-1.59,6.8,6.8,0,0,1,.94,1.59Z"/><path class="cls-2" d="M158.69,323.82l-.15.09Z"/><path class="cls-2" d="M231.31,271.69c-.07-.09-.13-.2-.2-.31C231.18,271.49,231.24,271.6,231.31,271.69Z"/><path class="cls-2" d="M231.31,271.69a.92.92,0,0,0,1,.4h0A.92.92,0,0,1,231.31,271.69Z"/><path class="cls-2" d="M213.89,233.18a11.88,11.88,0,0,1,.25-2.58,23.44,23.44,0,0,1,7.5,1.17,23.44,23.44,0,0,0-7.5-1.17A11.88,11.88,0,0,0,213.89,233.18Z"/><path class="cls-2" d="M192.15,336.6h0l-.64.64h0Z"/><path class="cls-2" d="M151.88,55.28l2.16-1.6a6.21,6.21,0,0,0,.74-.2,6.21,6.21,0,0,1-.74.2l-2.16,1.6Z"/><path class="cls-2" d="M194.13,334h0l-.86.69a2.09,2.09,0,0,0-.42.42,2.09,2.09,0,0,1,.42-.42Z"/><path class="cls-2" d="M117.77,105.36c-.28,1.15-.53,2.3-.78,3.45h0c-.12.91-.25,1.82-.37,2.74.12-.92.25-1.83.37-2.74C117.24,107.66,117.49,106.51,117.77,105.36Z"/><path class="cls-2" d="M157.49,323.78a.8.8,0,0,0-.25.32h0A.8.8,0,0,1,157.49,323.78Z"/><path class="cls-2" d="M207.36,189.58l1.22-.39-1.22.39-.87.27h0Z"/><path class="cls-2" d="M141.67,248.34a1.69,1.69,0,0,1,.12,1.79,1.69,1.69,0,0,0-.12-1.79,73.58,73.58,0,0,0,0-10.91A73.58,73.58,0,0,1,141.67,248.34Z"/><path class="cls-2" d="M199.4,122a18.64,18.64,0,0,1,1.33-2.06A18.64,18.64,0,0,0,199.4,122a4.09,4.09,0,0,0-.7,0A4.09,4.09,0,0,1,199.4,122Z"/><path class="cls-2" d="M197.83,122.26a2.66,2.66,0,0,1,.87-.24A2.66,2.66,0,0,0,197.83,122.26Z"/><path class="cls-2" d="M200.73,120a14.76,14.76,0,0,1,1.55-1.78A14.76,14.76,0,0,0,200.73,120Z"/><path class="cls-2" d="M148.71,139.78a10.06,10.06,0,0,1,5.33,1.89c.27.08.52.17.59.41-.07-.24-.32-.33-.59-.41a10.06,10.06,0,0,0-5.33-1.89c-2.65-.91-5.39-.67-8.11-.64C143.32,139.11,146.06,138.87,148.71,139.78Z"/><path class="cls-2" d="M151.68,143.69c.93-.29,1.89.52,2.81.08h0C153.57,144.21,152.61,143.4,151.68,143.69Z"/><path class="cls-2" d="M154.49,143.76c0-.46.07-.92.11-1.38h0C154.56,142.84,154.53,143.3,154.49,143.76Z"/><path class="cls-2" d="M127.07,266.74a27.53,27.53,0,0,1,.05-3.14,14.58,14.58,0,0,0,3.93-1,14.58,14.58,0,0,1-3.93,1A27.53,27.53,0,0,0,127.07,266.74Z"/><path class="cls-2" d="M127.69,271.72c.16.76.34,1.51.55,2.25C128,273.23,127.85,272.48,127.69,271.72Z"/><path class="cls-2" d="M142,233.11l-.06.17Z"/><path class="cls-2" d="M235.63,289v0Z"/><path class="cls-2" d="M152.64,152.26a2.74,2.74,0,0,0,.55.09,2.74,2.74,0,0,1-.55-.09Z"/><path class="cls-2" d="M69.72,286.63l-4-5.41A38.85,38.85,0,0,1,62.89,262c.2-1.73-1.06-2.54-2-3.56C53.11,249.88,48.7,240.1,50,228.27c.84-7.54,9.54-14.3,13.37-20.74a4.09,4.09,0,0,0,.4-4c-2.95-8,6.35-26.76,10.54-33.54,4.4-7.1,2.86-13.3,7.74-20,1.92-2.64,1.62-5.19,2.86-8.27.64-10.69-4.08-21.3-4-32,0-4-.27-8.06.4-12.06C82.54,72,94.84,52.8,116.21,39c7-4.49,14.24-8.21,22.71-8.69,5.39-.31,10.42.78,14.43,4.79h0l.71.63,0,0,.78.67.68-.56h0c.75-7.92,5.94-12.17,12.55-15.28,1.44-.68,3.21-.55,4.37-1.86h12.51a2,2,0,0,0-.2.45c0,.06.09.16.14.24l.71.07,1.41.15a106.88,106.88,0,0,1,28.79,10.32,5.26,5.26,0,0,1,.75.59,58.35,58.35,0,0,1,13.87,7.13c8,5.24,15.79,10.86,22.32,18,7.6,7,11.84,16.09,15.91,25.29l.43,1a2.83,2.83,0,0,1,.77,2c5.52,10.94,7.5,22.64,7.4,34.79,0,6.88-5.76,13.74-6.48,20.57a26.15,26.15,0,0,0,.57,8.42h0c2.6,8.78,7.58,16.43,11.7,24.49a1.35,1.35,0,0,1,.72,1.23l1.42,2.41h0c6.65,10.3,17.06,21.12,16.77,33.78-.17,7.28-1.92,14.26-4.15,21.14a6.32,6.32,0,0,0,.08,4.7c6.25,14.91,6.91,29.63-1.83,43.94,5.37,2.05,10.7,4.23,16.08,6.26a175.46,175.46,0,1,0-269.36,4.66c7.48-3.5,15.24-6.28,23-9Z"/><path class="cls-2" d="M235.61,288.88c0-.06,0-.12,0-.17S235.61,288.82,235.61,288.88Z"/><path class="cls-2" d="M157.91,324.09a2,2,0,0,0,.57-.15,2,2,0,0,1-.57.15Z"/><path class="cls-2" d="M235.64,289.1s0,0,0-.06S235.64,289.08,235.64,289.1Z"/><path class="cls-2" d="M197.33,122.55a3.1,3.1,0,0,1,.5-.29A3.1,3.1,0,0,0,197.33,122.55Z"/><path class="cls-2" d="M161.15,147.68c-.21-.23-.42-.46-.64-.68h0C160.73,147.22,160.94,147.45,161.15,147.68Z"/><path class="cls-2" d="M139.44,139.14a16.46,16.46,0,0,0-5,1.36,16.46,16.46,0,0,1,5-1.36Z"/><path class="cls-2" d="M265.78,289.93h0a2.69,2.69,0,0,0,1.44-1.55A2.71,2.71,0,0,1,265.78,289.93Z"/><path class="cls-2" d="M124.92,246.05l-6.38-8h0l6.37,8a34.3,34.3,0,0,1,2,11.91A34.52,34.52,0,0,0,124.92,246.05Z"/><path class="cls-2" d="M91.46,329.56h0c2.32-7.54,4.83-15,7.63-22.39C96.29,314.55,93.78,322,91.46,329.56Z"/><path class="cls-2" d="M125.54,151a4.36,4.36,0,0,1,1,.06A4.36,4.36,0,0,0,125.54,151Z"/><path class="cls-2" d="M267.63,286.84c0,.2-.09.41-.13.62C267.54,287.25,267.59,287,267.63,286.84Z"/><path class="cls-2" d="M131.08,153.08c-.24-.12-.47-.25-.7-.38C130.61,152.83,130.84,153,131.08,153.08Z"/><path class="cls-2" d="M158.23,326.73a1.58,1.58,0,0,0-.31,0h0A1.58,1.58,0,0,1,158.23,326.73Z"/><path class="cls-2" d="M151.61,148.37c.92-.87.55-2.28-.17-3.85a1.39,1.39,0,0,1-.15-.63,1.39,1.39,0,0,0,.15.63C152.16,146.09,152.53,147.5,151.61,148.37Z"/><path class="cls-2" d="M152.73,154.64a6.21,6.21,0,0,0,3.85-3h0A6.21,6.21,0,0,1,152.73,154.64Z"/><path class="cls-2" d="M235.13,289.89l.29-.32-.29.32q-10.22,11.3-20.44,22.6Q224.91,301.18,235.13,289.89Z"/><path class="cls-2" d="M158.41,145.18c.22.24.44.47.67.69C158.85,145.65,158.63,145.42,158.41,145.18Z"/><path class="cls-2" d="M265.6,290.64a6.3,6.3,0,0,1-1.83,2.91A6.3,6.3,0,0,0,265.6,290.64Z"/><path class="cls-2" d="M157.42,144.13a6.34,6.34,0,0,0-2.78-1.8h0A6.34,6.34,0,0,1,157.42,144.13Z"/><path class="cls-2" d="M131.08,153.08a6.08,6.08,0,0,0,3.8.91h0A6.08,6.08,0,0,1,131.08,153.08Z"/><path class="cls-2" d="M112.84,232.39q-1-1-2.1-2Q111.81,231.36,112.84,232.39Z"/><path class="cls-2" d="M133.57,152.91l-.06,0Z"/><path class="cls-2" d="M114.29,233.82l1.41,1.42Z"/><path class="cls-2" d="M149.23,190.11a9.35,9.35,0,0,0,1.72-2.4,9.18,9.18,0,0,1-1.72,2.4Z"/><path class="cls-2" d="M212,190.68l.06.19Z"/><path class="cls-2" d="M180.39,21.61c-1.07,1.3-2,2.84-3.39,3.66l-4,.61,4-.61C178.43,24.45,179.32,22.91,180.39,21.61Z"/><path class="cls-2" d="M157.29,33.14h0a.93.93,0,0,1,0,.1c1,.37,1.35-.64,1.91-1.07A32.72,32.72,0,0,1,173,25.88C168.05,24,160.22,27.68,157.29,33.14Z"/><path class="cls-2" d="M218.4,110.32l.85.76Z"/><path class="cls-2" d="M127.12,290.63a15.92,15.92,0,0,1,1.35.91A15.92,15.92,0,0,0,127.12,290.63Z"/><path class="cls-2" d="M203.23,142c-.14-.25-.28-.18-.43,0C203,141.83,203.09,141.76,203.23,142Z"/><path class="cls-2" d="M131.42,294.28c.37.4.73.8,1.08,1.21C132.15,295.08,131.79,294.68,131.42,294.28Z"/><path class="cls-2" d="M165.55,42.2,165,42l.55.23Z"/><path class="cls-2" d="M152,318.43c.22.18.43.37.62.56C152.45,318.8,152.24,318.61,152,318.43Z"/><path class="cls-2" d="M198.18,146.1a17.74,17.74,0,0,1,4.55-3.94h0A17.74,17.74,0,0,0,198.18,146.1Z"/><path class="cls-2" d="M220.11,111.89l.07.09Z"/><path class="cls-2" d="M160,143.87a8.4,8.4,0,0,1,.49,1.35A8.4,8.4,0,0,0,160,143.87Z"/><path class="cls-2" d="M218.47,139.73c.23-.39.43-.42.59-.11-.16-.31-.36-.28-.59.11-2.81-1-5.14-1.28-7.07-.77C213.33,138.45,215.66,138.71,218.47,139.73Z"/><path class="cls-2" d="M221.13,148a2.45,2.45,0,0,0,0-3.22,8.58,8.58,0,0,0-1.59-4.41,8.58,8.58,0,0,1,1.59,4.41A2.45,2.45,0,0,1,221.13,148Z"/><path class="cls-2" d="M213.38,143a1.36,1.36,0,0,1,.79.42A1.36,1.36,0,0,0,213.38,143Z"/><path class="cls-2" d="M158.56,52.05h0l2,.29Z"/><path class="cls-2" d="M123.28,286.7l-.28-.11h0Z"/><path class="cls-2" d="M220.69,148.43a6.16,6.16,0,0,0,.44-.45A6.16,6.16,0,0,1,220.69,148.43Z"/><path class="cls-2" d="M291.84,224.48a62.62,62.62,0,0,0,2.91-14.68c.43-7.44-.46-14.69-3.89-21.46-.4,2.26.72,4.29,1,6.45,1.31,9.22,1.92,18.37-1.64,27.28C290.2,223.2,290.29,224.23,291.84,224.48Z"/><path class="cls-2" d="M210.87,154.4l-1.69-.39Z"/><path class="cls-2" d="M123.28,286.7c.19.08.37.15.55.24C123.65,286.85,123.47,286.78,123.28,286.7Z"/><path class="cls-2" d="M123.83,286.94a4.6,4.6,0,0,1,.76.41A4.6,4.6,0,0,0,123.83,286.94Z"/><path class="cls-2" d="M80.41,279.92a4.75,4.75,0,0,1,.46,1,4.75,4.75,0,0,0-.46-1c.24-2.3-.47-3-1.57-3.14C79.94,276.89,80.65,277.62,80.41,279.92Z"/><path class="cls-2" d="M125.63,289.89h0a13.78,13.78,0,0,1,1.49.74A13.78,13.78,0,0,0,125.63,289.89Z"/><path class="cls-2" d="M76,277.2c1-4.08-.8-6.82-4.16-8.85a10.07,10.07,0,0,1-1.19-1c-.24,4.07,1.55,7.49,3.56,10.83l1.79-1Z"/><path class="cls-2" d="M241.34,191.75a5,5,0,0,0-.12.76A5,5,0,0,1,241.34,191.75Z"/><path class="cls-2" d="M121.78,284.61a3.85,3.85,0,0,0-1,0h0A3.85,3.85,0,0,1,121.78,284.61Z"/><path class="cls-2" d="M215.74,233.59l.17.06Z"/><path class="cls-2" d="M235.32,130.74l.42.47Z"/><path class="cls-2" d="M224.48,116.5c.24.23.46.47.68.72C224.94,117,224.72,116.73,224.48,116.5Z"/><path class="cls-2" d="M207.67,149.23a6.21,6.21,0,0,1-1.63-3.47A6.21,6.21,0,0,0,207.67,149.23Z"/><path class="cls-2" d="M130.07,304.45a8.54,8.54,0,0,0,1.76-.17A8.54,8.54,0,0,1,130.07,304.45Z"/><path class="cls-2" d="M208.23,149.87l-.07-.08Z"/><path class="cls-2" d="M196.74,147.72h0a.5.5,0,0,0-.11-.1A.5.5,0,0,1,196.74,147.72Z"/><path class="cls-2" d="M158.31,326.74a1.13,1.13,0,0,1,.34.11A1.13,1.13,0,0,0,158.31,326.74Z"/><path class="cls-2" d="M151.54,186.37c-.17.43-.35.85-.56,1.27C151.19,187.22,151.37,186.8,151.54,186.37Z"/><path class="cls-2" d="M261.22,296.21c-.22.21-.46.41-.71.62C260.76,296.62,261,296.42,261.22,296.21Z"/><path class="cls-2" d="M230.87,151a16.34,16.34,0,0,0-1.62.56A16.34,16.34,0,0,1,230.87,151Z"/><path class="cls-2" d="M116.37,101.7c0-.6.07-1.19.13-1.78C116.44,100.51,116.4,101.1,116.37,101.7Z"/><path class="cls-2" d="M192.24,349.15h5.21c.19.1.39.24.59.35h0c-.2-.11-.4-.25-.6-.35Z"/><path class="cls-2" d="M211.88,190.28l.08.24Z"/><path class="cls-2" d="M74.43,290.2c-1.64-1.08-3.15-2.37-4.71-3.57Q62.52,292,55.31,297.3c4.81-3.54,9.61-7.11,14.41-10.66C71.28,287.83,72.79,289.12,74.43,290.2Z"/><path class="cls-2" d="M125.63,113.49c0-.62.11-1.24.19-1.86C125.74,112.25,125.67,112.87,125.63,113.49Z"/><path class="cls-2" d="M151.83,152.8l.81-.54h0Z"/><path class="cls-2" d="M116.82,97.27q.12-.88.27-1.77Q116.94,96.39,116.82,97.27Z"/><path class="cls-2" d="M196.63,147.62a.37.37,0,0,0-.38,0l1.35-4.48h0l-1.35,4.48A.37.37,0,0,1,196.63,147.62Z"/><path class="cls-2" d="M81.26,172.66c-2.18,1.74-15.39,20-13.74,25.46,1.63-2,6.57-3.49,6.37-6.34C73.06,185.17,79,178.84,81.26,172.66Z"/><path class="cls-2" d="M208.93,185.47a6,6,0,0,1-.29,3.7h0A6,6,0,0,0,208.93,185.47Z"/><path class="cls-2" d="M154,51.78l-1.21-.18Z"/><path class="cls-2" d="M213.89,226.25c0,.83,0,1.65,0,2.48C213.88,227.9,213.89,227.08,213.89,226.25Z"/><path class="cls-2" d="M234.88,130.29a3,3,0,0,0-2.35-.92h0A3,3,0,0,1,234.88,130.29Z"/><path class="cls-2" d="M76.47,291.38a18.66,18.66,0,0,1-2-1.18A18.66,18.66,0,0,0,76.47,291.38Z"/><path class="cls-2" d="M148,346.77a82.94,82.94,0,0,0-14.36-1h0A82.94,82.94,0,0,1,148,346.77Z"/><path class="cls-2" d="M126.31,263.49h0q-2,4.56-4,9.1l-6.49,6.74,6.49-6.74Q124.32,268,126.31,263.49Z"/><path class="cls-2" d="M147.69,347.81l-2.46,0Z"/><path class="cls-2" d="M147.72,347.81c1.65,0,3.3,0,4.94,0h0C151,347.83,149.37,347.83,147.72,347.81Z"/><path class="cls-2" d="M119.22,283.25l-4.79,13.14c-2.77,7.38-5.15,14.86-7.24,22.42,2.09-7.56,4.48-15,7.24-22.42Z"/><path class="cls-2" d="M237.5,207.53q1.37-5.57,2.72-11.14c1-1,.88-2.23,1-3.5-.09,1.27,0,2.5-1,3.5Q238.86,202,237.5,207.53Z"/><path class="cls-2" d="M212.58,188.43a.79.79,0,0,1,0,.25A.79.79,0,0,0,212.58,188.43Z"/><path class="cls-2" d="M152,56.44l0,.28Z"/><path class="cls-2" d="M210.87,154.4a25.83,25.83,0,0,0,9.49.33c2.81-.17,5.24-1.53,7.75-2.65-2.51,1.12-4.94,2.48-7.75,2.65A25.83,25.83,0,0,1,210.87,154.4Z"/><path class="cls-2" d="M158.54,140c0,.05,0,.11,0,.17S158.54,140.06,158.54,140Z"/><path class="cls-2" d="M252.09,278a14.55,14.55,0,0,1,4.61,2.8A14.55,14.55,0,0,0,252.09,278Z"/><path class="cls-2" d="M95.79,78.1a3.82,3.82,0,0,1-1-.64A3.82,3.82,0,0,0,95.79,78.1Z"/><path class="cls-2" d="M236.63,145.46c-.54-.67-1-1.41-1.47-2.13h0C235.65,144,236.09,144.79,236.63,145.46Z"/><path class="cls-2" d="M120.12,96.9c-.72,2.22-1.36,4.48-1.93,6.75C118.76,101.38,119.4,99.12,120.12,96.9Z"/><path class="cls-2" d="M208.58,150.25a7.61,7.61,0,0,1-1.92,3,7.61,7.61,0,0,0,1.92-3Z"/><path class="cls-3" d="M103.29,296.7c.62-1.44,1.17-2.9,1.74-4.36.07-.16.13-.32.19-.48L98,291.71l-1.77,1.1,4.36,1.28c-9.71.32-18.85,4.6-28.93,4.14,2.55-.92,4.78-2,6.42-3.94.92-1.1,1-1.87-.51-2.44-.37-.14-.74-.3-1.1-.47a18.66,18.66,0,0,1-2-1.18c-1.64-1.08-3.15-2.37-4.71-3.56-4.8,3.55-9.6,7.12-14.41,10.66-1.18.87-2.37,1.74-3.53,2.62a176.27,176.27,0,0,0,39.68,29.64c2.32-7.54,4.83-15,7.63-22.39Q101.09,301.91,103.29,296.7Z"/><path class="cls-4" d="M156.26,35.61a.9.9,0,0,0,.33-.74,4.78,4.78,0,0,1,.13-1.21.9.9,0,0,1,.57-.52c2.93-5.46,10.76-9.1,15.68-7.26l4-.61c1.43-.82,2.32-2.36,3.39-3.66a5.06,5.06,0,0,1,4.46-2.23c0-.08-.16-.18-.14-.24a2,2,0,0,1,.2-.45H172.4c-1.16,1.31-2.93,1.18-4.37,1.86-6.61,3.11-11.8,7.36-12.55,15.28a2,2,0,0,0,.44-.06A.89.89,0,0,0,156.26,35.61Z"/><path class="cls-5" d="M262.19,298.62l-3.36.28L258,299a16.33,16.33,0,0,1,1.37-1.2l1.18-.95c.25-.21.49-.41.71-.62a6.12,6.12,0,0,0,1.4-1.8,14.48,14.48,0,0,1-1.2-2.85,4,4,0,0,1-.08-1.05c-3.56-.29-7.2.58-10.9-.7.58-.39,1.18-.75,1.79-1.09,2.62-1.48,5.26-2.75,5.94-6.1a9.44,9.44,0,0,0-1.47-1.81,14.55,14.55,0,0,0-4.61-2.8c-.62-.26-1.25-.5-1.87-.74s-1.39-.51-2.07-.79a.92.92,0,0,0-.73,0,1.54,1.54,0,0,0-.46.29,3.19,3.19,0,0,0-.43.46c-.64.79-1.23,2-1.83,2.69,1,2.83,2.32,5.55,3.22,8.41a21.56,21.56,0,0,1,.89,4h0a46.08,46.08,0,0,1,3.8,10.35c.32,1.18.65,2.36,1,3.53q1.69,5.56,3.32,11.14,1.71,5.86,3.31,11.76,5.88-3.25,11.47-6.93-3.51-12-7.67-23.73Z"/><path class="cls-5" d="M114.43,296.39l4.79-13.14q-1.69-2-3.37-3.92l-6,3.34c-1.64,3-2.59,6.36-4.59,9.19-.06.16-.12.32-.19.48-.57,1.46-1.12,2.92-1.74,4.36q-2.21,5.21-4.2,10.47c-2.8,7.38-5.31,14.85-7.63,22.39q5.7,3.12,11.65,5.81,1.83-8.34,4.08-16.56C109.28,311.25,111.66,303.77,114.43,296.39Z"/><path class="cls-5" d="M105,292.34c-.57,1.46-1.12,2.92-1.74,4.36C103.91,295.26,104.46,293.8,105,292.34Z"/><path class="cls-3" d="M264.06,298.47q4.13,11.77,7.66,23.73a176.55,176.55,0,0,0,34.86-30.11,143.87,143.87,0,0,0-13.36-8.87A52.19,52.19,0,0,1,264.88,298C264.59,298,264.33,298.29,264.06,298.47Z"/><path class="cls-4" d="M284.65,176.41c-.57.94-.49,1.92.67,3.28.23.27.41,1,.26,1.14-2.56,2.92,4.92,5,5.28,7.51,3.43,6.77,4.32,14,3.89,21.46a62.62,62.62,0,0,1-2.91,14.68c-1.55-.25-1.64-1.28-1.59-2.41a2.69,2.69,0,0,1-2.22-1.23c-6.23-7.88-14.44-14-20-22.49s-13-17.24-11.66-27.25c.94-7.18,3.07-14,4.73-21,.45-1.89-.58-4,.85-5.69-.3-4.44,1.32-8.9.21-13.33-1.76-7-1.58-12.25-7.75-15.67-5.74-3.18-11.39-6.46-16.19-11a187.06,187.06,0,0,1-19.49-20.8c-7.69-9.77-14.94-19.94-24.07-28.45-5.88-5.49-12.42-10.27-21-10.1a22,22,0,0,0-8.33,1.68,17.2,17.2,0,0,0-6.81,5.27l2,.29,3.32-.25c-.11-1.5.74-1.78,2-1.82A23.51,23.51,0,0,1,185.41,59c.69.8,1.27,1.59.12,2.48,7.7,6.87,12.33,15.7,16.07,25.12,3.58,9,9.39,16.44,16.25,23.17l.55.53.85.76.86.81.07.09a10.63,10.63,0,0,1,.77.87,6.8,6.8,0,0,1,.94,1.59c.87.67,1.79,1.31,2.59,2.06.24.23.46.47.68.72a6.55,6.55,0,0,1,.83,1.22,5.2,5.2,0,0,1,.34.8h0a22.36,22.36,0,0,1,5.36,4.27c1.53,1.59,2.94,3.32,4.42,5,.3,0,.41,0,.12.14.19.23-3.3.46-3.63.68,0,0,0,0,0,.06h0a3,3,0,0,1,2.35.92c.15.14.29.29.44.45l.42.47a9.68,9.68,0,0,0,.9.91c5.17,4.43,7.26,10.21,9.5,16.37,2.05,5.64.75,11.54-.48,17.42-1.85,8.86.49,16.93-3.89,24.7a4.09,4.09,0,0,0-.43,1.14,5,5,0,0,0-.12.76l0,.38c-.09,1.27,0,2.5-1,3.5q-1.36,5.56-2.72,11.14c-.65,5-1.47,9.89-1.32,14.95.22,7.53,2.27,14,8.11,19.24,6.33,5.66,12.71,11.39,17.32,18.62,5,7.9,8.48,16.32,6.13,26,0,.16-.07.33-.11.5s-.09.41-.13.62a7,7,0,0,1-.28.92,2.69,2.69,0,0,1-1.44,1.55c0,.24-.11.48-.18.71a6.3,6.3,0,0,1-1.83,2.91,7.83,7.83,0,0,1-1.15.86h0a6.12,6.12,0,0,1-1.4,1.8c-.22.21-.46.41-.71.62l-1.18.95A16.33,16.33,0,0,0,258,299l.87-.08,3.36-.28,1.87-.15c.27-.18.53-.46.82-.51a52.19,52.19,0,0,0,28.34-14.74,12.17,12.17,0,0,1,2.79-3.9c8.74-14.31,8.08-29,1.83-43.94a6.32,6.32,0,0,1-.08-4.7c2.23-6.88,4-13.86,4.15-21.14.29-12.66-10.12-23.48-16.77-33.78h0A4.61,4.61,0,0,0,284.65,176.41Zm.49,53.12c-7.69-6.9-17.52-9.47-25.56-15.25-7.28-5.22-10.16-16-7.14-23.94,1-2.63-2.22-5.25-1-8.31,1.4,3.91,5.69,7.61,7,11.1,2.43,6.49,6.35,11.87,10.9,16.88,5.2,5.72,10.79,11.11,15.38,17.38A2,2,0,0,1,285.14,229.53Z"/><path class="cls-4" d="M259.33,297.78l1.18-.95Z"/><path class="cls-4" d="M262.62,294.41h0a6.12,6.12,0,0,1-1.4,1.8A6.12,6.12,0,0,0,262.62,294.41Z"/><path class="cls-4" d="M262.19,298.62l-3.36.28Z"/><path class="cls-6" d="M150.67,34.72c-.34-.1-.69-.22-1-.34a15.41,15.41,0,0,0-4.75-1.28c-6.76-.23-12.67,2.22-18.21,5.56C116.59,44.75,108.4,53,101.39,62.37a115.86,115.86,0,0,0-7.23,10.47,4.83,4.83,0,0,0-.32.59,3.66,3.66,0,0,0-.43,1.85,5.2,5.2,0,0,0,1.39,2.18,3.82,3.82,0,0,0,1,.64,4.57,4.57,0,0,0,1.13.39,6.83,6.83,0,0,0,1.79.13c.77,0,1.86-.46,2.25.64a1.85,1.85,0,0,1-.51,1.43,1.76,1.76,0,0,1-2.38.17c-2.3-1.43-4.84-.82-7.29-1-.76.48-.63,1.25-.66,2,1.33,3.49,4.66,2.69,7.27,3.24a27,27,0,0,0,5.25.07A51.34,51.34,0,0,1,116.2,63.36c7.27-7.07,15.69-11.21,26-11.93a59.55,59.55,0,0,1,7.3-.12c1.08.06,2.15.16,3.22.29l1.21.18c.91.14,1.82.31,2.73.53l1.87-.26h0a17.2,17.2,0,0,1,6.81-5.27,22,22,0,0,1,8.33-1.68c8.55-.17,15.09,4.61,21,10.1,9.13,8.51,16.38,18.68,24.07,28.45a187.06,187.06,0,0,0,19.49,20.8c4.8,4.49,10.45,7.77,16.19,11,6.17,3.42,6,8.67,7.75,15.67,1.11,4.43-.51,8.89-.21,13.33h1.32c-.74-10.91,7.34-21.68,6.49-32.58-.15-1.94-.37-3.88-.62-5.81-.16-1.29-.34-2.57-.52-3.86l-.54-3.86c-.08-.65-.17-1.29-.25-1.93-.14-.2-.27-.41-.39-.61a12.12,12.12,0,0,1-1.11-2.6c-.75-2.47-1-5.12-2.11-7.49-3.53-7.26-7-14.56-10.92-21.6-1.57-2.79-1.14-5.58-.61-8.44-6.53-7.12-14.28-12.74-22.32-18a58.35,58.35,0,0,0-13.87-7.13c-1.29.69-3.84-.43-3.54,2.61.07.71-.95.49-1.62.45-5.17-.27-9.88-2.35-14.75-3.78-6.45-1.88-12.74-4.41-19.6-4.52l-4,.61a32.72,32.72,0,0,0-13.71,6.29c-.56.43-.9,1.44-1.91,1.07.46.83-.57,1.06-.76,1.63h0a.86.86,0,0,1-.67.9,2,2,0,0,1-.44.06h0l-.68.56-.78-.67.78.67-.78-.67,0,0-.71-.63a6.78,6.78,0,0,1-1.63-.14C151.36,34.91,151,34.82,150.67,34.72Zm76,14.75c.7-.95,1.7-.31,2.64.12A54.86,54.86,0,0,1,249,64.85c6.24,7.63,9.51,16.81,10.62,26.78-3-4.36-6-8.71-8.89-13.09A168.19,168.19,0,0,0,236,60.26c-2.6-2.91-5.51-5.55-8.26-8.33C227,51.25,225.93,50.49,226.69,49.47ZM174.06,33.83c7.57-2.85,14.41-.59,20.91,3.22,9.11,5.33,15.05,13.75,21,22.1,7.32,10.3,13.75,21.25,22.46,30.53,7.09,7.55,7.86,8,15.13,11.52-3.43.53-6.64-.46-9.7-1.74-8.43-3.53-14.27-10.24-20.07-16.9-9.41-10.8-16.24-23.5-25.29-34.56-5.34-6.52-11.88-11.35-20.8-11.5-4.29-.08-8,1.69-11.46,4.25A13.87,13.87,0,0,1,174.06,33.83ZM165,42l.55.23h0a3.68,3.68,0,0,1-.17.44.15.15,0,0,1-.08.08.53.53,0,0,1-.5-.22C164.75,42.37,164.92,42.15,165,42Z"/><polygon class="cls-6" points="153.35 35.12 153.35 35.12 153.35 35.12 153.35 35.12"/><path class="cls-6" d="M156.26,35.61a.9.9,0,0,0,.33-.74h0A.9.9,0,0,1,156.26,35.61Z"/><path class="cls-6" d="M155.92,35.77a2,2,0,0,1-.44.06h0A2,2,0,0,0,155.92,35.77Z"/><path class="cls-6" d="M165.37,46.78a17.2,17.2,0,0,0-6.81,5.27h0A17.2,17.2,0,0,1,165.37,46.78Z"/><path class="cls-7" d="M269.5,150.63a9.44,9.44,0,0,0-.35,1.26,11.43,11.43,0,0,0-.18,1.29,26.41,26.41,0,0,0,.09,4.46c.54,6.89,3,13.85,5,20.54.93,3,6.8,5.77,6.9,9h0l.27.15-.27-.15h0c-1.48-.11-1.84-1.46-2.47-2.39-4.8-7.12-13.42-15.15-14.85-23.52-.95-5.57-.08-11.23-.4-16.87H262c-1.43,1.71-.4,3.8-.85,5.69-1.66,7-3.79,13.83-4.73,21-1.31,10,6.2,18.85,11.66,27.25S281.8,213,288,220.84a2.69,2.69,0,0,0,2.22,1.23c3.56-8.91,2.95-18.06,1.64-27.28-.31-2.16-1.43-4.19-1-6.45-.36-2.49-7.84-4.59-5.28-7.51.15-.18,0-.87-.26-1.14-1.16-1.36-1.24-2.34-.67-3.28a4.61,4.61,0,0,1,.49-.65l-1.42-2.41a1.2,1.2,0,0,1-.72-1.23c-4.12-8.06-9.1-15.71-11.7-24.49h0A8.34,8.34,0,0,0,269.5,150.63Z"/><path class="cls-7" d="M285.14,175.76h0a4.61,4.61,0,0,0-.49.65A4.61,4.61,0,0,1,285.14,175.76Z"/><path class="cls-8" d="M293.22,283.22a143.87,143.87,0,0,1,13.36,8.87q2.84-3.19,5.51-6.51c-5.38-2-10.71-4.21-16.08-6.26A12.17,12.17,0,0,0,293.22,283.22Z"/><path class="cls-4" d="M268.8,88.27c.48,2.83.8,5.56-1,8.09h0c.08.64.17,1.28.25,1.93l.54,3.86c.18,1.29.36,2.57.52,3.86.25,1.93.47,3.87.62,5.81.85,10.9-7.23,21.67-6.49,32.58.32,5.64-.55,11.3.4,16.87,1.43,8.37,10.05,16.4,14.85,23.52.63.93,1,2.28,2.47,2.39-.1-3.23-6-6-6.9-9-2.08-6.69-4.5-13.65-5-20.54a26.41,26.41,0,0,1-.09-4.46,11.43,11.43,0,0,1,.18-1.29,9.44,9.44,0,0,1,.35-1.26,8.34,8.34,0,0,1,1.8-3,26.15,26.15,0,0,1-.57-8.42c.72-6.83,6.43-13.69,6.48-20.57.1-12.15-1.88-23.85-7.4-34.79C267.39,84.83,268.54,86.76,268.8,88.27Z"/><path class="cls-4" d="M268.63,102.15l-.54-3.86Z"/><path class="cls-4" d="M267.84,96.36h0c.08.64.17,1.28.25,1.93-.08-.65-.17-1.29-.25-1.93Z"/><path class="cls-4" d="M269.15,106c-.16-1.29-.34-2.57-.52-3.86C268.81,103.44,269,104.72,269.15,106Z"/><path class="cls-4" d="M271.3,147.63h0a8.34,8.34,0,0,0-1.8,3A8.34,8.34,0,0,1,271.3,147.63Z"/><path class="cls-4" d="M269,153.18a11.43,11.43,0,0,1,.18-1.29A11.43,11.43,0,0,0,269,153.18Z"/><polygon class="cls-4" points="281 187.18 281 187.18 281 187.18 281 187.18"/><path class="cls-7" d="M180.39,21.61c-1.07,1.3-2,2.84-3.39,3.66,6.86.11,13.15,2.64,19.6,4.52,4.87,1.43,9.58,3.51,14.75,3.78.67,0,1.69.26,1.62-.45-.3-3,2.25-1.92,3.54-2.61a5.26,5.26,0,0,0-.75-.59A106.88,106.88,0,0,0,187,19.6l-.78.83-.63-1-.71-.07A5.06,5.06,0,0,0,180.39,21.61Z"/><path class="cls-7" d="M253.31,64.06c3.94,7,7.39,14.34,10.92,21.6,1.15,2.37,1.36,5,2.11,7.49a12.12,12.12,0,0,0,1.11,2.6c.12.2.25.41.39.61,1.76-2.53,1.44-5.26,1-8.09-.26-1.51-1.41-3.44,1-4.42a2.83,2.83,0,0,0-.77-2l-.43-1c-4.07-9.2-8.31-18.31-15.91-25.29C252.17,58.48,251.74,61.27,253.31,64.06Z"/><path class="cls-7" d="M267.45,95.75a12.12,12.12,0,0,1-1.11-2.6A12.12,12.12,0,0,0,267.45,95.75Z"/><path class="cls-7" d="M267.45,95.75c.12.2.25.41.39.61h0C267.7,96.16,267.57,96,267.45,95.75Z"/><path class="cls-4" d="M187,19.6l-1.41-.15.63,1Z"/><path class="cls-4" d="M283.72,173.35a1.35,1.35,0,0,0-.72-1.23A1.2,1.2,0,0,0,283.72,173.35Z"/><path class="cls-4" d="M70.55,267.34l0,0v-.06Z"/><path class="cls-4" d="M76.47,291.38c.36.17.73.33,1.1.47,1.49.57,1.43,1.34.51,2.44-1.64,2-3.87,3-6.42,3.94,10.08.46,19.22-3.82,28.93-4.14l-4.36-1.28,1.77-1.1c.36-.3.71-.61,1-.92a31.94,31.94,0,0,0,6.32-7.34c4.91-7.73,4.38-17.42.1-25.15-.35-.62-.71-1.22-1.1-1.81a27.56,27.56,0,0,0-3.34-4.13c-.7-.7-1.36-1.43-2.1-2.08-3.17-2.76-5.63-5-3-10.21,2.55-5,.19-10.92-1.07-16.29-1.64-7,2.61-14,2.83-21.3.18-5.7,8-11.08,9.08-16.36.2-1,.31-1.92.46-2.89-1.16-.89-2.89-.56-4.38-.88a3.24,3.24,0,0,1-1.37-.6c-1.34-1.05-2.09-1.71-1.53-3.69,1.36-4.8,4-8.48,7-12.16,7.78-9.48,2.69-20,6.1-31.77.72-2.49.67-5.19,2.06-7.49a6.37,6.37,0,0,0,.11-.63l.06-.66.06-.66a2.71,2.71,0,0,1,1.51-2.41,2,2,0,0,1,.37-.15l-.76-.74c-1.54-2.33-.48-4.73-.2-7.11q.17-1.36.36-2.73c.12-.92.25-1.83.37-2.74-.15-.59-.28-1.19-.37-1.78s-.17-1.19-.22-1.78-.07-1.19-.07-1.78,0-1.18,0-1.77.07-1.19.13-1.78c.08-.88.2-1.77.32-2.65q.12-.88.27-1.77c0-.29.09-.59.13-.88,1.47-9.26,4.69-17.91,10.52-25.31,6.42-8.15,14.52-14,24.9-16.08.62-.13,1.06-.09,1.4.45a6.21,6.21,0,0,0,.74-.2,4.87,4.87,0,0,0,1.91-1.17c-.91-.22-1.82-.39-2.73-.53l-1.21-.18c-1.07-.13-2.14-.23-3.22-.29a59.55,59.55,0,0,0-7.3.12c-10.34.72-18.76,4.86-26,11.93a51.34,51.34,0,0,0-13.56,21.81l-2,19.11c-.64,6-1.59,12.07-1.87,18.13-.53,11.28,6.57,21.72,3,32.21-2.28,6.69-4.43,13.28-7.88,19.51C90.31,180.56,80,185.42,75.7,191.28c-.29.39-1.19.34-1.81.5.2,2.85-4.74,4.36-6.37,6.34-1.65-5.51,11.56-23.72,13.74-25.46,2.41-2.46,2.45-5.95,4.41-8.71,4.34-6.12.73-12.19,4-19,4.26-8.94,4-18.33,5.08-28.14.24-2.15,1.15-4.25.36-7-1.55,7-3.29,13.48-6.32,19.48-2.12,4.2-.49,8.9-3.84,12.43-1.24,3.08-.94,5.63-2.86,8.27-4.88,6.73-3.34,12.93-7.74,20-4.19,6.78-13.49,25.56-10.54,33.54a4.09,4.09,0,0,1-.4,4C59.56,214,50.86,220.73,50,228.27c-1.32,11.83,3.09,21.61,10.88,30.16.93,1,2.19,1.83,2,3.56a38.85,38.85,0,0,0,2.86,19.23l4,5.41c1.56,1.2,3.07,2.49,4.71,3.57A18.66,18.66,0,0,0,76.47,291.38Zm-.31-78c.12-.6,11-17.1,11-17.07,1,10.21-.77,19.78,1.68,28.91,1.27,4.76,2.28,9.55,1.92,14.53-.08,1.1-.16,2.79-1.7,1.21-4.82-5-10.77-9-13.31-15.92C74.36,221.17,75.45,217.1,76.16,213.4ZM64.87,253a26.05,26.05,0,0,1-7.68-19.23c.07-2.87,2.11-4.72,3.1-7.09a1.13,1.13,0,0,1,1.43-.54,2.21,2.21,0,0,1,1.34,2.08c.28,2.16.42,4.36.55,6.5.51,8.74,6.18,13.59,12.7,17.89,5.29,3.48,10.56,6.93,14.68,11.87a11.37,11.37,0,0,1-.65,14.92c-.74.74-1.43,1.52-2.2,2.33-1.3-1.46-.08-2.65,0-3.84.66-6.75-2.23-11.68-8.73-15C74.21,260.18,69,257.36,64.87,253Zm5.73,14.34,0,0-.12,0,.1-.06h.07v.06a10.07,10.07,0,0,0,1.19,1c3.36,2,5.18,4.77,4.16,8.85a9.89,9.89,0,0,1,2.89-.42c1.1.11,1.81.84,1.57,3.14a4.75,4.75,0,0,1,.46,1,.57.57,0,0,1,0,.13c-.33,1.58,1.76,3.9-.3,4.54-1.36.42-2.93-1.74-3.66-3.51a7.16,7.16,0,0,1-2.74-3.89C72.15,274.87,70.36,271.45,70.6,267.38Z"/><path class="cls-4" d="M154,51.78c.91.14,1.82.31,2.73.53h0C155.78,52.09,154.87,51.92,154,51.78Z"/><path class="cls-4" d="M152.75,51.6c-1.07-.13-2.14-.23-3.22-.29C150.61,51.37,151.68,51.47,152.75,51.6Z"/><path class="cls-7" d="M95.09,109.82c.79,2.72-.12,4.82-.36,7-1.1,9.81-.82,19.2-5.08,28.14-3.25,6.83.36,12.9-4,19-2,2.76-2,6.25-4.41,8.71-2.25,6.18-8.2,12.51-7.37,19.12.62-.16,1.52-.11,1.81-.5,4.3-5.86,14.61-10.72,18.18-17.15,3.45-6.23,5.6-12.82,7.88-19.51,3.57-10.49-3.53-20.93-3-32.21.28-6.06,1.23-12.09,1.87-18.13l2-19.11a27,27,0,0,1-5.25-.07c-2.61-.55-5.94.25-7.27-3.24-2,1.43-3.53,3.06-3.45,5.8.12,3.75-2.83,9.09-5.38,10-.67,4-.39,8-.4,12.06,0,10.67,4.68,21.28,4,32,3.35-3.53,1.72-8.23,3.84-12.43C91.8,123.3,93.54,116.81,95.09,109.82Z"/><path class="cls-8" d="M51.78,299.92c1.16-.88,2.35-1.75,3.53-2.62q7.21-5.31,14.41-10.67l-4-5.41c-7.78,2.74-15.54,5.52-23,9Q47.07,295.25,51.78,299.92Z"/><path class="cls-4" d="M86.67,87.66c-.08-2.74,1.47-4.37,3.45-5.8,0-.72-.1-1.49.66-2,.72-1.62.64-3.71,2.63-4.61h0a3.66,3.66,0,0,1,.43-1.85,4.83,4.83,0,0,1,.32-.59,115.86,115.86,0,0,1,7.23-10.47c7-9.42,15.2-17.62,25.29-23.71,5.54-3.34,11.45-5.79,18.21-5.56a15.41,15.41,0,0,1,4.75,1.28c.34.12.69.24,1,.34s.69.19,1.05.26a6.78,6.78,0,0,0,1.63.14h0c-4-4-9-5.1-14.43-4.79-8.47.48-15.75,4.2-22.71,8.69C94.84,52.8,82.54,72,81.29,97.7,83.84,96.75,86.79,91.41,86.67,87.66Z"/><polygon class="cls-4" points="153.35 35.12 153.35 35.12 153.35 35.12 153.35 35.12 153.35 35.12"/><path class="cls-4" d="M153.35,35.12Z"/><path class="cls-4" d="M151.72,35a6.78,6.78,0,0,0,1.63.14h0A6.78,6.78,0,0,1,151.72,35Z"/><path class="cls-4" d="M150.67,34.72c.35.1.69.19,1.05.26C151.36,34.91,151,34.82,150.67,34.72Z"/><path class="cls-4" d="M149.64,34.38c.34.12.69.24,1,.34C150.33,34.62,150,34.5,149.64,34.38Z"/><path class="cls-4" d="M93.84,73.43a3.66,3.66,0,0,0-.43,1.85h0A3.66,3.66,0,0,1,93.84,73.43Z"/><path class="cls-9" d="M105.37,283.45a31.94,31.94,0,0,1-6.32,7.34c-.34.31-.69.62-1,.92l7.22.15c2-2.83,3-6.18,4.59-9.19l-4.44.78Z"/><path class="cls-9" d="M105.37,283.45h0a31.94,31.94,0,0,1-6.32,7.34A31.94,31.94,0,0,0,105.37,283.45Z"/><path class="cls-10" d="M157.27,33.18l0,0a.43.43,0,0,0,0-.07.9.9,0,0,0-.57.52,4.78,4.78,0,0,0-.13,1.21c.19-.57,1.22-.8.76-1.63l-.1,0Z"/><path class="cls-10" d="M156.59,34.87h0a4.78,4.78,0,0,1,.13-1.21A4.78,4.78,0,0,0,156.59,34.87Z"/><path class="cls-10" d="M157.27,33.18l0,0h0a.43.43,0,0,1,0,.07Z"/><path class="cls-10" d="M157.27,33.18l0,0,.1,0a.93.93,0,0,0,0-.1Z"/><path class="cls-3" d="M242.48,298.09c-.76.57-1.52,1.15-2.23,1.78-6.47,5.68-13.18,11.08-19.78,16.61l-.45.37-.23.17a2.29,2.29,0,0,1-1.31.5,39.18,39.18,0,0,1-5.85,5.81c-2.11,1.77-4.3,3.45-6.33,5.29-5.32,4.81-11.39,8.74-16.47,13.84a7.21,7.21,0,0,1-1.56.79,4.68,4.68,0,0,1,.25-.8c.72-1.73,2.28-2.69,2.3-4.35l.68-.85h0l0,0h0l0,0h0l.64-.64a1.71,1.71,0,0,1,.38-1.21,2.42,2.42,0,0,1,.32-.32,2.09,2.09,0,0,1,.42-.42l.86-.69a1.85,1.85,0,0,1,2-2,3,3,0,0,1,2-2.63c1-3,4-4.44,5.27-7.23a3.54,3.54,0,0,0-1.49-2.72c-5.16,6.29-11.3,11.86-16,18.92a44.36,44.36,0,0,0-5.3,10.78,115.53,115.53,0,0,0-21.27-27.86c-.18.87.22,2-.61,2.58l-.15.09-.06,0a2,2,0,0,1-.57.15h0c0,.87,0,1.75,0,2.62a1.58,1.58,0,0,1,.31,0h.08a1.13,1.13,0,0,1,.34.11.89.89,0,0,1,.29.22,1.47,1.47,0,0,1,.3,1.05c3.4,3.66,5.63,8.18,9,11.95-3.55-.68-5.52-3.57-8-5.58q-12.4-10.07-24.44-20.6c-2.77-2.42-6-4.42-8.11-7.53-3.61-2.07-6.58-5-9.78-7.56a14.78,14.78,0,0,0-3.47-2.41c-2.76,7.38-5.15,14.86-7.24,22.42q-2.26,8.22-4.08,16.56a174.16,174.16,0,0,0,30,10.41h.5a82.94,82.94,0,0,1,14.36,1c1.58.27,3.15.6,4.71,1h0a21.21,21.21,0,0,1-4.19,1.1,177.8,177.8,0,0,0,49.57.62c-.2-.11-.4-.25-.59-.35h-5.21c4.42-1.91,9.14-2.32,13.74-2.55,3.29-.17,6.59-.29,9.9-.34a174.16,174.16,0,0,0,44.37-17.13q-1.59-5.89-3.31-11.76-1.62-5.58-3.32-11.14c-.36-1.17-.69-2.35-1-3.53a46.08,46.08,0,0,0-3.8-10.35C247.16,294.78,244.77,296.39,242.48,298.09Z"/><polygon class="cls-3" points="191.51 337.24 191.49 337.27 191.49 337.26 191.51 337.24 191.51 337.24"/><path class="cls-3" d="M252.61,302.7c.32,1.18.65,2.36,1,3.53C253.26,305.06,252.93,303.88,252.61,302.7Z"/><path class="cls-3" d="M107.19,318.81q-2.26,8.22-4.08,16.56h0Q104.94,327,107.19,318.81Z"/><path class="cls-3" d="M252.61,302.7a46.08,46.08,0,0,0-3.8-10.35h0A46.08,46.08,0,0,1,252.61,302.7Z"/><path class="cls-3" d="M260.25,329.13h0q-1.59-5.89-3.31-11.76Q258.65,323.23,260.25,329.13Z"/><path class="cls-6" d="M126.31,263.49h0c.16-.74.28-1.48.38-2.22,0-.37.09-.74.13-1.11.06-.73.1-1.47.12-2.2a34.3,34.3,0,0,0-2-11.91l-6.37-8c-1-.92-1.9-1.86-2.84-2.8l-1.41-1.42c-.48-.48-1-1-1.45-1.43q-1-1-2.1-2c-.72-.69-1.46-1.38-2.2-2-.5-.45-1-.88-1.5-1.31-7.08-6-6.24-22-2.39-31.45,2-5,8.41-9.27,10-13.27-.9-2.54-1-5.08-2-7.41a9.23,9.23,0,0,0-.88-1.71c-.12-.19-.25-.37-.39-.55l-.42,1.25a66.54,66.54,0,0,0-2.68,8.78c0,.26-.68.4-1,.6h0c-.15,1-.26,1.94-.46,2.89-1.09,5.28-8.9,10.66-9.08,16.36-.22,7.29-4.47,14.28-2.83,21.3,1.26,5.37,3.62,11.29,1.07,16.29-2.67,5.23-.21,7.45,3,10.21.74.65,1.4,1.38,2.1,2.08a27.56,27.56,0,0,1,3.34,4.13c.39.59.75,1.19,1.1,1.81,4.28,7.72,4.81,17.42-.1,25.15l4.44-.78,6-3.34,6.49-6.74Q124.32,268,126.31,263.49Z"/><path class="cls-6" d="M105.47,258.3c-.35-.62-.71-1.22-1.1-1.81C104.76,257.08,105.12,257.68,105.47,258.3Z"/><path class="cls-6" d="M105.47,258.3c4.28,7.73,4.81,17.42-.1,25.15h0C110.28,275.72,109.75,266,105.47,258.3Z"/><path class="cls-6" d="M107.27,183.23h0c-.15,1-.26,1.94-.46,2.89.2-1,.31-1.92.46-2.89Z"/><polygon class="cls-7" points="229.69 241.78 229.69 241.78 229.69 241.78 229.69 241.78 229.69 241.78"/><path class="cls-7" d="M265.78,289.93a2.71,2.71,0,0,0,1.44-1.55,7,7,0,0,0,.28-.92c0-.21.09-.42.13-.62s.07-.34.11-.5c2.35-9.68-1.1-18.1-6.13-26-4.61-7.23-11-13-17.32-18.62-5.84-5.21-7.89-11.71-8.11-19.24-.15-5.06.67-10,1.32-14.95-1.5.09-1.9,1.32-2.42,2.38-1.85,3.78-4.05,7.41-5.14,11.55-.1-3.69,1-7.08,2.24-10.44a119.25,119.25,0,0,1,5.64-12.54,4.35,4.35,0,0,1,2.4-2.09c1-1,.88-2.23,1-3.5l0-.38a5,5,0,0,1,.12-.76,4.09,4.09,0,0,1,.43-1.14c4.38-7.77,2-15.84,3.89-24.7,1.23-5.88,2.53-11.78.48-17.42-2.24-6.16-4.33-11.94-9.5-16.37a9.68,9.68,0,0,1-.9-.91l-.42-.47c-.15-.16-.29-.31-.44-.45a3,3,0,0,0-2.35-.92,79.12,79.12,0,0,1,4.34,8.15c.64,1.39,1.24,2.79,1.8,4.23s1.09,2.92,1.59,4.44c3.65,11.14,3.32,21.66-1.43,31.8a65.19,65.19,0,0,1-3.27,10.47,147.54,147.54,0,0,0-8.92,16.62c-.27.65-.54,1.31-.8,2h0c-.08.22-.18.43-.26.64-1.56,6.15-.76,12.7-.6,19a8.51,8.51,0,0,0,.51,2.21,5,5,0,0,1,.31,2.07,2.8,2.8,0,0,1-.79,1.62,15.55,15.55,0,0,1,3.38,5.47c.48,1.2.89,2.43,1.33,3.64a2,2,0,0,1,.34,0,1,1,0,0,1,.28.07c.51.21.68.82,1,1.29l1.69,2.65c12.64,6.17,22.94,14.51,26.58,28.91.69,2.73,1.07,5.64-1.38,7.94h0c-.69,3.35-3.33,4.62-6,6.1-.61.34-1.21.7-1.79,1.09,3.7,1.28,7.34.41,10.9.7A9.58,9.58,0,0,1,265.78,289.93Z"/><path class="cls-7" d="M258.18,282.62h0c-.68,3.35-3.32,4.62-5.94,6.1C254.85,287.24,257.49,286,258.18,282.62Z"/><path class="cls-7" d="M267.5,287.46a7,7,0,0,1-.28.92A7,7,0,0,0,267.5,287.46Z"/><path class="cls-11" d="M258.18,282.62c2.45-2.3,2.07-5.21,1.38-7.94-3.64-14.4-13.94-22.74-26.58-28.91a4.74,4.74,0,0,0,1.36,2.49,17.84,17.84,0,0,1,1.88,2.11,18.68,18.68,0,0,1,3.37,9.49,22.39,22.39,0,0,1,.07,2.46,37,37,0,0,1-1.08,7.51c-1.63,6.81-5.24,12.65-9.78,17.92-1.49,1.74-2.93,3.51-4.38,5.29-.39.49-.75.79-1.28.19L201.87,319.4a3.54,3.54,0,0,1,1.49,2.72,55,55,0,0,0,7.48-7.78c1.37-1.67,2.72-3.36,4.1-5,4.93-5.84,10.63-10.87,15.89-16.36,1.22-1.28,2-3.27,4.3-3.09l.29-.32.2-.22a.9.9,0,0,0,0-.25s0,0,0-.06v-.16c0-.06,0-.12,0-.17s0-.28.17-.29a1.15,1.15,0,0,1,.57.21l8.35-8.7h0c.61-.73,1.2-1.9,1.84-2.69a3.19,3.19,0,0,1,.43-.46,1.54,1.54,0,0,1,.46-.29.92.92,0,0,1,.73,0c.68.28,1.37.53,2.07.79s1.25.48,1.87.74a14.55,14.55,0,0,1,4.61,2.8A9.88,9.88,0,0,1,258.18,282.62Z"/><path class="cls-11" d="M256.7,280.81a9.44,9.44,0,0,1,1.47,1.81h0A9.88,9.88,0,0,0,256.7,280.81Z"/><path class="cls-11" d="M244.69,279.93h0c.6-.73,1.19-1.9,1.83-2.69-.64.79-1.23,2-1.84,2.69Z"/><path class="cls-11" d="M247.42,276.49a1.54,1.54,0,0,0-.46.29A1.54,1.54,0,0,1,247.42,276.49Z"/><path class="cls-11" d="M252.09,278c-.62-.26-1.25-.5-1.87-.74C250.84,277.51,251.47,277.75,252.09,278Z"/><path class="cls-9" d="M236.34,288.63l-.72.72h0l-.2.22-.29.32q-10.22,11.3-20.44,22.6c-.72.8-1.4,1.66-2.1,2.5h0a2,2,0,0,0,.16.51,1.12,1.12,0,0,0,.23.35,1.08,1.08,0,0,0,.46.27,2,2,0,0,0,.56.07c.38,0,.8-.05,1.17,0,1.28.06,2.65-.19,3.31,1.36a2.29,2.29,0,0,0,1.31-.5l.23-.17.45-.37c6.6-5.53,13.31-10.93,19.78-16.61.71-.63,1.47-1.21,2.23-1.78,2.29-1.7,4.68-3.31,6.33-5.74a21.56,21.56,0,0,0-.89-4c-.9-2.86-2.23-5.58-3.23-8.41Z"/><path class="cls-9" d="M247.92,288.34c-.9-2.86-2.23-5.58-3.22-8.41h0C245.69,282.76,247,285.48,247.92,288.34Z"/><path class="cls-9" d="M242.48,298.09c2.29-1.7,4.68-3.31,6.33-5.74h0C247.16,294.78,244.77,296.39,242.48,298.09Z"/><path class="cls-9" d="M235.62,289.35h0l-.2.22.2-.22Z"/><path class="cls-12" d="M147.72,347.81h0l-2.46,0-3.21,0c2.14.41,4.28.79,6.45,1.13a21.21,21.21,0,0,0,4.19-1.1C151,347.83,149.37,347.83,147.72,347.81Z"/><path class="cls-12" d="M147.19,349.06c.43-.05.85-.12,1.28-.18h0C148,348.94,147.62,349,147.19,349.06Z"/><path class="cls-12" d="M152.66,347.78a21.21,21.21,0,0,1-4.19,1.1h0a21.21,21.21,0,0,0,4.19-1.1Z"/><path class="cls-11" d="M121.78,284.61c.89.12,1.39.67,1.22,2l.28.11c.19.08.37.15.55.24a4.6,4.6,0,0,1,.76.41,2.28,2.28,0,0,1,1,2.54h0a13.78,13.78,0,0,1,1.49.74,15.92,15.92,0,0,1,1.35.91c.43.32.84.67,1.24,1,.6.54,1.17,1.12,1.71,1.71.37.4.73.8,1.08,1.21.89,1,1.75,2.05,2.66,3,4.81,5.14,9.13,10.73,13.67,16.12.56.67,1.24,1.25,1.17,2.24h0c.54.45,1.13.87,1.69,1.3l.33.27c.22.18.43.37.62.56a4.15,4.15,0,0,1,1.31,3.14h.28c1.36.06,1.87,1.54,3,2a.8.8,0,0,1,.25-.32.17.17,0,0,1,.17,0,.35.35,0,0,1,.17.17.71.71,0,0,1,.08.15,2,2,0,0,0,.57-.15l.06,0,.15-.09c.83-.55.43-1.71.61-2.58l-.47-.52a3,3,0,0,1-2.19-.35,1.71,1.71,0,0,1-.49-.68c-.37-.87.06-1.38,1-1.52L140.51,297.1l-3.64-4.62c-2.66-1.4-4.42-3.83-6.13-6.07a61.07,61.07,0,0,1-8.4-13.82l-6.49,6.74q1.68,2,3.37,3.92l1.55,1.38A3.85,3.85,0,0,1,121.78,284.61Z"/><path class="cls-11" d="M158.69,323.82c.83-.55.43-1.71.61-2.58h0C159.12,322.11,159.52,323.27,158.69,323.82Z"/><path class="cls-11" d="M158.54,323.91l-.06,0Z"/><path class="cls-9" d="M117.9,298.8c3.2,2.59,6.17,5.49,9.78,7.56,0-1.06.09-2.16,1.47-2a7.22,7.22,0,0,0,.92.06,8.54,8.54,0,0,0,1.76-.17,27.43,27.43,0,0,0,4.15-1.41q-4.18-5.07-8.37-10.14c-.74-.89-1.87-1.52-2-2.84h0c-1.23-.82-2.45-1.64-2.64-3.29h0c-1.3,0-1.52-1.27-2.23-2h0l-1.55-1.38-4.79,13.14A14.78,14.78,0,0,1,117.9,298.8Z"/><path class="cls-9" d="M120.77,284.63l-1.55-1.38,1.55,1.38Z"/><polygon class="cls-9" points="125.63 289.89 125.63 289.89 125.64 289.89 125.63 289.89"/><path class="cls-12" d="M198,349.5c1.12-.14,2.24-.3,3.36-.47-1.32,0-2.64.09-4,.12C197.64,349.25,197.84,349.39,198,349.5Z"/><path class="cls-12" d="M198.2,349.58a1.12,1.12,0,0,0,.38.12A1.12,1.12,0,0,1,198.2,349.58Z"/><path class="cls-8" d="M192.24,349.15h5.2c1.32,0,2.64-.08,4-.12q7.33-1.08,14.48-2.77c-3.31.05-6.61.17-9.9.34C201.38,346.83,196.66,347.24,192.24,349.15Z"/><path class="cls-8" d="M133.09,345.78l.47.11,0-.11Z"/><path class="cls-12" d="M263.77,293.55a6.3,6.3,0,0,0,1.83-2.91c.07-.23.13-.47.18-.71h0a9.58,9.58,0,0,0-4.44.58,4,4,0,0,0,.08,1.05,14.48,14.48,0,0,0,1.2,2.85A7.83,7.83,0,0,0,263.77,293.55Z"/><path class="cls-12" d="M261.42,291.56a14.48,14.48,0,0,0,1.2,2.85h0A14.48,14.48,0,0,1,261.42,291.56Z"/><path class="cls-12" d="M265.6,290.64c.07-.23.13-.47.18-.71h0C265.73,290.17,265.67,290.41,265.6,290.64Z"/><path class="cls-13" d="M151.88,55.28c0,.09,0,.19,0,.29l0,.29a3.82,3.82,0,0,1,0,.58l0,.28a1.28,1.28,0,0,1-.41.74C144.08,64.32,139.4,73.22,134.87,82c-4.2,8.11-7.52,16.82-8.56,26.13-.13,1.19-.33,2.37-.49,3.55-.08.62-.15,1.24-.19,1.86a16.41,16.41,0,0,0,0,1.72,53.44,53.44,0,0,1,15.1-1.1c3,.18,6,.54,9,1a9.27,9.27,0,0,1,7.61,6.89c3.1,1.32,4.78,4,5.89,6.88.77,2,.46,4.17-2.59,4.36-1,.06-1.88.51-2.84.58-2.05.17-2.26,1-1,2.46a8.74,8.74,0,0,1,1.38,2,3.76,3.76,0,0,1,.38,1.74c0,.05,0,.11,0,.17a4.12,4.12,0,0,1-.05.48,19.72,19.72,0,0,0,1.25,2.68c.08.17.17.35.25.53a8.4,8.4,0,0,1,.49,1.35,4.93,4.93,0,0,1,.12,1.81l-.08,0c.22.22.43.45.64.68-.86.87-1.71,1.75-2.57,2.63a1.18,1.18,0,0,1-.65,1.18,3.24,3.24,0,0,1-1.35.13h0a6.21,6.21,0,0,1-3.85,3c-.94.3-1.93.5-2.91.72-2.82.63-3.24,1.56-1.33,3.59,7.36,7.86,6.58,16.83,3.54,26.05-.15.46-.31.91-.49,1.37s-.35.85-.56,1.27l0,.07a9.35,9.35,0,0,1-1.72,2.4l2,.48c4.86-.16,9.71.16,14.56.39l1.8.09c3.27.14,6.55.21,9.83.05,9.68-.49,19.37-.86,29.06-1.27l.87-.27,1.22-.39.06,0a6,6,0,0,0,.29-3.7,7.68,7.68,0,0,0-.91-2.16c-3.06-5.13-3.74-10.79-3.37-16.65.15-2.4,1.59-4.25,2.59-6.27,1.1-2.23,2.43-4.33-.9-5.85a.13.13,0,0,1-.07-.06,4.08,4.08,0,0,1-.23-1.13l-.7-.58-.59-.55v-.11a5.27,5.27,0,0,1-2.74-.32c-1.84-.68-3.38-2.13-5.22-2.79a1.83,1.83,0,0,1-1.07-.38.28.28,0,0,1-.07-.17c0-.2.16-.46.61-.83l1.35-4.48a6.59,6.59,0,0,0-1.07-.52,12,12,0,0,0-3.43-.67c-2.44-.17-3.36-1.77-2.81-3.83,1.26-4.69,1.78-9.69,5.19-13.59a11.74,11.74,0,0,1,1.85-2,3.1,3.1,0,0,1,.5-.29,2.66,2.66,0,0,1,.87-.24,4.09,4.09,0,0,1,.7,0,18.64,18.64,0,0,1,1.33-2.06,14.76,14.76,0,0,1,1.55-1.78,12.39,12.39,0,0,1,7-3.45c-4.85-6.8-11.38-12.22-15.86-19.35a49.29,49.29,0,0,1-6.22-14.19c-.9-3.6-2.63-6.67-4.13-9.85-3.71-7.82-10.05-13-17.8-16.71-1.57-.75-3.81-.18-4.7-2.29l-2-.29-1.87.26h0a4.87,4.87,0,0,1-1.91,1.17,6.21,6.21,0,0,1-.74.2ZM165.57,173a30.7,30.7,0,0,0,13.59,3c4.25-.05,8.24-.79,11.8-3.19,1.22-.82,2.42-1.32,3.44,0,.9,1.19-.15,2.05-1,2.76-4.23,3.76-8,8.52-14.47,6.73-4.48.92-7.86-.83-11-3.28a34.41,34.41,0,0,0-4.07-2.73c-1.37-.76-2.59-1.6-1.72-3.28S164.59,172.54,165.57,173Z"/><path class="cls-13" d="M158.56,52.05l-1.87.26h0Z"/><path class="cls-14" d="M214.49,120.78q-5.9,1-11.73,2.3c-1.22.28-2.88,1.28-3.36-1.06a4.09,4.09,0,0,0-.7,0,2.66,2.66,0,0,0-.87.24,3.1,3.1,0,0,0-.5.29,11.74,11.74,0,0,0-1.85,2c-3.41,3.9-3.93,8.9-5.19,13.59-.55,2.06.37,3.66,2.81,3.83a12,12,0,0,1,3.43.67,6.59,6.59,0,0,1,1.07.52c.41-.63.83-1.24,1.27-1.81.22-.29.44-.57.67-.84q.68-.83,1.41-1.56c.48-.5,1-1,1.49-1.4a21.26,21.26,0,0,1,2.4-1.78c.55-.35,1.11-.68,1.68-1a21.5,21.5,0,0,1,2.66-1.14,18.62,18.62,0,0,1,1.84-.55c.62-.15,1.25-.28,1.89-.37a17.52,17.52,0,0,1,1.93-.2,25.09,25.09,0,0,1,11.2,2.11c4.25,1.81,3.81,4.92,8.82,4.57,1-.07,1,.58.89,1.27-.18,1-.39,1.91-.59,2.87h0c.49.72.93,1.46,1.47,2.13,3.34,4.11,4,15.77,2.56,20.78-.12.42-.22,1-.76.85-.36-.08-.91-.46-.93-.75-.34-3.83,1.06-2.72-1.17-2.82a4.84,4.84,0,0,0-1.28.25c-2.49.66-4.83.15-5.83-2.23-1.08-2.55,1.26-3.86,2.95-5.23.08-.06.21-.07.29-.14,1.32-1-.27,0,0-2.32.21-1.93,1.55-1.59,1-3.27a10.9,10.9,0,0,0-2.56.45,16.34,16.34,0,0,0-1.62.56c-.38.15-.76.32-1.14.49-2.51,1.12-4.94,2.48-7.75,2.65a25.83,25.83,0,0,1-9.49-.33l-1.69-.39q-1.26-.33-2.52-.72a3.18,3.18,0,0,1-.62.06,4.08,4.08,0,0,0,.23,1.13.13.13,0,0,0,.07.06c3.33,1.52,2,3.62.9,5.85-1,2-2.44,3.87-2.59,6.27-.37,5.86.31,11.52,3.37,16.65a7.68,7.68,0,0,1,.91,2.16,6,6,0,0,1-.29,3.7l2.07-.64c.57-.18,1.23-.91,1.71-.36a1.53,1.53,0,0,1,.16.26.79.79,0,0,1,0,.25c0,.5-.52,1-.82,1.4l.06.16v0l.08.24a1,1,0,0,0,0,.16l.06.19a1.65,1.65,0,0,0,.09.22c0,.07.07.12.11.11,5.14-.13,9.54,3.58,14.93,2.68,2.51-.43,2.91,1.1,1.18,4.34a61,61,0,0,0-2.81,5.67c-.17.43-.33.87-.47,1.31s-.27.88-.38,1.32l-.12.59a0,0,0,0,1,0,0,1,1,0,0,0,0,.17s0,.08,0,.12c.07.2.23.47.33.7a5.09,5.09,0,0,1,.94-1c.27-.66.54-1.33.82-2a127.4,127.4,0,0,1,8.66-16.49c2.06-3.46,1.55-7.07,3.26-10.73,4.75-10.13,5.35-20.53,1.7-31.67q-.75-2.28-1.59-4.44c-.56-1.44-1.16-2.84-1.8-4.23a79.12,79.12,0,0,0-4.34-8.15h0s0,0,0-.06a14.21,14.21,0,0,1,3.51-.82c-1.48-1.65-2.89-3.38-4.42-5a22.36,22.36,0,0,0-5.36-4.27Q220.38,119.82,214.49,120.78Z"/><polygon class="cls-14" points="197.6 143.13 197.6 143.13 197.6 143.13 197.6 143.13"/><path class="cls-14" d="M231.69,123.51a22.36,22.36,0,0,0-5.36-4.27h0A22.36,22.36,0,0,1,231.69,123.51Z"/><path class="cls-14" d="M236.87,137.52a79.12,79.12,0,0,0-4.34-8.15h0A79.12,79.12,0,0,1,236.87,137.52Z"/><path class="cls-14" d="M236.87,137.52c.64,1.39,1.24,2.79,1.8,4.23C238.11,140.31,237.51,138.91,236.87,137.52Z"/><path class="cls-14" d="M225.84,207.06c.26-.67.53-1.33.8-2-.28.66-.55,1.33-.82,2Z"/><path class="cls-14" d="M206,153.35a4.08,4.08,0,0,0,.23,1.13,4.08,4.08,0,0,1-.23-1.13Z"/><path class="cls-14" d="M196.53,142.62a6.59,6.59,0,0,1,1.07.52h0A6.59,6.59,0,0,0,196.53,142.62Z"/><path class="cls-14" d="M165.25,54.63c7.75,3.68,14.09,8.89,17.8,16.71,1.5,3.18,3.23,6.25,4.13,9.85a49.29,49.29,0,0,0,6.22,14.19c4.48,7.13,11,12.55,15.86,19.35l12.63-.29a6.8,6.8,0,0,0-.94-1.59,10.63,10.63,0,0,0-.77-.87l-.07-.09-.86-.81-.85-.76-.55-.53c-6.86-6.73-12.67-14.18-16.25-23.17-3.74-9.42-8.37-18.25-16.07-25.12-6.43-5-13.43-8.61-21.66-9.41l-3.32.25C161.44,54.45,163.68,53.88,165.25,54.63Z"/><path class="cls-14" d="M219.25,111.08l.86.81Z"/><path class="cls-14" d="M220.18,112a10.63,10.63,0,0,1,.77.87A10.63,10.63,0,0,0,220.18,112Z"/><path class="cls-7" d="M269.31,210c-4.55-5-8.47-10.39-10.9-16.88-1.3-3.49-5.59-7.19-7-11.1-1.2,3.06,2,5.68,1,8.31-3,7.91-.14,18.72,7.14,23.94,8,5.78,17.87,8.35,25.56,15.25a2,2,0,0,0-.45-2.14C280.1,221.12,274.51,215.73,269.31,210Z"/><path class="cls-15" d="M209.26,114.73a12.39,12.39,0,0,0-7,3.45,14.76,14.76,0,0,0-1.55,1.78A18.64,18.64,0,0,0,199.4,122c.48,2.34,2.14,1.34,3.36,1.06q5.84-1.33,11.73-2.3t11.84-1.54a5.2,5.2,0,0,0-.34-.8,6.55,6.55,0,0,0-.83-1.22c-.22-.25-.44-.49-.68-.72-.8-.75-1.72-1.39-2.59-2.06h0Z"/><path class="cls-15" d="M225.16,117.22a6.55,6.55,0,0,1,.83,1.22A6.55,6.55,0,0,0,225.16,117.22Z"/><path class="cls-15" d="M224.48,116.5c-.8-.75-1.72-1.39-2.59-2.06h0C222.76,115.11,223.68,115.75,224.48,116.5Z"/><path class="cls-15" d="M226.33,119.24h0q-6,.58-11.84,1.54Q220.39,119.82,226.33,119.24Z"/><path class="cls-7" d="M185.41,59a23.51,23.51,0,0,0-19.5-8.75c-1.3,0-2.15.32-2,1.82,8.23.8,15.23,4.45,21.66,9.41C186.68,60.61,186.1,59.82,185.41,59Z"/><path class="cls-15" d="M237.82,198.48A119.25,119.25,0,0,0,232.18,211c-1.25,3.36-2.34,6.75-2.24,10.44,1.09-4.14,3.29-7.77,5.14-11.55.52-1.06.92-2.29,2.42-2.38q1.37-5.57,2.72-11.14A4.35,4.35,0,0,0,237.82,198.48Z"/><path class="cls-7" d="M232.57,129.36s0,0,0-.06S232.56,129.34,232.57,129.36Z"/><path class="cls-7" d="M236.11,128.48l.12.14C236.52,128.49,236.41,128.46,236.11,128.48Z"/><path class="cls-7" d="M232.6,129.3c.33-.22,3.82-.45,3.63-.68l-.12-.14A14.21,14.21,0,0,0,232.6,129.3Z"/><path class="cls-4" d="M198.5,48c9.05,11.06,15.88,23.76,25.29,34.56,5.8,6.66,11.64,13.37,20.07,16.9,3.06,1.28,6.27,2.27,9.7,1.74-7.27-3.52-8-4-15.13-11.52C229.72,80.4,223.29,69.45,216,59.15c-5.95-8.35-11.89-16.77-21-22.1-6.5-3.81-13.34-6.07-20.91-3.22a13.87,13.87,0,0,0-7.82,6.92c3.45-2.56,7.17-4.33,11.46-4.25C186.62,36.65,193.16,41.48,198.5,48Z"/><path class="cls-7" d="M227.7,51.93c2.75,2.78,5.66,5.42,8.26,8.33a168.19,168.19,0,0,1,14.75,18.28c2.94,4.38,5.93,8.73,8.89,13.09-1.11-10-4.38-19.15-10.62-26.78a54.86,54.86,0,0,0-19.65-15.26c-.94-.43-1.94-1.07-2.64-.12S227,51.25,227.7,51.93Z"/><path class="cls-7" d="M98.07,80.86a1.76,1.76,0,0,0,2.38-.17,1.85,1.85,0,0,0,.51-1.43c-.39-1.1-1.48-.68-2.25-.64a6.83,6.83,0,0,1-1.79-.13,4.57,4.57,0,0,1-1.13-.39,3.82,3.82,0,0,1-1-.64,5.2,5.2,0,0,1-1.39-2.18c-2,.9-1.91,3-2.63,4.61C93.23,80,95.77,79.43,98.07,80.86Z"/><path class="cls-7" d="M94.8,77.46a5.2,5.2,0,0,1-1.39-2.18h0A5.2,5.2,0,0,0,94.8,77.46Z"/><path class="cls-7" d="M95.79,78.1a4.57,4.57,0,0,0,1.13.39A4.57,4.57,0,0,1,95.79,78.1Z"/><path class="cls-4" d="M165.3,42.72a.15.15,0,0,0,.08-.08,3.68,3.68,0,0,0,.17-.44L165,42c-.08.18-.25.4-.2.53A.53.53,0,0,0,165.3,42.72Z"/><path class="cls-4" d="M165.55,42.2h0a3.68,3.68,0,0,1-.17.44A3.68,3.68,0,0,0,165.55,42.2Z"/><path class="cls-4" d="M281.27,187.33l-.27-.15h0Z"/><path class="cls-14" d="M228.33,284.5a45.23,45.23,0,0,0,3.52-9.52c.06-.23.11-.47.15-.71.12-.72.19-1.45.29-2.18a.92.92,0,0,1-1-.4c-.07-.09-.13-.2-.2-.31-.26-.43-.5-.93-1.11-1.05.47,2.66-1.12,3.17-3.18,3.07-8.86-.45-17.68,1.07-26.54.63-2.81-.14-4.59,1.8-6.84,2.8-.56.25-.62.86-.54,1.43.12.83.76.89,1.43,1.06,3.48.84,6.88.17,10.31-.31,6.79-.95,13.54-2.11,20.41-2.35,2.59-.08,3,.79,1.51,2.76-3.69,5-7.43,9.93-11.31,14.78-6.93,8.68-14.19,17.08-21.31,25.59-4.27,5.1-8.58,10.15-12.89,15.22-1.57,1.86-2.49-.25-3.07-.87-3.36-3.56-6.4-7.41-9.72-11-8.13-8.85-15.23-18.52-22.5-28.05-3.9-5.11-7.47-10.47-11.24-15.67-1.17-1.61-.65-2.24,1.07-2,9.53,1.21,19.49-.26,28.48,4.49.75.39,1.72,1.15,2.89.21-2.15-4.8-4.83-8.4-11.06-8.19a84,84,0,0,1-9.79-.68,27.89,27.89,0,0,0,6.6-14.91c.23-1.86,1.75-1.37,2.84-1.33a86.43,86.43,0,0,0,21.1-2,43.67,43.67,0,0,0,15.5-7,1.25,1.25,0,0,0,.58-.76c.22-5.56,5.33-6.57,8.72-8.71,4.26-2.67,8-6.08,12.41-8.47,0-.42,0-.83,0-1.24,0-.83,0-1.65,0-2.48a40.13,40.13,0,0,0-.43-6.18,12.4,12.4,0,0,0-3.19,2.56c-.47.49-.93,1-1.39,1.49a19.71,19.71,0,0,1-1.47,1.42c-7.76,6.67-16.43,11.71-26.73,12.77-7.25.75-14.06-1.56-20.16-5.55-5.32-3.49-9.27-8.38-13.6-13s-6.77-8.81-12-12.24a50.94,50.94,0,0,1-11.74-10.81c-.61-.78.34-1.61.07-2.59-.2-.79-1.46-1.5-.58-2s.71.14,1.24.53a16.77,16.77,0,0,0,20.35.36,4.73,4.73,0,0,0,1.93-2.17c-.15-.29-.42-.63-.57-.93a.67.67,0,0,1-.09-.48c.32-1,1-.25,1.57-.11.73.2,1.43.5,2.14.76a9.18,9.18,0,0,0,1.72-2.4l0-.07c.21-.42.39-.84.56-1.27s.34-.91.49-1.37c3-9.22,3.82-18.19-3.54-26.05-1.91-2-1.49-3,1.33-3.59,1-.22,2-.42,2.91-.72a6.21,6.21,0,0,0,3.85-3c-1.14.15-2.2.83-3.39.74a2.74,2.74,0,0,1-.55-.09l-.81.54A23.92,23.92,0,0,1,139,154.68l-4.1-.69a6.08,6.08,0,0,1-3.8-.91c-.24-.12-.47-.25-.7-.38-.45-.26-.91-.52-1.38-.75a9.31,9.31,0,0,0-2.43-.9,4.36,4.36,0,0,0-1-.06l-.54.06c.14.26.3.51.44.76s.19.33.27.5a3.36,3.36,0,0,1,.3.75,2.34,2.34,0,0,1-.7,2.28c-.9,1,.43,2,1.19,2.7a3.05,3.05,0,0,1,.84,3.85,3.6,3.6,0,0,1-3.36,2.25,5.88,5.88,0,0,1-2.37-.28c-1.55-.37-1.25-.3-2.46.8-1.48,1.35-2.7.75-2.3-1.13,1.19-5.68.81-11.49,5.18-15.89.52-.58,2.63-.53.49-2.06-1.76-1.26-4.66-3.31-5.68-5.62a19.93,19.93,0,0,1-.81,10.1c-1.73,4.42-1.82,8.88-2.44,13.59-.18-1-.35-2.05-.67-4-2.76,4.6-.25,8.35-1.5,12.92.14.18.27.36.39.55a9.23,9.23,0,0,1,.88,1.71c.94,2.33,1,4.87,2,7.41,4,2.14,3.19,4.36,5.17,9,1.64,3.84,8,14,10,15.46,3.88,2.83,5.72,5.85,9.59,8.69a4.43,4.43,0,0,1,2,3.87c0,4,.1,8.07.16,12.11a1.69,1.69,0,0,1,.41,1.7l-.06.17a3.71,3.71,0,0,1-.27.52c0,1.21,0,2.42,0,3.63a73.58,73.58,0,0,1,0,10.91,1.69,1.69,0,0,1,.12,1.79,2.07,2.07,0,0,1-.15.25c.69,5.46-2.29,8.51-6.88,10.55-1.24.55-2.46,1.15-3.71,1.65a14.58,14.58,0,0,1-3.93,1,27.53,27.53,0,0,0-.05,3.14,31.39,31.39,0,0,0,.62,5c.16.76.34,1.51.55,2.25s.35,1.24.55,1.85a76.77,76.77,0,0,0,5,11.28c1,1.84,2.05,3.59,3.08,5.38l3.64,4.62,16.61,21.07,1.71,2.55h0l.47.52h0a115.53,115.53,0,0,1,21.27,27.86,44.36,44.36,0,0,1,5.3-10.78c4.7-7.06,10.84-12.63,16-18.92h0l21.27-26.17A75.71,75.71,0,0,0,228.33,284.5Z"/><path class="cls-14" d="M129.4,135.61c6.23-3.11,12.56-4.09,19.3-1.83,4,1.34,7,3.89,9.78,6.88a4.12,4.12,0,0,0,.05-.48c0-.06,0-.12,0-.17a3.76,3.76,0,0,0-.38-1.74,8.74,8.74,0,0,0-1.38-2c-1.23-1.43-1-2.29,1-2.46,1-.07,1.89-.52,2.84-.58,3-.19,3.36-2.39,2.59-4.36-1.11-2.86-2.79-5.56-5.89-6.88-1.06,1.37-2.4.69-3.61.42-6.49-1.44-13.12-2-19.66-3.06-6-1-11.42.78-16.86,2.76h0a2,2,0,0,0-.37.15,2.71,2.71,0,0,0-1.51,2.41l-.06.66-.06.66a6.37,6.37,0,0,1-.11.63c0,4.19,1,8.33,1.6,12.4C121.62,139.91,125.48,137.56,129.4,135.61Z"/><polygon class="cls-14" points="152.64 152.26 152.64 152.26 152.64 152.26 152.64 152.26 152.64 152.26"/><path class="cls-14" d="M117.22,122.13a2,2,0,0,0-.37.15,2,2,0,0,1,.37-.15Z"/><path class="cls-14" d="M115.22,126l.06-.66Z"/><path class="cls-14" d="M185.87,338.32c4.7-7.06,10.84-12.63,16-18.92h0C196.71,325.69,190.57,331.26,185.87,338.32Z"/><path class="cls-14" d="M111.42,172.6c.14.18.27.36.39.55-.12-.19-.25-.37-.39-.55Z"/><path class="cls-14" d="M112.69,174.86a9.23,9.23,0,0,0-.88-1.71A9.23,9.23,0,0,1,112.69,174.86Z"/><path class="cls-14" d="M201.87,319.4l21.27-26.17h0Z"/><path class="cls-14" d="M158.83,320.72h0l.47.52h0Z"/><path class="cls-14" d="M158.53,140.18a4.12,4.12,0,0,1-.05.48h0A4.12,4.12,0,0,0,158.53,140.18Z"/><path class="cls-14" d="M158.16,138.27a3.76,3.76,0,0,1,.38,1.74A3.76,3.76,0,0,0,158.16,138.27Z"/><path class="cls-14" d="M151,187.64l0,.07Z"/><path class="cls-14" d="M125.63,113.49c0-.62.11-1.24.19-1.86.16-1.18.36-2.36.49-3.55,1-9.31,4.36-18,8.56-26.13,4.53-8.73,9.21-17.63,16.67-24.49a1.28,1.28,0,0,0,.41-.74l0-.28a3.82,3.82,0,0,0,0-.58l0-.29c0-.1,0-.2,0-.29q-2.1,1.22-4.06,2.57c-1.3.9-2.56,1.85-3.77,2.83s-2.39,2-3.52,3.08-2.22,2.17-3.27,3.32A80.72,80.72,0,0,0,120.12,96.9c-.72,2.22-1.36,4.48-1.93,6.75q-.22.85-.42,1.71c-.28,1.15-.53,2.3-.78,3.45-.12.91-.25,1.82-.37,2.74s-.25,1.82-.36,2.73c-.28,2.38-1.34,4.78.2,7.11a34.33,34.33,0,0,1,9.14-6.18A16.41,16.41,0,0,1,125.63,113.49Z"/><path class="cls-14" d="M151.88,55.28c0,.09,0,.19,0,.29,0-.1,0-.2,0-.29Z"/><path class="cls-14" d="M125.63,113.49a16.41,16.41,0,0,0,0,1.72h0A16.41,16.41,0,0,1,125.63,113.49Z"/><path class="cls-14" d="M152,55.86a3.82,3.82,0,0,1,0,.58A3.82,3.82,0,0,0,152,55.86Z"/><path class="cls-7" d="M88.18,277.93c-.12,1.19-1.34,2.38,0,3.84.77-.81,1.46-1.59,2.2-2.33A11.37,11.37,0,0,0,91,264.52c-4.12-4.94-9.39-8.39-14.68-11.87-6.52-4.3-12.19-9.15-12.7-17.89-.13-2.14-.27-4.34-.55-6.5a2.21,2.21,0,0,0-1.34-2.08,1.13,1.13,0,0,0-1.43.54c-1,2.37-3,4.22-3.1,7.09A26.05,26.05,0,0,0,64.87,253c4.13,4.32,9.34,7.14,14.58,9.85C86,266.25,88.84,271.18,88.18,277.93Z"/><path class="cls-6" d="M89.09,241c1.54,1.58,1.62-.11,1.7-1.21.36-5-.65-9.77-1.92-14.53-2.45-9.13-.72-18.7-1.68-28.91,0,0-10.91,16.47-11,17.07-.71,3.7-1.8,7.77-.38,11.66C78.32,232,84.27,236,89.09,241Z"/><path class="cls-7" d="M117.77,105.36q.2-.85.42-1.71c.57-2.27,1.21-4.53,1.93-6.75a80.72,80.72,0,0,1,17.14-29.82c1.05-1.15,2.14-2.25,3.27-3.32s2.3-2.09,3.52-3.08,2.47-1.93,3.77-2.83,2.66-1.76,4.06-2.57h0l2.16-1.6c-.34-.54-.78-.58-1.4-.45-10.38,2.13-18.48,7.93-24.9,16.08-5.83,7.4-9,16-10.52,25.31,0,.29-.09.59-.13.88q-.15.89-.27,1.77c-.12.88-.24,1.77-.32,2.65-.06.59-.1,1.18-.13,1.78s-.05,1.18,0,1.77,0,1.19.07,1.78.12,1.19.22,1.78.22,1.19.37,1.78h0C117.24,107.66,117.49,106.51,117.77,105.36Z"/><path class="cls-7" d="M116.62,107c.09.59.22,1.19.37,1.78h0C116.84,108.22,116.71,107.62,116.62,107Z"/><path class="cls-7" d="M116.4,105.25c-.05-.59-.07-1.19-.07-1.78C116.33,104.06,116.35,104.66,116.4,105.25Z"/><path class="cls-7" d="M116.62,107c-.1-.59-.17-1.19-.22-1.78C116.45,105.84,116.52,106.44,116.62,107Z"/><path class="cls-7" d="M151.88,55.28q-2.1,1.22-4.06,2.57,2-1.35,4.06-2.57Z"/><path class="cls-7" d="M147.82,57.85c-1.3.9-2.56,1.85-3.77,2.83C145.26,59.7,146.52,58.75,147.82,57.85Z"/><path class="cls-7" d="M144.05,60.68q-1.83,1.49-3.52,3.08Q142.23,62.17,144.05,60.68Z"/><path class="cls-7" d="M137.26,67.08c1.05-1.15,2.14-2.25,3.27-3.32C139.4,64.83,138.31,65.93,137.26,67.08Z"/><path class="cls-7" d="M108.32,182.63a66.54,66.54,0,0,1,2.68-8.78l.42-1.25h0c1.25-4.57-1.26-8.32,1.5-12.92.32,1.92.49,2.95.67,4,.62-4.71.71-9.17,2.44-13.59a19.93,19.93,0,0,0,.81-10.1,4.19,4.19,0,0,1-.3-1l.17,0c-.6-4.07-1.64-8.21-1.6-12.4-1.39,2.3-1.34,5-2.06,7.49-3.41,11.81,1.68,22.29-6.1,31.77-3,3.68-5.6,7.36-7,12.16-.56,2,.19,2.64,1.53,3.69a3.24,3.24,0,0,0,1.37.6c1.49.32,3.22,0,4.38.88C107.64,183,108.27,182.89,108.32,182.63Z"/><path class="cls-7" d="M102.89,182.35c1.49.32,3.22,0,4.38.88h0C106.11,182.34,104.38,182.67,102.89,182.35Z"/><path class="cls-7" d="M111.42,172.6l-.42,1.25.42-1.25Z"/><path class="cls-15" d="M134.08,119.37c6.54,1.1,13.17,1.62,19.66,3.06,1.21.27,2.55.95,3.61-.42a9.27,9.27,0,0,0-7.61-6.89c-3-.47-6-.83-9-1a53.44,53.44,0,0,0-15.1,1.1h0a34.33,34.33,0,0,0-9.14,6.18l.76.74C122.66,120.15,128.09,118.37,134.08,119.37Z"/><path class="cls-15" d="M125.6,115.21h0a53.44,53.44,0,0,1,15.1-1.1A53.44,53.44,0,0,0,125.6,115.21Z"/><path class="cls-8" d="M76.9,282.1a6,6,0,0,1,3.51-2.18c.24-2.3-.47-3-1.57-3.14a9.89,9.89,0,0,0-2.89.42h0l-1.79,1A7.16,7.16,0,0,0,76.9,282.1Z"/><path class="cls-8" d="M78.84,276.78a9.89,9.89,0,0,0-2.89.42h0A9.89,9.89,0,0,1,78.84,276.78Z"/><path class="cls-3" d="M76.9,282.1c.73,1.77,2.3,3.93,3.66,3.51,2.06-.64,0-3,.3-4.54a.57.57,0,0,0,0-.13,4.75,4.75,0,0,0-.46-1A6,6,0,0,0,76.9,282.1Z"/><path class="cls-16" d="M70.43,267.37l.12,0,0,0Z"/><path class="cls-16" d="M70.53,267.31l-.1.06.1-.05,0,0,0,0Z"/><path class="cls-12" d="M157.9,326.72c-1.49-1.38-3.21-2.56-4-4.59-1.64-1.52-3.93-2.55-3.95-5.27h0c-2.55-.61-3.57-2.94-5.19-4.59-3-3.07-5.31-6.82-8.83-9.41a27.81,27.81,0,0,1-4.15,1.41,8.54,8.54,0,0,1-1.76.17,7.22,7.22,0,0,1-.92-.06c-1.38-.19-1.51.91-1.47,2,2.14,3.11,5.34,5.11,8.11,7.53q12,10.51,24.44,20.6c2.48,2,4.45,4.9,8,5.58-3.36-3.77-5.59-8.29-9-11.95A2.2,2.2,0,0,1,157.9,326.72Z"/><path class="cls-12" d="M136,302.87a27.43,27.43,0,0,1-4.15,1.41,27.81,27.81,0,0,0,4.15-1.41Z"/><path class="cls-12" d="M200.92,327.47c-.78.82-1.39,2-2.83,1.89.11,1.46-.39,2.45-2,2.63a1.91,1.91,0,0,1-2,2,.87.87,0,0,1-.86.68,2.09,2.09,0,0,0-.42.42,1.42,1.42,0,0,1-.7,1.54h0l-.64.64h0l-.68.85c0,1.66-1.58,2.62-2.3,4.35a4.68,4.68,0,0,0-.25.8,7.21,7.21,0,0,0,1.56-.79c5.08-5.1,11.15-9,16.47-13.84,2-1.84,4.22-3.52,6.33-5.29a39.18,39.18,0,0,0,5.85-5.81c-.66-1.55-2-1.3-3.31-1.36-.37,0-.79,0-1.17,0a2,2,0,0,1-.56-.07,1.08,1.08,0,0,1-.46-.27,1.12,1.12,0,0,1-.23-.35,2,2,0,0,1-.16-.51l-5.82,6.25Q203.86,324.36,200.92,327.47Z"/><polygon class="cls-12" points="191.51 337.24 191.51 337.24 191.51 337.24 191.51 337.24 191.51 337.24"/><path class="cls-12" d="M191.51,337.23l0,0,0,0Z"/><polygon class="cls-12" points="191.51 337.24 191.51 337.24 191.51 337.24 191.51 337.24 191.51 337.24"/><path class="cls-12" d="M191.5,337.25l-.68.85c0,1.66-1.58,2.62-2.3,4.35.72-1.73,2.28-2.69,2.3-4.35Z"/><path class="cls-12" d="M191.49,337.26h0l0,0h0Z"/><polygon class="cls-12" points="192.15 336.61 192.15 336.61 192.15 336.61 192.15 336.61"/><path class="cls-12" d="M212.59,315h0a2,2,0,0,0,.16.51A2,2,0,0,1,212.59,315Z"/><path class="cls-12" d="M212.75,315.5a1.12,1.12,0,0,0,.23.35A1.12,1.12,0,0,1,212.75,315.5Z"/><path class="cls-12" d="M213.44,316.12a2,2,0,0,0,.56.07A2,2,0,0,1,213.44,316.12Z"/><path class="cls-8" d="M198.09,329.35h0v0c1.44.12,2-1.07,2.83-1.89q2.94-3.11,5.85-6.23l5.82-6.25c.7-.84,1.38-1.7,2.1-2.5q10.22-11.31,20.44-22.6c-2.3-.18-3.08,1.81-4.3,3.09-5.26,5.49-11,10.52-15.89,16.36-1.38,1.64-2.73,3.33-4.1,5a55,55,0,0,1-7.48,7.78h0C202.12,324.91,199.05,326.36,198.09,329.35Z"/><path class="cls-8" d="M210.84,314.34a55,55,0,0,1-7.48,7.78h0A55,55,0,0,0,210.84,314.34Z"/><path class="cls-11" d="M147.69,347.81h0c1.65,0,3.3,0,4.94,0-1.56-.41-3.13-.74-4.71-1a82.94,82.94,0,0,0-14.36-1l0,.11q4.19,1,8.46,1.86l3.21,0Z"/><path class="cls-11" d="M147.72,347.81h0Z"/><rect class="cls-8" x="157.92" y="326.72"/><path class="cls-8" d="M154,322.13h0c.74,2,2.46,3.21,4,4.59h0c0-.87,0-1.75,0-2.62h-.66c-1.14-.44-1.65-1.92-3-2Z"/><path class="cls-8" d="M157.92,326.72h0c0-.87,0-1.75,0-2.62h0C157.9,325,157.91,325.85,157.92,326.72Z"/><path class="cls-8" d="M157.9,326.72Z"/><path class="cls-8" d="M157.24,324.1h0c-1.14-.44-1.65-1.92-3-2C155.59,322.18,156.1,323.66,157.24,324.1Z"/><path class="cls-8" d="M196.12,332c1.58-.18,2.08-1.17,2-2.63h0a3,3,0,0,0-2,2.63h0Z"/><path class="cls-8" d="M198.09,329.34h0Z"/><path class="cls-8" d="M198.09,329.36v0Z"/><path class="cls-8" d="M194.13,334a1.91,1.91,0,0,0,2-2h0v0a1.85,1.85,0,0,0-2,2h0S194.13,334,194.13,334Z"/><polygon class="cls-8" points="194.14 333.95 194.13 333.96 194.13 333.96 194.14 333.95"/><path class="cls-8" d="M196.12,332h0v0Z"/><path class="cls-8" d="M196.1,332h0Z"/><path class="cls-8" d="M157.92,326.73h0a2.2,2.2,0,0,0,1.34,1.4,1.47,1.47,0,0,0-.3-1.05.89.89,0,0,0-.29-.22,1.13,1.13,0,0,0-.34-.11h-.08a1.58,1.58,0,0,0-.31,0Z"/><path class="cls-8" d="M158.23,326.73h0Z"/><path class="cls-8" d="M158.65,326.85a.89.89,0,0,1,.29.22A.89.89,0,0,0,158.65,326.85Z"/><path class="cls-8" d="M157.92,326.72Z"/><path class="cls-8" d="M157.92,326.73h0Z"/><polygon class="cls-8" points="157.9 326.72 157.92 326.73 157.9 326.72 157.9 326.72"/><polygon class="cls-8" points="157.9 326.72 157.92 326.73 157.9 326.72 157.9 326.72"/><path class="cls-8" d="M192.17,336.58v0h0a1.42,1.42,0,0,0,.7-1.54,2.42,2.42,0,0,0-.32.32,1.71,1.71,0,0,0-.38,1.21Z"/><path class="cls-8" d="M192.53,335.39a1.71,1.71,0,0,0-.38,1.21h0A1.71,1.71,0,0,1,192.53,335.39Z"/><path class="cls-8" d="M192.15,336.61Z"/><path class="cls-8" d="M192.15,336.6h0l0,0Z"/><polygon class="cls-8" points="192.15 336.6 192.15 336.6 192.15 336.61 192.15 336.61 192.15 336.6"/><path class="cls-8" d="M192.17,336.58v0Z"/><path class="cls-8" d="M192.16,336.6v0l0,0h0Z"/><path class="cls-8" d="M194.13,334l-.86.69a.87.87,0,0,0,.86-.68h0Z"/><path class="cls-8" d="M194.14,334h0Z"/><path class="cls-8" d="M194.13,334h0s0,0,0,0Z"/><polygon class="cls-15" points="118.54 238.04 118.54 238.04 118.54 238.04 118.54 238.04"/><path class="cls-15" d="M135.62,232.43c2-.38,3.95-.71,5.94-1-.06-4-.14-8.08-.16-12.11a4.43,4.43,0,0,0-2-3.87c-3.87-2.84-5.71-5.86-9.59-8.69-2.05-1.5-8.38-11.62-10-15.46-2-4.65-1.22-6.87-5.17-9-1.58,4-8,8.31-10,13.27C100.8,205,100,221,107,227c.51.43,1,.86,1.5,1.31.74.67,1.48,1.36,2.2,2s1.41,1.35,2.1,2c.49.47,1,1,1.45,1.43l1.41,1.42c.94.94,1.88,1.88,2.84,2.8A58.18,58.18,0,0,1,135.62,232.43Z"/><path class="cls-15" d="M110.74,230.35c-.72-.69-1.46-1.38-2.2-2C109.28,229,110,229.66,110.74,230.35Z"/><path class="cls-15" d="M112.84,232.39c.49.47,1,1,1.45,1.43C113.81,233.34,113.33,232.86,112.84,232.39Z"/><path class="cls-15" d="M115.7,235.24c.94.94,1.88,1.88,2.84,2.8h0C117.58,237.12,116.64,236.18,115.7,235.24Z"/><path class="cls-15" d="M141.56,231.41c-.06-4-.14-8.08-.16-12.11,0,4,.1,8.07.16,12.11Z"/><path class="cls-9" d="M127.12,263.6a14.58,14.58,0,0,0,3.93-1c1.25-.5,2.47-1.1,3.71-1.65,4.59-2,7.57-5.09,6.88-10.55l0-2a73.58,73.58,0,0,0,0-10.91c0-1.21,0-2.42,0-3.63-3.09-.66-4.94,1.8-7.14,3.08a31.49,31.49,0,0,0-9.58,9.17,34.52,34.52,0,0,1,2,11.91c0,.73-.06,1.47-.12,2.2,0,.37-.08.74-.13,1.11-.1.74-.22,1.48-.38,2.22Z"/><path class="cls-9" d="M126.82,260.16c.06-.73.1-1.47.12-2.2C126.92,258.69,126.88,259.43,126.82,260.16Z"/><path class="cls-9" d="M126.69,261.27c-.1.74-.22,1.48-.38,2.22h0C126.47,262.75,126.59,262,126.69,261.27Z"/><path class="cls-11" d="M141.56,231.41h0c-2,.31-4,.64-5.94,1A58.18,58.18,0,0,0,118.54,238h0l6.38,8a31.49,31.49,0,0,1,9.58-9.17c2.2-1.28,4.05-3.74,7.14-3.08a3.71,3.71,0,0,0,.27-.52l.06-.17A1.69,1.69,0,0,0,141.56,231.41Z"/><path class="cls-11" d="M141.56,231.41a1.69,1.69,0,0,1,.41,1.7,1.69,1.69,0,0,0-.41-1.7Z"/><path class="cls-11" d="M141.91,233.28a3.71,3.71,0,0,1-.27.52A3.71,3.71,0,0,0,141.91,233.28Z"/><path class="cls-11" d="M135.62,232.43A58.18,58.18,0,0,0,118.54,238h0A58.18,58.18,0,0,1,135.62,232.43Z"/><path class="cls-12" d="M128.79,275.82c-.2-.61-.38-1.23-.55-1.85s-.39-1.49-.55-2.25a31.39,31.39,0,0,1-.62-5,27.53,27.53,0,0,1,.05-3.14l-.81-.11q-2,4.56-4,9.1a61.07,61.07,0,0,0,8.4,13.82c1.71,2.24,3.47,4.67,6.13,6.07-1-1.79-2.13-3.54-3.08-5.38A76.77,76.77,0,0,1,128.79,275.82Z"/><path class="cls-12" d="M127.07,266.74a31.39,31.39,0,0,0,.62,5A31.39,31.39,0,0,1,127.07,266.74Z"/><path class="cls-12" d="M128.24,274c.17.62.35,1.24.55,1.85C128.59,275.21,128.41,274.59,128.24,274Z"/><path class="cls-12" d="M126.31,263.49h0l.81.11Z"/><path class="cls-9" d="M229.69,241.78h0c-.67-.32-1.32-.67-2-1.05-.32-.19-.65-.39-1-.6-.61-.39-1.22-.8-1.81-1.22a37.41,37.41,0,0,0-7.94-4.76c-.26-.1-.53-.24-.79-.37l-.31-.13-.17-.06c-.6-.19-1.14-.08-1.45,1.13a115.75,115.75,0,0,0,1.9,13.63c.13.65.25,1.29.38,1.93a10.05,10.05,0,0,0,5.92,7.73A59.35,59.35,0,0,0,232.2,262c.45-3.25-1.44-5.77-2.58-8.54-.39-.93-1.86-1.85-.46-3.07,1.25-1.1,1.86.31,2.72.75,1.62.82,3.28,1.81,4.34-.73h0a17.84,17.84,0,0,0-1.88-2.11,4.74,4.74,0,0,1-1.36-2.49l-1.69-2.65C230.35,243.15,229.68,242.87,229.69,241.78Z"/><polygon class="cls-9" points="229.69 241.78 229.69 241.78 229.69 241.78 229.69 241.78 229.69 241.78 229.69 241.78"/><path class="cls-9" d="M236.22,250.37h0a17.84,17.84,0,0,0-1.88-2.11,17.84,17.84,0,0,1,1.88,2.11Z"/><path class="cls-15" d="M224.21,209.17c-3.8,3.64-6.86,7.27-10.75,10.9a40.13,40.13,0,0,1,.43,6.18c0,.83,0,1.65,0,2.48,0,.41,0,.82,0,1.24.09.21.18.42.28.63a23.44,23.44,0,0,1,7.5,1.17c1.12.31,2.23.63,3.35.89a2.8,2.8,0,0,0,.79-1.62,5,5,0,0,0-.31-2.07,8.51,8.51,0,0,1-.51-2.21C224.82,221.11,223.42,214.82,224.21,209.17Z"/><path class="cls-15" d="M224.41,208.52h0l-.12.12c0,.18-.06.35-.08.53.23-.21.44-.43.67-.65.14-.05.09-.22,0-.43A1.46,1.46,0,0,1,224.41,208.52Z"/><path class="cls-15" d="M225.78,231a5,5,0,0,0-.31-2.07A5,5,0,0,1,225.78,231Z"/><path class="cls-15" d="M224.88,208.09c-.1-.23-.26-.5-.33-.7-.06.38-.11.75-.14,1.13A1.46,1.46,0,0,0,224.88,208.09Z"/><path class="cls-15" d="M224.61,207.1a0,0,0,0,0,0,0l0,.16A1,1,0,0,1,224.61,207.1Z"/><path class="cls-3" d="M221.64,231.77a23.44,23.44,0,0,0-7.5-1.17,11.88,11.88,0,0,0-.25,2.58,3.24,3.24,0,0,0,.07.52,3.51,3.51,0,0,0,.33,1c.31-1.2.85-1.31,1.45-1.12l.17.06.31.13c.26.13.53.27.79.37a37.41,37.41,0,0,1,7.94,4.76c.59.42,1.2.83,1.81,1.22.32.21.65.41,1,.6.64.38,1.29.73,2,1.05h0c-.44-1.21-.85-2.44-1.33-3.64a15.55,15.55,0,0,0-3.38-5.47h0C223.87,232.4,222.76,232.08,221.64,231.77Z"/><polygon class="cls-3" points="229.69 241.78 229.7 241.78 229.7 241.78 229.69 241.78 229.69 241.78"/><path class="cls-3" d="M228.37,238.13a15.55,15.55,0,0,0-3.38-5.47h0A15.55,15.55,0,0,1,228.37,238.13Z"/><path class="cls-3" d="M215.74,233.59c-.6-.19-1.14-.08-1.45,1.12h0C214.6,233.51,215.14,233.4,215.74,233.59Z"/><path class="cls-3" d="M226.76,240.13c.32.21.65.41,1,.6C227.41,240.54,227.08,240.34,226.76,240.13Z"/><path class="cls-3" d="M215.91,233.65l.31.13Z"/><path class="cls-3" d="M229.7,241.78h0c0,1.09.66,1.37,1.6,1.34-.29-.47-.46-1.08-1-1.29a1,1,0,0,0-.28-.07,2,2,0,0,0-.34,0Z"/><polygon class="cls-3" points="229.69 241.78 229.69 241.78 229.69 241.78 229.69 241.78"/><path class="cls-3" d="M230,241.76a1,1,0,0,1,.28.07A1,1,0,0,0,230,241.76Z"/><polygon class="cls-3" points="229.7 241.78 229.7 241.78 229.69 241.78 229.69 241.78 229.7 241.78"/><polygon class="cls-3" points="229.7 241.78 229.7 241.78 229.69 241.78 229.7 241.78"/><polygon class="cls-3" points="229.69 241.78 229.69 241.78 229.7 241.78 229.69 241.78 229.69 241.78"/><polygon class="cls-3" points="229.7 241.78 229.69 241.78 229.7 241.78 229.7 241.78"/><path class="cls-12" d="M231.88,251.1c-.86-.44-1.47-1.85-2.72-.75-1.4,1.22.07,2.14.46,3.07,1.14,2.77,3,5.29,2.58,8.54,1.32,3.36.87,6.75.09,10.13h0c-.1.73-.17,1.46-.29,2.18,0,.24-.09.48-.15.71a45.23,45.23,0,0,1-3.52,9.52,75.71,75.71,0,0,1-5.19,8.73h0c.53.6.89.3,1.28-.19,1.45-1.78,2.89-3.55,4.38-5.29,4.54-5.27,8.15-11.11,9.78-17.92a37,37,0,0,0,1.08-7.51,22.39,22.39,0,0,0-.07-2.46,18.77,18.77,0,0,0-3.37-9.49C235.16,252.91,233.5,251.92,231.88,251.1Z"/><path class="cls-12" d="M239.59,259.86a18.68,18.68,0,0,0-3.37-9.49h0A18.77,18.77,0,0,1,239.59,259.86Z"/><path class="cls-12" d="M239.66,262.32a22.39,22.39,0,0,0-.07-2.46A22.39,22.39,0,0,1,239.66,262.32Z"/><path class="cls-12" d="M228.33,284.5a75.71,75.71,0,0,1-5.19,8.73h0A75.71,75.71,0,0,0,228.33,284.5Z"/><path class="cls-12" d="M232.29,272.09h0c-.1.73-.17,1.46-.29,2.18C232.12,273.55,232.19,272.82,232.29,272.09Z"/><path class="cls-8" d="M235.62,289.35l.72-.72a1.15,1.15,0,0,0-.57-.21c-.14,0-.17.13-.17.29s0,.11,0,.17V289s0,0,0,.06A.9.9,0,0,1,235.62,289.35Z"/><path class="cls-8" d="M235.62,289v0Z"/><path class="cls-8" d="M235.63,289v0Z"/><path class="cls-8" d="M235.77,288.42c-.14,0-.17.13-.17.29C235.6,288.55,235.63,288.43,235.77,288.42Z"/><path class="cls-8" d="M235.64,289.1a.9.9,0,0,1,0,.25h0A.9.9,0,0,0,235.64,289.1Z"/><path class="cls-8" d="M136,302.87c3.52,2.59,5.81,6.34,8.83,9.41,1.62,1.65,2.64,4,5.19,4.59.07-1-.61-1.57-1.17-2.24-4.54-5.39-8.86-11-13.67-16.12-.91-1-1.77-2-2.66-3-.35-.41-.71-.81-1.08-1.21-.54-.59-1.11-1.17-1.71-1.71-.4-.36-.81-.71-1.24-1a15.92,15.92,0,0,0-1.35-.91,13.78,13.78,0,0,0-1.49-.74c.11,1.32,1.24,1.95,2,2.84q4.17,5.08,8.37,10.14Z"/><path class="cls-8" d="M136,302.87q-4.18-5.07-8.37-10.14,4.17,5.08,8.37,10.14Z"/><path class="cls-8" d="M154,322.13h0a4.15,4.15,0,0,0-1.31-3.14c-.19-.19-.4-.38-.62-.56l-.33-.27c-.56-.43-1.15-.85-1.69-1.3C150,319.58,152.31,320.61,154,322.13Z"/><polygon class="cls-8" points="153.95 322.13 153.95 322.13 153.95 322.13 153.95 322.13 153.95 322.13 153.95 322.13"/><polygon class="cls-8" points="153.95 322.13 153.95 322.13 153.95 322.13 153.95 322.13"/><polygon class="cls-8" points="153.95 322.13 153.95 322.13 153.95 322.13 153.95 322.13"/><polygon class="cls-8" points="153.95 322.13 153.95 322.13 153.95 322.13 153.95 322.13"/><path class="cls-3" d="M158.83,320.72l-1.71-2.55c-.91.14-1.34.65-1,1.52a1.71,1.71,0,0,0,.49.68A3,3,0,0,0,158.83,320.72Z"/><path class="cls-3" d="M156.64,320.37a3,3,0,0,0,2.19.35h0A3,3,0,0,1,156.64,320.37Z"/><path class="cls-8" d="M124.59,287.35a4.6,4.6,0,0,0-.76-.41c-.18-.09-.36-.16-.55-.24l-.28-.11h0c.19,1.65,1.41,2.47,2.64,3.29A2.28,2.28,0,0,0,124.59,287.35Z"/><polygon class="cls-8" points="123 286.59 123 286.59 123 286.59 123 286.59 123 286.59"/><path class="cls-8" d="M123,286.59h0c.17-1.31-.33-1.86-1.22-2a3.85,3.85,0,0,0-1,0c.71.7.93,1.95,2.23,2Z"/><path class="cls-8" d="M123,286.59h0c.17-1.31-.33-1.86-1.22-2C122.67,284.73,123.17,285.28,123,286.59Z"/><polygon class="cls-8" points="123 286.59 123 286.59 123 286.59 123 286.59 123 286.59"/><polygon class="cls-8" points="123 286.6 123 286.6 123 286.6 123 286.6"/><polygon class="cls-8" points="123 286.59 123 286.6 123 286.59 123 286.59"/><path class="cls-8" d="M123,286.59h0Z"/><path class="cls-8" d="M123,286.59h0Z"/><polygon class="cls-8" points="123 286.59 123 286.59 123 286.59 123 286.59"/><path class="cls-8" d="M123,286.59h0Z"/><path class="cls-3" d="M157.24,324.1h.67a.71.71,0,0,0-.08-.15.35.35,0,0,0-.17-.17.17.17,0,0,0-.17,0A.8.8,0,0,0,157.24,324.1Z"/><polygon class="cls-3" points="157.9 324.1 157.9 324.1 157.9 324.1 157.9 324.1 157.9 324.1"/><path class="cls-3" d="M157.66,323.77a.17.17,0,0,0-.17,0A.17.17,0,0,1,157.66,323.77Z"/><path class="cls-3" d="M157.9,324.1Z"/><path class="cls-3" d="M157.83,323.94a.35.35,0,0,0-.17-.17A.35.35,0,0,1,157.83,323.94Z"/><path class="cls-3" d="M157.92,324.1h0Z"/><polygon class="cls-3" points="157.9 324.1 157.9 324.1 157.9 324.1 157.9 324.1"/><path class="cls-3" d="M157.9,324.1Z"/><polygon class="cls-14" points="157.8 193.16 157.8 193.16 157.8 193.16 157.8 193.16"/><path class="cls-14" d="M151.24,190.59c2.06,1.19,4.67.95,6.56,2.57L175.14,196l6.36.1,18.44-3a5.18,5.18,0,0,1,3.85-1.74c.49,0,1-.07,1.51-.09-2.15,1.9-3.41,4.73-6.44,5.61-3.49,4.69-8.57,6-14,6.61-.51.14-1,.26-1.53.35a36.73,36.73,0,0,1-10.83.07,20,20,0,0,1-8-2.38,13.41,13.41,0,0,1-4.58-4.43c-.83,0-1.62-.08-1.44-1a3.05,3.05,0,0,1,.13-.4c-1.08.52-1.67-.16-2.23-.79a3.88,3.88,0,0,0-.58-.57,12.22,12.22,0,0,0-7.11-2.77c4.26,2.62,7.12,6.58,10.19,10.34l1,1.23a36.84,36.84,0,0,0,3.73,3.87A31.87,31.87,0,0,0,168.4,211c2.26,1.31,4.39,2.41,7.57,1.49,3.64-1.07,7.74-.06,11.57-1.53,7.06-2.71,12-7.86,16.28-13.72,1.81-2.49,4.64-3.9,6.12-6.62a26.63,26.63,0,0,1-3,.55c-1.63.1-.52-.81-.43-1.33h0c-9.69.41-19.38.78-29.06,1.27-3.28.16-6.56.09-9.83-.05l-1.8-.09C161,190.75,156.1,190.43,151.24,190.59Z"/><path class="cls-14" d="M165.8,191l1.8.09Z"/><path class="cls-14" d="M206.49,189.85c-9.69.41-19.38.78-29.06,1.27,9.68-.49,19.37-.86,29.06-1.27Z"/><path class="cls-15" d="M197.6,143.14l-1.35,4.48a.37.37,0,0,1,.38,0,.5.5,0,0,1,.11.1c.48-.54.95-1.09,1.44-1.62a17.74,17.74,0,0,1,4.55-3.94l.07-.12c.15-.21.29-.28.43,0l.07.15c-.15.63-.29,1.26-.43,1.88,1.22-.3,2.33-1.16,3.7-.81A7.61,7.61,0,0,1,211.4,139c1.93-.51,4.26-.25,7.07.77.23-.39.43-.42.59-.11,0,0,.05.1.08.16h0a11.06,11.06,0,0,1,2.31.09,10.32,10.32,0,0,1,3.6,1.26c.8.41,1.62.79,2.41,1.21l.78.44c4.76,2.88,4.79,3.58.29,7.07a15,15,0,0,1-4.84,2.71c-.9,1-2.78.56-3.33,2.16,2.81-.17,5.24-1.53,7.75-2.65.38-.17.76-.34,1.14-.49a16.34,16.34,0,0,1,1.62-.56,10.9,10.9,0,0,1,2.56-.45c1.73-.85-.74-1.62.46-3.27-.78-.25-1.12-.35-.8-1a6.5,6.5,0,0,1,.56-.89c.35-.51.85-1.17,1.51-2.06h0c.2-1,.41-1.91.59-2.87.12-.69.1-1.34-.89-1.27-5,.35-4.57-2.76-8.82-4.57a25.09,25.09,0,0,0-11.2-2.11,17.52,17.52,0,0,0-1.93.2c-.64.09-1.27.22-1.89.37a18.62,18.62,0,0,0-1.84.55,21.5,21.5,0,0,0-2.66,1.14c-.57.3-1.13.63-1.68,1a21.26,21.26,0,0,0-2.4,1.78c-.51.44-1,.9-1.49,1.4s-1,1-1.41,1.56c-.23.27-.45.55-.67.84-.44.57-.86,1.18-1.27,1.81Z"/><path class="cls-15" d="M201,138.93c.48-.5,1-1,1.49-1.4C201.93,138,201.43,138.43,201,138.93Z"/><path class="cls-15" d="M199.54,140.49q.68-.83,1.41-1.56Q200.22,139.66,199.54,140.49Z"/><path class="cls-15" d="M209.18,133.63a18.62,18.62,0,0,1,1.84-.55A18.62,18.62,0,0,0,209.18,133.63Z"/><path class="cls-15" d="M197.6,143.14c.41-.63.83-1.24,1.27-1.81-.44.57-.86,1.18-1.27,1.81Z"/><path class="cls-15" d="M204.84,135.75c.55-.35,1.11-.68,1.68-1C206,135.07,205.39,135.4,204.84,135.75Z"/><path class="cls-15" d="M229.25,151.59c-.38.15-.76.32-1.14.49C228.49,151.91,228.87,151.74,229.25,151.59Z"/><path class="cls-15" d="M235.16,143.33h0c.2-1,.41-1.91.59-2.87-.18,1-.39,1.91-.59,2.87Z"/><path class="cls-15" d="M212.91,132.71a17.52,17.52,0,0,1,1.93-.2A17.52,17.52,0,0,0,212.91,132.71Z"/><path class="cls-15" d="M122.52,145.58c2.14,1.53,0,1.48-.49,2.06,1.76,1.45.9,2.51,3,3.41l.54-.06a4.36,4.36,0,0,1,1,.06,9.31,9.31,0,0,1,2.43.9c.47.23.93.49,1.38.75.23.13.46.26.7.38a6.08,6.08,0,0,0,3.8.91.87.87,0,0,0-.42-.74l-.14-.08c-.23-.11-.5-.17-.75-.26l-.06,0a1,1,0,0,1-.61-.49,3,3,0,0,1-.21-.49c0-.06.08-.14.14-.22-3.33-.33-5.18-2.83-7.25-5a.79.79,0,0,1,.11-1.33c2-1.46,3.78-3.43,6.5-3.62a.6.6,0,0,1,0-.28c.07-.23.44-.17.65-.25.53-.24,1.06-.48,1.6-.7a16.46,16.46,0,0,1,5-1.36h0c.39,0,.77,0,1.16,0,2.72,0,5.46-.27,8.11.64a10.06,10.06,0,0,1,5.33,1.89c.27.08.52.17.59.41a.68.68,0,0,1,0,.25,6.34,6.34,0,0,1,2.78,1.8c.34.34.66.7,1,1.05s.44.47.67.69a7.06,7.06,0,0,0,1.51,1.16h0a4.93,4.93,0,0,0-.12-1.81,8.4,8.4,0,0,0-.49-1.35c-.08-.18-.17-.36-.25-.53a19.72,19.72,0,0,1-1.25-2.68h0c-2.77-3-5.8-5.54-9.78-6.88-6.74-2.26-13.07-1.28-19.3,1.83-3.92,1.95-7.78,4.3-12.69,3.43.05.31.09.61.13.92C117.86,142.27,120.76,144.32,122.52,145.58Z"/><path class="cls-15" d="M159.73,143.34a19.72,19.72,0,0,1-1.25-2.68h0A19.72,19.72,0,0,0,159.73,143.34Z"/><path class="cls-15" d="M159.73,143.34c.08.17.17.35.25.53C159.9,143.69,159.81,143.51,159.73,143.34Z"/><path class="cls-15" d="M160.59,147h0a4.93,4.93,0,0,0-.12-1.81A4.93,4.93,0,0,1,160.59,147Z"/><path class="cls-15" d="M125,151.05h0l.54-.06Z"/><path class="cls-15" d="M116.54,139a4.19,4.19,0,0,0,.3,1c0-.31-.08-.61-.13-.92Z"/><path class="cls-14" d="M162.15,173.09c-.87,1.68.35,2.52,1.72,3.28a34.41,34.41,0,0,1,4.07,2.73c3.18,2.45,6.56,4.2,11,3.28,6.46,1.79,10.24-3,14.47-6.73.8-.71,1.85-1.57,1-2.76-1-1.37-2.22-.87-3.44,0-3.56,2.4-7.55,3.14-11.8,3.19a30.7,30.7,0,0,1-13.59-3C164.59,172.54,163.07,171.29,162.15,173.09Z"/><path class="cls-10" d="M160.59,147a7.06,7.06,0,0,1-1.51-1.16c-.23-.22-.45-.45-.67-.69s-.65-.71-1-1.05a6.34,6.34,0,0,0-2.78-1.8v0h0c0,.46-.07.92-.11,1.38h0a11.37,11.37,0,0,1-.91,6.47,18.93,18.93,0,0,1-1,2h.09a2.74,2.74,0,0,0,.55.09c1.19.09,2.25-.59,3.39-.74h0a2.27,2.27,0,0,1,2-1.31h0l2.57-2.62c-.21-.23-.42-.46-.64-.68h0Z"/><path class="cls-10" d="M158.58,150.31h0c.86-.88,1.71-1.76,2.57-2.63l-2.57,2.62Z"/><polygon class="cls-10" points="160.51 147 160.51 147 160.59 147.03 160.59 147.03 160.51 147"/><path class="cls-10" d="M153.19,152.35c1.19.09,2.25-.59,3.39-.74h0C155.44,151.76,154.38,152.44,153.19,152.35Z"/><path class="cls-10" d="M152.64,152.26Z"/><path class="cls-10" d="M157.42,144.13c.34.34.66.7,1,1.05C158.08,144.83,157.76,144.47,157.42,144.13Z"/><path class="cls-10" d="M202.87,144h0l.44-1.88-.29.12-.28-.12a17.74,17.74,0,0,0-4.55,3.94c-.49.53-1,1.08-1.44,1.62h0c0,.43,0,.85,0,1.28h0c1.84.66,3.38,2.11,5.22,2.79a5.27,5.27,0,0,0,2.74.32A12.15,12.15,0,0,1,202.87,144Z"/><path class="cls-10" d="M196.78,149h0c1.84.66,3.38,2.11,5.22,2.79-1.84-.68-3.38-2.13-5.22-2.79Z"/><path class="cls-10" d="M203.3,142.16l-.44,1.88h0C203,143.42,203.15,142.79,203.3,142.16Z"/><path class="cls-10" d="M196.74,147.72c.48-.54.95-1.09,1.44-1.62-.49.53-1,1.08-1.44,1.62Z"/><path class="cls-11" d="M206,153.35h0a3.18,3.18,0,0,0,.62-.06,7.61,7.61,0,0,0,1.92-3c-.11-.13-.23-.25-.35-.38l-.07-.08c-.17-.18-.33-.37-.49-.56a6.21,6.21,0,0,1-1.63-3.47,5,5,0,0,1,.53-2.53c-1.37-.35-2.48.51-3.7.81a12.15,12.15,0,0,0,1.87,8.07v.11l.59.54Z"/><path class="cls-11" d="M206,153.35l-.7-.59-.59-.54.59.55.7.58Z"/><path class="cls-11" d="M202.87,144h0c1.22-.3,2.33-1.16,3.7-.81h0C205.2,142.88,204.09,143.74,202.87,144Z"/><path class="cls-4" d="M147.09,189.35c-.53-.14-1.25-.91-1.57.11a.67.67,0,0,0,.09.48c.15.3.42.64.57.93l2.5.76h0a12.22,12.22,0,0,1,7.11,2.77,3.88,3.88,0,0,1,.58.57c.56.63,1.15,1.31,2.23.79l0,0h.07c-.3-.85-.6-1.71-.89-2.56h0c-1.89-1.62-4.5-1.38-6.56-2.57h0l-2-.48h0C148.52,189.85,147.82,189.55,147.09,189.35Z"/><path class="cls-4" d="M151.24,190.59l-2-.48h0Z"/><path class="cls-4" d="M158.6,195.76h0c-1.08.52-1.67-.16-2.23-.79C156.93,195.6,157.52,196.28,158.6,195.76Z"/><path class="cls-4" d="M151.24,190.59h0c2.06,1.19,4.67.95,6.56,2.57h0C155.91,191.54,153.3,191.78,151.24,190.59Z"/><path class="cls-4" d="M148.68,191.63h0a12.22,12.22,0,0,1,7.11,2.77A12.22,12.22,0,0,0,148.68,191.63Z"/><path class="cls-4" d="M207.36,189.58l-.87.27c-.09.52-1.2,1.43.43,1.33a26.63,26.63,0,0,0,3-.55l1.87-.55h0c.3-.44.83-.9.82-1.4a.79.79,0,0,0,0-.25,1.53,1.53,0,0,0-.16-.26c-.48-.55-1.14.18-1.71.36l-2.07.64h0l-.06,0A1,1,0,0,1,207.36,189.58Z"/><path class="cls-4" d="M211.81,190.08c.3-.44.83-.9.82-1.4,0,.5-.52,1-.82,1.4Z"/><path class="cls-4" d="M210.71,188.53l-2.07.64h0Z"/><path class="cls-14" d="M158.58,150.31a2.27,2.27,0,0,0-2,1.31,3.24,3.24,0,0,0,1.35-.13A1.18,1.18,0,0,0,158.58,150.31Z"/><path class="cls-14" d="M157.93,151.49a1.18,1.18,0,0,0,.65-1.18h0A1.18,1.18,0,0,1,157.93,151.49Z"/><path class="cls-14" d="M196.74,147.72a.5.5,0,0,0-.11-.1.37.37,0,0,0-.38,0c-.45.37-.62.63-.61.83a.28.28,0,0,0,.07.17,1.91,1.91,0,0,0,1.07.38C196.76,148.57,196.75,148.15,196.74,147.72Z"/><path class="cls-14" d="M195.71,148.62a.28.28,0,0,1-.07-.17A.28.28,0,0,0,195.71,148.62Z"/><path class="cls-14" d="M195.71,148.62a1.83,1.83,0,0,0,1.07.38h0A1.91,1.91,0,0,1,195.71,148.62Z"/><path class="cls-14" d="M208.58,189.19l-1.22.39A1,1,0,0,0,208.58,189.19Z"/><path class="cls-13" d="M209.94,190.63c-1.48,2.72-4.31,4.13-6.12,6.62-4.27,5.86-9.22,11-16.28,13.72-3.83,1.47-7.93.46-11.57,1.53-3.18.92-5.31-.18-7.57-1.49a31.87,31.87,0,0,1-4.78-3.94,36.84,36.84,0,0,1-3.73-3.87l-1-1.23c-3.07-3.76-5.93-7.72-10.19-10.34l-2.5-.76a4.73,4.73,0,0,1-1.93,2.17,16.77,16.77,0,0,1-20.35-.36c-.53-.39-.51-1-1.24-.53s.38,1.22.58,2c.27,1-.68,1.81-.07,2.59a50.94,50.94,0,0,0,11.74,10.81c5.24,3.43,7.82,7.8,12,12.24s8.28,9.47,13.6,13c6.1,4,12.91,6.3,20.16,5.55,10.3-1.06,19-6.1,26.73-12.77a19.71,19.71,0,0,0,1.47-1.42c.46-.49.92-1,1.39-1.49a12.4,12.4,0,0,1,3.19-2.56h0c4.08-3.81,6.78-7.62,10.83-11.43.07-.43.16-.85.26-1.26,0-.13,0-.22,0-.27l.12-.59c.11-.44.23-.88.38-1.32s.3-.88.47-1.31a61,61,0,0,1,2.81-5.67c1.73-3.24,1.33-4.77-1.18-4.34-5.39.9-9.79-2.81-14.93-2.68,0,0-.08,0-.11-.11a1.65,1.65,0,0,1-.09-.22l-.06-.19a1,1,0,0,1,0-.16l-.08-.24v0l-.06-.16Z"/><path class="cls-13" d="M224.57,207.27a.36.36,0,0,0,0,.11h0S224.56,207.31,224.57,207.27Z"/><path class="cls-13" d="M212,190.52a1,1,0,0,0,0,.16A1,1,0,0,1,212,190.52Z"/><path class="cls-13" d="M211.87,190.24v0Z"/><path class="cls-13" d="M212.07,190.87a1.65,1.65,0,0,0,.09.22A1.65,1.65,0,0,1,212.07,190.87Z"/><path class="cls-13" d="M224.55,207.39h0s0-.08,0-.12h0S224.56,207.35,224.55,207.39Z"/><path class="cls-13" d="M224.6,207.11l.12-.59-.12.59Z"/><path class="cls-13" d="M225.1,205.2c-.15.44-.27.88-.38,1.32C224.83,206.08,225,205.64,225.1,205.2Z"/><path class="cls-13" d="M225.57,203.89c-.17.43-.33.87-.47,1.31C225.24,204.76,225.4,204.32,225.57,203.89Z"/><path class="cls-13" d="M210.27,222.63a12.4,12.4,0,0,1,3.19-2.56h0A12.4,12.4,0,0,0,210.27,222.63Z"/><path class="cls-13" d="M210.27,222.63c-.47.49-.93,1-1.39,1.49C209.34,223.63,209.8,223.12,210.27,222.63Z"/><path class="cls-13" d="M224.41,208.52h0c0-.38.08-.75.14-1.13h0c-.1.41-.19.83-.26,1.26l.12-.12Z"/><path class="cls-13" d="M224.6,207.11c-.09,0-.09.14,0,.27a.36.36,0,0,1,0-.11Z"/><path class="cls-13" d="M224.57,207.27h0l0-.16h0Z"/><path class="cls-13" d="M224.41,208.52h0c0-.38.08-.75.14-1.13h0C224.49,207.77,224.44,208.14,224.41,208.52Z"/><path class="cls-13" d="M158.87,202l1,1.23Z"/><path class="cls-13" d="M233.65,145.39a6.5,6.5,0,0,0-.56.89c-.32.68,0,.78.8,1-1.2,1.65,1.27,2.42-.46,3.27.55,1.68-.79,1.34-1,3.27-.24,2.29,1.35,1.31,0,2.32-.08.07-.21.08-.29.14-1.69,1.37-4,2.68-2.95,5.23,1,2.38,3.34,2.89,5.83,2.23a4.84,4.84,0,0,1,1.28-.25c2.23.1.83-1,1.17,2.82,0,.29.57.67.93.75.54.11.64-.43.76-.85,1.48-5,.78-16.67-2.56-20.78-.54-.67-1-1.42-1.47-2.13C234.5,144.22,234,144.88,233.65,145.39Z"/><path class="cls-13" d="M233.09,146.28a6.5,6.5,0,0,1,.56-.89A6.5,6.5,0,0,0,233.09,146.28Z"/><path class="cls-13" d="M235.16,143.33c-.66.89-1.16,1.55-1.51,2.06.35-.51.85-1.17,1.51-2.06Z"/><path class="cls-4" d="M220.36,154.73c.55-1.6,2.43-1.12,3.33-2.16,2.49-3.57,2.11-7.48,1.36-11.43h0a10.32,10.32,0,0,0-3.6-1.26,11.06,11.06,0,0,0-2.31-.09c.13.18.26.37.38.56a8.58,8.58,0,0,1,1.59,4.41,2.45,2.45,0,0,1,0,3.22,6.16,6.16,0,0,1-.44.45,6.56,6.56,0,0,1-.86.62c-3.11,3.44-6.34,3.78-11.25,1.2a7.61,7.61,0,0,1-1.92,3q1.26.39,2.52.72l1.69.39A25.83,25.83,0,0,0,220.36,154.73Z"/><path class="cls-4" d="M225.05,141.14h0a10.32,10.32,0,0,0-3.6-1.26,10.32,10.32,0,0,1,3.6,1.26Z"/><path class="cls-13" d="M201.45,238.44c-3.39,2.14-8.5,3.15-8.72,8.71a1.25,1.25,0,0,1-.58.76,43.67,43.67,0,0,1-15.5,7,86.43,86.43,0,0,1-21.1,2c-1.09,0-2.61-.53-2.84,1.33a27.89,27.89,0,0,1-6.6,14.91,84,84,0,0,0,9.79.68c6.23-.21,8.91,3.39,11.06,8.19-1.17.94-2.14.18-2.89-.21-9-4.75-18.95-3.28-28.48-4.49-1.72-.22-2.24.41-1.07,2,3.77,5.2,7.34,10.56,11.24,15.67,7.27,9.53,14.37,19.2,22.5,28.05,3.32,3.61,6.36,7.46,9.72,11,.58.62,1.5,2.73,3.07.87,4.31-5.07,8.62-10.12,12.89-15.22,7.12-8.51,14.38-16.91,21.31-25.59,3.88-4.85,7.62-9.79,11.31-14.78,1.45-2,1.08-2.84-1.51-2.76-6.87.24-13.62,1.4-20.41,2.35-3.43.48-6.83,1.15-10.31.31-.67-.17-1.31-.23-1.43-1.06-.08-.57,0-1.18.54-1.43,2.25-1,4-2.94,6.84-2.8,8.86.44,17.68-1.08,26.54-.63,2.06.1,3.65-.41,3.18-3.07.61.12.85.62,1.11,1.05.07.11.13.22.2.31a.92.92,0,0,0,1,.4c.78-3.38,1.23-6.77-.09-10.13a59.35,59.35,0,0,1-9.71-3.95,10.05,10.05,0,0,1-5.92-7.73c-.13-.64-.25-1.28-.38-1.93a115.62,115.62,0,0,1-1.9-13.64h0a3.51,3.51,0,0,1-.33-1,3.24,3.24,0,0,1-.07-.52,11.88,11.88,0,0,1,.25-2.58c-.1-.21-.19-.42-.28-.63h0C209.44,232.36,205.71,235.77,201.45,238.44Z"/><path class="cls-13" d="M216.19,248.35a115.75,115.75,0,0,1-1.9-13.63h0A115.62,115.62,0,0,0,216.19,248.35Z"/><path class="cls-13" d="M214.14,230.6c-.1-.21-.19-.42-.28-.63h0C214,230.18,214,230.39,214.14,230.6Z"/><path class="cls-13" d="M213.89,233.18a3.24,3.24,0,0,0,.07.52A3.24,3.24,0,0,1,213.89,233.18Z"/><path class="cls-13" d="M125,151.05c-2.07-.9-1.21-2-3-3.41-4.37,4.4-4,10.21-5.18,15.89-.4,1.88.82,2.48,2.3,1.13,1.21-1.1.91-1.17,2.46-.8a5.88,5.88,0,0,0,2.37.28,3.6,3.6,0,0,0,3.36-2.25,3.05,3.05,0,0,0-.84-3.85c-.76-.73-2.09-1.69-1.19-2.7a2.34,2.34,0,0,0,.7-2.28,3.36,3.36,0,0,0-.3-.75c-.08-.17-.17-.33-.27-.5s-.3-.5-.44-.76Z"/><path class="cls-13" d="M125,151.05c.14.26.3.51.44.76-.14-.25-.3-.5-.44-.76Z"/><path class="cls-13" d="M125.44,151.81c.1.17.19.33.27.5C125.63,152.14,125.54,152,125.44,151.81Z"/><path class="cls-13" d="M125.71,152.31a3.36,3.36,0,0,1,.3.75A3.36,3.36,0,0,0,125.71,152.31Z"/><path class="cls-4" d="M140.87,151.6c-4.24-2.08-5.54-5.15-4.42-8.27a8.18,8.18,0,0,1,.85-1.7,12.4,12.4,0,0,1,2.14-2.49h0a16.46,16.46,0,0,0-5,1.36c-.54.22-1.07.46-1.6.7l-.55.55a17.32,17.32,0,0,0,.63,9.9l.49.17-.48.57h0a1,1,0,0,0,.61.49l.06,0c.25.09.52.15.75.26l.14.08a.87.87,0,0,1,.42.74h0l4.1.69a2.23,2.23,0,0,1,.13-1C139.43,152.83,140.27,152.29,140.87,151.6Z"/><path class="cls-4" d="M132.9,152.39h0a1,1,0,0,0,.61.49A1,1,0,0,1,132.9,152.39Z"/><path class="cls-4" d="M134.46,153.25a.87.87,0,0,1,.42.74h0A.87.87,0,0,0,134.46,153.25Z"/><path class="cls-4" d="M134.32,153.17c-.23-.11-.5-.17-.75-.26C133.82,153,134.09,153.06,134.32,153.17Z"/><path class="cls-11" d="M152.55,152.24h0a18.93,18.93,0,0,0,1-2,11.46,11.46,0,0,0,.91-6.47c-.92.44-1.88-.37-2.81-.08a1.45,1.45,0,0,0-.39.2,1.39,1.39,0,0,0,.15.63c.72,1.57,1.09,3,.17,3.85a3.88,3.88,0,0,1-2.15.81c-2.19,3.19-5.37,2.87-8.58,2.42-.61.69-1.45,1.23-1.77,2.09a2.23,2.23,0,0,0-.13,1,23.92,23.92,0,0,0,12.85-1.88l.81-.54Z"/><path class="cls-11" d="M152.55,152.24l.09,0h0l-.08,0Z"/><path class="cls-11" d="M152.63,152.25h0Z"/><path class="cls-11" d="M153.58,150.24a11.37,11.37,0,0,0,.91-6.47h0A11.46,11.46,0,0,1,153.58,150.24Z"/><path class="cls-11" d="M152.64,152.26h-.08Z"/><path class="cls-11" d="M139.11,153.69c.32-.86,1.16-1.4,1.77-2.09h0C140.27,152.29,139.43,152.83,139.11,153.69Z"/><path class="cls-11" d="M141.67,248.34l0,2a2.07,2.07,0,0,0,.15-.25A1.69,1.69,0,0,0,141.67,248.34Z"/><path class="cls-16" d="M172.91,197.71c-1.08-.05-2.17,0-3.25,0-.77,0-1.59,0-1.76,1-.19,1.15.52,1.49,1.5,1.63,2,.31,3.39,1.26,3.11,3.59h0a36.73,36.73,0,0,0,10.83-.07c.51-.09,1-.21,1.53-.35-.46-2.79,1.56-3.05,3.49-3.66,1.29-.41,3.81-.34,3.4-2s-2.59-.33-4-.4c-2.11-.11-4.78,1.85-6.27-1.31h0l-6.36-.1C175.05,197.47,174.16,197.78,172.91,197.71Z"/><path class="cls-16" d="M181.5,196.14h0l-6.36-.1,6.36.1Z"/><path class="cls-16" d="M172.51,204h0a36.73,36.73,0,0,0,10.83-.07A36.73,36.73,0,0,1,172.51,204Z"/><path class="cls-10" d="M158.69,195.72c.81.12,1.11.69,1.22,1.44a13.41,13.41,0,0,0,4.58,4.43,20,20,0,0,0,8,2.38c.28-2.33-1.07-3.28-3.11-3.59-1-.14-1.69-.48-1.5-1.63.17-1,1-1,1.76-1,1.08,0,2.17-.06,3.25,0,1.25.07,2.14-.24,2.23-1.67l-17.34-2.88C158.09,194,158.39,194.87,158.69,195.72Z"/><path class="cls-10" d="M175.14,196l-17.34-2.88h0Z"/><path class="cls-10" d="M164.49,201.59a20,20,0,0,0,8,2.38h0A20,20,0,0,1,164.49,201.59Z"/><path class="cls-10" d="M199.94,193.16l-18.44,3c1.49,3.16,4.16,1.2,6.27,1.31,1.4.07,3.58-1.28,4,.4s-2.11,1.63-3.4,2c-1.93.61-4,.87-3.49,3.66,5.42-.6,10.5-1.92,14-6.61C198.15,195.37,199.78,194.47,199.94,193.16Z"/><path class="cls-10" d="M199.94,193.16h0l-18.44,3h0Z"/><path class="cls-4" d="M199.94,193.16h0c-.16,1.31-1.79,2.21-1.08,3.78,3-.88,4.29-3.71,6.44-5.61-.51,0-1,0-1.51.09A5.18,5.18,0,0,0,199.94,193.16Z"/><path class="cls-4" d="M199.94,193.16a5.18,5.18,0,0,1,3.85-1.74,5.18,5.18,0,0,0-3.85,1.74Z"/><path class="cls-4" d="M159.91,197.16c-.11-.75-.41-1.32-1.22-1.44h0l-.09,0a3.05,3.05,0,0,0-.13.4C158.29,197.08,159.08,197.13,159.91,197.16Z"/><polygon class="cls-4" points="158.69 195.72 158.69 195.72 158.69 195.72 158.69 195.72"/><path class="cls-4" d="M158.69,195.72h0l-.09,0h0Z"/><path class="cls-4" d="M158.69,195.72h-.07l0,0,.09,0Z"/><polygon class="cls-4" points="158.69 195.72 158.69 195.72 158.69 195.72 158.69 195.72 158.69 195.72"/><path class="cls-4" d="M158.69,195.72h0Z"/><path class="cls-5" d="M219.83,149.05c-1.9-.16-3.64-.88-3.09-3.08.61-2.43,2.53-2.16,4.37-1.21a8.58,8.58,0,0,0-1.59-4.41c-.12-.19-.25-.38-.38-.56h0l-.67-.05c-2.81-1-5.14-1.28-7.07-.77a7.61,7.61,0,0,0-4.83,4.27h0a5,5,0,0,0-.53,2.53,6.21,6.21,0,0,0,1.63,3.47c.16.19.32.38.49.56l.07.08.35.37h0C213.49,152.83,216.72,152.49,219.83,149.05ZM213,142.94a2,2,0,0,1,.36,0,1.36,1.36,0,0,1,.79.42,2,2,0,0,1,.44,1.2c-.06,1.12-.6,1.82-1.78,1.78a1.53,1.53,0,0,1-1.58-1.65A1.58,1.58,0,0,1,213,142.94Z"/><path class="cls-5" d="M211.4,139a7.61,7.61,0,0,0-4.83,4.27h0A7.61,7.61,0,0,1,211.4,139Z"/><path class="cls-5" d="M208.23,149.87c.12.13.24.25.35.38h0Z"/><path class="cls-5" d="M208.16,149.79c-.17-.18-.33-.37-.49-.56C207.83,149.42,208,149.61,208.16,149.79Z"/><path class="cls-10" d="M223.69,152.57a15,15,0,0,0,4.84-2.71c4.5-3.49,4.47-4.19-.29-7.07l-.78-.44c-.79-.42-1.61-.8-2.41-1.21C225.8,145.09,226.18,149,223.69,152.57Z"/><path class="cls-10" d="M227.46,142.35c-.79-.42-1.61-.8-2.41-1.21h0C225.85,141.55,226.67,141.93,227.46,142.35Z"/><path class="cls-11" d="M202.8,142a.75.75,0,0,1-.07.12h0l.28.12.29-.12-.07-.15C203.09,141.76,203,141.83,202.8,142Z"/><path class="cls-11" d="M202.8,142l-.07.12h0A.75.75,0,0,0,202.8,142Z"/><path class="cls-4" d="M218.47,139.73l.67.05c0-.06,0-.11-.08-.16C218.9,139.31,218.7,139.34,218.47,139.73Z"/><path class="cls-5" d="M139.44,139.14a12.4,12.4,0,0,0-2.14,2.49,8.18,8.18,0,0,0-.85,1.7c-1.12,3.12.18,6.19,4.43,8.27h0c3.21.45,6.39.77,8.58-2.42-1.53-.49-2.47-1.48-2-3.12.6-2.15,2.37-1.74,4-1.54a1.39,1.39,0,0,1-.15-.63l-2.58-4.11c-2.65-.91-5.39-.67-8.11-.64C140.21,139.15,139.83,139.15,139.44,139.14Zm4,3.62a1.69,1.69,0,0,1,1.92,1.7,1.8,1.8,0,1,1-3.58.26A1.68,1.68,0,0,1,143.43,142.76Z"/><path class="cls-5" d="M140.6,139.14c-.39,0-.77,0-1.16,0h0C139.83,139.15,140.21,139.15,140.6,139.14Z"/><path class="cls-5" d="M136.45,143.33c-1.12,3.12.18,6.19,4.42,8.27h0C136.63,149.52,135.33,146.45,136.45,143.33Z"/><path class="cls-5" d="M136.45,143.33a8.18,8.18,0,0,1,.85-1.7A8.18,8.18,0,0,0,136.45,143.33Z"/><path class="cls-10" d="M132.89,151.65a17.32,17.32,0,0,1-.63-9.9l0,0h0s0,0,0-.06c-2.72.19-4.47,2.16-6.5,3.62a.79.79,0,0,0-.11,1.33c2.07,2.17,3.92,4.67,7.25,5l0,0Z"/><polygon class="cls-10" points="132.21 141.79 132.21 141.79 132.21 141.79 132.21 141.79"/><path class="cls-4" d="M154,141.67a10.06,10.06,0,0,0-5.33-1.89l2.58,4.11a1.45,1.45,0,0,1,.39-.2c.93-.29,1.89.52,2.81.07,0-.46.07-.92.11-1.38C154.08,142.43,154.06,142.05,154,141.67Z"/><path class="cls-10" d="M133.38,151.82l-.49-.17v0h-.07c-.06.08-.16.16-.14.22a3,3,0,0,0,.21.49Z"/><path class="cls-10" d="M132.69,151.9a3,3,0,0,0,.21.49h0A3,3,0,0,1,132.69,151.9Z"/><path class="cls-10" d="M132.86,151.64l0,0h.07Z"/><path class="cls-10" d="M132.9,151.69v0h0Z"/><path class="cls-10" d="M132.19,141.73h.08v0l.55-.55c-.21.08-.58,0-.65.25A.6.6,0,0,0,132.19,141.73Z"/><path class="cls-10" d="M132.16,141.45a.6.6,0,0,0,0,.28h0A.6.6,0,0,1,132.16,141.45Z"/><path class="cls-10" d="M132.21,141.79s0,0,0-.06h0s0,0,0,.06Z"/><path class="cls-10" d="M132.19,141.73s0,0,0,.06l.06-.07Z"/><polygon class="cls-10" points="132.21 141.79 132.21 141.79 132.21 141.79 132.21 141.79"/><path class="cls-10" d="M132.21,141.79l0,0v0Z"/><polygon class="cls-10" points="132.21 141.79 132.21 141.79 132.21 141.79 132.26 141.72 132.21 141.79"/><path class="cls-11" d="M154,141.67c0,.38,0,.76.56.71v-.06h0a.68.68,0,0,0,0-.25C154.56,141.84,154.31,141.75,154,141.67Z"/><polygon class="cls-11" points="154.6 142.32 154.6 142.32 154.6 142.32 154.6 142.32"/><path class="cls-11" d="M154.6,142.32h0Z"/><path class="cls-11" d="M154.62,142.35l0,0v0h0Z"/><path class="cls-11" d="M154.6,142.32v.06h0v-.06Z"/><polygon class="cls-11" points="154.6 142.32 154.6 142.32 154.6 142.32 154.6 142.32 154.6 142.32 154.6 142.32 154.6 142.32"/><path class="cls-11" d="M154.6,142.32v.06h0l0,0Z"/><path class="cls-11" d="M154.6,142.32l0,0,0,0Z"/><path class="cls-10" d="M221.11,144.76c-1.84-.95-3.76-1.22-4.37,1.21-.55,2.2,1.19,2.92,3.09,3.08a6.56,6.56,0,0,0,.86-.62,6.16,6.16,0,0,0,.44-.45A2.45,2.45,0,0,0,221.11,144.76Z"/><path class="cls-16" d="M151.44,144.52c-1.62-.2-3.39-.61-4,1.54-.46,1.64.48,2.63,2,3.12a3.88,3.88,0,0,0,2.15-.81C152.53,147.5,152.16,146.09,151.44,144.52Z"/><path class="cls-16" d="M212.83,146.37c1.18,0,1.72-.66,1.77-1.79a1.88,1.88,0,0,0-.43-1.19,1.36,1.36,0,0,0-.79-.42,2,2,0,0,0-.36,0,1.58,1.58,0,0,0-1.77,1.78A1.53,1.53,0,0,0,212.83,146.37Z"/><path class="cls-16" d="M212.83,146.37c1.18,0,1.72-.66,1.78-1.78a2,2,0,0,0-.44-1.2,1.88,1.88,0,0,1,.43,1.19C214.55,145.71,214,146.41,212.83,146.37Z"/><path class="cls-10" d="M143.87,146.4a1.72,1.72,0,0,0,1.48-1.94,1.8,1.8,0,1,0-3.58.26A1.72,1.72,0,0,0,143.87,146.4Z"/></g></g></svg>