<svg xmlns="http://www.w3.org/2000/svg" viewBox="0 0 166.45 97.65"><defs><style>.cls-1{fill:#cb0606;}</style></defs><title>资源 13</title><g id="图层_2" data-name="图层 2"><g id="OBJECTS"><path class="cls-1" d="M62.05,55.48a144.94,144.94,0,0,1,42.92.06v1.18H62.14Z"/><path class="cls-1" d="M165.62,87.9c-.33-5.7-.51-11.68-1.1-17.62-.44-4.52-1.5-5.58-4.69-6.49-1.55-6.13-3.05-12.13-4.58-18.11-1.18-4.63-4.06-7.12-8.83-8.3A265.6,265.6,0,0,0,103,30.74c-27.26-2.08-54.19.3-80.89,6.17-6.32,1.38-9.9,4.62-11.23,10.73-1,4.61-2.07,9.2-3,13.81-.29,1.38-.49,2.29-2.21,2.92A5.48,5.48,0,0,0,2.79,68.3c-.56,6.62-.67,13.29-.94,19.93a1.31,1.31,0,0,1-.5,1.24A90,90,0,0,1,.07,80.29,118.39,118.39,0,0,1,.31,68.23a8.88,8.88,0,0,1,3.52-6.84c.92-.71,1-2.6,1.28-4,1-4.8,1.83-9.64,2.94-14.42,1.2-5.11,4.35-8.61,9.56-9.75,12.08-2.63,24.1-5.81,36.32-7.5,29.26-4.05,58.29-1.93,87,5.05,3.14.77,6.2,1.89,9.31,2.8a11.09,11.09,0,0,1,8.12,8.22c1.43,5.71,2.41,11.52,3.65,17.27a9.92,9.92,0,0,0,1.12,2.52c1.13,2.1,3.21,4.13,3.29,6.25.24,6.45-.28,12.93-.53,19.39A1.34,1.34,0,0,1,165.62,87.9Z"/><path class="cls-1" d="M138.16,22.77q-4.18-6.4-8.35-12.83a9.19,9.19,0,0,0-7-4.23A311.23,311.23,0,0,0,68.6,3.79c-8.23.41-16.45,1.29-24.67,2a8.19,8.19,0,0,0-6.64,3.78C34.42,14,31.51,18.4,28.51,22.78c2.68-6,5-12.35,9.78-17.11,1.51-1.5,4.21-2.1,6.47-2.5A219.57,219.57,0,0,1,96.47.45C104.89,1,113.26,2.17,121.66,3a12.55,12.55,0,0,1,10.62,7.33c2,4.11,4.2,8.16,6.31,12.23Z"/><path class="cls-1" d="M55.3,55.83c-1-2.85-1.84-5.77-3.08-8.52a4.42,4.42,0,0,0-2.83-2.42c-7.82-.62-15.66-1-23.49-1.42-2.48-.14-3.83,1.07-4.4,3.4a63.87,63.87,0,0,1-2.95,9.63c.66-4.12,1.13-8.28,2.1-12.32a4.61,4.61,0,0,1,3.08-2.67,81.26,81.26,0,0,1,26.94-1.07,5.34,5.34,0,0,1,4.93,5.07c.36,3.38.45,6.8.66,10.19Z"/><path class="cls-1" d="M111.31,56.3a6.59,6.59,0,0,1-.4-1.21c-.65-14.31.85-15.32,14.18-15.23,5.58,0,11.16.77,16.74,1.26A5,5,0,0,1,146.78,46a100.39,100.39,0,0,1,.93,10.12A102,102,0,0,0,145,46.24c-.44-1.16-2.17-2.62-3.27-2.6-8.23.21-16.46.7-24.68,1.3-.84.06-1.93,1.28-2.33,2.22C113.47,50,112.53,52.94,111.31,56.3Z"/><path class="cls-1" d="M38,14.33a9.78,9.78,0,0,1,8.59-6.49C53.78,7.06,61,6,68.25,5.62c17.21-.83,34.4-.5,51.5,2.09,4.56.69,7.73,2.84,9.51,7.19-4.4-7.8-12.26-6.55-19.13-7.1a322.09,322.09,0,0,0-61.86.79C43.92,9.08,40.42,10.59,38,14.33Z"/><path class="cls-1" d="M105.67,46H61.78C66.43,42.33,99.05,42.2,105.67,46Z"/><path class="cls-1" d="M105.72,51.43H61.65C66.92,47.69,99.16,47.62,105.72,51.43Z"/><path class="cls-1" d="M105.06,40.62H61.89C66,36.94,97.58,36.67,105.06,40.62Z"/><path class="cls-1" d="M143.48,23.5c4.61-1.8,9.07-2.13,13.5-.35,2.33.93,2.3,3.26,2,5.35a10.17,10.17,0,0,1-1.79,4.5,7.06,7.06,0,0,0,.33-.87c1.53-6.52,0-8.47-6.67-8.62C148.51,23.45,146.19,23.5,143.48,23.5Z"/><path class="cls-1" d="M9.21,32.31a47.89,47.89,0,0,1,.08-5.75,3,3,0,0,1,1.54-2.2c4.49-1.07,9-1.47,13.18.39-3.35.15-6.84.34-10.33.46-2.22.07-3.51.95-3.48,3.35,0,1.24-.16,2.48-.25,3.72Z"/><path class="cls-1" d="M96.94,75.09H71.15a3.06,3.06,0,0,0-2,.66,2,2,0,0,0-.83,1.57v8.49a2,2,0,0,0,.83,1.58,3.06,3.06,0,0,0,2,.66H96.94a3.08,3.08,0,0,0,2-.66,2,2,0,0,0,.83-1.58V77.32a2,2,0,0,0-.83-1.57A3.08,3.08,0,0,0,96.94,75.09Z"/><path class="cls-1" d="M155.21,66.67H11.38c-2.83,0-5.12,1.83-5.12,4.09v22.8c0,2.26,2.29,4.09.56,4.09H150.66c7.38,0,9.67-1.83,9.67-4.09V70.76C160.33,68.5,158,66.67,155.21,66.67ZM55.89,92.39H50.24V85.14H27.12a9.07,9.07,0,0,1-5.91-2,6,6,0,0,1-2-2.34,7.3,7.3,0,0,1-.52-2.88V70.49h5.6v8A1.93,1.93,0,0,0,25.15,80a3.11,3.11,0,0,0,2,.64H50.24V70.49h5.65Zm49.45-6.58a5.89,5.89,0,0,1-2.46,4.74,9.21,9.21,0,0,1-5.94,2H71.15a9.17,9.17,0,0,1-5.94-2,5.89,5.89,0,0,1-2.46-4.74V77.32a5.89,5.89,0,0,1,2.46-4.74,9.22,9.22,0,0,1,5.94-2H96.94a9.26,9.26,0,0,1,5.94,2,5.89,5.89,0,0,1,2.46,4.74Zm42.85,6.58h-5.66V85.14H119.42a9.1,9.1,0,0,1-5.92-2,6.22,6.22,0,0,1-2-2.34,7.48,7.48,0,0,1-.52-2.88V70.49h5.61v8a1.9,1.9,0,0,0,.83,1.55,3.11,3.11,0,0,0,2,.64h23.11V70.49h5.66Z"/></g></g></svg>