<svg xmlns="http://www.w3.org/2000/svg" 
width="60" height="25"
fill="#999999"
viewBox="0 0  350 100"><title>资源 3</title><g id="图层_2" data-name="图层 2"><g id="图层_1-2" data-name="图层 1"><path d="M129.12,49c-8.15-.33-16.29-.91-24.45-1.23-12.32-.49-24.6-1.39-36.65-4.08-3.14-.7-6.71-1.3-8.32-4.8C54.88,28.36,42,22.92,30.65,26.78a5.14,5.14,0,0,1-1.57,0c0-.37-.07-.75-.11-1.12,2.87-.55,5.72-1.49,8.6-1.58C47.66,23.79,55.3,27.88,60.22,37a8.59,8.59,0,0,0,4.88,3.83,108.65,108.65,0,0,0,18,3.62c14.68,1.27,29.4,2,44.12,2.87,3.29.19,3.29.07,3.53-3.3.89-12.9,15.71-20.39,26.55-13.41a17.72,17.72,0,0,1,8.48,15.25c0,.84.82,2.36,1.29,2.38,5,.17,9.91.11,15.42.11a13.66,13.66,0,0,1-2.29-1.9,23.93,23.93,0,0,1-3.15-4.93c-.86-2.17,0-3,2.28-3.19,3.38-.26,6.38.06,7.57,4.08a5.39,5.39,0,0,0-.66-2.4c-2.37-4.34-6.48-6.79-10.31-9.55a60.8,60.8,0,0,0-20.24-9.95c-9.83-2.58-19.93-2.66-30-3.34a33.45,33.45,0,0,0-3.74.18c-10.39.55-20.78,1.46-31.17,1.53a108.72,108.72,0,0,1-18.56-2c-4.4-.74-8.6-2.64-13-3.45A136.8,136.8,0,0,0,27,11.54c-4.47.25-9-.09-13.45-.14a10.68,10.68,0,0,0-3.21.23A9.17,9.17,0,0,0,8,13.2a8.93,8.93,0,0,0,2,1.33c2.34.8,3.23,2,2.67,4C11.86,21.31,8,24.3,5.2,23.77s-2.88.6-2.95,2.74-.11,4.74-1,6.76c-1.6,3.61-1.38,5.51,2,7.75a24.57,24.57,0,0,0,11.23,3.71c1.15.13,2.29.37,3.43.56l-.27,1.1A25.36,25.36,0,0,1,0,41.06c0,1.51-.11,3.27.71,4.16a11.25,11.25,0,0,0,5.08,3.51c5,1.18,10.06,1.79,15.67,2.72-.28-1.38-.35-1.86-.48-2.31-2-7,.3-13.81,6.38-18.63a17.12,17.12,0,0,1,18.8-1.41c7.49,4.13,10.46,11.22,8.47,20.43-.41,1.87-.45,3,2,3,24.16.12,48.33.34,72.49.45.83,0,2.38-.84,2.36-1.23C131.45,50.42,131.17,49,129.12,49Zm-117-8.13c-.49-.59-1.45-1.24-1.39-1.77A14,14,0,0,0,6.82,27.26a4.68,4.68,0,0,1,5.29,3A34.23,34.23,0,0,1,14,38.48C14.12,39.17,12.81,40,12.14,40.82Z"/><path d="M148.18,30a15.09,15.09,0,0,0-15,15.17,15,15,0,1,0,15-15.17Zm2.37,10.9c.19-1.1.2-2.22.27-3.09a11.48,11.48,0,0,1,2.41-.67,2.64,2.64,0,0,1,1.93.51,3.14,3.14,0,0,1,.47,2.08,7.67,7.67,0,0,1-.7,2c-.87.18-1.76.35-2.64.56C151.13,42.5,150.29,42.47,150.55,40.86ZM141.34,37l1,0a36.84,36.84,0,0,1,2.74,3.64c.24.4-.24,1.23-.39,1.86a20.94,20.94,0,0,1-4.24-2.5C140.09,39.66,141,38,141.34,37Zm1.92,15.62a2.52,2.52,0,0,1-2.42-.45c-.37-.78,0-1.91.12-3.6A12.76,12.76,0,0,1,138.73,47a3,3,0,0,1-.89-2.06c0-.49.81-1.16,1.39-1.36,2-.71,3.71-.25,5,2l-2.54,1.32-.12.73,3.72.47C145.9,49.92,144.65,51.4,143.26,52.57ZM148,34.7c1.93.11,1.8,1.46,1.42,2.72a33.57,33.57,0,0,1-1.47,3.52l-2.25-3.37C146.06,35.84,146.11,34.6,148,34.7Zm4,16.79c-.54.6-1.47,1.14-1.56,1.8-.3,2-1.79,2.5-3,1.74-.83-.52-1.17-2.35-1.11-3.57,0-.87,1.11-1.68,2-2.87.69,1.21,1.14,2,1.6,2.84,1.18-.66,1.18-.66.78-3.83l4.33.45c.34.8.75,1.73,1.23,2.85C155.05,53.39,154.42,53.53,152,51.49Zm3.41-4.62c-1-.59-2.93-1.12-3-1.78-.13-2,1.82-1.57,3.13-1.82s2.63-.47,2.75,1.4S157.11,46.71,155.42,46.87Z"/><path d="M38,29.64A14.77,14.77,0,0,0,22.81,44.53,15,15,0,1,0,38,29.64Zm5.14,7a2.48,2.48,0,0,1,2,.83,2.3,2.3,0,0,1,0,2A6.18,6.18,0,0,1,43.78,41h0l-3,1.16C40.23,40.19,41.53,37,43.1,36.62Zm-12.71,1a3.92,3.92,0,0,1,2.55.05,4.09,4.09,0,0,1,1.32.9c.28,1,.55,2,.93,3.41l-4.62-.22A10.33,10.33,0,0,1,30.21,40C30.17,39.18,30,37.88,30.39,37.62Zm-2.68,7.26c-.09-.45,1-1.67,1.45-1.6a26.32,26.32,0,0,1,4.33,1.33l-3.81,2.77C28.72,46.24,27.86,45.63,27.71,44.88Zm4.44,7.76a2,2,0,0,1-2-2.61c.24-.66.47-1.32.66-1.85l4.08-.76c.12,1.76.22,3.22.31,4.58C34.35,52.19,33.26,52.45,32.15,52.64Zm7.13,1.69a1.9,1.9,0,0,1-1.67.61c-.57-.17-1.36-.92-1.35-1.39a41.73,41.73,0,0,1,.7-5.12C39.5,49.81,40.46,52.65,39.28,54.33ZM37.81,40.59l-3.47-2a19,19,0,0,1,1.35-3.31,2.31,2.31,0,0,1,1.85-.76,2.41,2.41,0,0,1,1.71,1C40.66,37.81,39.1,39.31,37.81,40.59ZM46.1,50.91c-.8.54-2.18,1.65-2.32,1.51a29.88,29.88,0,0,1-3.33-4.09c-.08-.12.65-1,.73-1,1.68.8,3.33,1.68,5,2.54Zm2-5.91c-.07.45-.78.88-1.3,1.16a2,2,0,0,1-1.44.25c-1.23-.47-2.39-1.11-3.58-1.68.66-.7,1.33-1.39,2.23-2.32,0-.16-.14-.72-.25-1.31A27.25,27.25,0,0,1,47.63,43,2.39,2.39,0,0,1,48.14,45Z"/><path d="M91.74,6.54l-.22-.06.16.13Z"/><path d="M32.35,9.2c8.54.67,17.12,1,25.59,2.17,5.39.73,10.55,3.08,15.94,3.87,6.81,1,13.74,1.19,20.62,1.66a6.75,6.75,0,0,0,2-.5c0-.24,0-.49-.07-.73a16.23,16.23,0,0,0-2.3-.28c-8.37.1-16.63-.49-24.54-3.61-4.08-1.61-8.27-3-12.29-4.73-1.8-.79-1.62-2.39.28-2.94,8.09-2.3,16.21-3.78,24.49-.62,3.07,1.17,6.26,2,9.4,3a6.51,6.51,0,0,0-1.33-1c-1.64-.75-3.32-1.42-5-2.1-5-2-10-3.78-15.63-3.33-12.43,1-24.44,4-36.45,7.06-1.44.37-2.84.9-4.26,1.36l.11.7C30.1,9.19,31.23,9.11,32.35,9.2Z"/><path d="M188.21,50.24c-.48-1.83-1.88-1.46-3.23-1.18a28.23,28.23,0,0,1-4.87.85c-4.23.14-8.47.21-12.7.06-2.31-.08-3.43.68-3.43,3.34a8.85,8.85,0,0,0,1.74.36c5.39,0,10.78,0,16.17-.11a20.32,20.32,0,0,0,4.18-.57C187.43,52.67,188.67,52,188.21,50.24Z"/><path d="M120.79,15.56l.15-.89c-9.57-4.41-19-9-29.31-11.65,8,4.09,16,8.1,24.06,11.89C117.17,15.6,119.08,15.37,120.79,15.56Z"/><path d="M102.67,17.09c1.2-.73,2.26-1.34,4-.67s3.71.14,5.59.14l.13-1-7.18-3.48c.17,1,.26,1.48.31,1.77l-8,.82C98.27,18.09,99.82,18.8,102.67,17.09Z"/><path d="M8,19c.2-.45-.61-1.94-1-2-2.14-.2-2.49,1.6-3.19,3.18C5.72,21.14,7.19,20.75,8,19Z"/><path d="M91.74,6.54l-.06.07.19.06Z"/><path d="M100.56,9.58,91.87,6.67C93.57,8.41,98.79,10.47,100.56,9.58Z"/></g></g></svg>
