<svg xmlns="http://www.w3.org/2000/svg" viewBox="0 0 186.04 60.06"><title>资源 5</title><g id="图层_2" data-name="图层 2"><g id="图层_1-2" data-name="图层 1"><path d="M180.73,25.37c-5.35-2.21-10.71-4.61-16.29-6a138.3,138.3,0,0,0-32.87-4.17,9.28,9.28,0,0,1-4.23-1.1C117.57,8.68,107.75,3.44,96.91.46A24.53,24.53,0,0,0,93.05,0l-.36,1c1.09.77,2.13,1.63,3.28,2.29,4.47,2.55,9,5.1,13.5,7.5a4.56,4.56,0,0,0,3.24.42c2.13-.71,3.76.07,5.31,1.24a2.19,2.19,0,0,1,.71,1.66c0,.36-.86.92-1.31.89-2.18-.13-4.36-.43-6.54-.67-.75,0-1.63.81-2.51.82-8.66.07-17.32,0-26,0-4.14,0-8.28-.09-12.42,0-2.23,0-4.49.63-6.69.46C58.64,15.23,54,14.49,49.42,14c-2.06-.2-3.44-.87-3.9-3.09a3,3,0,0,0-3.47-2.56,65.14,65.14,0,0,0-10.36,2.49c-5.07,1.82-10,4.1-15,6.18-3.6,1.5-7.38,2.67-10.75,4.57C2.37,23.68.67,27.38.11,31.43a22.41,22.41,0,0,0,.16,5.42c1,8.58.71,9.31,8.84,10.31a25.22,25.22,0,0,1,2.68.6c1.74.43,2.53,0,2.57-2a26.67,26.67,0,0,1,1.07-6.86c2.95-10,15.68-15.25,24.8-10.36,6.77,3.64,10.27,9.21,10.16,17,0,3.21.22,3.39,3.41,3.39,7.38,0,14.76,0,22.14-.07,15.3-.14,30.61-.34,45.91-.5,1.44,0,2.18-.54,2.06-2.08a13.2,13.2,0,0,1,0-2.74c.45-3.74-.12-7.62,2-11.12,4-6.69,11.83-12,21-10,9.75,2.13,16.31,7.8,20.23,16.79.46,1.06.21,2-1.15,1.73-2.26-.37-4.5-.92-6.63-1.37.15,1.93.36,4.15.49,6.38.08,1.3.54,2,2,1.89,6.74-.35,13.48-.6,20.22-1,.59,0,1.57-.59,1.67-1.06A96.65,96.65,0,0,0,186,33.93,8.08,8.08,0,0,0,180.73,25.37ZM68.42,23.93a21.9,21.9,0,0,1-3.21.19,20.55,20.55,0,0,1-2.94-.24c-.52-.12-.94-.7-1.4-1.07.4-.36.78-1,1.19-1a64,64,0,0,1,6.64,0c.49,0,.94.74,1.41,1.14A6.14,6.14,0,0,1,68.42,23.93ZM181.3,41.37c-2,.19-4.07.07-6.12.07.14,3-1,4.13-3.44,3.94-.55,0-1.07-.53-1.6-.81a14,14,0,0,1,1-1.59,22.51,22.51,0,0,1,2.27-2.59c1-.9,2-2,3.19-2.35a10.18,10.18,0,0,1,4.69,0c.78.16,1.36,1.28,2,2C182.62,40.48,182,41.31,181.3,41.37Zm.89-5.07a51.69,51.69,0,0,1-8.95-.45c2.49,0,5,.07,7.46,0,1.93-.06,2.36-.94,1.25-2.53-1.28-1.84-2.84-3.12-5.35-2.92-2.82.22-5.66.17-8.49.24l-.38-.24A13,13,0,0,1,171,29.16c2.05-.2,4.15,0,6.22-.08,3.3-.13,5.2,1.88,6.68,4.38C184.78,35,184,36.27,182.19,36.3Z"/><path d="M141.85,29.94a15.13,15.13,0,0,0-15,15.37c0,8,6.9,14.56,14.89,14.75a15.06,15.06,0,1,0,.15-30.12Zm0,27.1c-6.47-.31-11.75-5.08-11.74-12.1a11.87,11.87,0,1,1,23.74.27C153.74,51.71,148.35,57.34,141.88,57Z"/><path d="M31.73,29.94c-8.65.17-15,6.61-14.94,15.08.1,8.88,6.52,15.12,15.43,15a15,15,0,0,0-.49-30.08Zm.1,27.11c-6.25.27-12.06-5.7-12.06-11.92,0-6.47,5.71-12.45,12.08-12.14a12,12,0,0,1,0,24.06Z"/><path d="M121.28,50.76q-16.84,0-33.69,0V51H53.89a4.12,4.12,0,0,0-1.73.07c-.62.3-1.59,1.06-1.51,1.39a3.34,3.34,0,0,0,1.51,1.79c.5.3,1.3.11,2,.11,13.07,0,26.13,0,39.19-.07,8.66-.06,17.31-.25,26-.39a5.41,5.41,0,0,0,2-.13c.92-.4,2.36-1,2.47-1.62C124,50.34,122.35,50.77,121.28,50.76Z"/><path d="M162.47,49.84c-1.26,0-2.59-.14-2.57,1.8s1.41,1.55,2.48,1.53c4.9-.13,9.81-.27,14.71-.53,2.61-.13,5.22-.53,7.83-.81.08-.35.16-.71.23-1.06-1.08-.51-2.16-1.45-3.24-1.44C175.43,49.38,169,49.65,162.47,49.84Z"/><path d="M13.09,50.1c-3.2-.63-6.43-1.09-9.77-1.62a3.64,3.64,0,0,0,0,.66C4.48,51,11.48,53.71,13.45,53c.38-.14.88-.9.79-1.23C14.06,51.12,13.58,50.2,13.09,50.1Z"/><path d="M75.61,15l3.66-2.09c-1.16-.9-2.19-2.18-3.5-2.62S71.7,12,72.23,12.87,74.24,14.19,75.61,15Z"/><path d="M146.69,26.93l8.55,5.19C153.57,28.87,149.33,26.3,146.69,26.93Z"/><path d="M145.93,45.48a45.78,45.78,0,0,0,4.87,1.13c.33,0,1.16-.93,1.14-1.4s-.75-1.76-1.06-1.73a44.34,44.34,0,0,0-4.94,1.06Z"/><path d="M149.19,39.87c.32-.28.14-1.48-.18-2.07-.2-.37-1.44-.66-1.59-.48-1.08,1.32-2,2.77-3,4.18l.93.87A29.78,29.78,0,0,0,149.19,39.87Z"/><path d="M135.19,40.38a19.09,19.09,0,0,0,3.42,1.6,5.48,5.48,0,0,0,.6-.85c-.71-1.05-1.34-2.1-2.09-3.05-.94-1.19-2.36-.95-2.68.5A2.16,2.16,0,0,0,135.19,40.38Z"/><path d="M145.49,47.51l-1.06,1,3.45,5.21c.79-1.27,1.8-2.54,1.64-2.71A43.57,43.57,0,0,0,145.49,47.51Z"/><path d="M134.43,50.84c-.18.19.8,1.46,1.6,2.83l3.25-5.24-1-.89A36,36,0,0,0,134.43,50.84Z"/><path d="M140.61,36.71a18.67,18.67,0,0,0,1.3,3.86l1.82-3.31c-.64-.91-1.18-1.65-1.71-2.4C141.52,35.48,140.54,36.16,140.61,36.71Z"/><path d="M137.83,44.51c-1.68-.35-3.34-.78-5-1-.23,0-.85,1.12-.8,1.68s.8,1.4,1.15,1.36a41.64,41.64,0,0,0,4.63-1C137.8,45.21,137.81,44.86,137.83,44.51Z"/><path d="M143,50.9a6.7,6.7,0,0,0-1.16-1.35,5.1,5.1,0,0,0-1,1.23,6.31,6.31,0,0,0-.24,1.71l-.47.43c.64.72,1.26,2,1.9,2,1.76,0,1.28-1.49,1.17-2.61A4.31,4.31,0,0,0,143,50.9Z"/><path d="M35.85,45.63a40.45,40.45,0,0,0,4.84.92c.39,0,1.13-1,1.21-1.67.05-.42-.83-1.4-1.22-1.36a43.13,43.13,0,0,0-4.84,1C35.85,44.86,35.85,45.24,35.85,45.63Z"/><path d="M32.26,40.74a29.28,29.28,0,0,0,.84-4.39c0-.48-1-1.43-1.41-1.4s-1.58.91-1.55,1.36a28.22,28.22,0,0,0,.92,4.4Z"/><path d="M35.2,47.72l-.91,1,3.09,4.57.85-.06c.36-.86,1.25-2.25,1-2.5A29.3,29.3,0,0,0,35.2,47.72Z"/><path d="M34.94,40.32c-.24.29,0,1,.07,1.54,0,0,.16.12.2.1l5.06-2.78a22.56,22.56,0,0,0-2.14-1.94A25.8,25.8,0,0,0,34.94,40.32Z"/><path d="M31.1,49.37a25.45,25.45,0,0,0-1,4.14c0,.47,1,1.52,1.4,1.44.65-.13,1.66-1,1.64-1.47a22.32,22.32,0,0,0-1-4.12Z"/><path d="M24.6,38c-.35.38-.59,1.46-.38,1.64,1.21,1,2.57,1.86,3.88,2.76l.87-.91c-.9-1.34-1.75-2.72-2.77-4C26.05,37.31,25,37.61,24.6,38Z"/><path d="M27.43,44.59a34.68,34.68,0,0,0-4.33-1.08c-.36,0-1.22.91-1.19,1.35.05.62.78,1.73,1.12,1.69a30.85,30.85,0,0,0,4.38-1Z"/><path d="M24.45,50.25c-.28.26.06,1.46.43,2a1.68,1.68,0,0,0,1.61.08,43.3,43.3,0,0,0,2.45-3.76l-.87-.88A27.36,27.36,0,0,0,24.45,50.25Z"/></g></g></svg>