<svg xmlns="http://www.w3.org/2000/svg" 
width="55" height="25" fill="#999999"
viewBox="60 -10 120 120"><title>资源 8</title><g id="图层_2" data-name="图层 2"><g id="图层_1-2" data-name="图层 1"><path d="M182,68.6c-.29.16-.58.3-.86.46-3.36,1.91-4.06,1.22-4.78-2.39a20.77,20.77,0,0,0-3.75-8.41c-3.95-5.1-9.75-5.74-15.81-5.52-8.31.29-15,6.23-15.69,14.51-.2,2.37-1.14,2.85-3.27,2.83-7.58-.1-15.16,0-22.75,0-17.32,0-34.65,0-52,0-2.39,0-3.53-.71-3.68-3.19a13.89,13.89,0,0,0-1.09-4.57c-4.48-10.52-17-11.32-25.09-8-5.64,2.35-8.43,7.08-9.09,13.05-.22,2-1.11,2.7-3.08,2.65-3.83-.1-7.66-.07-11.5,0-3.36,0-6.91.64-8.6-3.46a4,4,0,0,0-.58,0c-.15.27-.45.56-.43.82C.22,70.6.16,73.88.9,77c.32,1.32,2.27,3.14,3.55,3.19,7.07.33,14.16.21,21.24.11a2.32,2.32,0,0,0,1.59-1.61c.18-3.17-.1-6.38.21-9.53a17.79,17.79,0,0,1,1.76-6.84c3.62-6.53,11.17-7.5,18.07-5.68A11.39,11.39,0,0,1,56,66a33.75,33.75,0,0,1,.51,9.3c-.44,4.63-.29,5.09,4.24,5.09H141a6.58,6.58,0,0,0,2-.07c.53-.18,1.32-.73,1.32-1.11,0-2-.26-3.92-.46-6.25,1.32-.84,1.59-1.14,1-3.4-1-3.86.53-6.85,3-9.53,3.55-3.9,8.23-4.33,13.1-4A12.68,12.68,0,0,1,172.5,64.1c.57,1.31.4,2.94.63,5-.95-.63-1.15-.69-1.21-.81a10.08,10.08,0,0,1-.51-1.39c-1.51-5.34-5.4-8.18-10.51-9.13s-9.75,1-12.9,5.32A13,13,0,0,0,146.84,77c2.54,5.29,7.57,7.68,13.6,7.26,4.55-.32,10.21-4.59,11.25-9.93.15-.75,1.25-2,1.64-1.88,1.44.36.57,1.35.42,2.33-.26,1.65-.61,3.87.24,4.93.67.84,3.06.31,4.69.38a.51.51,0,0,0,.24-.07,6.34,6.34,0,0,0,3.59-5c.09-.46-1.25-1.18-1.91-1.77C183,72.37,183.41,71.16,182,68.6ZM8.28,73.36v-.1H19.81v.1Zm52.34,0v-.18h78.09l0,.18Zm97.94,7.43a9.66,9.66,0,0,1-9.85-9.78,10,10,0,0,1,10-10c5.61-.25,10.13,4.87,10.12,9.87A9.82,9.82,0,0,1,158.56,80.83Z"/><path d="M2.81,40.79q27.75,0,55.5,0c1.69,0,2.26-.67,2.09-2.24-.21-2-.55-3.94-.58-5.92-.06-5.83,0-11.66,0-17.49,0-3.43,1.83-5.16,5.25-5.16h36.25c2.19,0,4.59-.63,5.36,1.19a70.37,70.37,0,0,1,7.63-1.1c5.16-.16,10.33,0,15.5-.09a7.32,7.32,0,0,1,6.09,2.76c4.81,5.51,9.6,11.06,14.58,16.42,2.41,2.59,3.93,5.29,3.36,8.92-.31,2,.68,2.69,2.58,2.66,3.75-.05,7.5,0,11.24-.05A7.81,7.81,0,0,0,170,40a33.65,33.65,0,0,1,4.26-1.49,25,25,0,0,1,4.16-.23l.06-.8a14.44,14.44,0,0,0-8.49-4.09,11.61,11.61,0,0,1-7.72-3.83c-6.51-6.64-13.84-12.47-20.87-18.6a5.69,5.69,0,0,0-1.5-.66l-.36.6,21.06,20.69a5.84,5.84,0,0,1-3.17-1.39c-4.7-4.48-9.29-9.08-14-13.58-2.64-2.53-5.33-5-8.09-7.41a47,47,0,0,0-4.11-2.86L127,7.83a3.58,3.58,0,0,1-.27-1c.65-5.38-.59-6.81-6-6.81h-109C7.05,0,6.38.81,6.41,5.6A5.86,5.86,0,0,1,5.2,8.86c-1.34,1.81-1,3.12,1.24,3.46s3.29,1.58,3.23,3.89c-.08,3.25,0,6.5,0,9.75,0,2.75-1,4-3.73,3.89-4.42-.2-4.24.33-5.05,4.91C.64,36,.72,37.26.55,38.5.31,40.3,1.1,40.8,2.81,40.79ZM59.53,33c0,4.08-1,5.06-5,5.06q-17.73,0-35.46,0c-4.66,0-5.93-1.28-5.93-5.88q0-8.87,0-17.73c0-3.4,1-4.46,4.48-4.47,6.33,0,12.65,0,19,0H55.28c3.38,0,4.19.74,4.22,4C59.55,20.36,59.58,26.68,59.53,33ZM9.19,2.27a10.47,10.47,0,0,1,3.05-1q54.12-.08,108.24,0a14.55,14.55,0,0,1,3.29.78l-.31,1.28H120.8q-54.26,0-108.5-.05A10.53,10.53,0,0,1,9.19,2.27Z"/><path d="M65.86,11.36c-3.49,0-4,.57-4,4.12,0,5.66,0,11.32,0,17,0,3.27,1.2,4.46,4.56,4.45q17.75,0,35.48-.15c2.81,0,4.39-1.47,4.43-4.24q.11-8.62,0-17.25c0-2.84-1.15-3.89-4-3.9-6.08,0-12.16,0-18.24,0h0C78,11.36,71.94,11.34,65.86,11.36Z"/><path d="M134.35,13.41a6.41,6.41,0,0,0-4.09-1.78c-6-.2-12,0-18-.12-2.31,0-3.33.8-3.28,3.22.11,5.24.05,10.49.06,15.74,0,4.39,1.5,5.91,6,5.94,5.58,0,11.16,0,16.74,0h0c5.92,0,11.83.05,17.75,0A3.22,3.22,0,0,0,152,35.25a3,3,0,0,0-.67-2.6C145.77,26.17,140.14,19.72,134.35,13.41Z"/><path d="M167.54,46.12c.63-.14,1.61-1,1.57-1.41a3.27,3.27,0,0,0-1.35-2c-.45-.32-1.29-.11-2-.11H3.57c-.58,0-1.3-.18-1.71.09-.6.39-1.33,1.11-1.34,1.71S1.25,45.73,1.85,46a5.62,5.62,0,0,0,2.22.1H84.81v0H164.3A15.24,15.24,0,0,0,167.54,46.12Z"/><path d="M84.07,60c-5.82,0-11.65,0-17.47,0-5.49,0-4.48-.41-4.7,4.64-.1,2.43.88,2.93,3.05,2.9,6.91-.1,13.81,0,20.71,0h17c3.59,0,3.71-.14,3.72-3.57,0-3.93,0-3.94-3.82-3.94Z"/><path d="M41.66,57.6A13.58,13.58,0,0,0,28.36,71a13.49,13.49,0,1,0,27-.32A13.62,13.62,0,0,0,41.66,57.6Zm10,13.34a9.6,9.6,0,0,1-9.62,9.88c-6,0-10-3.94-10-9.93,0-5.52,4.23-9.56,9.69-9.9C46.34,60.71,52.31,65.81,51.67,70.94Z"/><path d="M114,60c-5.44,0-5-1.08-5,5.35,0,1.48.49,2.14,2,2.14,8.48,0,17,0,25.45,0a2.46,2.46,0,0,0,1.73-1.49,52.52,52.52,0,0,0,.8-5.8c-1-.06-1.91-.16-2.8-.16C128.8,59.94,121.4,59.88,114,60Z"/><path d="M103.21,51.16H83.73c-6.32,0-12.65,0-19,0-1.83,0-2.93.17-2.93,2.5s1.23,2.29,2.86,2.29q19.22,0,38.45,0c1.64,0,3.2.06,3.23-2.35S104.86,51.17,103.21,51.16Z"/><path d="M145.58,51.34c-.69-.07-1.17-.16-1.64-.16-10.73,0-21.46,0-32.2,0-1.7,0-2.79.17-2.78,2.39s1.09,2.4,2.8,2.4c8.07,0,16.15-.27,24.21.08C140.12,56.21,143.18,55.11,145.58,51.34Z"/><path d="M2,60.09A2,2,0,0,0,.52,61C-.21,62.8,3.06,67.43,5,67.45c3.65,0,7.3.06,11,0,7.68-.14,6.23,1.35,7.54-7a3,3,0,0,0-.83-.34C15.8,60.07,8.91,60,2,60.09Z"/><path d="M30.59,51.16c-5,0-10,0-15,0-4.38,0-4.38,0-5.3,4.13,0,.06.06.14.3.63,3.49,0,7.25-.36,10.9.09,4.76.59,8.22-1.37,11.67-4.71C32.16,51.24,31.38,51.16,30.59,51.16Z"/><path d="M95.07,38c-6.06,0-12.13,0-18.19.08-1.08,0-2.15.74-3.23,1.14l.27,1.17a17.51,17.51,0,0,0,2.37.32q13.45,0,26.91,0a4.14,4.14,0,0,0,2.16-.36,2.5,2.5,0,0,0,.85-1.77c0-.23-.93-.77-1.44-.77C101.54,37.86,98.3,38,95.07,38Z"/><path d="M150.45,37.82c-4.23-.14-8.47-.07-12.71-.07v.1c-4.4,0-8.81-.08-13.21.07-.78,0-1.52,1-2.29,1.6.71.41,1.41,1.17,2.13,1.17q13.08.14,26.17,0c.64,0,1.26-.89,1.89-1.37C151.77,38.81,151.13,37.85,150.45,37.82Z"/><path d="M5.51,28.49c1.74-.18,2.81-.88,2.77-2.79,0-1.42,0-2.83,0-4.25H8.15A31.94,31.94,0,0,0,8,15.74c-.15-.81-1.38-1.61-2.3-2-.3-.12-1.58,1.13-1.68,1.84-.45,3.55-.66,7.12-1,10.68C2.94,28.1,3.82,28.67,5.51,28.49Z"/><path d="M3.51,54.75a27,27,0,0,1,3.71,0c1.29.07,2.12-.26,2.07-1.75a18.61,18.61,0,0,1,0-2.24c.16-2-.6-2.79-2.66-2.33A6.83,6.83,0,0,1,4,48.37C.78,47.76.15,48.25.14,51.54S.43,55,3.51,54.75Z"/><path d="M175.28,51.16h-7.36l-.11.53a23.45,23.45,0,0,1,3.49,2.6,4.86,4.86,0,0,0,5,1.58,36.34,36.34,0,0,0,6.06-2.54,1.39,1.39,0,0,0,.28-1.31,1.9,1.9,0,0,0-1.33-.81C179.28,51.12,177.28,51.16,175.28,51.16Z"/><path d="M175.61,40.37a10.84,10.84,0,0,0-.28,5.55c.1.59,2,.87,3.06,1.28l.13-.4a7.8,7.8,0,0,0,2.47-.07,2,2,0,0,0,1.1-1.49,12.1,12.1,0,0,0-.92-3.59C180.32,39.64,176.26,38.69,175.61,40.37Z"/><path d="M51,51.19l0,.59a29.65,29.65,0,0,0,4,2.9A10.92,10.92,0,0,0,59,55.83c.4,0,1.31-1.17,1.29-1.78,0-1-.58-2.69-1-2.73C56.52,51.06,53.73,51.19,51,51.19Z"/><path d="M177.27,60.1a1.89,1.89,0,0,0-.5,1.61,28.49,28.49,0,0,0,1.06,3.79c.21.65.51,1.74.86,1.78a3.41,3.41,0,0,0,2.44-.66,14,14,0,0,0,1.86-3C182.72,61.89,178.63,59.3,177.27,60.1Z"/><path d="M174.1,41.56A8,8,0,0,0,173,39.78c-.58.49-1.53.91-1.66,1.5a10.4,10.4,0,0,0-.11,3.93c.1.6,1,1.07,1.53,1.6A11.14,11.14,0,0,0,174.13,45a3.84,3.84,0,0,0,0-1.48h0A6.94,6.94,0,0,0,174.1,41.56Z"/><path d="M179.63,57.4c-.1.47,1.17,1.23,1.82,1.87l1.87-2-1.84-2.08C180.82,55.9,179.8,56.56,179.63,57.4Z"/><path d="M109.46,40.32c.05.21,1.19.43,1.26.31a34.09,34.09,0,0,0,1.57-3.24L109,36.91A28,28,0,0,0,109.46,40.32Z"/><path d="M158.88,62.6c-4.93-.36-8.44,4-8.75,8.35s4,8.45,8.65,8.43c5.33,0,8.26-4,8.56-8.21C167.62,67.37,163.62,62.21,158.88,62.6ZM159,73.31c-1-.14-1.85-1.42-2.76-2.21.87-.81,1.65-2.09,2.65-2.29.78-.15,1.82,1,3.44,2.07C160.7,72.1,159.72,73.42,159,73.31Z"/><path d="M54.78,11.36c-6.07,0-12.15,0-18.22,0h0c-6.25,0-12.49,0-18.73,0-2.28,0-3.28.82-3.23,3.25.11,5.9,0,11.82,0,17.72,0,3.56.88,4.48,4.38,4.48q17.61,0,35.21,0c3.06,0,4.15-1,4.19-4q.1-9,0-18C58.33,11.88,57.74,11.37,54.78,11.36Z"/><path d="M41.82,62.62c-4.94,0-8.35,3.53-8.32,8.56a8.34,8.34,0,0,0,16.68,0C50.18,66.19,46.67,62.59,41.82,62.62Zm-.15,10.74a3.44,3.44,0,0,1-2.06-2.46c-.08-.81,1.1-1.74,1.72-2.62l1.15,0c.56.9,1.45,1.75,1.6,2.72A2,2,0,0,1,41.67,73.36Z"/></g></g></svg>

