<svg xmlns="http://www.w3.org/2000/svg" viewBox="0 0 359.5 359.5"><defs><style>.cls-1{fill:none;}.cls-2{fill:#9c999d;}.cls-3{fill:#dfdee0;}.cls-4{fill:#140f0e;}.cls-5{fill:#351f14;}.cls-6{fill:#140906;}.cls-7{fill:#6f503e;}.cls-8{fill:#e8a77e;}.cls-9{fill:#f7e0d1;}.cls-10{fill:#ebb893;}.cls-11{fill:#e6c5b0;}.cls-12{fill:#e9b792;}.cls-13{fill:#bd9179;}.cls-14{fill:#b49486;}.cls-15{fill:#f6f3ef;}.cls-16{fill:#916f5a;}.cls-17{fill:#ac8879;}.cls-18{fill:#b57945;}</style></defs><title>资源 35</title><g id="图层_2" data-name="图层 2"><g id="OBJECTS"><path class="cls-1" d="M63.69,328.88a76.12,76.12,0,0,1,1.25-10.83h0A76.12,76.12,0,0,0,63.69,328.88Z"/><path class="cls-1" d="M52.64,306.85c-1.28-1.28-2.53-2.59-3.78-3.91A12.43,12.43,0,0,0,52.64,306.85Z"/><path class="cls-2" d="M88.42,184.11h0a12.84,12.84,0,0,1-3.13-2.27A12.84,12.84,0,0,0,88.42,184.11Z"/><path class="cls-2" d="M144.72,169.08l-1.47,2.33-3.45,1.15,3.45-1.15Z"/><path class="cls-2" d="M158.52,181.11c.26-.14.29-.51.08-1.11h0C158.81,180.6,158.78,181,158.52,181.11Z"/><path class="cls-2" d="M281.17,173.32a1.11,1.11,0,0,0,.41-.23A1.11,1.11,0,0,1,281.17,173.32Z"/><path class="cls-2" d="M82.69,177.86a10.19,10.19,0,0,1-.39-1.3A10.19,10.19,0,0,0,82.69,177.86Z"/><path class="cls-2" d="M160.84,224.41a9.26,9.26,0,0,1,.86.48A9.26,9.26,0,0,0,160.84,224.41Z"/><path class="cls-2" d="M141.07,188.43a6.23,6.23,0,0,0,.41-2.16l2,.19-2-.19A6.23,6.23,0,0,1,141.07,188.43Z"/><path class="cls-2" d="M158.26,181.18h0Z"/><path class="cls-2" d="M142.72,182.22c-3-1.78-4.68-4.55-5.75-8.92C138,177.67,139.72,180.44,142.72,182.22Z"/><path class="cls-2" d="M153.14,168.16l-2.33-1.31-.84-3.08.84,3.08Z"/><path class="cls-2" d="M154.27,167.42l0,0Z"/><path class="cls-2" d="M159.54,180.08c.29-.13.33-.5.12-1.13l0,0,0,0C159.87,179.58,159.83,180,159.54,180.08Z"/><path class="cls-2" d="M160.75,177.87h0a1.13,1.13,0,0,1-.5-.84A1.13,1.13,0,0,0,160.75,177.87Z"/><path class="cls-2" d="M161.87,177.86a1.25,1.25,0,0,0,.65-1.08A1.25,1.25,0,0,1,161.87,177.86Z"/><path class="cls-2" d="M160.57,179c.33-.11.38-.49.14-1.15h0C161,178.55,160.9,178.93,160.57,179Z"/><path class="cls-2" d="M58.88,229.34c-1.14,4.22-.19,9.27,2.87,12.1l.11.75c0-.25-.07-.5-.11-.75C58.69,238.61,57.74,233.56,58.88,229.34Z"/><path class="cls-2" d="M162.68,175.63a8.73,8.73,0,0,0,.7-1.53,8.73,8.73,0,0,1-.7,1.53Z"/><path class="cls-2" d="M156,170.46a5.7,5.7,0,0,0-2.85-2.3h0A5.7,5.7,0,0,1,156,170.46Z"/><path class="cls-2" d="M141.21,176.66l3.52-.13h0Z"/><path class="cls-2" d="M155.25,186.36a2.84,2.84,0,0,0,0-.77l2.15-.29-2.15.29A2.84,2.84,0,0,1,155.25,186.36Z"/><path class="cls-2" d="M281.84,172.73a2.5,2.5,0,0,0,.25-.88A2.5,2.5,0,0,1,281.84,172.73Z"/><path class="cls-2" d="M141.21,176.66a3.71,3.71,0,0,1-1.35-2.4,3.71,3.71,0,0,0,1.35,2.4,14.39,14.39,0,0,0,4.25,4.43A14.39,14.39,0,0,1,141.21,176.66Z"/><path class="cls-2" d="M233.34,171.33l-1.53-7.15,1.53,7.15c.51.08,1.19,0,1.64.13C234.53,171.34,233.85,171.41,233.34,171.33Z"/><path class="cls-2" d="M206.71,175.18q1.8,5.77,8.06,8.88h0Q208.5,181,206.71,175.18Z"/><path class="cls-2" d="M131.73,164.32a2.32,2.32,0,0,0,.6.52A2.32,2.32,0,0,1,131.73,164.32Z"/><path class="cls-2" d="M129.77,160.72a2.86,2.86,0,0,1,.49.6,2.86,2.86,0,0,0-.49-.6Z"/><path class="cls-2" d="M225.89,198.31a10.17,10.17,0,0,0,.16-2.77A10.17,10.17,0,0,1,225.89,198.31Z"/><path class="cls-2" d="M242.41,173.58a1.9,1.9,0,0,0,1-1.89,1.9,1.9,0,0,1-1,1.89l-1,3.22Z"/><path class="cls-2" d="M134.27,165.08l-7.58,5.56h0Z"/><path class="cls-2" d="M203.92,164.79a5.55,5.55,0,0,0-.91,0c-1.63-3.6-2.37-5.58-1.76-7-.61,1.38.13,3.36,1.76,7a5.55,5.55,0,0,1,.91,0Z"/><path class="cls-2" d="M176.5,210.79a9.42,9.42,0,0,1-2.14-2.3,11.26,11.26,0,0,1-.27-4.82,11.26,11.26,0,0,0,.27,4.82A9.42,9.42,0,0,0,176.5,210.79Z"/><path class="cls-2" d="M199.47,180.9h0a9.79,9.79,0,0,0,1.34.52A9.79,9.79,0,0,1,199.47,180.9Z"/><path class="cls-2" d="M199.34,180.07a7.67,7.67,0,0,1-.05-1.06A7.67,7.67,0,0,0,199.34,180.07Z"/><path class="cls-2" d="M174.09,203.67a15,15,0,0,1,.95-3.28A15,15,0,0,0,174.09,203.67Z"/><path class="cls-2" d="M226.05,195.54c-.2-2.62-1.34-4.85-1.93-7.34h0C224.71,190.69,225.85,192.92,226.05,195.54Z"/><path class="cls-2" d="M155.7,151.09a25.78,25.78,0,0,0-6.76-.85l-5-.33,5,.33A25.78,25.78,0,0,1,155.7,151.09Z"/><path class="cls-2" d="M167.44,166.87l-.4-.12c-.16-.69-.32-1.38-.49-2.07.17.69.33,1.38.49,2.07Z"/><path class="cls-2" d="M208,151.49a4.92,4.92,0,0,1,1.05-.33A4.92,4.92,0,0,0,208,151.49Z"/><path class="cls-2" d="M214.56,186.07l.21-2c-.07.67-.14,1.34-.22,2a8.08,8.08,0,0,1-3.91-.38A8.1,8.1,0,0,0,214.56,186.07Z"/><path class="cls-2" d="M241,216.09c.73-1.71.51-3.8,1.31-5.48l.06-2-.06,2C241.52,212.29,241.74,214.38,241,216.09Z"/><path class="cls-2" d="M242.38,208.58c.34-.37.69-.73,1-1.09l1.88-1.08-1.88,1.08C243.07,207.85,242.72,208.21,242.38,208.58Z"/><path class="cls-2" d="M207.53,151.75l.35-.18Z"/><path class="cls-2" d="M217.49,187c-.23,0-.47,0-.7,0C217,187,217.26,187,217.49,187Z"/><path class="cls-2" d="M240,160.42a3.05,3.05,0,0,1-1.38-.9A3.05,3.05,0,0,0,240,160.42Z"/><path class="cls-2" d="M237.42,158.19a.25.25,0,0,1,.08-.25A.25.25,0,0,0,237.42,158.19Z"/><path class="cls-2" d="M209.08,151.16l.69-.09Z"/><path class="cls-2" d="M124.39,164.35a4.46,4.46,0,0,0,2.28-3.69l2.09.53-2.09-.53A4.48,4.48,0,0,1,124.39,164.35Z"/><path class="cls-2" d="M243,180a9.1,9.1,0,0,0-2.1-1.53h0A9.32,9.32,0,0,1,243,180Z"/><path class="cls-2" d="M159,185.92c1-.09,1.74-1.08,2.6-1.68,1.9-1.38,4.23-.79,6.37-1.13-2.14.34-4.47-.25-6.37,1.13C160.76,184.84,160,185.83,159,185.92Z"/><path class="cls-2" d="M83.5,179.52a12.11,12.11,0,0,1-.81-1.66A12.11,12.11,0,0,0,83.5,179.52Z"/><path class="cls-2" d="M222.68,177.29a6.26,6.26,0,0,1-1.52.94A6.26,6.26,0,0,0,222.68,177.29Z"/><path class="cls-2" d="M227.53,142.24a4.06,4.06,0,0,1-2.1.67,4.06,4.06,0,0,0,2.1-.67l5.12-.16-5.12.16Z"/><path class="cls-2" d="M224.33,142.87a6.79,6.79,0,0,0,1.1,0A6.79,6.79,0,0,1,224.33,142.87Z"/><path class="cls-2" d="M213.45,180h0c.07-1.13.15-2.26.22-3.38h0C213.6,177.74,213.52,178.87,213.45,180Z"/><path class="cls-2" d="M225.88,171.42c.66-.1,1.32-.29,2-.37-.66.08-1.32.27-2,.37a13.23,13.23,0,0,1-1.89,4.41A13.23,13.23,0,0,0,225.88,171.42Z"/><path class="cls-2" d="M224.68,169.89a13.1,13.1,0,0,0-4.39-3.77l-1.32-2.2a8.29,8.29,0,0,1,4.41-1,8.29,8.29,0,0,0-4.41,1l1.32,2.2A13.1,13.1,0,0,1,224.68,169.89Z"/><path class="cls-2" d="M225.13,133c-.85-.78-1.68-1.59-2.49-2.41C223.45,131.41,224.28,132.22,225.13,133Z"/><path class="cls-2" d="M219.44,167.62a4.16,4.16,0,0,0,.59-.92A4.16,4.16,0,0,1,219.44,167.62Z"/><path class="cls-2" d="M155.25,186.36c0,.17.08.34.1.52,0-.18-.07-.35-.1-.52a13.6,13.6,0,0,1-2.28.77A13.6,13.6,0,0,0,155.25,186.36Z"/><path class="cls-2" d="M210.59,177.23a7.37,7.37,0,0,1-.36-1.24A7.37,7.37,0,0,0,210.59,177.23Z"/><path class="cls-2" d="M210.23,176c-.06-.32-.11-.64-.15-1C210.12,175.35,210.17,175.67,210.23,176Z"/><path class="cls-2" d="M159,185.92a1.94,1.94,0,0,1-.58-.06A1.94,1.94,0,0,0,159,185.92Z"/><path class="cls-2" d="M211.4,151l1.09-.36-1.09.36-.09,0h0Z"/><path class="cls-2" d="M218.36,168.49c-1.31.68-3,.43-4.66.08,0-1.1.07-2.21.11-3.31h0c0,1.1-.07,2.21-.11,3.31C215.39,168.92,217.05,169.17,218.36,168.49Z"/><path class="cls-2" d="M125.43,170.92l.47-.12Z"/><path class="cls-2" d="M210.12,166a6.2,6.2,0,0,0-1.83,3.28h0A6.24,6.24,0,0,1,210.12,166Z"/><path class="cls-2" d="M131.73,164.32a5.22,5.22,0,0,1-.43-.68A5.22,5.22,0,0,0,131.73,164.32Z"/><path class="cls-2" d="M212.48,171.34c.41-.92.82-1.84,1.22-2.77-.4.93-.81,1.85-1.22,2.77-1.51,0-1.94,1.18-2.56,2.2a3,3,0,0,1-.72-.34,3,3,0,0,0,.72.34C210.54,172.52,211,171.3,212.48,171.34Z"/><path class="cls-2" d="M124.06,171.22l.64-.12Z"/><path class="cls-2" d="M229.85,171.4c-.37,4.42-2.25,7.61-5,9.27,2.71-1.66,4.59-4.85,5-9.27,1.06-1.89.38-3.34-.48-4.74C230.23,168.06,230.91,169.51,229.85,171.4Z"/><path class="cls-2" d="M212.64,175.25l1,1.37h0Z"/><path class="cls-2" d="M218.67,126.13c.76,1,1.56,1.87,2.37,2.77C220.23,128,219.43,127.08,218.67,126.13Z"/><path class="cls-2" d="M130.58,161.94a5.2,5.2,0,0,0-.32-.62A5.2,5.2,0,0,1,130.58,161.94Z"/><path class="cls-2" d="M242.26,160.56l1.26-.73A11.57,11.57,0,0,0,244.9,158a11.57,11.57,0,0,1-1.38,1.84Z"/><path class="cls-2" d="M131,162.86l-.25-.63Z"/><path class="cls-2" d="M131.49,173.82c.35-.21.69-.44,1-.67C132.18,173.38,131.84,173.61,131.49,173.82Z"/><path class="cls-2" d="M236.9,155.9l1.38.58h0Z"/><path class="cls-2" d="M176.42,51.38h0Z"/><path class="cls-2" d="M139.1,157.07h0c-1.26.37-2.46,1.48-3.76,1.17C136.64,158.55,137.84,157.44,139.1,157.07Z"/><path class="cls-2" d="M170.61,47.83l.13-.1Z"/><path class="cls-2" d="M171.83,47.77a.54.54,0,0,0-.67-.24A.54.54,0,0,1,171.83,47.77Z"/><path class="cls-2" d="M140.67,153.71a2.16,2.16,0,0,1-.17-1.22l1.94-.79-1.94.79A2.16,2.16,0,0,0,140.67,153.71Z"/><path class="cls-2" d="M143.48,163l.27,0Z"/><path class="cls-2" d="M138.08,152.35a2.65,2.65,0,0,0,0-1,2.48,2.48,0,0,1-.06,1c-1.14,1.36-1.27,2.5-.57,3.45C136.8,154.85,136.93,153.71,138.08,152.35Z"/><path class="cls-2" d="M231.81,164.18a20.68,20.68,0,0,1,8.58,4.35,20.68,20.68,0,0,0-8.58-4.35,2.35,2.35,0,0,0-1.87-1.07A2.35,2.35,0,0,1,231.81,164.18Z"/><path class="cls-2" d="M165.74,169.63l0-.14-.83-.49.83.49Z"/><path class="cls-2" d="M165.93,48.2c1.4,0,2.81.08,4.2,0h0C168.74,48.28,167.33,48.23,165.93,48.2Z"/><path class="cls-2" d="M163.87,171.7a.37.37,0,0,0,0,.11A.37.37,0,0,1,163.87,171.7Z"/><polygon class="cls-2" points="163.75 169.2 163.75 169.2 163.73 169.23 163.73 169.23 163.75 169.2"/><path class="cls-2" d="M169.91,176.28a8.79,8.79,0,0,1,.53,1.57A8.79,8.79,0,0,0,169.91,176.28Z"/><path class="cls-2" d="M169.29,175.11a12,12,0,0,1,.62,1.17A12,12,0,0,0,169.29,175.11Z"/><path class="cls-2" d="M211.39,178.62l-.22-.29Z"/><path class="cls-2" d="M224.33,142.87c-.36,0-.73-.08-1.1-.14C223.6,142.79,224,142.84,224.33,142.87Z"/><path class="cls-2" d="M228.4,165c.16.3.34.6.53.9C228.74,165.64,228.56,165.34,228.4,165Z"/><path class="cls-2" d="M136.4,170.94a1.07,1.07,0,0,0,.14.39h0A1.07,1.07,0,0,1,136.4,170.94Z"/><path class="cls-2" d="M133.55,172.43c.3-.2.61-.38.92-.55C134.16,172.05,133.85,172.23,133.55,172.43Z"/><path class="cls-2" d="M210.82,177.76l0-.06Z"/><path class="cls-2" d="M225.48,133.31q1.52,1.35,3.12,2.61Q227,134.66,225.48,133.31Z"/><path class="cls-2" d="M144.64,155.64a3.21,3.21,0,0,1,.3-1A3.21,3.21,0,0,0,144.64,155.64Z"/><path class="cls-2" d="M144.64,155.64a11.77,11.77,0,0,0-.11,1.66.92.92,0,0,1-.42.1.92.92,0,0,0,.42-.1A11.77,11.77,0,0,1,144.64,155.64Z"/><path class="cls-2" d="M177.1,51.29l.73-.06Z"/><path class="cls-2" d="M145.22,154.28a1.44,1.44,0,0,1,.91-.38A1.44,1.44,0,0,0,145.22,154.28Z"/><path class="cls-2" d="M140.76,154.61a1.37,1.37,0,0,0-.07-.83A1.37,1.37,0,0,1,140.76,154.61Z"/><path class="cls-2" d="M142.64,150.07h0c-.06.54-.13,1.09-.2,1.63C142.51,151.16,142.58,150.61,142.64,150.07Z"/><path class="cls-2" d="M207.05,152.09l-5.48,1,5.48-1Z"/><path class="cls-3" d="M48.85,271.68C60,262,61.31,257.63,56.22,243.89c-3.54-9.56-2.3-18.36,2.72-26.89,1.25-2.13,2.38-4.56,4.21-6.08,9.24-7.66,10.46-18.48,12.56-29.23C80,159.52,82.87,137,90.46,115.56,100.69,86.68,117.52,63.31,145.37,49c8.86-4.54,18.7-8.18,28-4,7.61,3.46,13.46,3.07,20.6-.07,5.85-2.58,12.54-1.63,18,1.35,27.23,14.74,50.48,33.71,60.4,64.4,4.66,14.4,6.9,29.57,10.37,44.37,2.13,9.11,4.47,18.18,6.78,27.26,1.61,6.32,3.75,12.23,7.79,17.72,6.64,9,6.87,19.2,1.23,28.95-2,3.54-1.88,6.5-.49,9.9a74,74,0,0,0,14.84,22.44c9.09,9.68,10.59,20.26,6.2,31.95A179.75,179.75,0,1,0,36.27,288c.08-.22.15-.44.25-.67C39.16,281,43.72,276.13,48.85,271.68Z"/><path class="cls-2" d="M233.33,291.77l.08.1Z"/><path class="cls-2" d="M288.3,246.91c-.87.67-2,.73-3.58-.23h0C286.27,247.64,287.43,247.58,288.3,246.91Z"/><path class="cls-2" d="M65.49,291.83a13.87,13.87,0,0,0-1,2.58A13.87,13.87,0,0,1,65.49,291.83Z"/><path class="cls-2" d="M64.49,294.41A14.92,14.92,0,0,0,64,297,14.92,14.92,0,0,1,64.49,294.41Z"/><path class="cls-2" d="M237,217.21a11.28,11.28,0,0,0-1.53-.34A11.28,11.28,0,0,1,237,217.21Z"/><path class="cls-2" d="M51.5,291.46c-3.36,2.9-5.23,5-4,8.5a15.92,15.92,0,0,0,1.38,3c1.25,1.32,2.5,2.63,3.78,3.91a18,18,0,0,0,3.86,1.89C53.92,302.88,51.61,298.16,51.5,291.46Z"/><path class="cls-2" d="M234,292.66l.2.27Z"/><path class="cls-2" d="M279.83,176c-.84-.34-1.37-.93-.35-2.52h0C278.46,175.05,279,175.64,279.83,176Z"/><path class="cls-2" d="M279.83,176a4.53,4.53,0,0,0,.59.2A4.53,4.53,0,0,1,279.83,176Z"/><path class="cls-2" d="M288.85,246.39a3.36,3.36,0,0,1-.55.52A3.36,3.36,0,0,0,288.85,246.39Z"/><path class="cls-2" d="M59.76,303.55c.52,3,1.48,6,6.3,5.77-.18,2.93-.65,5.83-1.12,8.73h0c.47-2.9.94-5.8,1.12-8.73C61.24,309.57,60.28,306.57,59.76,303.55Z"/><path class="cls-2" d="M303.43,279.59a25,25,0,0,0-8.05-12.65h0A25,25,0,0,1,303.43,279.59Z"/><path class="cls-2" d="M260.27,101.25h0c-.69-.29-1.47-.48-2.12-.82C258.8,100.77,259.58,101,260.27,101.25Z"/><path class="cls-2" d="M262.21,301.28a2.58,2.58,0,0,1-2.24-2.47l-15.78-8.11-5.08-.43h0c-.19,1-.37,2-.56,3l.59.95c1.66,5.88-1.34,11.3-1.77,17-.08,1-1.55,1.23-2.64,1.21-1.71-.23-4.25,1.16-4.83-1.33-.45-2,.84-3.89,2.86-4.94,2.22,0,4.22-.25,2.26-3.23-3,.24-2-3.81-4.39-4.19-2.23,8.71-4.4,17.43-4.25,26.52-6.61,2.79-13.69,4.14-20.28,7.24-8.49,4-15.33,9.91-22.16,16-.78,1.32-2,1.11-3.25,1a3.35,3.35,0,0,1-2.75-1.29c-9.16-10.5-21.58-15.38-34.25-19.81-2.15-.76-4.31-1.5-6.46-2.24a2.28,2.28,0,0,1-1-.13c-2.13.61-4.19,1.6-6.5,1.39-.34,2.41,1.9,5.71-2.33,6.78l-2.9-12.05c2.77-.19,2.65,2.49,4.19,3.22,0-5.63.23-11.27,0-16.88-.17-4.45-3.11-8.49-2.16-13.16a11.49,11.49,0,0,1,0-3.1,3.93,3.93,0,0,1,4.23-3c2.19.2,1.6,2.23,1.49,3.75l2.86.33c1.2,9.16,2.31,18.33,3.67,27.46-1.36-9.13-2.47-18.3-3.67-27.46l1.59,0,1.52-.67c9.56-.93,18.66-3.66,27.63-6.95,2.82-1,4.58-2.53,4.14-5.78a5.72,5.72,0,0,1,.12-1.59c.66-4.53,0-10,2.35-13.35,2.65-3.76,8.07.18,12.34-.3,3.08-.34,7.07-2.52,9.14-.34,2.43,2.55,1.53,7,1.81,10.63,0,.53.06,1.06.08,1.59.18,5.15,1.16,8.88,7.49,10.55a225,225,0,0,0,27.36,5.86l2.21-1.6h0l-.08-1.81a13.12,13.12,0,0,1,3.25-.39,13.12,13.12,0,0,0-3.25.39c-4.55-2.6-9.89-1.77-14.67-3.34a18,18,0,0,0-2.1-.25c-14.73-2.94-17.76-7.13-16.48-22.19.2-2.4,1.45-3.39,3.3-4.22,10.85-4.86,20.35-11.84,29.56-19.2,5.9-4.72,10.26-10.59,11.47-18.33.32-2.05,1-4.16-.51-6.07-2.34,3.34-2.71,7.46-4.39,11.06-1.24,2.65-2.34,5.48-5.25,6.88A119,119,0,0,1,198,258c-10.35,4.45-21.08,3.86-31.21-1.33a170.94,170.94,0,0,1-28.69-18.83c-6.75-5.4-9.63-12.83-11.72-20.78-1.78-2.19-2-5-3-7.51-4.36,7.83.59,14.14,3.52,20.69,4.22,9.4,13.31,13.75,21,19.46a80.27,80.27,0,0,0,15.83,9.52c2.7,1.16,3.81,2.84,3.38,5.72-.61,4.17-1.12,8.36-1.66,12.54A5.67,5.67,0,0,1,161,282.7c-10.12,2.66-20,6.84-30.87,4.56-1.71-.36-3,.78-4.51,1.27a28.93,28.93,0,0,0-2.13-5.36,28.93,28.93,0,0,1,2.13,5.36c-.76,1-1.34,2.36-2.32,2.76-15.4,6.21-17.89,21.15-23.08,34.16A135.66,135.66,0,0,0,96,338.82,178.52,178.52,0,0,0,127,351.64a70.13,70.13,0,0,1,5.13-16.23c1.67-3.84,3.51-5.51,8-3.8,8.24,3.13,16.48,6.14,24.09,10.65,2.25,1.65,5.39,2.31,6.39,5.76-3.38,1.53-6.45-1.12-10.21-.75.24.27.12.38-.35.23a5.39,5.39,0,0,1,1.45,1.73c10.51,3.34,21.09,5.12,31.94,1.51-2.48-4,.51-5.5,3.31-7.07,8.18-7.59,18.46-10.6,28.92-13.19,1.58-.39,3.23-.21,4,1.62,2.63,6,5.48,12,6.75,18.25a178.3,178.3,0,0,0,31.41-13.93c-1.93-8.75-.62-18-3.25-26.64C263.81,307,261.81,304.45,262.21,301.28Zm-30.55,24.86-2.12.05c-.7-1.57-2-3.21-.14-4.71a2.5,2.5,0,0,1,2.4,0C233.63,323,232.4,324.58,231.66,326.14Zm-.57-7.33c-1.15-.18-2.1-.71-2.17-1.9-.09-1.53,1-2.14,2.36-2.13a2,2,0,0,1,2.13,1.84C233.49,318.13,232.42,318.69,231.09,318.81Zm4.12,0c-.25-.11-.27-.91-.25-1.39,0-.28.32-.55.49-.82.19.45.37.9.51,1.24C235.78,318.36,235.88,319.09,235.21,318.79Zm3.52,20.86c-3.79-1.68-2.92-5-2.93-8.09,1.49-1.91.84-5.16,4.28-6.64C239.34,330.18,238.14,334.85,238.73,339.65Z"/><path class="cls-2" d="M260.39,101.85a1.71,1.71,0,0,0,0-.38h0A1.71,1.71,0,0,1,260.39,101.85Z"/><path class="cls-2" d="M72.54,278.71a3.27,3.27,0,0,0-.45-1.42A3.27,3.27,0,0,1,72.54,278.71Z"/><path class="cls-2" d="M238.46,217.75l-.09,0Z"/><path class="cls-2" d="M67.15,289.32a13.86,13.86,0,0,1,1.1-1.23h0A13.86,13.86,0,0,0,67.15,289.32Z"/><path class="cls-2" d="M160.09,347.5c-.13,0-.25-.1-.37-.15A1.82,1.82,0,0,0,160.09,347.5Z"/><path class="cls-2" d="M159.43,346.78l0,0S159.44,346.76,159.43,346.78Z"/><polygon class="cls-2" points="203.92 164.78 203.92 164.78 203.92 164.78 203.92 164.78"/><path class="cls-2" d="M163.71,228.85c-1.57-1.09-3.15-2.16-4.69-3.29,1.54,1.13,3.12,2.2,4.69,3.29,4.24,7.46,10.5,10.67,18.08,11.42C174.21,239.52,168,236.31,163.71,228.85Z"/><path class="cls-2" d="M195.75,234.48c2.42-.86,4.6-2.38,5.2-5.68l4.25,0-4.25,0C200.35,232.1,198.17,233.62,195.75,234.48Z"/><path class="cls-2" d="M186.48,221a45.63,45.63,0,0,0-7.56.4A45.63,45.63,0,0,1,186.48,221Z"/><path class="cls-2" d="M163.79,225.46a72,72,0,0,1,9.58-3,72,72,0,0,0-9.58,3,2.2,2.2,0,0,1-1.81-.4A2.2,2.2,0,0,0,163.79,225.46Z"/><path class="cls-2" d="M174.3,222.23c1.54-.34,3.08-.62,4.62-.82C177.38,221.61,175.84,221.89,174.3,222.23Z"/><path class="cls-2" d="M186.48,221a42.88,42.88,0,0,1,5,.45A42.88,42.88,0,0,0,186.48,221Z"/><path class="cls-4" d="M47.48,300c-1.21-3.48.66-5.6,4-8.5.11,6.7,2.42,11.42,5,17.28a18,18,0,0,1-3.86-1.89q5.88,5.88,12.3,11.2c.47-2.9.94-5.8,1.12-8.73-4.82.25-5.78-2.75-6.3-5.77a27.59,27.59,0,0,0-.76-3.83,8.13,8.13,0,0,1,3.75-9.91,12.33,12.33,0,0,1,5.5-1.72h0L71.46,284c0-1.74,1.2-3.5,1.08-5.24a3.27,3.27,0,0,0-.45-1.42,4.15,4.15,0,0,0-.76-.93c-7,5.31-15.09,8.41-22.82,12.31a10,10,0,0,0-5.68,7.53q2.94,3.45,6,6.74A15.92,15.92,0,0,1,47.48,300Z"/><path class="cls-4" d="M51.21,275.76c8.41-5.11,13.54-15.16,11.39-25.08-.13-.62-.25-1.23-.35-1.84a22.24,22.24,0,0,1-.23-5.47c-.05-.39-.11-.79-.16-1.18l-.11-.75c-3.06-2.83-4-7.88-2.87-12.1a10.44,10.44,0,0,1,2.87-5,11.65,11.65,0,0,1,4.31-6.74c-.3-1.63-1.26-3.09.43-4.8,4.16-4.22,7.91-8.85,12.09-13.05a30.06,30.06,0,0,0,3-3.59c2.71-3.77,4.61-8,6.82-12.09a12.84,12.84,0,0,1-3.13-2.27,11.61,11.61,0,0,1-1.79-2.32,12.11,12.11,0,0,1-.81-1.66,10.19,10.19,0,0,1-.39-1.3,10,10,0,0,1-.29-2.11,9,9,0,0,1,0-1.16,10.54,10.54,0,0,1,.45-2.33,11.66,11.66,0,0,1,1.69-3.36c1.26-1.74,2.26-3.54,2.12-5.77-1.93-.21-2-1.28-1.76-3A207.16,207.16,0,0,1,93.88,119c6-16.7,13.68-32.72,26.15-45.64,10.9-11.31,23.38-20.74,39-24.68a26,26,0,0,1,6.87-.5c1.4,0,2.81.08,4.2,0a3.75,3.75,0,0,1,.48-.4l.13-.1a1.56,1.56,0,0,1,.42-.2.54.54,0,0,1,.67.24,4.15,4.15,0,0,1,.41,1.5l3.18,2.16a4.83,4.83,0,0,0,1,0h.08l.6-.08.73-.06h.34c.87.06,1.66.49,2.2,2.06.81,2.33,3.06,0,4.64.28a1.89,1.89,0,0,1,.88-1.84,2.44,2.44,0,0,1,1.33-.26,3,3,0,0,0,1.05-.07c13.79-6.41,24.6-.48,35.8,7.36,10.9,7.63,20.38,16.67,29.2,26.28,7.43,8.11,12.45,18.11,15.46,29,3.94,14.3,6.21,29,10.17,43.28,1.22,4.4,3.28,8.76,3.24,13.67a7.17,7.17,0,0,1-.05.87,2.5,2.5,0,0,1-.25.88,1.06,1.06,0,0,1-.67.59,5.64,5.64,0,0,1-1.69.14c-1,1.59-.49,2.18.35,2.52a4.53,4.53,0,0,0,.59.2,4.81,4.81,0,0,1,1.34.51c1.58,1.15,2.13,2.25.95,3.89-1.67,2.29-2.66.3-3.62-.72-1.75-1.83-2.85-4.53-6.07-4.23,1.08,6.68,5.64,11,10.33,15.23s9.29,8.61,12.17,14.3c.33.65.72,1.32,1.07,2,1.05,2.05,1.8,4.28-.26,6.63,0,.71-.07,1.41-.11,2.12,3.47,5.21-.46,9.13-2.83,12.8-1.37,2.13-2.68,4.27-3.88,6.46a53.81,53.81,0,0,0-4.79,11.5c1.55,1,2.71.9,3.58.23a3.36,3.36,0,0,0,.55-.52,7.07,7.07,0,0,0,1-1.91c.6-1.56,1.06-3.14,3.07-2.88,2.31.3,2.39,2.18,2.39,4,4.62,8.56,11.23,15.64,17.19,23.21a13.11,13.11,0,0,1,2.34,13c-.36,1.05-.65,2.69-2.31,2.34-1.21-.25-1.15-1.58-1.29-2.63-.84-6-3.46-10.83-9.43-15.3,1.16,4.35.11,7.66,3.56,10.31,1.49,1.13,1.54,4.47,1.66,7,.39,8.55-.83,16.9-2.19,25.3a182,182,0,0,0,14.19-15.45c4.39-11.69,2.89-22.27-6.2-31.95A74,74,0,0,1,298,238.93c-1.39-3.4-1.55-6.36.49-9.9,5.64-9.75,5.41-19.91-1.23-28.95-4-5.49-6.18-11.4-7.79-17.72-2.31-9.08-4.65-18.15-6.78-27.26-3.47-14.8-5.71-30-10.37-44.37C262.44,80,239.19,61.07,212,46.33c-5.49-3-12.18-3.93-18-1.35-7.14,3.14-13,3.53-20.6.07-9.26-4.2-19.1-.56-28,4-27.85,14.28-44.68,37.65-54.91,66.53C82.87,137,80,159.52,75.71,181.69c-2.1,10.75-3.32,21.57-12.56,29.23-1.83,1.52-3,4-4.21,6.08-5,8.53-6.26,17.33-2.72,26.89C61.31,257.63,60,262,48.85,271.68c-5.13,4.45-9.69,9.28-12.33,15.67-.1.23-.17.45-.25.67q1.63,2.18,3.35,4.3A25.65,25.65,0,0,1,51.21,275.76Z"/><path class="cls-5" d="M123.29,291.29c1-.4,1.56-1.81,2.32-2.76a28.93,28.93,0,0,0-2.13-5.36c-4.2-6.58-3.59-12.69.68-19.09,3.6-5.39,1.67-13.44-3.36-17.32-2.18-1.69-3.31-.19-4.25,1.26-1.27,1.95-2,3.06-4.9,1.74s-2.91,2.15-3,4c-.19,5.46-.07,10.93-.07,16.76-10.78-12-10.54-32.78-.54-44.26,3.7-4.25,8.32-7.77,10.45-13.62,3.26-9-1.64-16.47-3.32-24.5-.71-3.4-2.1-6.66-2.42-10.21-.29-3.09-.41-3-3.64-2-2.11.64-2.24-1.36-2.44-2.46-.79-4.29.63-8.37,1.73-12.43a27.84,27.84,0,0,1,7.67-12.49c.88-.87,2-2,3.18-1.15,1.58,1.17-.37,2-.68,3.06-.56,1.87-3.3,3-2,5.68,13.17-12.49,26.05-24.77,31.72-42.95,2.07-6.61,3.92-13.43,6.54-20,3-7.55,12.21-8,18-5.45,2.39,1,5.44,3.65,7.09,2.12,2.37-2.2.06-5.46-1.07-8.26-2.89-7.18-9.38-8.08-15.63-8.77a47.53,47.53,0,0,0-15.7.72c3.07-5.52,8.37-4.37,12.14-5.95,4-1.69,8.58-2,14.17.43-2.22-3.63-4.89-3-6.55-4.86,2.95-2.11,5.47-.59,8.15.45,1.5.58,3.33,2.25,4.8.69s0-3.44-.66-5c-1.18-2.71-2.77-5.25-4.18-7.86h0l-3.18-2.16a2.13,2.13,0,0,1-2.11-1c-1.39.05-2.8,0-4.2,0a26,26,0,0,0-6.87.5c-15.65,3.94-28.13,13.37-39,24.68C107.56,86.3,99.84,102.32,93.88,119a207.16,207.16,0,0,0-9.35,39.82c-.25,1.71-.17,2.78,1.76,3,1.32-2.7,2.66-5.39,4-8.09.5-1,.48-2.71,2.3-2.18,1.3.37,1.19,1.66,1.12,2.67-.32,4.38-.37,8.82-1.17,13.12-1,5.64-2.69,11.18-4.08,16.76h0c-2.21,4.07-4.11,8.32-6.82,12.09a30.06,30.06,0,0,1-3,3.59c-4.18,4.2-7.93,8.83-12.09,13.05-1.69,1.71-.73,3.17-.43,4.8,1.16,1,.29,2.26.43,3.36.22,1.58-3,5.22,2.26,4.5.85-.12.55,1.46.52,2.25-.18,4.93-.52,9.87,2.35,14.32A2.15,2.15,0,0,1,71.8,244c-.61.94-1.57.48-2.31,0-1-.61-1.89-1.33-2.86-2-1.39,2.59,1.19,4.65.12,7.26-2.65-1.16-2.37-4.65-4.73-5.81a22.75,22.75,0,0,0,.23,5.47c.1.61.22,1.22.35,1.84,2.15,9.92-3,20-11.39,25.08a25.65,25.65,0,0,0-11.59,16.56q1.58,2,3.21,3.88a10,10,0,0,1,5.68-7.53c7.73-3.9,15.86-7,22.82-12.31,1.58-1.53.9-6.21,4.28-4.63,2.64,1.24,1.33,4.93-.19,7-1.28,1.74-1.17,4.64-4,5.22h0l-3.21,4.14a13.86,13.86,0,0,0-1.1,1.23,14.52,14.52,0,0,0-1.66,2.51,13.87,13.87,0,0,0-1,2.58A14.92,14.92,0,0,0,64,297c-.31,4,.89,8.14,2,12.28-.18,2.93-.65,5.83-1.12,8.73a180.51,180.51,0,0,0,21,15.05l1.38-6.56c1.13-5.38,4.78-9.34,7.77-13.67.67-1,2-2,3.12-.92,1.33,1.32-.39,2.15-1.11,3A24.33,24.33,0,0,0,90.89,336c1.68,1,3.38,1.88,5.1,2.79a135.66,135.66,0,0,1,4.22-13.37C105.4,312.44,107.89,297.5,123.29,291.29Zm28-211c.58,2.2-2.34,2.31-1.89,4.59,3.45-.69,6.47-4.25,11.07-1.68-10.25,3.89-11.83,12.87-14.12,21.71-2,7.66-5.86,14.44-12.67,19.09,1.83-4.51,5.46-8.11,5.55-13.31a9.35,9.35,0,0,0-1.25-.15c-1.7.08-3,3.14-4.47,1.54s1-2.91,1.84-4.33c3.69-6.46,5.14-13.81,8.18-20.51C145.07,84,146.27,79.86,151.33,80.32Zm-23.18,5.59c2.72-4.68,5.33-9.43,8.35-13.92,3.73-5.56,9.43-7.32,16.22-6.41-1.85.83-3.64,1.79-5.54,2.45a16.43,16.43,0,0,0-10,9.36,32.65,32.65,0,0,1-6.78,9.92c-.59.58-1.38,1.4-2.19.49A2.06,2.06,0,0,1,128.15,85.91ZM81.72,311.84c-2.86,3.85-6.23,7.32-9.88,11.54-.32-7.07,4.54-10.78,7-15.64,2.5-5,.9-10.51,0-16.6C86.08,298.26,86.92,304.88,81.72,311.84ZM83,228.1c-3.69,7.16-1.09,14.09.4,21,.91,4.24,1,8.1-1.63,12-.39-7.24-4.52-12.91-7-19.24-3.37-8.68.14-16.35,9.59-23.32,1.25-.92,2.65-1.61,4-2.41C86.64,220.33,85,224.3,83,228.1Zm22.8-93.35a5.86,5.86,0,0,1,2-.13c-2.83,4.12,6.75,5.14,1.13,10,4.37-.46,6.23-3.94,10.93-3.8-3.53,4-7.8,5.25-10.27,8.52a5,5,0,0,1-1.74,1.18c-1.55.78-1.72,4.12-3.6,3.2-2.55-1.25.53-3.74-.28-6-3.55-.78-4.18,2.58-6.09,4.39C96.83,146.09,101.27,136.68,105.83,134.75Zm-7.21,94.56c-4.73,12.05-4.18,23.78,1.9,35.73C90,259.52,88.88,237,98.62,229.31Z"/><path class="cls-5" d="M88.42,184.11h0c-2.21,4.07-4.11,8.32-6.82,12.09C84.31,192.43,86.21,188.18,88.42,184.11Z"/><path class="cls-5" d="M172.24,49.27l3.18,2.16h0Z"/><path class="cls-5" d="M62.25,248.84a22.75,22.75,0,0,1-.23-5.47h0A22.24,22.24,0,0,0,62.25,248.84Z"/><path class="cls-5" d="M68.25,288.09,71.46,284h0Z"/><polygon class="cls-5" points="295.34 266.9 295.34 266.9 295.38 266.85 295.34 266.9"/><polygon class="cls-5" points="260.36 101.28 260.36 101.28 260.35 101.29 260.36 101.28"/><path class="cls-5" d="M270.59,330.61a38.64,38.64,0,0,1,3.22,2.34,180.65,180.65,0,0,0,31.08-24.18c1.36-8.4,2.58-16.75,2.19-25.3-.12-2.52-.17-5.86-1.66-7-3.45-2.65-2.4-6-3.56-10.31,6,4.47,8.59,9.35,9.43,15.3.14,1,.08,2.38,1.29,2.63,1.66.35,1.95-1.29,2.31-2.34a13.11,13.11,0,0,0-2.34-13c-6-7.57-12.57-14.65-17.19-23.21-5.55,4.38-9.33,10.09-13.11,17.67a25.09,25.09,0,0,1,2.47-16.58h0a53.81,53.81,0,0,1,4.79-11.5c1.2-2.19,2.51-4.33,3.88-6.46,2.37-3.67,6.3-7.59,2.83-12.8a3.42,3.42,0,0,1-.47.23c-2.61.94-.31,5.93-3.63,5.3-2-.39-1-4-1.58-6.17-1.84-6.28-7-9.34-12.24-13.17,2.73-1.55,4.41.44,6.27.58s3.23,3.95,5.34.08c.51-.94,1.92.9,2.41,2,1.39,3,2.68,6,4,9.06,2.06-2.35,1.31-4.58.26-6.63-.35-.69-.74-1.36-1.07-2-2.88-5.69-7.46-10.07-12.17-14.3s-9.25-8.55-10.33-15.23c-1.87-4.24-.85-8.92-2-13.28-.2-.76-.14-1.89,1-2.13s1.5.64,2,1.37c2.42,3.69,2.6,8.4,5.48,11.87h0a5.64,5.64,0,0,0,1.69-.14,1.06,1.06,0,0,0,.67-.59,2.5,2.5,0,0,0,.25-.88,7.17,7.17,0,0,0,.05-.87c0-4.91-2-9.27-3.24-13.67-4-14.31-6.23-29-10.17-43.28-3-10.87-8-20.87-15.46-29-8.82-9.61-18.3-18.65-29.2-26.28-11.2-7.84-22-13.77-35.8-7.36a3,3,0,0,1-1.05.07,2.13,2.13,0,0,1-2.2,2.1c-.17,2.67.76,3.44,3.49,2.58a104.19,104.19,0,0,1,10.24-2.38,5.89,5.89,0,0,1,6.18,1.94c-3,1.07-5.8,2.31-8.7,3-4.07,1-6.18,4-7.77,7.38-.66,1.39-2.3,3.38-.63,4.85s3.38-.24,4.68-1.24c6.12-4.7,12.56-4.67,18.74-.72,5,3.21,8.37,8.5,10.37,13.77,4,10.6,10.71,18.69,19.51,25.42,1,.77,2.62,1.22,2.83,3.84a33.24,33.24,0,0,1-15.64-11c-5.75-7.16-10.66-15-17.55-21.26-6.4-5.77-16.63-3.72-19.68,4-.39,1-1.11,1.94-.28,2.93s1.62.08,2.44,0c12.88-2,16.95.59,19.05,13.51,2.46,15.16,9,27.37,22.73,35.19s19,20.39,18.91,35.68c-.08,8.64.29,17.17,2.48,25.66,1.53,5.92,5.39,9.8,9.53,13.59,4,3.64,8.28,6.94,12.67,10.58,1.56-2.2-.81-4.11-.23-6.06.27-.94-.3-2.38,1.15-2.57,1.27-.18,1.56,1,2,2,4,8.61,2,16.82-5.59,22.57-2.29,1.73-4.44,2.74-5.08-1.61a49.19,49.19,0,0,0-1.91-6.58c-.35-1.18-.6-2.77-2.08-2.65-1.74.15-1.14,1.88-1.24,3-.75,7.76-3.09,15.52-.17,23.32.11.28-.41.8-1.06,2a26.25,26.25,0,0,0-5.06-10.15c-1.49-1.86-3.3-3.45-5.89-2.62s-1.47,3.25-1.6,5c-.44,5.66,1.38,11.63-3.2,16.63-4,4.39-4.9,4.44-7.62-.74a8.22,8.22,0,0,0-3.46-3.86c-1.84,7.09,1.08,12.87,4.14,18.49a45.79,45.79,0,0,1,3.59,8.17c.55,1.79.59,3.9-1.13,5.42L260,298.81c4.37-3.76,4.35-9.56,6.91-14.24,1.6,6.42,0,12-4.67,16.71-.4,3.17,1.6,5.7,2.45,8.5,2.63,8.68,1.32,17.89,3.25,26.64,1.25-.71,2.5-1.43,3.74-2.17C271.33,333.15,271,332,270.59,330.61Zm22.08-54.41c1.84-1.34,3.05,1.25,5.13.85.91-3.72-2.69-6.53-2.42-10.11l0,0h0l-.4-.28.44.23v.09a25,25,0,0,1,8.05,12.65,37.18,37.18,0,0,1,1.11,11.73c-.15,2.95-.48,6.3-2.93,9.56-1.86-4.5,1.5-9.07-1.85-12.77-1.5.23-.43,3.15-2.83,3.69-.52-4.88-1-9.74-4.23-13.73A2,2,0,0,1,292.67,276.2ZM235.5,74.5c10.83,6.5,18.58,15.89,24.77,26.75l.09,0h0a.39.39,0,0,1,.06.19c.22.31.43.62.65.92-.73.15-.72-.19-.68-.54a1.71,1.71,0,0,0,0-.38l-.1-.15-.05-.07c-.69-.29-1.47-.48-2.12-.82a3.22,3.22,0,0,1-.6-.42C249.4,92.22,242.36,83.45,235.5,74.5Zm26.86,79.35c-2.38.66,1.2,3.63-1.65,5.37-3.24-8.27-10-13.84-16-20.19,3.21-1.48,5.08,1.18,7.39,1.29,1.78-1.35-.23-3,.37-4.45.52,0,1-.13,1.14,0,3.29,4.5,6.61,9,9.77,13.59C264.39,151,266.12,152.8,262.36,153.85Zm3.2-31.13c-2.06.76-2.89-3.31-4.47-5.07-4.73-5.26-10.6-9-17.14-12.49,3.06-1.86,6.9,2.78,8.61-2.2,0-.11.65,0,1,0,4.29.54,12.09,8.77,12,13.23C265.45,118.49,268.39,121.67,265.56,122.72Zm14.23,156.47c-.09,10.92,9.6,18.1,10.74,28.56C277.69,301.63,274.33,293,279.79,279.19Z"/><path class="cls-5" d="M284.72,246.68h0a53.81,53.81,0,0,1,4.79-11.5A53.81,53.81,0,0,0,284.72,246.68Z"/><path class="cls-5" d="M279.48,173.46h0a5.64,5.64,0,0,0,1.69-.14A5.64,5.64,0,0,1,279.48,173.46Z"/><path class="cls-5" d="M296.59,207.17c1.05,2.05,1.8,4.28-.26,6.63h0C298.39,211.45,297.64,209.22,296.59,207.17Z"/><polygon class="cls-6" points="213.81 165.26 213.81 165.26 213.81 165.26 213.81 165.26"/><path class="cls-6" d="M185,53.58h0c-1.58-.25-3.83,2.05-4.64-.28-.54-1.57-1.33-2-2.2-2.06h-.34l-.73.06-.6.08h-.08a4.83,4.83,0,0,1-1,0c1.41,2.61,3,5.15,4.18,7.86.66,1.52,2.05,3.48.66,5s-3.3-.11-4.8-.69c-2.68-1-5.2-2.56-8.15-.45C169,65,171.64,64.34,173.86,68c-5.59-2.43-10.15-2.12-14.17-.43-3.77,1.58-9.07.43-12.14,5.95a47.53,47.53,0,0,1,15.7-.72c6.25.69,12.74,1.59,15.63,8.77,1.13,2.8,3.44,6.06,1.07,8.26-1.65,1.53-4.7-1.09-7.09-2.12-5.78-2.51-15-2.1-18,5.45-2.62,6.55-4.47,13.37-6.54,20-5.67,18.18-18.55,30.46-31.72,43-1.32-2.7,1.42-3.81,2-5.68.31-1,2.26-1.89.68-3.06-1.18-.86-2.3.28-3.18,1.15A27.84,27.84,0,0,0,108.42,161c-1.1,4.06-2.52,8.14-1.73,12.43.2,1.1.33,3.1,2.44,2.46,3.23-1,3.35-1,3.64,2,.32,3.55,1.71,6.81,2.42,10.21,1.68,8,6.58,15.5,3.32,24.5-2.13,5.85-6.75,9.37-10.45,13.62-10,11.48-10.24,32.27.54,44.26,0-5.83-.12-11.3.07-16.76.07-1.81-.06-5.33,3-4s3.63.21,4.9-1.74c.94-1.45,2.07-3,4.25-1.26,5,3.88,7,11.93,3.36,17.32-4.27,6.4-4.88,12.51-.68,19.09a28.93,28.93,0,0,1,2.13,5.36c1.49-.49,2.8-1.63,4.51-1.27,10.86,2.28,20.75-1.9,30.87-4.56a5.67,5.67,0,0,0,4.49-5.23c.54-4.18,1.05-8.37,1.66-12.54.43-2.88-.68-4.56-3.38-5.72a80.27,80.27,0,0,1-15.83-9.52c-7.7-5.71-16.79-10.06-21-19.46-2.93-6.55-7.88-12.86-3.52-20.69A41.77,41.77,0,0,0,121,189.23a35,35,0,0,1-2.46-15.07c.21-2.8,0-5.8,4.3-3.09a1.91,1.91,0,0,0,1.26.15l.64-.12.73-.18.47-.12c.27-.06.54-.12.79-.16l7.58-5.56a2.83,2.83,0,0,1-1.94-.24,2.32,2.32,0,0,1-.6-.52,5.22,5.22,0,0,1-.43-.68c-.12-.25-.23-.51-.34-.78l-.25-.63c0-.1-.09-.19-.13-.29a5.2,5.2,0,0,0-.32-.62,2.86,2.86,0,0,0-.49-.6,1.16,1.16,0,0,1-.22.5c-.16.19-.41.21-.79,0l-2.09-.53a4.07,4.07,0,0,1-3.88,4.1c-.35,0-1.11-.72-1.07-.8.89-1.82-.43-4.85,2.88-5.34,1.38-2.33,2.72-4.72,5.55-5.63q5.43-6.42,13.76-3.08l5,.33a25.78,25.78,0,0,1,6.76.85,8.72,8.72,0,0,1,2.09,1,.45.45,0,0,1,.66.14c2.84-.68,5.48.5,8.07,1.19s2.28-.47,1.66-1.94c-1.05-2.45-3.23-3.65-5.61-4.5a90,90,0,0,0-18.5-4.36c-2.9-.37-3.35-1.15-1.54-3.53,6.25-8.23,10.27-17.64,14.33-27,5.7-13.19,11.72-15.63,25.06-10.27,2.12.84,3.66.31,5.49-.39,11.08-4.23,18.77-1.25,22.85,9.73a54.6,54.6,0,0,0,5.59,11.06q1.34,2,2.82,3.9c.76,1,1.56,1.87,2.37,2.77.52.57,1.06,1.14,1.6,1.69.81.82,1.64,1.63,2.49,2.41l.35.31q1.52,1.35,3.12,2.61a74.56,74.56,0,0,0,6.46,4.56,4.41,4.41,0,0,1,1.58.55,2.44,2.44,0,0,1,.72.71,3.09,3.09,0,0,1,.45,1.73c-2,.43-3.6-.45-5.16-1.39l-5.12.16a4.06,4.06,0,0,1-2.1.67,6.79,6.79,0,0,1-1.1,0c-.36,0-.73-.08-1.1-.14A101.73,101.73,0,0,0,205.85,147c-3,1.09-5.58,2.58-6.32,6.56l2-.38,5.48-1a4.71,4.71,0,0,1,.48-.34l.35-.18.15-.08a4.92,4.92,0,0,1,1.05-.33l.69-.09a9.85,9.85,0,0,1,1.54,0l.09,0,1.09-.36,3.3-.51c9-2.32,17.84-2,26.29,2.13,1.82.89,2.9,1.8,3.29,2.83a2.53,2.53,0,0,1,.16.91,2.8,2.8,0,0,1-.05.48,4.62,4.62,0,0,1-.58,1.48,11.57,11.57,0,0,1-1.38,1.84l-1.26.73-1,.08a4.09,4.09,0,0,1-1.25-.22,3.05,3.05,0,0,1-1.38-.9,3.71,3.71,0,0,1-.57-.88l0,0c-.38-.15-.56-.29-.61-.42a.25.25,0,0,1,.08-.25,1.81,1.81,0,0,1,.58-.36c.07-.37.13-.74.2-1.1l-1.38-.58c-3.23,3.66-6.91-.05-10.49.38l-2.92.37c-1,.14-1.92.28-2.86.44-1.42.24-2.82.52-4.18.86A27.91,27.91,0,0,0,205,163.59a1.4,1.4,0,0,1-.3.85,1.42,1.42,0,0,1-.75.39l1.17,4.35a.85.85,0,0,0,.88.2l2.3-.13a6.2,6.2,0,0,1,1.83-3.28,4.3,4.3,0,0,1,3.69-.71,10.76,10.76,0,0,1,3.77-1.39,5.45,5.45,0,0,1,1.39,0,8.29,8.29,0,0,1,4.41-1,17.07,17.07,0,0,1,2.23.24c.74.13,1.49.29,2.23.44a9.82,9.82,0,0,1,1.07-.38,3.35,3.35,0,0,1,1-.13,2.35,2.35,0,0,1,1.87,1.07,20.68,20.68,0,0,1,8.58,4.35,12.79,12.79,0,0,1,2.15,2.55.8.8,0,0,1,.83.29c3.4-.71,4.72.27,4.32,4.07-.73,7.11-1.77,14.23.36,21.39.79,2.68-.89,5.39-2.35,7.79-.14.6-.28,1.19-.41,1.79l-1,5.2-.37,1.37.37-1.37-.37,1.37c-.19,1-.37,2-.56,2.94,1.48,1.91.83,4,.51,6.07-1.21,7.74-5.57,13.61-11.47,18.33-9.21,7.36-18.71,14.34-29.56,19.2-1.85.83-3.1,1.82-3.3,4.22C198.27,278.8,201.3,283,216,285.93a18,18,0,0,1,2.1.25c4.78,1.57,10.12.74,14.67,3.34a13.12,13.12,0,0,1,3.25-.39,5.46,5.46,0,0,1,.79.09,4.93,4.93,0,0,1,2.27,1h0l5.08.43c1.72-1.52,1.68-3.63,1.13-5.42a45.79,45.79,0,0,0-3.59-8.17c-3.06-5.62-6-11.4-4.14-18.49a8.22,8.22,0,0,1,3.46,3.86c2.72,5.18,3.6,5.13,7.62.74,4.58-5,2.76-11,3.2-16.63.13-1.77-1-4.18,1.6-5s4.4.76,5.89,2.62a26.25,26.25,0,0,1,5.06,10.15c.65-1.18,1.17-1.7,1.06-2-2.92-7.8-.58-15.56.17-23.32.1-1.13-.5-2.86,1.24-3,1.48-.12,1.73,1.47,2.08,2.65a49.19,49.19,0,0,1,1.91,6.58c.64,4.35,2.79,3.34,5.08,1.61,7.6-5.75,9.58-14,5.59-22.57-.45-1-.74-2.21-2-2-1.45.19-.88,1.63-1.15,2.57-.58,1.95,1.79,3.86.23,6.06-4.39-3.64-8.69-6.94-12.67-10.58-4.14-3.79-8-7.67-9.53-13.59-2.19-8.49-2.56-17-2.48-25.66.13-15.29-5.12-27.81-18.91-35.68s-20.27-20-22.73-35.19c-2.1-12.92-6.17-15.54-19.05-13.51-.82.13-1.69,1-2.44,0s-.11-2,.28-2.93c3-7.71,13.28-9.76,19.68-4,6.89,6.23,11.8,14.1,17.55,21.26a33.24,33.24,0,0,0,15.64,11c-.21-2.62-1.83-3.07-2.83-3.84-8.8-6.73-15.49-14.82-19.51-25.42-2-5.27-5.36-10.56-10.37-13.77-6.18-4-12.62-4-18.74.72-1.3,1-3,2.7-4.68,1.24s0-3.46.63-4.85c1.59-3.36,3.7-6.36,7.77-7.38,2.9-.72,5.68-2,8.7-3a5.89,5.89,0,0,0-6.18-1.94,104.19,104.19,0,0,0-10.24,2.38c-2.73.86-3.66.09-3.49-2.58Z"/><path class="cls-6" d="M176.5,51.37l.6-.08Z"/><path class="cls-6" d="M176.42,51.38a4.83,4.83,0,0,1-1,0h0A4.83,4.83,0,0,0,176.42,51.38Z"/><path class="cls-6" d="M177.83,51.23h0Z"/><polygon class="cls-6" points="185.01 53.58 185.01 53.58 185.01 53.58 185.01 53.58"/><path class="cls-6" d="M97.09,314.91c.72-.81,2.44-1.64,1.11-3-1.13-1.12-2.45-.07-3.12.92-3,4.33-6.64,8.29-7.77,13.67l-1.38,6.56q2.46,1.5,5,2.93A24.33,24.33,0,0,1,97.09,314.91Z"/><path class="cls-6" d="M82.48,171a10.54,10.54,0,0,0-.45,2.33,9,9,0,0,0,0,1.16,10,10,0,0,0,.29,2.11,10.19,10.19,0,0,0,.39,1.3,12.11,12.11,0,0,0,.81,1.66,11.61,11.61,0,0,0,1.79,2.32,12.84,12.84,0,0,0,3.13,2.27c1.39-5.58,3-11.12,4.08-16.76.8-4.3.85-8.74,1.17-13.12.07-1,.18-2.3-1.12-2.67-1.82-.53-1.8,1.14-2.3,2.18-1.3,2.7-2.64,5.39-4,8.09.14,2.23-.86,4-2.12,5.77A11.66,11.66,0,0,0,82.48,171Z"/><path class="cls-6" d="M82,173.29a10.54,10.54,0,0,1,.45-2.33A10.54,10.54,0,0,0,82,173.29Z"/><path class="cls-6" d="M82.3,176.56a10,10,0,0,1-.29-2.11A10,10,0,0,0,82.3,176.56Z"/><path class="cls-6" d="M85.29,181.84a11.61,11.61,0,0,1-1.79-2.32A11.61,11.61,0,0,0,85.29,181.84Z"/><path class="cls-7" d="M61.75,224.38a39.27,39.27,0,0,0,0,17.06c0,.25.07.5.11.75l.16,1.18h0c2.36,1.16,2.08,4.65,4.73,5.81,1.07-2.61-1.51-4.67-.12-7.26,1,.71,1.88,1.43,2.86,2,.74.47,1.7.93,2.31,0a2.15,2.15,0,0,0-.18-1.88c-2.87-4.45-2.53-9.39-2.35-14.32,0-.79.33-2.37-.52-2.25-5.22.72-2-2.92-2.26-4.5-.14-1.1.73-2.34-.43-3.36A11.65,11.65,0,0,0,61.75,224.38Z"/><path class="cls-7" d="M61.86,242.19c0,.39.11.79.16,1.18h0Z"/><path class="cls-6" d="M270.59,330.61c.39,1.35.74,2.54,1.06,3.64l2.16-1.3A38.64,38.64,0,0,0,270.59,330.61Z"/><path class="cls-7" d="M296.33,213.8c-1.33-3-2.62-6.06-4-9.06-.49-1.07-1.9-2.91-2.41-2-2.11,3.87-3.62,0-5.34-.08s-3.54-2.13-6.27-.58c5.22,3.83,10.4,6.89,12.24,13.17.62,2.14-.42,5.78,1.58,6.17,3.32.63,1-4.36,3.63-5.3a3.42,3.42,0,0,0,.47-.23c0-.71.08-1.41.11-2.12Z"/><path class="cls-7" d="M296.33,213.8h0c0,.71-.07,1.41-.11,2.12,0-.71.08-1.41.11-2.12Z"/><path class="cls-6" d="M293,241.6c-2-.26-2.47,1.32-3.07,2.88a7.07,7.07,0,0,1-1,1.91,3.36,3.36,0,0,1-.55.52c-.87.67-2,.73-3.58-.23a25.09,25.09,0,0,0-2.47,16.58c3.78-7.58,7.56-13.29,13.11-17.67C295.36,243.78,295.28,241.9,293,241.6Z"/><path class="cls-6" d="M279.09,179.86c1,1,2,3,3.62.72,1.18-1.64.63-2.74-.95-3.89a4.81,4.81,0,0,0-1.34-.51,4.53,4.53,0,0,1-.59-.2c-.84-.34-1.37-.93-.35-2.52-2.88-3.47-3.06-8.18-5.48-11.87-.48-.73-.95-1.59-2-1.37s-1.19,1.37-1,2.13c1.14,4.36.12,9,2,13.28C276.24,175.33,277.34,178,279.09,179.86Z"/><path class="cls-6" d="M62.75,289.81A8.13,8.13,0,0,0,59,299.72a27.59,27.59,0,0,1,.76,3.83c.52,3,1.48,6,6.3,5.77-1.13-4.14-2.33-8.29-2-12.28a14.92,14.92,0,0,1,.45-2.63,13.87,13.87,0,0,1,1-2.58,14.52,14.52,0,0,1,1.66-2.51,13.86,13.86,0,0,1,1.1-1.23A12.33,12.33,0,0,0,62.75,289.81Z"/><path class="cls-6" d="M68.25,288.09a12.33,12.33,0,0,0-5.5,1.72,12.33,12.33,0,0,1,5.5-1.72Z"/><path class="cls-6" d="M72.54,278.71c.12,1.74-1.06,3.5-1.08,5.24,2.79-.58,2.68-3.48,4-5.22,1.52-2.07,2.83-5.76.19-7-3.38-1.58-2.7,3.1-4.28,4.63a4.15,4.15,0,0,1,.76.93A3.27,3.27,0,0,1,72.54,278.71Z"/><path class="cls-6" d="M72.54,278.71c.12,1.74-1.06,3.5-1.08,5.24h0C71.48,282.21,72.66,280.45,72.54,278.71Z"/><path class="cls-5" d="M61.75,241.44a39.27,39.27,0,0,1,0-17.06,10.44,10.44,0,0,0-2.87,5C57.74,233.56,58.69,238.61,61.75,241.44Z"/><path class="cls-6" d="M171.16,47.53a1.56,1.56,0,0,0-.42.2l-.13.1a3.75,3.75,0,0,0-.48.4h0a2.13,2.13,0,0,0,2.11,1,4.15,4.15,0,0,0-.41-1.5A.54.54,0,0,0,171.16,47.53Z"/><path class="cls-6" d="M170.61,47.83a3.75,3.75,0,0,0-.48.4h0A3.75,3.75,0,0,1,170.61,47.83Z"/><path class="cls-6" d="M170.74,47.73a1.56,1.56,0,0,1,.42-.2A1.56,1.56,0,0,0,170.74,47.73Z"/><path class="cls-6" d="M185,53.58h0a2.13,2.13,0,0,0,2.2-2.1,2.44,2.44,0,0,0-1.33.26A1.91,1.91,0,0,0,185,53.58Z"/><path class="cls-6" d="M185.89,51.74a1.89,1.89,0,0,0-.88,1.84h0A1.91,1.91,0,0,1,185.89,51.74Z"/><polygon class="cls-6" points="185.01 53.58 185.01 53.58 185.01 53.58 185.01 53.58 185.01 53.58"/><polygon class="cls-6" points="185.02 53.58 185.01 53.58 185.01 53.58 185.02 53.58"/><polygon class="cls-6" points="185.01 53.58 185.02 53.58 185.02 53.58 185.01 53.58"/><polygon class="cls-6" points="185.01 53.58 185.01 53.58 185.01 53.58 185.01 53.58"/><polygon class="cls-6" points="185.01 53.58 185.01 53.58 185.02 53.58 185.01 53.58 185.01 53.58"/><path class="cls-8" d="M235.53,301.36a9.91,9.91,0,0,0-.51,1.57c2,3,0,3.19-2.26,3.23.85,2,2.37,3.85,2,6.27,1.09,0,2.56-.17,2.64-1.21.43-5.67,3.43-11.09,1.77-17l-.59-.95-1.69,1.05C237.77,297,236.42,299.12,235.53,301.36Z"/><path class="cls-6" d="M262.21,301.28c4.66-4.74,6.27-10.29,4.67-16.71-2.56,4.68-2.54,10.48-6.91,14.24A2.58,2.58,0,0,0,262.21,301.28Z"/><path class="cls-9" d="M236.05,289.13a13.12,13.12,0,0,0-3.25.39l.08,1.81a3.73,3.73,0,0,1,.45.44l.08.1c.21.25.4.52.59.79l.2.27a5.43,5.43,0,0,0,.74.84,2.39,2.39,0,0,0,1.92.58h0l1.69-1c.19-1,.37-2,.56-3a4.93,4.93,0,0,0-2.27-1A5.46,5.46,0,0,0,236.05,289.13Z"/><path class="cls-9" d="M236.05,289.13a5.46,5.46,0,0,1,.79.09A5.46,5.46,0,0,0,236.05,289.13Z"/><path class="cls-9" d="M236.84,289.22a4.93,4.93,0,0,1,2.27,1h0A4.93,4.93,0,0,0,236.84,289.22Z"/><path class="cls-9" d="M236.86,294.35h0l1.69-1.05-1.69,1Z"/><path class="cls-10" d="M238.62,222.28a10.5,10.5,0,0,0,.63-4.18l-.79-.35-.09,0a14.43,14.43,0,0,0-1.39-.5,11.28,11.28,0,0,0-1.53-.34,10.7,10.7,0,0,0-2-.12c-.31,0-.62,0-1,.08-9.26,1.08-15.88-5.66-15.08-15.45.24-2.9-1.14-5.42-.68-8.24.32-2-1.1-2.71-3-2.68-4.27.08-7.72-2.67-12.21-3.07,2.49-2.78,6,.88,7.82-2.17L205.18,184c-1.46-.32-3.16.42-4.6,0a2.88,2.88,0,0,1-1.76-1.46,5.16,5.16,0,0,1-1-.73,3.51,3.51,0,0,1-.63-.8c-.93-1.68,0-3.71.35-5.55.8-4.07,3-7.53,5.48-10.77-1.63-3.6-2.37-5.58-1.76-7a2.72,2.72,0,0,1,.72-.94c1-.86,2.79-1.53,5.6-2.43.9-.29,2.5.15,2.22-1.36-.22-1.12-1.78-.7-2.74-1l-5.48,1-2,.38c.74-4,3.34-5.47,6.32-6.56a101.73,101.73,0,0,1,17.38-4.22,5.24,5.24,0,0,1,2.64-.75,5.74,5.74,0,0,1,1.66.26h0l5.12-.16c.91-.37,2.23-.14,2.41-1.6a74.56,74.56,0,0,1-6.46-4.56q-1.6-1.26-3.12-2.61l-.35-.31c-.85-.78-1.68-1.59-2.49-2.41-.54-.55-1.08-1.12-1.6-1.69-.81-.9-1.61-1.82-2.37-2.77q-1.48-1.87-2.82-3.9a54.6,54.6,0,0,1-5.59-11.06c-4.08-11-11.77-14-22.85-9.73-1.83.7-3.37,1.23-5.49.39-13.34-5.36-19.36-2.92-25.06,10.27-4.06,9.4-8.08,18.81-14.33,27-1.81,2.38-1.36,3.16,1.54,3.53a90,90,0,0,1,18.5,4.36c2.38.85,4.56,2.05,5.61,4.5.62,1.47,1,2.65-1.66,1.94s-5.23-1.87-8.07-1.19c.09,2.25,2.09,1.82,3.37,2.47,3.64,1.83,5,2.53,4.42,4a17.35,17.35,0,0,1-3.11,3.78l.17,0c1.95-.87,3.07-.49,3.24,1.31a5.91,5.91,0,0,1,0,.85c.17.69.33,1.38.49,2.07l.4.12c3.42,2.31,6.76,10.2,5.87,13.5-.5,1.86-2,1.65-3.28,2a5,5,0,0,1-2,.75c-2.14.34-4.47-.25-6.37,1.13-.86.6-1.62,1.59-2.6,1.68h0a1.94,1.94,0,0,1-.58-.06,3,3,0,0,1-1-.56l-2.15.29a2.84,2.84,0,0,1,0,.77c0,.17.08.34.1.52.21,2.35,4.29-.13,3.54,2.44-.67,2.29-3.38,1-5.13,1.06-2.56.08-3.86.76-3.85,3.62,0,5.64.88,11.06-5.18,15.4-4.87,3.5-9.16,6.82-15.38,6.64-1,0-2,.66-3,1,2.09,7.95,5,15.38,11.72,20.78a170.94,170.94,0,0,0,28.69,18.83c10.13,5.19,20.86,5.78,31.21,1.33a119,119,0,0,0,35.72-24.13A38,38,0,0,1,238,223.57,8.53,8.53,0,0,0,238.62,222.28Zm-64.53-18.61a15,15,0,0,1,.95-3.28c1.29-3.18,3.42-6.13,4.62-9.35,2.29,6.33-2.8,11.4-3.13,17.27,4,.65,7.8,3.41,12.15,1,2.24-1.23,4.73-2,6-5.71,1.84,6.14-3.09,6.65-5.1,8.83a6.8,6.8,0,0,1-8.71,1.08,36.82,36.82,0,0,1-4.39-2.72,9.42,9.42,0,0,1-2.14-2.3A11.26,11.26,0,0,1,174.09,203.67Zm31.11,25.15c-4.12,6.77-9.53,11.3-18,11.6a39,39,0,0,1-5.44-.15c-7.58-.75-13.84-4-18.08-11.42-1.57-1.09-3.15-2.16-4.69-3.29-.17-.13-.08-.61-.1-.92a1.76,1.76,0,0,1,1.92-.23,9.26,9.26,0,0,1,.86.48l.28.17a2.2,2.2,0,0,0,1.81.4,72,72,0,0,1,9.58-3l.93-.22c1.54-.34,3.08-.62,4.62-.82a45.63,45.63,0,0,1,7.56-.4,42.88,42.88,0,0,1,5,.45,42.24,42.24,0,0,1,12.6,4c2.68-.29,4.66-1.84,6.71-3.61C211.31,226.12,207.39,226.8,205.2,228.82Z"/><path class="cls-10" d="M215.85,122.23q1.34,2,2.82,3.9Q217.19,124.26,215.85,122.23Z"/><path class="cls-10" d="M221,128.9c.52.57,1.06,1.14,1.6,1.69C222.1,130,221.56,129.47,221,128.9Z"/><path class="cls-10" d="M235.06,140.48a74.56,74.56,0,0,1-6.46-4.56,74.56,74.56,0,0,0,6.46,4.56Z"/><path class="cls-10" d="M225.13,133l.35.31Z"/><path class="cls-10" d="M203.31,287.07c-6.33-1.67-7.31-5.4-7.49-10.55,0-.53,0-1.06-.08-1.59-.28-3.65.62-8.08-1.81-10.63-2.07-2.18-6.06,0-9.14.34-4.27.48-9.69-3.46-12.34.3-2.36,3.35-1.69,8.82-2.35,13.35a5.72,5.72,0,0,0-.12,1.59c.44,3.25-1.32,4.74-4.14,5.78-9,3.29-18.07,6-27.63,6.95l-1.52.67-1.59,0c1.2,9.16,2.31,18.33,3.67,27.46.27,1.75.86,3.07-1.51,3.41,0,.35-.06.7-.08,1.05s0,.63,0,.95c2.15.74,4.31,1.48,6.46,2.24,12.67,4.43,25.09,9.31,34.25,19.81a3.35,3.35,0,0,0,2.75,1.29c.27-7.88-4.39-13.8-8.22-20.16,3.71.63,4.58,1.3,7.32,6.8,1.76,3.53,3.05,5.29,5.28.26,1-2.29,2.41-4.71,5.91-5.77-1.74,6.53-6.24,11.51-7,17.84,6.83-6.09,13.67-12,22.16-16,6.59-3.1,13.67-4.45,20.28-7.24-.15-9.09,2-17.81,4.25-26.52,0-1.94,0-3.87,0-5.81A225,225,0,0,1,203.31,287.07Z"/><path class="cls-8" d="M144.73,209.4c6.06-4.34,5.2-9.76,5.18-15.4,0-2.86,1.29-3.54,3.85-3.62,1.75,0,4.46,1.23,5.13-1.06.75-2.57-3.33-.09-3.54-2.44,0-.18-.07-.35-.1-.52a13.6,13.6,0,0,1-2.28.77,4.56,4.56,0,0,1-2.08,0l-7.37-.69-2-.19a6.23,6.23,0,0,1-.41,2.16c-.13.34-.27.53-.37.43-2-2.06-7.29,0-6.64-5.25-1.3-3.31-6.05-4.57-5.37-9.06h0c-1.38-.11-1.77-.74-1.86-1.51a5.48,5.48,0,0,1,0-.91c0-.21,0-.42,0-.62a2.73,2.73,0,0,0-.12-.87h0c-.25,0-.52.1-.79.16l-.47.12-.73.18-.64.12a1.91,1.91,0,0,1-1.26-.15c-4.34-2.71-4.09.29-4.3,3.09A35,35,0,0,0,121,189.23a41.77,41.77,0,0,1,2.44,20.31c1,2.51,1.21,5.32,3,7.51,1-.35,2-1,3-1C135.57,216.22,139.86,212.9,144.73,209.4Z"/><path class="cls-8" d="M124.7,171.1l.73-.18Z"/><path class="cls-8" d="M126.69,170.64c-.25,0-.52.1-.79.16.27-.06.54-.12.79-.16Z"/><path class="cls-11" d="M137.18,325.24c0-.35,0-.7.08-1.05a65,65,0,0,1-2.3-19.37,4.17,4.17,0,0,0-.37-2.53c-2.23-2.77-2.47-6-2.35-9.3.11-1.52.7-3.55-1.49-3.75a3.93,3.93,0,0,0-4.23,3,11.49,11.49,0,0,0,0,3.1c-1,4.67,2,8.71,2.16,13.16.21,5.61,0,11.25,0,16.88h0l1,2.05c2.31.21,4.37-.78,6.5-1.39l1-.82Z"/><path class="cls-11" d="M137.18,325.24h0c0-.35,0-.7.08-1.05,0,.35-.06.7-.08,1.05Z"/><path class="cls-12" d="M134.59,302.29a4.17,4.17,0,0,1,.37,2.53,65,65,0,0,0,2.3,19.37c2.37-.34,1.78-1.66,1.51-3.41-1.36-9.13-2.47-18.3-3.67-27.46l-2.86-.33C132.12,296.32,132.36,299.52,134.59,302.29Z"/><path class="cls-13" d="M244.3,211.61l1-5.2-1.88,1.08c-.34.36-.69.72-1,1.09l-.06,2c-.8,1.68-.58,3.77-1.31,5.48a4.2,4.2,0,0,1-1.76,2h0a10.5,10.5,0,0,1-.63,4.18,8.53,8.53,0,0,1-.63,1.29,38,38,0,0,0-4.26,10.29c2.91-1.4,4-4.23,5.25-6.88,1.68-3.6,2.05-7.72,4.39-11.06.19-1,.37-2,.56-2.94C244.05,212.52,244.18,212.06,244.3,211.61Z"/><path class="cls-13" d="M243.93,213l.37-1.37,1-5.2-1,5.2C244.18,212.06,244.05,212.52,243.93,213Z"/><path class="cls-13" d="M238.62,222.28a10.5,10.5,0,0,0,.63-4.18h0A10.5,10.5,0,0,1,238.62,222.28Z"/><path class="cls-11" d="M236.86,294.35a2.39,2.39,0,0,1-1.92-.58,5.43,5.43,0,0,1-.74-.84l-.2-.27c-.19-.27-.38-.54-.59-.79l-.08-.1a3.73,3.73,0,0,0-.45-.44h0l-2.21,1.6c0,1.94,0,3.87,0,5.81,2.43.38,1.36,4.43,4.39,4.19a9.91,9.91,0,0,1,.51-1.57C236.42,299.12,237.77,297,236.86,294.35Z"/><path class="cls-11" d="M235.53,301.36c.89-2.24,2.24-4.39,1.33-7h0C237.77,297,236.42,299.12,235.53,301.36Z"/><path class="cls-11" d="M234.2,292.93a5.43,5.43,0,0,0,.74.84A5.43,5.43,0,0,1,234.2,292.93Z"/><path class="cls-11" d="M233.41,291.87c.21.25.4.52.59.79C233.81,292.39,233.62,292.12,233.41,291.87Z"/><path class="cls-11" d="M233.33,291.77a3.73,3.73,0,0,0-.45-.44h0A3.73,3.73,0,0,1,233.33,291.77Z"/><path class="cls-7" d="M128.66,325.4c-1.54-.73-1.42-3.41-4.19-3.22l2.9,12.05c4.23-1.07,2-4.37,2.33-6.78l-1-2.05Z"/><path class="cls-7" d="M128.66,325.4h0l1,2.05-1-2.05Z"/><path class="cls-9" d="M225.72,330.48c-10.46,2.59-20.74,5.6-28.92,13.19,9.92.67,17.67-5.56,26.6-8.24-9,7-17.72,14.54-29.91,15.31-10.85,3.61-21.43,1.83-31.94-1.51-4.45,1.09-6.94-2.67-10.28-4.26s-6.5-3.34-8.73-6.94c4,1.51,8,3.44,12.13,4.38,3.05.69,6.53,4.73,9.6-.15-7.61-4.51-15.85-7.52-24.09-10.65-4.5-1.71-6.34,0-8,3.8A70.13,70.13,0,0,0,127,351.64a180.61,180.61,0,0,0,109.46-1.29c-1.27-6.28-4.12-12.24-6.75-18.25C229,330.27,227.3,330.09,225.72,330.48Z"/><path class="cls-14" d="M196.8,343.67c-2.8,1.57-5.79,3-3.31,7.07,12.19-.77,20.89-8.31,29.91-15.31C214.47,338.11,206.72,344.34,196.8,343.67Z"/><path class="cls-14" d="M154.67,342.41c-4.16-.94-8.1-2.87-12.13-4.38,2.23,3.6,5.46,5.38,8.73,6.94s5.83,5.35,10.28,4.26a5.39,5.39,0,0,0-1.45-1.73h0a1.82,1.82,0,0,1-.37-.15l-.52-.21a3.35,3.35,0,0,1,.23-.36s0,0,0,0a2.23,2.23,0,0,1,.85.36.92.92,0,0,1,.14.15c3.76-.37,6.83,2.28,10.21.75-1-3.45-4.14-4.11-6.39-5.76C161.2,347.14,157.72,343.1,154.67,342.41Z"/><path class="cls-8" d="M185.07,336.43c-2.23,5-3.52,3.27-5.28-.26-2.74-5.5-3.61-6.17-7.32-6.8,3.83,6.36,8.49,12.28,8.22,20.16,1.22.08,2.47.29,3.25-1,.8-6.33,5.3-11.31,7-17.84C187.48,331.72,186.09,334.14,185.07,336.43Z"/><path class="cls-5" d="M235.8,331.56c0,3.05-.86,6.41,2.93,8.09-.59-4.8.61-9.47,1.35-14.73C236.64,326.4,237.29,329.65,235.8,331.56Z"/><path class="cls-9" d="M231.8,321.46a2.5,2.5,0,0,0-2.4,0c-1.83,1.5-.56,3.14.14,4.71l2.12-.05C232.4,324.58,233.63,323,231.8,321.46Z"/><path class="cls-12" d="M136.2,326.06a2.28,2.28,0,0,0,1,.13c0-.32,0-.64,0-.95Z"/><path class="cls-12" d="M137.18,325.24c0,.31,0,.63,0,.95,0-.32,0-.64,0-.95Z"/><path class="cls-7" d="M143.57,87.27c-3,6.7-4.49,14-8.18,20.51-.8,1.42-3.4,2.67-1.84,4.33s2.77-1.46,4.47-1.54a9.35,9.35,0,0,1,1.25.15c-.09,5.2-3.72,8.8-5.55,13.31,6.81-4.65,10.68-11.43,12.67-19.09,2.29-8.84,3.87-17.82,14.12-21.71-4.6-2.57-7.62,1-11.07,1.68-.45-2.28,2.47-2.39,1.89-4.59C146.27,79.86,145.07,84,143.57,87.27Z"/><path class="cls-6" d="M74.82,241.87c2.46,6.33,6.59,12,7,19.24,2.68-3.91,2.54-7.77,1.63-12-1.49-6.91-4.09-13.84-.4-21,2-3.8,3.61-7.77,5.36-12-1.33.8-2.73,1.49-4,2.41C75,225.52,71.45,233.19,74.82,241.87Z"/><path class="cls-7" d="M104,147.7c.81,2.27-2.27,4.76.28,6,1.88.92,2-2.42,3.6-3.2a5,5,0,0,0,1.74-1.18c2.47-3.27,6.74-4.56,10.27-8.52-4.7-.14-6.56,3.34-10.93,3.8,5.62-4.85-4-5.87-1.13-10a5.86,5.86,0,0,0-2,.13c-4.56,1.93-9,11.34-7.94,17.34C99.8,150.28,100.43,146.92,104,147.7Z"/><path class="cls-7" d="M78.79,307.74c-2.41,4.86-7.27,8.57-7,15.64,3.65-4.22,7-7.69,9.88-11.54,5.2-7,4.36-13.58-2.93-20.7C79.69,297.23,81.29,302.71,78.79,307.74Z"/><path class="cls-7" d="M98.62,229.31C88.88,237,90,259.52,100.52,265,94.44,253.09,93.89,241.36,98.62,229.31Z"/><path class="cls-7" d="M130.36,87.31a32.65,32.65,0,0,0,6.78-9.92,16.43,16.43,0,0,1,10-9.36c1.9-.66,3.69-1.62,5.54-2.45-6.79-.91-12.49.85-16.22,6.41-3,4.49-5.63,9.24-8.35,13.92a2.06,2.06,0,0,0,0,1.89C129,88.71,129.77,87.89,130.36,87.31Z"/><path class="cls-7" d="M296.93,291.8c2.4-.54,1.33-3.46,2.83-3.69,3.35,3.7,0,8.27,1.85,12.77,2.45-3.26,2.78-6.61,2.93-9.56a37.18,37.18,0,0,0-1.11-11.73,25,25,0,0,0-8.05-12.65c-.27,3.58,3.33,6.39,2.42,10.11-2.08.4-3.29-2.19-5.13-.85a2,2,0,0,0,0,1.87C295.89,282.06,296.41,286.92,296.93,291.8Z"/><path class="cls-7" d="M295.38,266.85l0,0,0,0Z"/><path class="cls-7" d="M295.34,266.9h0l0,0h0Z"/><path class="cls-7" d="M253.56,135.89c-.11-.15-.62,0-1.14,0-.6,1.42,1.41,3.1-.37,4.45-2.31-.11-4.18-2.77-7.39-1.29,6.05,6.35,12.81,11.92,16,20.19,2.85-1.74-.73-4.71,1.65-5.37,3.76-1,2-2.82,1-4.37C260.17,144.88,256.85,140.39,253.56,135.89Z"/><path class="cls-7" d="M253.55,103c-.34,0-1-.1-1,0-1.71,5-5.55.34-8.61,2.2,6.54,3.5,12.41,7.23,17.14,12.49,1.58,1.76,2.41,5.83,4.47,5.07,2.83-1-.11-4.23,0-6.54C265.64,111.72,257.84,103.49,253.55,103Z"/><path class="cls-6" d="M290.53,307.75c-1.14-10.46-10.83-17.64-10.74-28.56C274.33,293,277.69,301.63,290.53,307.75Z"/><path class="cls-7" d="M257.55,100a3.22,3.22,0,0,0,.6.42c.65.34,1.43.53,2.12.82C254.08,90.39,246.33,81,235.5,74.5,242.36,83.45,249.4,92.22,257.55,100Z"/><path class="cls-7" d="M260.36,101.28h0l-.09,0h0Z"/><path class="cls-7" d="M260.32,101.32l0,0h0l-.09,0Z"/><path class="cls-7" d="M261.07,102.39c-.22-.3-.43-.61-.65-.92a1.71,1.71,0,0,1,0,.38C260.35,102.2,260.34,102.54,261.07,102.39Z"/><path class="cls-7" d="M260.32,101.32l.1.15a.39.39,0,0,0-.06-.19h0Z"/><path class="cls-7" d="M260.42,101.47h0a.39.39,0,0,0-.06-.19h0A.39.39,0,0,1,260.42,101.47Z"/><path class="cls-7" d="M260.32,101.32l0,0Z"/><path class="cls-7" d="M294.94,266.62l.4.28h0Z"/><path class="cls-7" d="M294.94,266.62l.4.28h0l0,0Z"/><path class="cls-8" d="M241.3,185.84a2,2,0,0,1-.8.38,2.26,2.26,0,0,1-2.43-1.12,2,2,0,0,1-1.07-1.65c-.06-.23-.11-.45-.18-.66l-7.15,3.31a6.66,6.66,0,0,0-4.26,1.31c-.43.26-.85.54-1.29.79.59,2.49,1.73,4.72,1.93,7.34a10.17,10.17,0,0,1-.16,2.77c-.78,3.92,4.4,8.76,8.9,9.05,3.06.2,4.36,3.79,7.53,3.25l.06-2c-.6-.39-1.18-.94-.56-1.59s1.18-.1,1.59.5l1.88-1.08c.13-.6.27-1.19.41-1.79q-.1-7.92-.2-15.85C245.46,185.88,246,182.21,241.3,185.84Z"/><path class="cls-8" d="M209.79,153.06c.28,1.51-1.32,1.07-2.22,1.36-2.81.9-4.62,1.57-5.6,2.43a2.72,2.72,0,0,0-.72.94c-.61,1.38.13,3.36,1.76,7a5.55,5.55,0,0,1,.91,0h0c.35-.4.71-.8,1.06-1.21h0A27.91,27.91,0,0,1,216.45,158c1.36-.34,2.76-.62,4.18-.86.94-.16,1.9-.3,2.86-.44l2.92-.37c3.58-.43,7.26,3.28,10.49-.38.41-.17.87-.55,1.22-.47.59.12.69.6.16,1h0l-.2,1.1a1.28,1.28,0,0,1-.05,1l0,0c1.54-.09,4.75-2.85,3.2,2l1-.08,1.26-.73A11.57,11.57,0,0,0,244.9,158a4.62,4.62,0,0,0,.58-1.48,2.8,2.8,0,0,0,.05-.48,2.53,2.53,0,0,0-.16-.91c-.39-1-1.47-1.94-3.29-2.83-8.45-4.09-17.28-4.45-26.29-2.13-.09.73,2.33,1.41.31,2-1.51.44-3.52.66-4.79-1.09h0a9.85,9.85,0,0,0-1.54,0l-.69.09a4.92,4.92,0,0,0-1.05.33l-.15.08-.35.18a4.71,4.71,0,0,0-.48.34h0C208,152.36,209.57,151.94,209.79,153.06Z"/><path class="cls-8" d="M223.49,156.65c-1,.14-1.92.28-2.86.44C221.57,156.93,222.53,156.79,223.49,156.65Z"/><path class="cls-8" d="M238.28,156.48c-.07.36-.13.73-.2,1.1l.2-1.1Z"/><path class="cls-8" d="M205,163.59h0A27.91,27.91,0,0,1,216.45,158,27.91,27.91,0,0,0,205,163.59Z"/><path class="cls-8" d="M241.25,160.64l1-.08-1,.08Z"/><path class="cls-8" d="M207.88,151.57l.15-.08Z"/><path class="cls-8" d="M211.31,151.05h0a9.85,9.85,0,0,0-1.54,0A9.85,9.85,0,0,1,211.31,151.05Z"/><path class="cls-8" d="M245.37,155.12a2.53,2.53,0,0,1,.16.91A2.53,2.53,0,0,0,245.37,155.12Z"/><path class="cls-8" d="M207.53,151.75a4.71,4.71,0,0,0-.48.34h0A4.71,4.71,0,0,1,207.53,151.75Z"/><path class="cls-8" d="M245.48,156.51a4.62,4.62,0,0,1-.58,1.48A4.62,4.62,0,0,0,245.48,156.51Z"/><polygon class="cls-8" points="238.03 158.61 238.05 158.64 238.03 158.61 238.03 158.61"/><polygon class="cls-8" points="203.92 164.78 203.92 164.78 203.92 164.78 203.92 164.78"/><path class="cls-8" d="M201.25,157.79a2.72,2.72,0,0,1,.72-.94A2.72,2.72,0,0,0,201.25,157.79Z"/><path class="cls-8" d="M142.44,151.7c-.36,2.05.93,3.74,1.25,5.64a1,1,0,0,0,.42.06.92.92,0,0,0,.42-.1,11.77,11.77,0,0,1,.11-1.66,3.21,3.21,0,0,1,.3-1,1.56,1.56,0,0,1,.28-.38,1.44,1.44,0,0,1,.91-.38c1.62-.12,1.88,1.67,1.84,3.13,5.19,1.43,10.64,2.16,15.16,5.46a17.35,17.35,0,0,0,3.11-3.78c.59-1.43-.78-2.13-4.42-4-1.28-.65-3.28-.22-3.37-2.47a.45.45,0,0,0-.66-.14c-2.94-.67-6.63,2.16-8.85-1.9l-5-.33-1.27.16C142.58,150.61,142.51,151.16,142.44,151.7Z"/><path class="cls-8" d="M163.13,162.49a17.35,17.35,0,0,0,3.11-3.78,17.35,17.35,0,0,1-3.11,3.78Z"/><polygon class="cls-5" points="213.45 180 213.45 180 213.45 180 213.45 180"/><path class="cls-5" d="M206.71,175.18q1.8,5.77,8.06,8.88h9.4a14.6,14.6,0,0,0,9.17-12.74l-1.53-7.15a2.35,2.35,0,0,0-1.87-1.07,3.35,3.35,0,0,0-1,.13,9.82,9.82,0,0,0-1.07.38,5.39,5.39,0,0,0,.56,1.42c.16.3.34.6.53.9s.3.48.44.72c.86,1.4,1.54,2.85.48,4.74-.37,4.42-2.25,7.61-5,9.27-3,1.85-7.14,1.8-11.44-.67a4.67,4.67,0,0,1-2.06-1.38l-.22-.29a4.15,4.15,0,0,1-.35-.57l0-.06a3.9,3.9,0,0,1-.2-.47,7.37,7.37,0,0,1-.36-1.24c-.06-.32-.11-.64-.15-1-.06-.49-.11-1-.16-1.48a3,3,0,0,1-.72-.34c-1-.65-.81-1.74-.79-2.77a3.54,3.54,0,0,0-.12-1.18h0l-2.3.13A17.36,17.36,0,0,0,206.71,175.18Z"/><path class="cls-5" d="M228.91,163.24a3.35,3.35,0,0,1,1-.13A3.35,3.35,0,0,0,228.91,163.24Z"/><path class="cls-5" d="M208.29,169.25l-2.3.13,2.3-.13Z"/><path class="cls-13" d="M242.41,173.58l-1,3.22c-.17.54-.33,1.08-.5,1.62A9.1,9.1,0,0,1,243,180a3.13,3.13,0,0,1,.32.46,3.57,3.57,0,0,1,.44,1.22,7.8,7.8,0,0,0-5.71,3.47h0a2.26,2.26,0,0,0,2.43,1.12,2,2,0,0,0,.8-.38c4.73-3.63,4.16,0,4.2,2.93q.1,7.92.2,15.85c1.46-2.4,3.14-5.11,2.35-7.79-2.13-7.16-1.09-14.28-.36-21.39.4-3.8-.92-4.78-4.32-4.07,0,.11,0,.21,0,.32A1.9,1.9,0,0,1,242.41,173.58Z"/><path class="cls-13" d="M240.5,186.22a2.26,2.26,0,0,1-2.43-1.12h0A2.26,2.26,0,0,0,240.5,186.22Z"/><path class="cls-5" d="M137.56,166.32a2,2,0,0,1,0,.9c-.29,1.21-1.31,2.68-1.12,3.72a1.07,1.07,0,0,0,.14.39h0c.13.69.27,1.34.43,2,1.07,4.37,2.75,7.14,5.75,8.92a13.5,13.5,0,0,0,2.26,1.07,28.39,28.39,0,0,0,6,1.42l4.2-.77c.5-1.19,3-.47,2.48-2.63-1.43-1.39-2.53.18-3.72.48a14.69,14.69,0,0,1-4.78.51,8.27,8.27,0,0,1-3.66-1.21,14.39,14.39,0,0,1-4.25-4.43,3.71,3.71,0,0,1-1.35-2.4,8,8,0,0,1-.06-1.7c-1.38-3.48.75-6.3,1.77-9.32-.78-1.47-1.62-3-3.56-1.51-3.33,2.52-5,.79-6.26-2.29-.85.12-1.69.27-2,1.27h0v0a2.86,2.86,0,0,1,.49.6,5.2,5.2,0,0,1,.32.62c0,.1.09.19.13.29l.25.63c.11.27.22.53.34.78a5.22,5.22,0,0,0,.43.68,2.32,2.32,0,0,0,.6.52,2.83,2.83,0,0,0,1.94.24C136.54,165.07,137.39,165.57,137.56,166.32Z"/><path class="cls-5" d="M130.71,162.23c0-.1-.09-.19-.13-.29C130.62,162,130.67,162.13,130.71,162.23Z"/><polygon class="cls-5" points="129.77 160.7 129.77 160.71 129.77 160.71 129.77 160.7"/><path class="cls-15" d="M199.5,177.31a7.83,7.83,0,0,0-.21,1.7,7.67,7.67,0,0,0,.05,1.06,7.94,7.94,0,0,0,.13.83,9.79,9.79,0,0,0,1.34.52,16.41,16.41,0,0,1,2.52.91,4.32,4.32,0,0,1,1.85,1.71h0l4.21,1.18c.42.17.83.34,1.25.47a8.08,8.08,0,0,0,3.91.38c.08-.67.15-1.34.22-2q-6.27-3.1-8.06-8.88a17.36,17.36,0,0,1-.72-5.8.85.85,0,0,1-.88-.2c-1.78,2.15-4,4.11-5.08,6.58A9.14,9.14,0,0,0,199.5,177.31Z"/><path class="cls-15" d="M205.18,184h0l4.21,1.18L205.18,184Z"/><path class="cls-9" d="M126.81,171.51c0,.2,0,.41,0,.62a5.48,5.48,0,0,0,0,.91c.09.77.48,1.4,1.86,1.51a4.67,4.67,0,0,0,2.8-.73c.35-.21.69-.44,1-.67l1-.72c.3-.2.61-.38.92-.55a4.65,4.65,0,0,1,2.07-.55h0a1.07,1.07,0,0,1-.14-.39c-.19-1,.83-2.51,1.12-3.72a2,2,0,0,0,0-.9c-.17-.75-1-1.25-3.29-1.24l-7.58,5.56A2.73,2.73,0,0,1,126.81,171.51Z"/><path class="cls-9" d="M126.83,173c.09.77.48,1.4,1.86,1.51h0C127.31,174.44,126.92,173.81,126.83,173Z"/><path class="cls-9" d="M126.81,172.13c0-.21,0-.42,0-.62C126.82,171.71,126.81,171.92,126.81,172.13Z"/><path class="cls-9" d="M137.52,167.22c-.29,1.21-1.31,2.68-1.12,3.72C136.21,169.9,137.23,168.43,137.52,167.22Z"/><polygon class="cls-9" points="136.54 171.33 136.54 171.33 136.54 171.33 136.54 171.33"/><path class="cls-9" d="M137.56,166.32a2,2,0,0,1,0,.9A2,2,0,0,0,137.56,166.32Z"/><polygon class="cls-5" points="203.92 164.78 203.92 164.78 203.92 164.78 203.92 164.78"/><path class="cls-5" d="M203.89,164.84l0-.05a5.55,5.55,0,0,0-.91,0c-2.52,3.24-4.68,6.7-5.48,10.77-.36,1.84-1.28,3.87-.35,5.55a3.51,3.51,0,0,0,.63.8,5.16,5.16,0,0,0,1,.73c.22-.56.43-1.13.65-1.7h0a7.94,7.94,0,0,1-.13-.83,7.67,7.67,0,0,1-.05-1.06,7.83,7.83,0,0,1,.21-1.7,9.14,9.14,0,0,1,.53-1.55c1.12-2.47,3.3-4.43,5.08-6.58l-1.17-4.35Z"/><polygon class="cls-5" points="203.92 164.78 203.92 164.78 203.89 164.84 203.92 164.78 203.92 164.78"/><path class="cls-5" d="M205.11,169.18l-1.17-4.35h0Z"/><path class="cls-5" d="M197.81,181.87a3.51,3.51,0,0,1-.63-.8A3.51,3.51,0,0,0,197.81,181.87Z"/><path class="cls-5" d="M197.81,181.87a5.16,5.16,0,0,0,1,.73h0A5.16,5.16,0,0,1,197.81,181.87Z"/><path class="cls-5" d="M203.93,164.8Z"/><path class="cls-5" d="M203.89,164.84l0,0h0Z"/><path class="cls-5" d="M199.5,177.31a9.14,9.14,0,0,1,.53-1.55A9.14,9.14,0,0,0,199.5,177.31Z"/><path class="cls-5" d="M199.29,179a7.83,7.83,0,0,1,.21-1.7A7.83,7.83,0,0,0,199.29,179Z"/><path class="cls-5" d="M199.47,180.9h0a7.94,7.94,0,0,1-.13-.83A7.94,7.94,0,0,0,199.47,180.9Z"/><path class="cls-16" d="M220.29,166.12a13.1,13.1,0,0,1,4.39,3.77c.41.5.8,1,1.2,1.53.66-.1,1.32-.29,2-.37a3.15,3.15,0,0,1,2,.35c1.06-1.89.38-3.34-.48-4.74-.14-.24-.29-.48-.44-.72s-.37-.6-.53-.9a5.39,5.39,0,0,1-.56-1.42c-.74-.15-1.49-.31-2.23-.44a17.07,17.07,0,0,0-2.23-.24,8.29,8.29,0,0,0-4.41,1Z"/><path class="cls-16" d="M225.61,163.18c.74.13,1.49.29,2.23.44C227.1,163.47,226.35,163.31,225.61,163.18Z"/><path class="cls-16" d="M223.38,162.94a17.07,17.07,0,0,1,2.23.24A17.07,17.07,0,0,0,223.38,162.94Z"/><path class="cls-16" d="M228.93,165.94c.15.24.3.48.44.72C229.23,166.42,229.08,166.18,228.93,165.94Z"/><path class="cls-11" d="M233.34,171.33c.51.08,1.19,0,1.64.13a.72.72,0,0,1,.35.21c2.29,2.78,4.45,3.21,6.67,0l.54-.57a12.79,12.79,0,0,0-2.15-2.55,20.68,20.68,0,0,0-8.58-4.35Z"/><path class="cls-13" d="M134,157.39a2.68,2.68,0,0,0,1.33.85c1.3.31,2.5-.8,3.76-1.17a4.56,4.56,0,0,1-1.6-1.27c-.7-1-.57-2.09.57-3.45a2.48,2.48,0,0,0,.06-1c.91-2.6,3.07-.6,4.51-1.23h0l1.27-.16q-8.32-3.34-13.76,3.08a15.22,15.22,0,0,1,1.39.73A4.73,4.73,0,0,1,134,157.39Z"/><path class="cls-13" d="M142.64,150.07l1.27-.16-1.27.16Z"/><path class="cls-17" d="M131.75,159.44a3.14,3.14,0,0,1,2.26-2.05h0a4.73,4.73,0,0,0-2.47-3.67,15.22,15.22,0,0,0-1.39-.73c-2.83.91-4.17,3.3-5.55,5.63l2.07,2,2.09.53,1-.48C130.06,159.71,130.9,159.56,131.75,159.44Z"/><path class="cls-17" d="M131.54,153.72a4.73,4.73,0,0,1,2.47,3.67h0A4.73,4.73,0,0,0,131.54,153.72Z"/><path class="cls-7" d="M208.41,170.43c0,1-.18,2.12.79,2.77a3,3,0,0,0,.72.34c.62-1,1.05-2.24,2.56-2.2.41-.92.82-1.84,1.22-2.77,0-1.1.07-2.21.11-3.31h0a4.28,4.28,0,0,0-3.68.71,6.24,6.24,0,0,0-1.83,3.28A3.54,3.54,0,0,1,208.41,170.43Z"/><path class="cls-7" d="M213.8,165.26h0a4.3,4.3,0,0,0-3.69.71A4.28,4.28,0,0,1,213.8,165.26Z"/><path class="cls-7" d="M208.41,170.43c0,1-.18,2.12.79,2.77C208.23,172.55,208.39,171.46,208.41,170.43Z"/><path class="cls-9" d="M213.7,168.57c1.7.35,3.35.6,4.66-.08a3,3,0,0,0,.74-.52,2.83,2.83,0,0,0,.34-.35,4.16,4.16,0,0,0,.59-.92,6.29,6.29,0,0,0,.26-.58l-1.32-2.2a5.45,5.45,0,0,0-1.39,0,10.76,10.76,0,0,0-3.77,1.39C213.77,166.36,213.74,167.47,213.7,168.57Z"/><path class="cls-9" d="M217.58,163.87a10.76,10.76,0,0,0-3.77,1.39h0A10.76,10.76,0,0,1,217.58,163.87Z"/><path class="cls-5" d="M126.67,160.66l-2.07-2c-3.31.49-2,3.52-2.88,5.34,0,.08.72.83,1.07.8a4.42,4.42,0,0,0,1.6-.41A4.48,4.48,0,0,0,126.67,160.66Z"/><path class="cls-10" d="M157.79,152.14a8.72,8.72,0,0,0-2.09-1,25.78,25.78,0,0,0-6.76-.85C151.16,154.3,154.85,151.47,157.79,152.14Z"/><path class="cls-7" d="M235.06,140.48c-.18,1.46-1.5,1.23-2.41,1.6,1.56.94,3.15,1.82,5.16,1.39a3.09,3.09,0,0,0-.45-1.73,2.44,2.44,0,0,0-.72-.71,4.41,4.41,0,0,0-1.58-.55Z"/><path class="cls-7" d="M235.06,140.48a4.41,4.41,0,0,1,1.58.55,4.41,4.41,0,0,0-1.58-.55Z"/><path class="cls-7" d="M237.36,141.74a2.44,2.44,0,0,0-.72-.71A2.44,2.44,0,0,1,237.36,141.74Z"/><path class="cls-10" d="M211.31,151.05c1.27,1.75,3.28,1.53,4.79,1.09,2-.57-.4-1.25-.31-2l-3.3.51-1.09.36Z"/><path class="cls-18" d="M241.25,160.64c1.55-4.85-1.66-2.09-3.2-2a3.71,3.71,0,0,0,.57.88,3.05,3.05,0,0,0,1.38.9,4.09,4.09,0,0,0,1.25.22Z"/><path class="cls-18" d="M241.25,160.64a4.09,4.09,0,0,1-1.25-.22,4.09,4.09,0,0,0,1.25.22Z"/><path class="cls-7" d="M225.87,142a5.24,5.24,0,0,0-2.64.75c.37.06.74.11,1.1.14a6.79,6.79,0,0,0,1.1,0,4.06,4.06,0,0,0,2.1-.67A5.79,5.79,0,0,0,225.87,142Z"/><path class="cls-7" d="M227.53,142.24a5.74,5.74,0,0,0-1.66-.26,5.79,5.79,0,0,1,1.66.26Z"/><path class="cls-11" d="M242.41,173.58a1.9,1.9,0,0,0,1-1.89c0-.11,0-.21,0-.32a.8.8,0,0,0-.83-.29l-.54.57C242.14,172.29,242.27,172.94,242.41,173.58Z"/><path class="cls-18" d="M238.12,155.43c-.35-.08-.81.3-1.22.47l1.38.58C238.81,156,238.71,155.55,238.12,155.43Z"/><path class="cls-5" d="M203.93,164.8v0a1.42,1.42,0,0,0,.75-.39,1.4,1.4,0,0,0,.3-.85C204.64,164,204.28,164.4,203.93,164.8Z"/><path class="cls-5" d="M204.69,164.44a1.4,1.4,0,0,0,.3-.85h0A1.4,1.4,0,0,1,204.69,164.44Z"/><path class="cls-5" d="M203.93,164.8v0h0v0Z"/><path class="cls-5" d="M203.94,164.83v0l0,0Z"/><path class="cls-5" d="M129.76,160.71h0l-1,.48c.38.24.63.22.79,0a1.16,1.16,0,0,0,.22-.5Z"/><polygon class="cls-5" points="129.77 160.72 129.77 160.72 129.77 160.72 129.77 160.72 129.77 160.72"/><path class="cls-5" d="M129.55,161.22a1.16,1.16,0,0,0,.22-.5h0A1.16,1.16,0,0,1,129.55,161.22Z"/><polygon class="cls-5" points="129.76 160.71 129.76 160.71 129.77 160.72 129.77 160.72 129.76 160.71 129.76 160.71"/><path class="cls-5" d="M129.77,160.72h0v0h0Z"/><path class="cls-5" d="M129.76,160.71h0v0Z"/><polygon class="cls-5" points="129.77 160.71 129.77 160.71 129.77 160.71 129.77 160.71"/><polygon class="cls-5" points="129.77 160.71 129.77 160.71 129.76 160.71 129.77 160.71"/><polygon class="cls-5" points="129.76 160.71 129.77 160.71 129.77 160.71 129.77 160.71 129.76 160.71 129.76 160.71"/><path class="cls-18" d="M238,158.61h0a1.28,1.28,0,0,0,.05-1,1.81,1.81,0,0,0-.58.36.25.25,0,0,0-.08.25C237.47,158.32,237.65,158.46,238,158.61Z"/><path class="cls-18" d="M238,158.61c-.38-.15-.56-.29-.61-.42.05.13.23.27.61.42Z"/><path class="cls-9" d="M232.76,306.16c-2,1-3.31,3-2.86,4.94.58,2.49,3.12,1.1,4.83,1.33C235.13,310,233.61,308.19,232.76,306.16Z"/><path class="cls-9" d="M231.28,314.78c-1.34,0-2.45.6-2.36,2.13.07,1.19,1,1.72,2.17,1.9,1.33-.12,2.4-.68,2.32-2.19A2,2,0,0,0,231.28,314.78Z"/><path class="cls-8" d="M235.45,316.58c-.17.27-.48.54-.49.82,0,.48,0,1.28.25,1.39.67.3.57-.43.75-1C235.82,317.48,235.64,317,235.45,316.58Z"/><path class="cls-12" d="M234.79,207.36c-4.5-.29-9.68-5.13-8.9-9.05a10.17,10.17,0,0,0,.16-2.77c-.2-2.62-1.34-4.85-1.93-7.34-1.87-1.94-4.34-1.17-6.63-1.22-.23,0-.47,0-.7,0a5.48,5.48,0,0,1-1.12-.25,4.19,4.19,0,0,1-1.11-.61,8.1,8.1,0,0,1-3.92-.38c-.42-.13-.83-.3-1.25-.47-1.85,3.05-5.33-.61-7.82,2.17,4.49.4,7.94,3.15,12.21,3.07,1.87,0,3.29.64,3,2.68-.46,2.82.92,5.34.68,8.24-.8,9.79,5.82,16.53,15.08,15.45.33,0,.64-.06,1-.08a10.7,10.7,0,0,1,2,.12,11.28,11.28,0,0,1,1.53.34,14.43,14.43,0,0,1,1.39.5l.09,0,.79.35a4.2,4.2,0,0,0,1.76-2c.73-1.71.51-3.8,1.31-5.48C239.15,211.15,237.85,207.56,234.79,207.36Z"/><path class="cls-12" d="M235.45,216.87a10.7,10.7,0,0,0-2-.12A10.7,10.7,0,0,1,235.45,216.87Z"/><path class="cls-12" d="M239.25,218.1h0l-.79-.35Z"/><path class="cls-12" d="M238.37,217.71a14.43,14.43,0,0,0-1.39-.5A14.43,14.43,0,0,1,238.37,217.71Z"/><path class="cls-6" d="M163.31,162.52h0l-.17,0h0c-4.52-3.3-10-4-15.16-5.46a4.52,4.52,0,0,0-3.44.27.92.92,0,0,1-.42.1,1,1,0,0,1-.42-.06c-1.54.14-3.1.4-4.59-.27-1.26.37-2.46,1.48-3.76,1.17a2.68,2.68,0,0,1-1.33-.85,3.14,3.14,0,0,0-2.26,2.05c1.23,3.08,2.93,4.81,6.26,2.29,1.94-1.45,2.78,0,3.56,1.51l.54-.05.55-.09c.28,0,.55-.1.82-.13l.27,0a2.06,2.06,0,0,1,2,1l4.26-.18c5.68-1,10,1.26,11,5.69h.07l.36-.06h0l2.31-.16,0,0a2.38,2.38,0,0,1,.74-1.58,5.11,5.11,0,0,1,2.55-.87c-.16-.69-.32-1.38-.49-2.07C164.89,164.84,164.21,163.5,163.31,162.52Z"/><polygon class="cls-6" points="163.13 162.49 163.3 162.52 163.31 162.52 163.31 162.52 163.13 162.49 163.13 162.49 163.13 162.49"/><path class="cls-6" d="M134,157.39h0a2.68,2.68,0,0,0,1.33.85A2.68,2.68,0,0,1,134,157.39Z"/><path class="cls-13" d="M195.75,234.48a32.86,32.86,0,0,1-4.29,1.08c-7.56,1.63-15.3.93-22.24-3.28a4.24,4.24,0,0,1-2.26-3.35l-3.25-.08c4.24,7.46,10.5,10.67,18.08,11.42a39,39,0,0,0,5.44.15c8.44-.3,13.85-4.83,18-11.6l-4.25,0C200.35,232.1,198.17,233.62,195.75,234.48Z"/><path class="cls-7" d="M204.12,225.51c-.65.24-1.34.73-2,.66-11.84-1.31-23.65,1-35.48.2-1-.07-2.12,0-2.89-.91a2.2,2.2,0,0,1-1.81-.4l-.28-.17a9.26,9.26,0,0,0-.86-.48,1.76,1.76,0,0,0-1.92.23c0,.31-.07.79.1.92,1.54,1.13,3.12,2.2,4.69,3.29l3.25.08c4.69-.37,9.4-.6,13.91,1.06,3.19,1.17,6.2.35,9.2-.51a29.58,29.58,0,0,1,10.88-.69l4.25,0c2.19-2,6.11-2.7,5.63-6.92C208.78,223.67,206.8,225.22,204.12,225.51Z"/><path class="cls-8" d="M166.68,226.37c11.83.84,23.64-1.51,35.48-.2.62.07,1.31-.42,2-.66a42.24,42.24,0,0,0-12.6-4,42.88,42.88,0,0,0-5-.45,45.63,45.63,0,0,0-7.56.4c-1.54.2-3.08.48-4.62.82l-.93.22a72,72,0,0,0-9.58,3C164.56,226.36,165.64,226.3,166.68,226.37Z"/><path class="cls-8" d="M173.37,222.45l.93-.22Z"/><path class="cls-15" d="M170.44,177.85a8.79,8.79,0,0,0-.53-1.57,12,12,0,0,0-.62-1.17c-1-1.81-2.5-3.48-3.51-5.3l0-.18,0-.14-.83-.49-1.12.2,0,0a10.89,10.89,0,0,1,.14,2.47.37.37,0,0,0,0,.11,9.08,9.08,0,0,1-.48,2.29,8.73,8.73,0,0,1-.7,1.53c-.07.36-.1.77-.16,1.15a1.25,1.25,0,0,1-.65,1.08,2,2,0,0,1-1.12,0h0c.24.66.19,1-.14,1.15a1.61,1.61,0,0,1-.89-.11l0,0c.21.63.17,1-.12,1.13a.54.54,0,0,1-.27,0,2.23,2.23,0,0,1-.66-.14h0c.21.6.18,1-.08,1.11a.62.62,0,0,1-.26.07h0l-.3,0a3.34,3.34,0,0,1-.36-.1l.05.26c.54,2.16-2,1.44-2.48,2.63.05.55.09,1.1.13,1.65l2.15-.29c1.08-1.61,2.7-1.1,4.2-1.06,1.9-1.38,4.23-.79,6.37-1.13a5,5,0,0,0,2-.75A7.23,7.23,0,0,0,170.44,177.85Z"/><path class="cls-18" d="M176.5,210.79a36.82,36.82,0,0,0,4.39,2.72,6.8,6.8,0,0,0,8.71-1.08c2-2.18,6.94-2.69,5.1-8.83-1.29,3.71-3.78,4.48-6,5.71-4.35,2.41-8.14-.35-12.15-1l-2.17.18A9.42,9.42,0,0,0,176.5,210.79Z"/><path class="cls-11" d="M174.36,208.49l2.17-.18c.33-5.87,5.42-10.94,3.13-17.27-1.2,3.22-3.33,6.17-4.62,9.35a15,15,0,0,0-.95,3.28A11.26,11.26,0,0,0,174.36,208.49Z"/><path class="cls-7" d="M165.78,169.81h0c1,1.82,2.46,3.49,3.51,5.3a12,12,0,0,1,.62,1.17,8.79,8.79,0,0,1,.53,1.57,7.23,7.23,0,0,1-.41,4.51c1.28-.34,2.78-.13,3.28-2,.89-3.3-2.45-11.19-5.87-13.5A4.2,4.2,0,0,1,165.78,169.81Z"/><path class="cls-7" d="M169.29,175.11c-1-1.81-2.5-3.48-3.51-5.3h0C166.79,171.63,168.24,173.3,169.29,175.11Z"/><path class="cls-17" d="M205.18,184a4.32,4.32,0,0,0-1.85-1.71,16.41,16.41,0,0,0-2.52-.91,9.79,9.79,0,0,1-1.34-.52c-.22.57-.43,1.14-.65,1.7h0a2.88,2.88,0,0,0,1.76,1.46C202,184.46,203.72,183.72,205.18,184Z"/><path class="cls-17" d="M200.58,184.06c1.44.4,3.14-.34,4.6,0h0C203.72,183.72,202,184.46,200.58,184.06Z"/><path class="cls-17" d="M198.82,182.6h0a2.88,2.88,0,0,0,1.76,1.46A2.88,2.88,0,0,1,198.82,182.6Z"/><path class="cls-17" d="M200.81,181.42a16.41,16.41,0,0,1,2.52.91A16.41,16.41,0,0,0,200.81,181.42Z"/><path class="cls-11" d="M155.14,183.94l-4.2.77c0,.81,0,1.63-.05,2.44a4.56,4.56,0,0,0,2.08,0,13.6,13.6,0,0,0,2.28-.77,2.84,2.84,0,0,0,0-.77C155.23,185,155.19,184.49,155.14,183.94Z"/><path class="cls-11" d="M150.89,187.15h0a4.56,4.56,0,0,0,2.08,0A4.56,4.56,0,0,1,150.89,187.15Z"/><path class="cls-8" d="M163.31,162.52c.9,1,1.58,2.32,3.24,2.16a5.91,5.91,0,0,0,0-.85C166.37,162,165.25,161.65,163.31,162.52Z"/><path class="cls-8" d="M166.54,163.83c-.17-1.8-1.29-2.18-3.24-1.31h0C165.25,161.65,166.37,162,166.54,163.83Z"/><path class="cls-11" d="M157.42,185.3a3,3,0,0,0,1,.56,1.94,1.94,0,0,0,.58.06h0c1-.09,1.74-1.08,2.6-1.68C160.12,184.2,158.5,183.69,157.42,185.3Z"/><path class="cls-11" d="M159,185.92h0Z"/><path class="cls-4" d="M164.49,167.62a2.38,2.38,0,0,0-.74,1.58h0l1.12-.2c.66-.47.79-.06.83.49l0,.14,0,.18a4.2,4.2,0,0,0,1.66-2.94l-.4-.12A5.11,5.11,0,0,0,164.49,167.62Z"/><path class="cls-4" d="M164.49,167.62a2.38,2.38,0,0,0-.74,1.58h0A2.38,2.38,0,0,1,164.49,167.62Z"/><path class="cls-4" d="M165.78,169.81l0-.18,0,.18Z"/><path class="cls-15" d="M150.89,187.15c0-.81,0-1.63.05-2.44a28.39,28.39,0,0,1-6-1.42,13.5,13.5,0,0,1-2.26-1.07c-3-1.78-4.68-4.55-5.75-8.92-.16-.63-.3-1.28-.43-2a4.65,4.65,0,0,0-2.07.55c-.31.17-.62.35-.92.55l-1,.72c-.34.23-.68.46-1,.67a4.67,4.67,0,0,1-2.8.73c-.68,4.49,4.07,5.75,5.37,9.06,2.93-.4,5,1.6,7.42,2.66l2,.19,7.37.69Z"/><path class="cls-15" d="M150.89,187.15l-7.37-.69,7.37.69Z"/><path class="cls-15" d="M136.54,171.33h0c.13.69.27,1.34.43,2C136.81,172.67,136.67,172,136.54,171.33Z"/><path class="cls-15" d="M142.72,182.22a13.5,13.5,0,0,0,2.26,1.07A13.5,13.5,0,0,1,142.72,182.22Z"/><path class="cls-15" d="M132.52,173.15l1-.72Z"/><path class="cls-15" d="M131.49,173.82a4.67,4.67,0,0,1-2.8.73h0A4.67,4.67,0,0,0,131.49,173.82Z"/><path class="cls-18" d="M134.06,183.61c-.65,5.21,4.64,3.19,6.64,5.25.1.1.24-.09.37-.43a6.23,6.23,0,0,0,.41-2.16C139.07,185.21,137,183.21,134.06,183.61Z"/><path class="cls-12" d="M241.82,207c-.62.65,0,1.2.56,1.59.34-.37.69-.73,1-1.09C243,206.89,242.44,206.33,241.82,207Z"/><path class="cls-13" d="M159.46,346.76l0,0c0,.06,0,.28.46.55h0a5.17,5.17,0,0,1,.55-.07.92.92,0,0,0-.14-.15A2.23,2.23,0,0,0,159.46,346.76Z"/><path class="cls-13" d="M159.89,347.34c-.19,0-.22,0-.17,0s.24.11.37.15h0l-.2-.16Z"/><path class="cls-13" d="M159.89,347.34h0c-.5-.27-.5-.49-.46-.55a3.35,3.35,0,0,0-.23.36l.52.21C159.67,347.32,159.7,347.3,159.89,347.34Z"/><path class="cls-13" d="M160.1,347.5c.47.15.59,0,.35-.23a5.17,5.17,0,0,0-.55.07Z"/><path class="cls-15" d="M229.67,186.1h0l7.15-3.31a6.05,6.05,0,0,1,4.1-4.37h0l.5-1.62,1-3.22c-.14-.64-.27-1.29-.41-1.93-2.22,3.23-4.38,2.8-6.67,0a.72.72,0,0,0-.35-.21c-.45-.12-1.13-.05-1.64-.13a14.6,14.6,0,0,1-9.17,12.74C225.29,186.67,228.65,183.23,229.67,186.1Z"/><path class="cls-15" d="M229.67,186.1h0l7.15-3.31-7.15,3.31Z"/><path class="cls-15" d="M240.92,178.42c.17-.54.33-1.08.5-1.62l-.5,1.62Z"/><path class="cls-11" d="M215.67,186.68a5.48,5.48,0,0,0,1.12.25c.23,0,.47,0,.7,0,2.29.05,4.77-.72,6.63,1.22h0c.44-.25.86-.53,1.29-.79a6.66,6.66,0,0,1,4.26-1.31c-1-2.87-4.38.57-5.5-2h-9.4l-.21,2A4.19,4.19,0,0,0,215.67,186.68Z"/><path class="cls-11" d="M225.41,187.41a6.66,6.66,0,0,1,4.26-1.31h0A6.66,6.66,0,0,0,225.41,187.41Z"/><path class="cls-11" d="M224.17,184.07h0Z"/><path class="cls-11" d="M217.49,187c2.29.05,4.76-.72,6.63,1.22h0C222.26,186.26,219.78,187,217.49,187Z"/><path class="cls-11" d="M216.79,186.93a5.48,5.48,0,0,1-1.12-.25A5.48,5.48,0,0,0,216.79,186.93Z"/><path class="cls-16" d="M240.92,178.42a6.05,6.05,0,0,0-4.1,4.37c.07.21.12.43.18.66a2,2,0,0,0,1.07,1.65,7.8,7.8,0,0,1,5.71-3.47,3.57,3.57,0,0,0-.44-1.22A3.13,3.13,0,0,0,243,180,9.32,9.32,0,0,0,240.92,178.42Z"/><path class="cls-16" d="M237,183.45a2,2,0,0,0,1.07,1.65h0A2,2,0,0,1,237,183.45Z"/><path class="cls-16" d="M243,180a3.13,3.13,0,0,1,.32.46A3.13,3.13,0,0,0,243,180Z"/><path class="cls-18" d="M143.69,157.34c-.32-1.9-1.61-3.59-1.25-5.64l-1.94.79a2.16,2.16,0,0,0,.17,1.22l0,.07a1.37,1.37,0,0,1,.07.83.69.69,0,0,1-.59.35c-1.28.19-1.7-1.32-2-2.5l-.13-.11c-1.15,1.36-1.28,2.5-.58,3.45a4.56,4.56,0,0,0,1.6,1.27h0C140.59,157.74,142.15,157.48,143.69,157.34Z"/><path class="cls-18" d="M137.5,155.8a4.56,4.56,0,0,0,1.6,1.27h0A4.56,4.56,0,0,1,137.5,155.8Z"/><path class="cls-18" d="M148,157c0-1.46-.22-3.25-1.84-3.13a1.44,1.44,0,0,0-.91.38,1.56,1.56,0,0,0-.28.38,3.21,3.21,0,0,0-.3,1,11.77,11.77,0,0,0-.11,1.66A4.52,4.52,0,0,1,148,157Z"/><path class="cls-10" d="M139.31,152.34l1.19.15,1.94-.79c.07-.54.14-1.09.2-1.63-1.44.63-3.6-1.37-4.51,1.23.39.35.78.7,1.18,1Z"/><path class="cls-11" d="M229.85,171.4a3.15,3.15,0,0,0-2-.35c-.66.08-1.32.27-2,.37a13.23,13.23,0,0,1-1.89,4.41,7.77,7.77,0,0,1-1.31,1.46,6.26,6.26,0,0,1-1.52.94c-2.15.9-4.75.38-7.48-1.69l0,.13h0l0,0c-.07,1.12-.15,2.25-.22,3.38,4.3,2.47,8.4,2.52,11.44.67C227.6,179,229.48,175.82,229.85,171.4Z"/><path class="cls-11" d="M213.45,180h0c4.3,2.47,8.4,2.52,11.44.67C221.85,182.52,217.75,182.47,213.45,180Z"/><polygon class="cls-17" points="213.67 176.62 213.67 176.62 213.67 176.62 213.67 176.62 213.67 176.62"/><path class="cls-17" d="M213.45,180h0c.07-1.13.15-2.26.22-3.38l-1-1.37c-.06-1.3-.11-2.61-.16-3.91-1.51,0-1.94,1.18-2.56,2.2.05.49.1,1,.16,1.48,0,.33.09.65.15,1a7.37,7.37,0,0,0,.36,1.24,3.9,3.9,0,0,0,.2.47l0,.06a4.15,4.15,0,0,0,.35.57l.22.29A4.67,4.67,0,0,0,213.45,180Z"/><path class="cls-17" d="M210.79,177.7a3.9,3.9,0,0,1-.2-.47A3.9,3.9,0,0,0,210.79,177.7Z"/><path class="cls-17" d="M211.17,178.33a4.15,4.15,0,0,1-.35-.57A4.15,4.15,0,0,0,211.17,178.33Z"/><path class="cls-17" d="M213.45,180a4.67,4.67,0,0,1-2.06-1.38,4.67,4.67,0,0,0,2.06,1.38Z"/><path class="cls-17" d="M213.67,176.62l0,0h0l0-.06Z"/><path class="cls-14" d="M158.6,180h0c-.35-1.05,0-1.4,1-1l0,0c-.23-.91-.29-1.66,1-1h0a1.13,1.13,0,0,1-.5-.84,1.26,1.26,0,0,1,.09-.57c.11-.28.28-.56.42-.84l.66-6.23h0l-.36.06H161c-1.51,0-2.81-1.27-4.22-1.91a2.94,2.94,0,0,0-2.5-.13l0,0a4,4,0,0,0-1.09.72,5.7,5.7,0,0,1,2.85,2.3c.61,1.17.4,2.61-.77,4.4-2.14,3.29-6.76,4.09-10.49,1.67l-3.52.13a14.39,14.39,0,0,0,4.25,4.43,8.27,8.27,0,0,0,3.66,1.21,14.69,14.69,0,0,0,4.78-.51c1.19-.3,2.29-1.87,3.72-.48l-.05-.26C157,179.82,157.66,179.77,158.6,180Z"/><path class="cls-14" d="M149.12,182.3a8.27,8.27,0,0,1-3.66-1.21A8.27,8.27,0,0,0,149.12,182.3Z"/><path class="cls-14" d="M161.42,169.39h0l-.36.06.36-.06Z"/><path class="cls-14" d="M160.75,177.87Z"/><path class="cls-7" d="M144.72,169.08c-2.21-2.2-.4-3.62,1-5.13h0a2.06,2.06,0,0,0-2-1l-.27,0c-.27,0-.54.08-.82.13l-.55.09-.54.05c-1,3-3.15,5.84-1.77,9.32l3.45-1.15Z"/><path class="cls-7" d="M142.11,163.19l.55-.09Z"/><path class="cls-7" d="M145.71,164h0a2.06,2.06,0,0,0-2-1A2.06,2.06,0,0,1,145.71,164Z"/><path class="cls-16" d="M141.21,176.66l3.52-.13a6.82,6.82,0,0,1-1.27-3.1c-.11-.66-.16-1.34-.21-2l-3.45,1.15a8,8,0,0,0,.06,1.7A3.71,3.71,0,0,0,141.21,176.66Z"/><path class="cls-4" d="M212.64,175.25l1,1.36v-.07h0c2.73,2.07,5.33,2.59,7.48,1.69a6.26,6.26,0,0,0,1.52-.94,7.77,7.77,0,0,0,1.31-1.46,13.23,13.23,0,0,0,1.89-4.41c-.4-.51-.79-1-1.2-1.53a13.1,13.1,0,0,0-4.39-3.77,6.29,6.29,0,0,1-.26.58,4.16,4.16,0,0,1-.59.92,2.83,2.83,0,0,1-.34.35,3,3,0,0,1-.74.52c-1.31.68-3,.43-4.66.08-.4.93-.81,1.85-1.22,2.77C212.53,172.64,212.58,174,212.64,175.25Z"/><path class="cls-4" d="M218.36,168.49a3,3,0,0,0,.74-.52A3,3,0,0,1,218.36,168.49Z"/><polygon class="cls-4" points="213.71 176.67 213.71 176.67 213.68 176.54 213.68 176.54 213.71 176.67"/><path class="cls-4" d="M213.68,176.54h0v.07h0Z"/><path class="cls-4" d="M213.67,176.61l0,.06,0-.13Z"/><path class="cls-8" d="M138.08,152.35l.13.11,1.09-.12-1.17-1A2.65,2.65,0,0,1,138.08,152.35Z"/><path class="cls-8" d="M139.31,152.34h0c-.4-.34-.79-.69-1.18-1l1.17,1Z"/><path class="cls-7" d="M153.14,168.16h0a4,4,0,0,1,1.09-.72l0,0a2.94,2.94,0,0,1,2.5.13c1.41.64,2.71,1.93,4.22,1.91-1-4.43-5.34-6.67-11-5.69l.84,3.08Z"/><path class="cls-7" d="M153.14,168.16a4,4,0,0,1,1.09-.72,4,4,0,0,0-1.09.72Z"/><path class="cls-7" d="M154.27,167.42a2.94,2.94,0,0,1,2.5.13A2.94,2.94,0,0,0,154.27,167.42Z"/><path class="cls-9" d="M144.72,169.08c2.22-.23,4.43-.46,6.09-2.23l-.84-3.08-4.26.18C144.32,165.46,142.51,166.88,144.72,169.08Z"/><path class="cls-9" d="M150,163.77l-4.26.18h0Z"/><path class="cls-4" d="M160.76,175.62h1.92a8.73,8.73,0,0,0,.7-1.53,9.08,9.08,0,0,0,.48-2.29.37.37,0,0,1,0-.11,10.89,10.89,0,0,0-.14-2.47h0l-2.31.16Z"/><path class="cls-4" d="M161.42,169.39l2.31-.16-2.31.16Z"/><path class="cls-4" d="M163.87,171.7a10.89,10.89,0,0,0-.14-2.47h0A10.89,10.89,0,0,1,163.87,171.7Z"/><path class="cls-4" d="M163.86,171.81a9.08,9.08,0,0,1-.48,2.29A9.08,9.08,0,0,0,163.86,171.81Z"/><path class="cls-4" d="M161.42,169.39l-.66,6.23.66-6.23Z"/><polygon class="cls-4" points="161.42 169.39 161.42 169.39 161.42 169.39 161.42 169.39 161.42 169.39"/><path class="cls-8" d="M169.22,232.28c6.94,4.21,14.68,4.91,22.24,3.28a32.86,32.86,0,0,0,4.29-1.08c2.42-.86,4.6-2.38,5.2-5.69a29.58,29.58,0,0,0-10.88.69c-3,.86-6,1.68-9.2.51-4.51-1.66-9.22-1.43-13.91-1.06A4.24,4.24,0,0,0,169.22,232.28Z"/><path class="cls-5" d="M160.76,175.62c-.14.28-.31.56-.42.84a1.26,1.26,0,0,0-.09.57,1.13,1.13,0,0,0,.5.84,2,2,0,0,0,1.12,0,1.25,1.25,0,0,0,.65-1.08c.06-.38.09-.79.16-1.15h-1.92Z"/><path class="cls-5" d="M162.52,176.78c.06-.38.09-.79.16-1.15h0C162.61,176,162.58,176.4,162.52,176.78Z"/><path class="cls-5" d="M160.25,177a1.26,1.26,0,0,1,.09-.57A1.26,1.26,0,0,0,160.25,177Z"/><path class="cls-5" d="M160.71,177.89c-1.32-.62-1.26.13-1,1a1.61,1.61,0,0,0,.89.11C160.9,178.93,161,178.55,160.71,177.89Z"/><path class="cls-5" d="M159.66,179c-1-.36-1.4,0-1,1a2.23,2.23,0,0,0,.66.14.54.54,0,0,0,.27,0C159.83,180,159.87,179.58,159.66,179Z"/><path class="cls-5" d="M159.54,180.08a.54.54,0,0,1-.27,0A.54.54,0,0,0,159.54,180.08Z"/><path class="cls-5" d="M158.6,180c-.94-.23-1.58-.18-1,1.05a3.34,3.34,0,0,0,.36.1l.3,0h0a.62.62,0,0,0,.26-.07C158.78,181,158.81,180.6,158.6,180Z"/><path class="cls-5" d="M158.23,181.18l-.3,0Z"/><path class="cls-5" d="M158.52,181.11a.62.62,0,0,1-.26.07A.62.62,0,0,0,158.52,181.11Z"/><path class="cls-6" d="M164.87,169l.83.49C165.66,168.94,165.53,168.53,164.87,169Z"/><path class="cls-13" d="M140.5,152.49l-1.2-.15h0l-1.09.12c.26,1.18.68,2.69,2,2.5a.69.69,0,0,0,.59-.35,1.37,1.37,0,0,0-.07-.83l0-.07A2.16,2.16,0,0,1,140.5,152.49Z"/><path class="cls-13" d="M140.67,153.71l0,.07Z"/><path class="cls-13" d="M139.3,152.34l1.2.15-1.19-.15Z"/><path class="cls-13" d="M139.3,152.34l-1.09.12,1.09-.12Z"/><polygon class="cls-13" points="139.31 152.34 139.31 152.34 139.3 152.34 139.3 152.34 139.31 152.34"/><path class="cls-4" d="M153.14,168.16l-2.33-1.31c-1.66,1.77-3.87,2-6.09,2.23l-1.47,2.33c.05.68.1,1.36.21,2a6.82,6.82,0,0,0,1.27,3.1h0c3.73,2.42,8.35,1.62,10.49-1.67,1.17-1.79,1.38-3.23.77-4.4A5.7,5.7,0,0,0,153.14,168.16Z"/><path class="cls-4" d="M143.46,173.43a6.82,6.82,0,0,0,1.27,3.1h0A6.82,6.82,0,0,1,143.46,173.43Z"/></g></g></svg>