<svg xmlns="http://www.w3.org/2000/svg" 
    width="55" height="25"
    fill="#999999"
    viewBox="60 -10 110 110"><title>资源 4</title><g id="图层_2" data-name="图层 2"><g id="图层_1-2" data-name="图层 1"><path d="M182.43,56.07c-.42-4.07-1.25-8.1-1.6-12.18-.24-2.8-.19-5.3-3.42-6.78C175,36,173,34,170.78,32.39c-.06,0-.16,0-.24,0-10.79-.93-21.57-2-32.37-2.72-2.93-.2-5.62-.3-7.29-3.15,0-.05-.3,0-.65.08a5.31,5.31,0,0,1-.17,1.88c-.55,1.17-1.17,3.05-2,3.18-1.6.26-3.87,0-4.93-1A4.67,4.67,0,0,0,119.56,29c-9.66,0-19.33,0-29,.1-2,0-2.67-.7-2.65-2.62.06-6.08.12-12.16,0-18.24,0-2.38.91-3,3.13-2.89,5.91.38,11.83.5,17.72,1a5.81,5.81,0,0,1,3.69,1.89c3.84,4.71,7.5,9.56,11.11,14.44,1.44,1.94,3.09,2.21,5.64,1.38-4.52-5.95-9.23-11.3-12.93-17.27C113.11,1.7,109,.2,103.43.22,75.77.29,48.11.27,20.45,0,16,0,13.63.92,12.11,5.4c-2.65,7.85-6.49,15.32-9,23.21C1.64,33.27,1.7,38.44,1.2,43.39S.8,48.2,5.7,48.5c.68,0,1.86.64,1.88,1,.08,2.39.26,4.91-.43,7.13-.2.65-3.15.43-4.84.62-.09,0-.19,0-.25,0l-1.65,1c.54.38,1.05,1,1.61,1.07,2.24.12,4.5-.08,6.74.09a3.41,3.41,0,0,0,3.72-2.24c1.38-2.92,2.77-5.85,4.24-8.73,2.47-4.85,6.35-7.58,11.92-7.6,4.83,0,9.67,0,14.5,0,5.86-.08,10.18,2.53,13.35,7.31,2.12,3.19,4.16,6.44,6.43,9.51a4.44,4.44,0,0,0,3,1.68c17.58.1,35.16.06,52.74.11a2.83,2.83,0,0,0,2.9-1.81q2.25-4.71,4.64-9.37c2.46-4.77,6.31-7.39,11.77-7.41,4.75,0,9.51.2,14.25,0,6.27-.27,10.59,2.7,13.9,7.64A56.7,56.7,0,0,1,170,54.58c1.94,3.9,4.78,5.47,9.19,4.91C182.51,59.08,182.77,59.3,182.43,56.07ZM47.21,26c-.57,2.1-1.6,3.15-4,3.11-11-.15-22-.09-32.95-.13-3,0-3.43-.68-2.35-3.41,2.43-6.17,4.86-12.34,7.42-18.46a3.29,3.29,0,0,1,2.25-1.8c11.57-.12,23.13-.1,34.7-.09a5.56,5.56,0,0,1,1.27.41c-1.43,4.55-2.81,8.88-4.16,13.22C48.61,21.25,47.87,23.63,47.21,26Zm10.51,9.86a19.1,19.1,0,0,1-3.47.06h0a14.79,14.79,0,0,1-3-.05c-.57-.12-1.49-.82-1.45-1.18.06-.65.69-1.72,1.16-1.76a47.28,47.28,0,0,1,6.94,0c.44,0,1.14,1,1.12,1.57A2,2,0,0,1,57.72,35.88Zm26.9-9.41c0,1.91-.71,2.68-2.67,2.64-4.91-.09-9.83,0-14.75,0v0H52.71c-2.86,0-3.06-.38-2.22-3,1.94-6,3.87-12,5.63-18.09.59-2,1.53-2.9,3.67-2.87,7.24.12,14.49.17,21.74.1,2.23,0,3.15.62,3.1,3C84.51,14.3,84.56,20.39,84.62,26.47Zm1.81,30.47h-.52V31.54h.52Zm9.3-21a14.29,14.29,0,0,1-3.21.07,12.08,12.08,0,0,1-3-.06c-.62-.16-1.52-.91-1.52-1.4a2.09,2.09,0,0,1,1.32-1.61,36.34,36.34,0,0,1,6.43,0,2.15,2.15,0,0,1,1.4,1.56C97.22,34.94,96.34,35.76,95.73,35.9Zm83.61,6.66a2.66,2.66,0,0,1-2.23,1.12c-3.62-.44-7.22-1.07-10.82-1.7-5.29-.91-10.58-1.88-15.86-2.83l-.05-.68a36.14,36.14,0,0,1,3.86-.34q11,.21,21.94.54A3.13,3.13,0,0,1,179.34,42.56Z"/><path d="M175.27,61.58a4.3,4.3,0,0,1-4.52-2.32c-2-3.34-4.26-6.56-6.43-9.8C162,46,159,43.39,154.61,43.26c-6.07-.18-12.16-.25-18.23,0-4,.17-6.7,2.59-8.43,6.16-1.56,3.21-3.34,6.32-4.72,9.61-.88,2.09-2.2,2.54-4.25,2.53-17.66-.05-35.33-.07-53,0A5.07,5.07,0,0,1,61.13,59c-2.07-3.31-4.25-6.56-6.42-9.81-2.3-3.43-5.42-5.78-9.62-5.91-6-.19-12-.16-18,0-4,.13-6.73,2.55-8.49,6.07-1.12,2.23-2.33,4.42-3.26,6.73-1.64,4.07-3.78,7.12-8.89,5.5a29.14,29.14,0,0,0-3.74,0,6.86,6.86,0,0,0-2.61.89c.26,1.65.38,4.25,1.37,4.69C5.38,68.89,9.61,70,13.8,68a5.73,5.73,0,0,0,2.49-2.57c1.95-4.13,3.74-8.34,5.53-12.55,1.64-3.84,4.26-5.88,8.67-5.64s8.83.1,13.25.06a8.36,8.36,0,0,1,7.48,4.13c2.15,3.27,4.42,6.47,6.48,9.79A4.46,4.46,0,0,0,62,63.5q30.62-.09,61.24,0a4.08,4.08,0,0,0,4.16-2.77c1.4-3,2.87-6,4.34-9a7.37,7.37,0,0,1,7.18-4.45c4.67.06,9.33.1,14,0a8.48,8.48,0,0,1,7.58,4c2.3,3.36,4.52,6.78,6.74,10.21,2,3.12,8.85,6,12.36,4.8,1-.37,1.58-2.21,2.35-3.38a10.44,10.44,0,0,0-2.71-1.32A15.22,15.22,0,0,0,175.27,61.58Z"/><path d="M54.17,62.3l-.9,1.33-6-7.12-.53.44a14.81,14.81,0,0,0,1.1,1.5c5.72,6.09,4.44,17.09-3.31,21.38a2.49,2.49,0,0,1-2,.21c-1.89-.94-1.85-1-3.65,0l2.22,1-.15.32H33.58L36,79.92c-1.88-2.47-3.26.87-5.08.15l.79-1.23L28,74.59,25.78,76c.39-1.75.65-2.9.9-4l-.5-.15-1.76,1.85a57.12,57.12,0,0,1,1.14-6.86c.13-.47,1.72-1,2.44-.75A15.81,15.81,0,0,1,31.41,68a5.76,5.76,0,0,1-1.13,1.13,18.11,18.11,0,0,1-2.19,1l.18.44h4.58l-2.36,4.32c.28.21.56.42.83.64.27-.51.42-1.18.83-1.48a10.14,10.14,0,0,1,2.14-1,19.23,19.23,0,0,1,.48,2.47,10.58,10.58,0,0,1-.23,2l.39.09c.76-1.3,1.51-2.61,2.42-4.18l1.53,1.65c1-.74,2-2,2.66-1.83,1.09.19,2,1.29,3,2l.31-.3-3-4.58h4.82l-3-2.68,3.78-2.62c-1.32.13-2,.27-2.68.26s-1.56-.15-2.89-.3l3-4.21-4.43,1.64c-.19-1.17-.39-2.34-.59-3.58l-2.07,3.28c-.67-.54-1.45-.85-1.62-1.36a34.24,34.24,0,0,1-.85-4.05c1.09-.18,2.18-.32,3.27-.54a11.85,11.85,0,0,0,1.64-.63c-3.43-1.62-5.85.21-8.72,1.31.74.25,1.57.29,1.71.62.63,1.5,1.92,3.54,1.39,4.54-1,1.8-2.07-.24-3.08-.86-.15-.09-.43,0-.85.07l2,3.39a4.17,4.17,0,0,1-5.33-.38c-2.91-2.82-.87-5.3,1.2-7.76a46.18,46.18,0,0,0-5.32,5.22A11,11,0,0,1,21.3,63c-1.52,4.89-1.66,9.93,1.64,14.61S30.45,85,36,85.39c9,.66,17.11-4.86,18.63-12.87.63-3.29.11-6.79.11-10.19Z"/><path d="M163.07,63.28l-6-6.65-.49.45c.54.62,1.09,1.24,1.63,1.87,4.88,5.69,3.85,16.7-3.57,20.69a4.4,4.4,0,0,1-2.4.28,24.56,24.56,0,0,1-3.25-.73c-.07.28-.13.56-.2.83l2.25,1-.1.36h-7.35l2.85-1.79c-1.46-.18-2.6-.64-2.93-.3-1.93,1.94-3.16.73-4-.22,0-1.12.35-2,.06-2.35-.93-1.27-1.83-3-4.17-1.21l1.14-3.8-1-.6c-.19.64-.38,1.28-.58,1.92l-.85-.42c0-3,0-6,0-9a2.89,2.89,0,0,1,.62-1.33c1.22-1.86,2.47-3.7,3.72-5.55l-.49-.43c-1.69,1.85-3.35,3.73-5.09,5.54a21.37,21.37,0,0,1-2.4,1.86c0,2.67-.69,6.16.2,9.18A18.18,18.18,0,0,0,136,81a19.15,19.15,0,0,0,8.81,4.2A17.51,17.51,0,0,0,164.42,73.4c1.21-3.9.47-7.74-.32-12.12C163.57,62.31,163.28,62.86,163.07,63.28Z"/><path d="M62.25,65a17.32,17.32,0,0,0-3,.51c0,.46-.08.91-.11,1.36a37.09,37.09,0,0,0,6.05.94q30-.09,60-.42c.79,0,1.58-.77,2.36-1.18-.75-.42-1.51-1.2-2.27-1.2Q93.74,65,62.25,65Z"/><path d="M135.58,62.08c-.18,2.41-.06,3.82,2.2,3.9a4.78,4.78,0,0,1,2.15.53A7.35,7.35,0,0,1,141.39,68a9.34,9.34,0,0,1-1.41,1.2,11.51,11.51,0,0,1-1.89.71l.2.66h4.53c-1.08,1.76-1.86,3-2.65,4.35a6.2,6.2,0,0,0,2.15-1.2,8.7,8.7,0,0,1,2-.61,13.3,13.3,0,0,1,.44,2.21,8.85,8.85,0,0,1-.3,1.89l.4.08,2.59-4.14L150,77.36a3.53,3.53,0,0,0,.16-1.49c.05-.9.19-1.79.3-2.68a16.38,16.38,0,0,1,2.41.85,7,7,0,0,1,1.37,1.26l.38-.38-2.65-4.45h4.8a4.57,4.57,0,0,0-1.62-1.21A19.89,19.89,0,0,1,153.46,68c.54-.55,1-1.35,1.66-1.58a26.54,26.54,0,0,1,3.94-.83V62.28c-1.59,3-4,3.7-6.89,2.32L154.56,61c-.94.07-1.33.64-1.87.87a13.42,13.42,0,0,1-2.47.55c0-.76-.13-1.51-.13-2.27a13.56,13.56,0,0,1,.21-1.54l-.39,0-2.25,3.72-2-1.36c-1.78,3.49-3.35,1.11-5.29.13l2.39,3.89C139.57,65.71,137.22,65.53,135.58,62.08Z"/><path d="M63.27,68.85c.91,3,2.85,2.68,4.54,2.68q24,0,47.92,0a15.47,15.47,0,0,0,3.48-.1A10.72,10.72,0,0,0,121.83,70l-.4-1.25C102.12,68.58,82.81,68.37,63.27,68.85Z"/><path d="M3,56.54c3.56,0,3.56,0,3.57-3.58,0-3.18,0-3.08-3.89-3.24-2-.08-2.68.52-2.63,2.51C.11,56.37.15,56.54,3,56.54Z"/><path d="M125.14,27.05c-.67.2-1.66.8-1.71,1.3-.15,1.78.77,2.8,2.11,2.61.93-.06,1.35,0,1.57-.12.69-.5,1.7-1,1.87-1.69.34-1.33-.62-1.85-1.92-1.85C126.41,27.3,125.7,26.87,125.14,27.05Z"/><path d="M147.19,56.11c.87,0,1.74-.14,2.61-.22-3.08-1.9-5.51,0-7.8.77l3.47,3.59a4,4,0,0,0-.16-1.36C144,56.59,145.22,56.15,147.19,56.11Z"/></g></g></svg>
