<svg xmlns="http://www.w3.org/2000/svg" viewBox="0 0 141.19 52.75"><defs><style>.cls-1{font-size:27px;font-family:Copperplate-Bold, Copperplate;font-weight:700;letter-spacing:-0.05em;}.cls-1,.cls-3{fill:#cb0606;}.cls-2{font-size:19px;letter-spacing:-0.05em;}</style></defs><title>资源 7</title><g id="图层_2" data-name="图层 2"><g id="OBJECTS"><text class="cls-1" transform="translate(0 20.98)">Vehicles<tspan x="0" y="24">D</tspan><tspan class="cls-2" x="18.14" y="24"> </tspan><tspan x="22.99" y="24">Occasion</tspan></text><path class="cls-3" d="M20,27.33l1-4a.44.44,0,0,1,.85,0l.82,4a.43.43,0,0,0,.32.33l4.13.95a.44.44,0,0,1,0,.85l-4.23.95a.43.43,0,0,0-.33.34l-.73,3.92a.43.43,0,0,1-.84,0l-1.11-4.11a.41.41,0,0,0-.32-.31l-3.76-.83a.44.44,0,0,1,0-.85l3.87-.94A.44.44,0,0,0,20,27.33Z"/></g></g></svg>