<svg xmlns="http://www.w3.org/2000/svg" viewBox="0 0 62.59 64.1"><defs><style>.cls-1{fill:#cb0606;}.cls-2{fill:#fcfcfc;stroke:#fafbfc;stroke-miterlimit:10;}</style></defs><title>资源 14</title><g id="图层_2" data-name="图层 2"><g id="OBJECTS"><rect class="cls-1" width="61.15" height="64.1"/><path class="cls-2" d="M44.68,25c-7.32.89-14.51,2.56-21.75,3.95a6.78,6.78,0,0,0-5.72,5.12c-.67,2.51-1.16,5.05-1.76,7.57-.17.73-.22,1.72-.77,2.1a4.49,4.49,0,0,0-2.11,3.59,55.79,55.79,0,0,0-.14,6.33,43.9,43.9,0,0,0,.76,4.82.64.64,0,0,0,.31-.64c.16-3.5.23-7,.56-10.47a2.93,2.93,0,0,1,1.72-2.07,1.67,1.67,0,0,0,1.32-1.53c.58-2.43,1.22-4.84,1.82-7.25.8-3.22,2.94-4.91,6.73-5.64a193.41,193.41,0,0,1,36.44-3.63V23.92A150.07,150.07,0,0,0,44.68,25Z"/><path class="cls-2" d="M39.19,10.7A8.1,8.1,0,0,0,35.32,12c-2.87,2.5-4.26,5.82-5.86,9q2.68-3.45,5.25-7a5.09,5.09,0,0,1,4-2c4.92-.35,9.84-.81,14.77-1q4.32-.18,8.63-.2V9A144,144,0,0,0,39.19,10.7Z"/><path class="cls-2" d="M42.73,32.71a55.26,55.26,0,0,0-16.14.57,2.69,2.69,0,0,0-1.84,1.39c-.58,2.13-.86,4.31-1.26,6.48a29.56,29.56,0,0,0,1.77-5.06,2.28,2.28,0,0,1,2.64-1.78c4.68.23,9.38.41,14.06.74a2.57,2.57,0,0,1,1.69,1.27c.75,1.44,1.25,3,1.85,4.48l.57-.07c-.12-1.79-.17-3.58-.39-5.35A3,3,0,0,0,42.73,32.71Z"/><path class="cls-2" d="M52.9,14.11c-4.5.26-9,1.05-13.45,1.62-2.55.32-4.34,1.86-5.32,4.72a7.9,7.9,0,0,1,6.38-4.18,162.29,162.29,0,0,1,21.55-1.36V13.83C59,13.85,56,13.94,52.9,14.11Z"/><path class="cls-2" d="M48.17,37.08H61.34V35C55.4,35,49.62,35.73,48.17,37.08Z"/><path class="cls-2" d="M48.09,41H61.34V39C55.47,39,49.72,39.65,48.09,41Z"/><path class="cls-2" d="M48.24,33.14h13.1V31.06C55.37,31.05,49.56,31.77,48.24,33.14Z"/><path class="cls-2" d="M18.34,28.43a18.49,18.49,0,0,0,.16-2c0-1.26.75-1.72,2.08-1.76,2.09-.06,4.18-.16,6.19-.24a13.68,13.68,0,0,0-7.9-.2A1.6,1.6,0,0,0,18,25.42a21.72,21.72,0,0,0-.05,3Z"/></g></g></svg>