<svg xmlns="http://www.w3.org/2000/svg" viewBox="0 0 141.19 52.75"><defs><style>.cls-1,.cls-3{font-size:27px;font-family:Copperplate-Bold, Copperplate;font-weight:700;}.cls-1,.cls-3,.cls-5{fill:#cb0606;}.cls-1{letter-spacing:-0.05em;}.cls-2{font-size:19px;letter-spacing:-0.05em;}.cls-3{letter-spacing:-0.1em;}.cls-4{letter-spacing:-0.04em;}</style></defs><title>资源 24</title><g id="图层_2" data-name="图层 2"><g id="OBJECTS"><text class="cls-1" transform="translate(0 43.62)">D<tspan class="cls-2" x="18.14" y="0"> </tspan><tspan x="22.99" y="0">Occasion</tspan></text><text class="cls-3" transform="translate(18.82 20.98)"> <tspan class="cls-4" x="5.54" y="0">éhicules</tspan></text><path class="cls-5" d="M20,24l1-4a.44.44,0,0,1,.85,0l.82,4a.43.43,0,0,0,.32.33l4.13,1a.43.43,0,0,1,0,.84L22.9,27a.43.43,0,0,0-.33.34l-.73,3.92a.43.43,0,0,1-.84,0l-1.11-4.11a.44.44,0,0,0-.32-.31l-3.76-.83a.44.44,0,0,1,0-.85l3.87-.94A.44.44,0,0,0,20,24Z"/><path class="cls-5" d="M9.57,20.74a2,2,0,0,0,.43-.1.17.17,0,0,0,.1-.14A2.78,2.78,0,0,0,9.82,20l-.73-1.31c-.3-.54-.65-1.15-1.05-1.84s-.82-1.39-1.23-2.13S6,13.2,5.54,12.48l-1.18-2C4,9.87,3.7,9.34,3.45,8.89S3,8.13,2.94,8a3.06,3.06,0,0,0-.39-.6.74.74,0,0,0-.43-.16V6.87H9.43v.32a1.39,1.39,0,0,0-.57.11.23.23,0,0,0-.15.21,1,1,0,0,0,.16.34l.68,1.09,1.5,2.43,2.66,4.35q1.59-2.67,2.55-4.25c.62-1.05,1.11-1.86,1.46-2.42s.56-.94.66-1.14a1.48,1.48,0,0,0,.14-.42.25.25,0,0,0-.11-.21A1.21,1.21,0,0,0,18,7.19V6.87h6.14v.32a1.94,1.94,0,0,0-.34.11.38.38,0,0,0-.2.24c0,.11-.19.37-.43.78s-.53.93-.87,1.54l-1.14,2c-.42.75-.84,1.51-1.28,2.28l-1.29,2.27-1.1,2c-.32.58-.58,1-.77,1.43a4.29,4.29,0,0,0-.28.62c0,.17.16.25.49.25v.35H9.57Z"/></g></g></svg>