<svg xmlns="http://www.w3.org/2000/svg" viewBox="0 0 220.27 64.98"><defs><style>.cls-1{fill:#fff;stroke:#cb0606;}.cls-1,.cls-3{stroke-miterlimit:10;}.cls-2,.cls-4,.cls-6{fill:#cb0606;}.cls-3{fill:#fcfcfc;stroke:#fafbfc;}.cls-4,.cls-6{font-size:27px;font-family:Copperplate-Bold, Copperplate;font-weight:700;}.cls-4{letter-spacing:-0.05em;}.cls-5{font-size:19px;letter-spacing:-0.05em;}.cls-6{letter-spacing:-0.1em;}.cls-7{letter-spacing:-0.04em;}</style></defs><title>资源 25</title><g id="图层_2" data-name="图层 2"><g id="OBJECTS"><rect class="cls-1" x="0.5" y="0.5" width="219.27" height="63.98"/><rect class="cls-2" x="0.34" y="0.72" width="61.15" height="64.1"/><path class="cls-3" d="M44.11,25.71c-7.32.88-14.52,2.56-21.75,3.94a6.79,6.79,0,0,0-5.72,5.12c-.67,2.51-1.16,5-1.76,7.57-.18.73-.22,1.72-.77,2.1A4.5,4.5,0,0,0,12,48a51.62,51.62,0,0,0-.14,6.34,39.74,39.74,0,0,0,.76,4.81.63.63,0,0,0,.3-.64c.16-3.49.23-7,.56-10.47A3,3,0,0,1,15.2,46a1.68,1.68,0,0,0,1.33-1.53c.57-2.42,1.22-4.83,1.82-7.25.79-3.22,2.94-4.91,6.72-5.64A193.43,193.43,0,0,1,61.52,28V24.64A147.78,147.78,0,0,0,44.11,25.71Z"/><path class="cls-3" d="M38.61,11.42a8.14,8.14,0,0,0-3.87,1.31c-2.86,2.5-4.25,5.82-5.86,9,1.8-2.3,3.54-4.62,5.26-7a5.08,5.08,0,0,1,4-2c4.92-.35,9.84-.81,14.77-1,2.88-.13,5.75-.19,8.63-.21V9.76A144.17,144.17,0,0,0,38.61,11.42Z"/><path class="cls-3" d="M42.15,33.43A55.54,55.54,0,0,0,26,34a2.65,2.65,0,0,0-1.84,1.4c-.58,2.12-.87,4.31-1.26,6.47a31.38,31.38,0,0,0,1.77-5.06A2.28,2.28,0,0,1,27.32,35c4.69.23,9.38.41,14.06.74A2.6,2.6,0,0,1,43.08,37c.74,1.45,1.25,3,1.85,4.48l.57-.07c-.13-1.78-.18-3.58-.4-5.35A3,3,0,0,0,42.15,33.43Z"/><path class="cls-3" d="M52.33,14.83c-4.5.26-9,1.05-13.45,1.62-2.55.32-4.35,1.87-5.33,4.72A7.91,7.91,0,0,1,39.94,17a162.24,162.24,0,0,1,21.54-1.36V14.55Q56.91,14.58,52.33,14.83Z"/><path class="cls-3" d="M47.6,37.8H60.77V35.74C54.83,35.75,49,36.45,47.6,37.8Z"/><path class="cls-3" d="M47.52,41.73H60.77V39.67C54.89,39.68,49.14,40.38,47.52,41.73Z"/><path class="cls-3" d="M47.67,33.86h13.1V31.78C54.8,31.77,49,32.49,47.67,33.86Z"/><path class="cls-3" d="M17.77,29.15c.05-.65.16-1.3.15-1.95,0-1.27.76-1.73,2.08-1.77,2.1-.06,4.19-.16,6.19-.24A13.82,13.82,0,0,0,18.3,25a1.63,1.63,0,0,0-.93,1.16,23.24,23.24,0,0,0,0,3Z"/><text class="cls-4" transform="translate(69.1 52.15)">D<tspan class="cls-5" x="18.14" y="0"> </tspan><tspan x="22.99" y="0">Occasion</tspan></text><text class="cls-6" transform="translate(87.93 29.5)"> <tspan class="cls-7" x="5.54" y="0">éhicules</tspan></text><path class="cls-2" d="M89.09,32.47l1-4a.43.43,0,0,1,.84,0l.82,4a.4.4,0,0,0,.32.33l4.13,1a.43.43,0,0,1,0,.84l-4.23,1a.43.43,0,0,0-.33.35l-.73,3.91a.43.43,0,0,1-.84,0L89,35.71a.44.44,0,0,0-.32-.31l-3.76-.83a.43.43,0,0,1,0-.84l3.87-.95A.41.41,0,0,0,89.09,32.47Z"/><path class="cls-2" d="M78.67,29.27a2.25,2.25,0,0,0,.43-.11c.07,0,.1-.08.1-.14a3.13,3.13,0,0,0-.28-.55c-.19-.33-.43-.77-.73-1.31s-.65-1.15-1-1.84-.82-1.39-1.23-2.13-.84-1.47-1.27-2.19l-1.18-2-.9-1.6c-.25-.45-.43-.76-.52-.94a3.06,3.06,0,0,0-.39-.6.74.74,0,0,0-.43-.16v-.32h7.31v.32a1.58,1.58,0,0,0-.57.11.24.24,0,0,0-.15.22,1.09,1.09,0,0,0,.16.33c.11.17.34.54.68,1.1s.85,1.36,1.5,2.43l2.66,4.34L85.36,20c.63-1,1.11-1.86,1.46-2.42s.56-.94.66-1.14a1.48,1.48,0,0,0,.14-.42.22.22,0,0,0-.11-.2,1,1,0,0,0-.42-.1v-.32h6.13v.32a1.94,1.94,0,0,0-.34.11.45.45,0,0,0-.2.24c0,.11-.19.37-.42.79l-.88,1.53q-.51.93-1.14,2c-.41.75-.84,1.51-1.28,2.28L87.67,25l-1.1,2c-.32.58-.58,1.06-.77,1.43a3.67,3.67,0,0,0-.28.63c0,.16.16.24.5.24v.35H78.67Z"/></g></g></svg>