<svg xmlns="http://www.w3.org/2000/svg" viewBox="0 0 338.41 367.44"><defs><style>.cls-1{fill:#dfdee0;}.cls-2{fill:#786a7d;}.cls-3{fill:#a39d86;}.cls-4{fill:#633126;}.cls-5{fill:#783e33;}.cls-6{fill:#e9e5de;}.cls-7{fill:#dedad1;}.cls-8{fill:#876645;}.cls-9{fill:#3e2c44;}.cls-10{fill:#6a3427;}.cls-11{fill:#3c2a41;}.cls-12{fill:#f1d5a8;}.cls-13{fill:#412f46;}.cls-14{fill:#f0eee5;}.cls-15{fill:#e6c099;}.cls-16{fill:#362e25;}.cls-17{fill:#fcfcfc;}.cls-18{fill:#4a4036;}</style></defs><title>资源 33</title><g id="图层_2" data-name="图层 2"><g id="OBJECTS"><path class="cls-1" d="M233.05,42.94c20.44,8.64,38.93,20.44,54.7,36s28.86,33.63,37.11,54.51c22.25,56.29,17.26,110-16.21,160.71-1,1.49-1.39,3.44-3.24,4.28-1.21-1.55-2.94-1.26-4.57-1.27l-13.92,0c-1.86-7.56-3.63-15.14-5.63-22.65-1.71-6.4-4.06-12.64-4.31-19.35q-.93-18-1.85-35.89c-1.43-28.59-3.4-57.16-4.11-85.76-.73-29.18-19-43.2-37.88-44.81l-.42-5.53a89.2,89.2,0,0,0,1.33-16.32c.16-8-2-15.71-3.2-23.53Z"/><path class="cls-1" d="M57.26,72.33c9.23-7,18.3-14.33,28.6-19.81,6-3.19,12.09-6.23,18.13-9.34l1.12.46c-.23,4.84-2,9.57-1,14.48l-.08,5a1.12,1.12,0,0,0,0,1,49.19,49.19,0,0,0,.09,6.43C104.92,76.69,106,82.84,107,89a39.5,39.5,0,0,0-3.93.54C84,94.23,72.4,108.75,71.26,129.69c-1.2,22.24-2,44.51-3.46,66.72-.66,9.94-.1,20-2,29.82-21.26-5.18-42.89-7.84-64.68-9.32C-2.38,187,2.48,158.29,14.52,130.79c8.92-20.35,21.74-38,37.66-53.44C53.89,75.7,56.1,74.54,57.26,72.33Z"/><path class="cls-2" d="M286.92,297.11l13.92,0c1.63,0,3.36-.28,4.57,1.27-13.82,19.66-31.57,34.93-52.32,46.87-30.21,17.38-62.85,24-97.41,21.71a163.06,163.06,0,0,1-50.61-11.92c4.87-3.11,10.86-2.33,16-4.65l15-3.53A283.9,283.9,0,0,0,164,340c4.4-1.41,5.13-4.58,1.91-7.65-3.65-2.21-7.79-2.09-11.83-2.43.15-.65-2.8-.37-.34-1.95,4.2-2.69,8.78-4.79,13.52-4.82,5.59,0,10.79-3.09,16.43-1.61a4.88,4.88,0,0,0,4.23,3.58,4.25,4.25,0,0,0,4.71,4.08c10.93-.11,21.56-2.7,32.35-3.9.33,0,.66-.06,1-.11,2.35-.19,4.82.64,7-.84,15.35-.66,30.52-2.86,45.65-5.34,7.18-1.18,8.37-2.94,8.35-10.85l-.12-8-.42-3.06Z"/><path class="cls-3" d="M1.1,216.91c21.79,1.48,43.42,4.14,64.68,9.32A20.46,20.46,0,0,1,70.1,235c1.65,7.29,3.52,14.53,5.3,21.79q1.86,8.65,3.73,17.31l.38,2.18.74,3.82,6.69,34c.42,7.56.42,7.56,7,8.35-.31,3-5,.14-4.94,3.63l3,17a8.51,8.51,0,0,0,1,5.11c-2.78,1.72-4.74.81-6.12-1.93,1.64-3.68.1-7.34-.44-10.87-1-6.78-3.35-13.34-3.51-20.29-2.78-10.15-2.37-21.22-8.63-30.38-.56-.83-.22-2.84-2-2.06-1.43.64-3.39,1.89-2.76,3.62s1.84,3.23-.85,3.53c-2.08.23-3.4-.58-3.21-3.57.17-2.82-3.14-4.15-5.08-2.89-3.47,2.25-7.73,2.85-10.82,5.07a12.2,12.2,0,0,1-9.14,2.6c-3.87-.49-6.74.57-8.56,4.09-2.33-.2-3.19-2-4.28-3.7-8.34-13.13-15.29-26.92-19.88-41.83A168.15,168.15,0,0,1,1.1,216.91Z"/><path class="cls-4" d="M107,89c-1-6.15-2-12.3-2.89-18.47a49.19,49.19,0,0,1-.09-6.43c.13-.08.39-.21.38-.24a5.23,5.23,0,0,0-.34-.72c0-1.67,0-3.34.08-5,2.11-.18,1.42-2.2,2.18-3.23,2.18-3-.07-7.51,3.71-9.78.72,2.87,1.65,5.73.53,8.71-1.92,5.11-.48,10.52-1.41,15.73a1.9,1.9,0,1,0,3.76,0c-.17-2.59,1.73-4.19,2.58-6.27,2-5,4.35-9.85,5.53-15.14l1-2c3.21-1.38,2.26-4.56,3-7h0c.93.39,2.19,1,2.75,0,3-5.3,7.65-9,12.08-13,.2-.17.13-.63.19-1h2c1.34,2.38,2.67,2.37,4,0l2,0c4.79-1.46,9.39-.11,14,1l-.22.42.23-.41c4.7-.94,9.29-1.76,10.85,4.72.18.74,2,1.84,2.12,1.74,3-2.84,6.67,0,9.94-1.23,5-1.86,9.66-.68,13.73,2.85,7.47,6.48,16.58,10.92,23.11,18.63.69.82,2.19,3.13,4.09,1.3,1.24-1.2.17-2.59,0-4-.55-4.79-3.07-8.14-6.37-11.26-2.51-2.37-2.09-5.61-2-8.64,0-1,.62-1.93-.21-2.78-5.52-5.74-9.7-12.89-17.35-16.36.14-.85.29-1.69.43-2.54,6.34,2.27,10.67,7.3,15.66,11.42l1.11,1.07a159.82,159.82,0,0,1,13.7,22.22c1.23,7.82,3.36,15.5,3.2,23.53a89.2,89.2,0,0,1-1.33,16.32c-3.13,1.27-1.17,4-1.74,6-1.72.17-2.14-2-3.74-2l-.38-1.93c1.84-2,0-1.75-1.2-1.89-4.32-1.15-6.13.5-5.68,4.93a44,44,0,0,1,0,4.87c-1.46-.47-.92-1.75-1.11-2.73.39-2.79-.91-4.46-3.49-5.29l.43-1.83c1.79-.29,4.38.12,4.34-2.51,0-2.26.67-5.68-3.55-5.56a20.1,20.1,0,0,0-3.53-7.5C199.65,49.33,181,38.22,160.83,29c-7.34-3.35-14.11-2.44-20,2.53C124.57,45.2,118.17,63.27,118.14,84c-1.79.48-2.47-3.37-4.28-1.41a5.94,5.94,0,0,0-1.44,5.93,5.62,5.62,0,0,0,6.43,3.58c-.23,2,1.52,3.45,1.77,5.35l-.93,2.46c-.24-.29-.48-.57-.71-.86-1-3.72-2,0-2.92,0-.24-.78-.54-1.55-.72-2.34-.41-1.8-.69-3.81-3.18-3.62S109,95.27,109,97.38c0,2.47.22,4.94.35,7.41-2.73.21-2.24-1.82-2.27-3.38C107,97.27,107,93.13,107,89Z"/><path class="cls-3" d="M31.91,295.15c1.82-3.52,4.69-4.58,8.56-4.09a12.2,12.2,0,0,0,9.14-2.6c3.09-2.22,7.35-2.82,10.82-5.07,1.94-1.26,5.25.07,5.08,2.89-.19,3,1.13,3.8,3.21,3.57,2.69-.3,1.48-1.8.85-3.53s1.33-3,2.76-3.62c1.78-.78,1.44,1.23,2,2.06,6.26,9.16,5.85,20.23,8.63,30.38-4.8-2.86-8.84-2.9-11.93,2.63-1.31,2.33-3.82,1.5-5.82.88-6.34-2-7.71-1.09-8.32,5.57-4.79-2-7.73-6.17-10.92-9.8C40.73,308.45,33.89,303.53,31.91,295.15Z"/><path class="cls-5" d="M110,45.11c-3.78,2.27-1.53,6.83-3.71,9.78-.76,1-.07,3-2.18,3.23-1-4.91.78-9.64,1-14.48q2.88-6.27,5.77-12.54L113,28c5-4.72,10.12-9.4,16.2-12.82,1,0,2-.08,2.47-1.19,3.94-.07,6.28-3.12,9.1-5.11,5.58-3.94,11.87-6,18.26-8L160.9.35a89.21,89.21,0,0,1,23.81,1.09h0c3.79,2.49,8.29,3.27,12.34,5.14L197,9.11c-1.55,3.35-3.8,4.63-7.52,3.11-8.4-3.41-17.27-1.67-25.95-2.14a29.5,29.5,0,0,0-15.28,3.67c-2.39,1.23-4.7,2.6-7.32,2.83-8.89.81-15.89,5.19-21.65,11.55C114.87,33,110.54,38.07,110,45.11Z"/><path class="cls-3" d="M56.89,324.22c.61-6.66,2-7.53,8.32-5.57,2,.62,4.51,1.45,5.82-.88,3.09-5.53,7.13-5.49,11.93-2.63.16,6.95,2.46,13.51,3.51,20.29.54,3.53,2.08,7.19.44,10.87-7.58-2.88-13.62-8.22-20-12.92C63.3,330.72,59.31,328.27,56.89,324.22Z"/><path class="cls-6" d="M93,348.23a8.51,8.51,0,0,1-1-5.11l26.56-2c.46,0,1.3-.16,1.31-.28.39-6.17,4.37-3.11,7.26-2.86,1.11.09,3.09.54,3.11-.49.08-4.63,4.11-2.79,5.78-3,3.37-.51,7.67-1.7,10,2.74-1.3,2.54-4.19,2.32-6.27,3.5-2.57,1.46-4.13,3.16-3.71,6.23l-15,3.53c-.4-5.27-1.79-6.29-7.37-5-6.22,1.41-12.35,3.38-18.86,2.75Z"/><path class="cls-7" d="M94.8,348.16c6.51.63,12.64-1.34,18.86-2.75,5.58-1.27,7-.25,7.37,5-5.1,2.32-11.09,1.54-16,4.65C101.3,353.28,96.2,353.47,94.8,348.16Z"/><path class="cls-8" d="M233.14,88.65C252,90.26,270.29,104.28,271,133.46c.71,28.6,2.68,57.17,4.11,85.76q.9,17.94,1.85,35.89c-3.58-1.05-2.93-4.51-4-7a11.14,11.14,0,0,0-4-9c0-.33,0-.66,0-1a41.61,41.61,0,0,0-5.15-19.35c-1.2-2.19,1-5.76-2.84-6.65,0-.33,0-.66,0-1,0-2.13,0-4.25,0-6.37a11.78,11.78,0,0,0-4-9.64c0-1.33,0-2.66,0-4,.57-5-3.21-8-5.06-11.93-2.15-4.55-5.54-5.82-9.92-6.07l-3-1a2,2,0,0,0-2-1,95.53,95.53,0,0,1-16.25-3.94,2.22,2.22,0,0,1-1.77-2.08c-.83-3,1.95-6.72-2-9-.18-3.8-2.26-6.79-4.32-9.74-2.87-4.13-6.33-7.84-8.7-12.34a74.19,74.19,0,0,0,10.91-13c3.32,3.49,1.08,9,4.23,12.82,1.55-2,0-4.41,1.81-5.86a159.59,159.59,0,0,1,16.15,7.63c7.5,4.13,15.25,7.83,23.09,11.29,4.12,1.82,5.61.42,5.84-4.2.18-3.68-1.58-7.15-1-10.86,1-6.15-2-11.23-4.75-16.25-5.56-10-14.54-15.47-25.28-18.46C230.93,95.05,233.82,91.47,233.14,88.65Z"/><path class="cls-9" d="M273,248.12c1.07,2.48.42,5.94,4,7,.25,6.71,2.6,12.95,4.31,19.35,2,7.51,3.77,15.09,5.63,22.65l-.44-.05c-5.74-.57-3.89,2.63-2.92,5.59,1.81-.16,1.42-2.85,3.34-2.53l.12,8c-3.6-.06-8.1.92-6.2-5.46.15-.48-.35-1.24-.69-1.78-4.25-7-10.84-8.87-18.06-5.14-1.24.64-1.91,1-3.46.21-3.1-1.59-5.08.17-4.55,3.61a4.79,4.79,0,0,0,3.28,3.94c2.07.88,2.14,3,1.22,4.7s-2.29.47-3.36-.28a4.08,4.08,0,0,0-4.68,0c-1.8,1-3.91,1.89-5.72,1.14-5.69-2.35-11.71-2-17.57-2.2-7.95-.27-15.07-4.82-23.27-3.83-3.72.45-4.92-2.18-3.12-5.51a5.16,5.16,0,0,1,8-1.2c2.66,2.63,5.43,2.16,8.24,1.18,3.22-1.13,6.5-4.54,8.75,1.21.14.33,1.2.35,1.85.43,4.8.58,6.27-1.29,6.29-8,8-1.29,7.41-7.2,7-13,0-.32,0-.65,0-1-4.38-15.06-2.43-31.37-9-46,3.81-.4,6.77.57,8.4,4.51a5.63,5.63,0,0,0,3.12,3c2.8.81,3.63,2.43,3.53,5.12-.11,3,2,3.55,4.38,3.31s6.32,1.11,6.12-2.17c-.27-4.42.52-9.23-2.1-13.43s-4.74-8.85-4.49-14.17a95.46,95.46,0,0,0,0-12.43c-.4-4.77,1.63-6.39,6.07-5.76,0,4.45-.43,9,4,12,0,.33,0,.66,0,1-.75,4.57,1.67,8.71,1.84,13,.22,5.41,2.85,9.24,6.15,13,0,.34,0,.67,0,1C265.46,242.35,267.07,246,273,248.12Zm-16-28.76c0,4,0,6.51,0,9,0,1-.07,2.29,1.24,2.17a3.37,3.37,0,0,0,2.18-1.74C262.09,225.49,260.19,223,257,219.36Z"/><path class="cls-10" d="M233.14,88.65c.68,2.82-2.21,6.4,1.81,8.5-1.68,5.81-3.86,11.27-9.94,13.94.16-1.13-.1-2.73.55-3.31,5.79-5.11,5.75-11.82,5.42-18.64.57-2-1.39-4.75,1.74-6Z"/><path class="cls-8" d="M107,89c0,4.14,0,8.28.08,12.42,0,1.56-.46,3.59,2.27,3.38l0,.12a1.64,1.64,0,0,0,.71,2.18c2.61,4.85,4.29,10.41,10,12.84,4.81,6.71,9.87,13.19,17.45,17,6.08,3.1,11.25,7.45,16.56,11.62,1.24,1,2.31,1.85,2,3.6a12.89,12.89,0,0,0-7.53,5.69A72.94,72.94,0,0,0,137.81,170l-3,3.08c-7.28,1.95-14.94,2.54-21.79,6a1.79,1.79,0,0,0-2,2h0a3.63,3.63,0,0,0-3.35,2.57c-.51,4.73-3.23,8.58-4.85,12.81-1.71,4.46-1.85,9.29-4.66,13.66-1.67,2.61-4.57,4.9-5,8.19-.81,5.57-2,10.86-6.18,15a5.55,5.55,0,0,0-1.9,4.94A7.28,7.28,0,0,1,82.31,245c-3.65,3.26-4.82,7.75-6.91,11.8-1.78-7.26-3.65-14.5-5.3-21.79a20.46,20.46,0,0,0-4.32-8.78c1.92-9.85,1.36-19.88,2-29.82,1.48-22.21,2.26-44.48,3.46-66.72C72.4,108.75,84,94.23,103,89.53A39.5,39.5,0,0,1,107,89Z"/><path class="cls-5" d="M104,63.13a5.23,5.23,0,0,1,.34.72s-.25.16-.38.24A1.12,1.12,0,0,1,104,63.13Z"/><path class="cls-11" d="M75.4,256.8c2.09-4.05,3.26-8.54,6.91-11.8A7.28,7.28,0,0,0,85,238.33a5.55,5.55,0,0,1,1.9-4.94c4.21-4.17,5.37-9.46,6.18-15,.48-3.29,3.38-5.58,5-8.19,2.81-4.37,3-9.2,4.66-13.66,1.62-4.23,4.34-8.08,4.85-12.81a3.63,3.63,0,0,1,3.35-2.57c-2.7,6.73-2.14,14-3.62,21.05a108.72,108.72,0,0,0-.94,40.84c1.33,7.9,4.5,13.63,8.49,19.94,3.34,5.28,9.36,3.51,13.08,6.92a1.4,1.4,0,0,0,1.32-.29c2.41-5.12,2.51,1.72,4,.9,2.15-5.34-.3-11.19,1.84-16.88,1.48,1.86-.21,4.05,1.77,5,.86.4,1.52-.48,2.05-1.09,8-9.32,17.83-16.74,26.92-24.94,6.39-5.76,12.4-11.94,19.05-17.43,2.13.29,2.1,1.37.81,2.62-2.38,2.3-4.41,5-7.34,6.72-1.71,1-1.78,2.79-1.2,4.44s2.43,1.57,3.42,1.1c3.52-1.64,7.55-1.17,10.93-2.53,3.88-1.56,7.2-2.05,10.77.21,1.59,1,5.3-.25,4.87,2.13-.49,2.77-4,1.13-6.07,1.24-9.55.49-19.12.75-28.68,1.07-1.58.06-2.56.72-2.47,2.41.1,1.94-.69,4.09.88,5.74,1.34,1.4,2.77.49,4.11-.19s2.66-1.77,4.46-2a142.7,142.7,0,0,1,21.37-.94c7,.11,12.08-2.78,14.85-9.39a36.11,36.11,0,0,0,2.38-7.56c.55-3,2.41-6,5.17-6.64,2.41-.52,3.11,2.79,4,4.88.3.69,1.12,1.14,1.71,1.71a6.65,6.65,0,0,0,1,4c0,1.1-.17,2.28,1,3l1,4c6.56,14.63,4.61,30.94,9,46-4.72-.39-5.6-3.8-6-7.62a7.08,7.08,0,0,0-4.51-6.05c-2.51-1.08-3.9.82-5.58,2.2-2.53,2.08-4.65,4.17-3.93,7.87.31,1.61-.74,2.76-1.76,3.93a18.67,18.67,0,0,0-3.51,4.79,10.35,10.35,0,0,0,.2,9.1c1.76,3.12,4.59,1.15,6.74.66a50.5,50.5,0,0,1,11.36-.89c0,6.7-1.49,8.57-6.29,8-.65-.08-1.71-.1-1.85-.43-2.25-5.75-5.53-2.34-8.75-1.21-2.81,1-5.58,1.45-8.24-1.18a5.16,5.16,0,0,0-8,1.2c-1.8,3.33-.6,6,3.12,5.51,8.2-1,15.32,3.56,23.27,3.83,5.86.19,11.88-.15,17.57,2.2,1.81.75,3.92-.13,5.72-1.14a4.08,4.08,0,0,1,4.68,0c1.07.75,2.44,1.94,3.36.28s.85-3.82-1.22-4.7a4.79,4.79,0,0,1-3.28-3.94c-.53-3.44,1.45-5.2,4.55-3.61,1.55.79,2.22.43,3.46-.21,7.22-3.73,13.81-1.82,18.06,5.14.34.54.84,1.3.69,1.78-1.9,6.38,2.6,5.4,6.2,5.46,0,7.91-1.17,9.67-8.35,10.85-15.13,2.48-30.3,4.68-45.65,5.34-3.93-4.52-7.62-9.14-14.78-8.28-4.41.53-9.08-.63-13.36.29-5,1.07-11.33-1.55-14.93,4.39l-6-10.58-.79-1-4.37-6.54c.16-.21.3-.43.45-.65l-.6.51-1.6-.64c.07-3.22-2.3-2.55-4.21-2.64-6.62-.31-13.49,1.32-19.82-.74a63.15,63.15,0,0,0-23.68-3.27c-4.86.29-7.83,3.06-8.35,7.9l-.07,0-3.88.07-9.33,3.92c.12-1.82.3-3.64.35-5.47,0-1.41,2.09-3.46-.58-4.1-2.1-.5-4.65-1-6.28,1.51a97.4,97.4,0,0,1-6.35,9.49c-1.68,2.06-2.4,5.31-5.81,5.63,2.83-7.27,6.9-14,8.84-21.72.79-3.19.49-6.51,1.79-9.61,3.75-9,.67-17.9-2.16-26.09-1.35-3.94-2.42-7.55-2.46-11.58,0-2.46-.3-4.89,1.59-7.08.65-.75.27-2.55.09-3.83a.92.92,0,0,0-1.58-.41c-2.53,3-7.35,4.17-7.92,8.55C85.63,254.22,81.51,265.8,82.8,278c.21,2.06-1.18,2-2.55,2.09-.25-1.27-.5-2.54-.74-3.82,1.9-1.07,1.43-1.74-.38-2.18Q77.27,265.45,75.4,256.8Z"/><path class="cls-12" d="M183.12,309.09l.79,1c-3,1.3-.72,3.11-.15,4.34,1.14,2.46,1.61,4.69,0,7-5.64-1.48-10.84,1.58-16.43,1.61-4.74,0-9.32,2.13-13.52,4.82-2.46,1.58.49,1.3.34,2a2.74,2.74,0,0,1-3.88.94c-4.8-4.32-10.78-2.75-16.25-3.66-7.63-1-15.25-2.11-22.91-2.83-3.69-.35-1.65-2-1.15-3.36,3.48-1.83.58-4.58,1-6.86-.86-5,3.59-6.14,6.21-8.62l3.74-2.43.07,0c1.72-1,3.43-2,5.17-2.9,2.43-1.3,4.61-2.94,7.81-2.27,7.42,1.57,14.89,2.95,22.4,4,5.83.85,11.72,2.34,17.64.39.84,1.13,2.56.94,3.15,2.82C177.92,307.73,180.28,309,183.12,309.09Zm-61,9.58c1.4-.47,3.58-.17,3.72-2.82.1-1.94-1-2.63-2.7-2.82-2.21-.26-3,.93-3,2.93C120.21,317.2,119.67,318.81,122.14,318.67Z"/><path class="cls-7" d="M134,327.16c5.47.91,11.45-.66,16.25,3.66a2.74,2.74,0,0,0,3.88-.94c4,.33,8.18.21,11.83,2.42-.2,2.38-2.41,2.19-3.78,2.53-5.3,1.3-10.62,2.75-16.18,2.34-2.31-4.44-6.61-3.25-10-2.74-1.67.25-5.7-1.59-5.78,3,0,1-2,.58-3.11.49-2.89-.25-6.87-3.31-7.26,2.86,0,.12-.85.25-1.31.28l-26.56,2q-1.49-8.49-3-17a52.27,52.27,0,0,1,9.8.86q18.9,3.22,38,4.89c.88.08,1.69,0,1.89-1s-.48-1.52-1.37-1.65C135.91,329,134.2,329.32,134,327.16Z"/><path class="cls-13" d="M190,320.7c3.6-5.94,9.9-3.32,14.93-4.39,4.28-.92,9,.24,13.36-.29,7.16-.86,10.85,3.76,14.78,8.28-2.2,1.48-4.67.65-7,.84-.42-.73-.74-.63-1,.11-10.79,1.2-21.42,3.79-32.35,3.9a4.25,4.25,0,0,1-4.71-4.08C191.39,324.88,190.65,322.78,190,320.7Z"/><path class="cls-14" d="M146,337.17c5.56.41,10.88-1,16.18-2.34,1.37-.34,3.58-.15,3.78-2.53,3.22,3.07,2.49,6.24-1.91,7.65a283.9,283.9,0,0,1-28,6.95c-.42-3.07,1.14-4.77,3.71-6.23C141.79,339.49,144.68,339.71,146,337.17Z"/><path class="cls-7" d="M190,320.7c.7,2.08,1.44,4.18-2,4.37a4.88,4.88,0,0,1-4.23-3.58c1.65-2.34,1.18-4.57,0-7-.57-1.23-2.84-3,.15-4.34Z"/><path class="cls-11" d="M286.9,300.12c-1.92-.32-1.53,2.37-3.34,2.53-1-3-2.82-6.16,2.92-5.59Z"/><path class="cls-11" d="M225,325.25c.25-.74.57-.84,1-.11C225.67,325.19,225.34,325.22,225,325.25Z"/><path class="cls-9" d="M80.25,280.11c1.37-.06,2.76,0,2.55-2.09-1.29-12.22,2.83-23.8,4.38-35.68.57-4.38,5.39-5.57,7.92-8.55a.92.92,0,0,1,1.58.41c.18,1.28.56,3.08-.09,3.83-1.89,2.19-1.61,4.62-1.59,7.08,0,4,1.11,7.64,2.46,11.58,2.83,8.19,5.91,17.12,2.16,26.09-1.3,3.1-1,6.42-1.79,9.61-1.94,7.76-6,14.45-8.84,21.72l-2,0Z"/><path class="cls-2" d="M86.94,314.15l2,0c3.41-.32,4.13-3.57,5.81-5.63a97.4,97.4,0,0,0,6.35-9.49c1.63-2.55,4.18-2,6.28-1.51,2.67.64.61,2.69.58,4.1-.05,1.83-.23,3.65-.35,5.47-3.09,6-2.64,7,3.26,7.06-.42,2.28,2.48,5-1,6.86-5,3.36-10.57,1.85-16,1.53C87.36,321.71,87.36,321.71,86.94,314.15Z"/><path class="cls-6" d="M93.94,322.5c5.41.32,10.93,1.83,16-1.53-.5,1.4-2.54,3,1.15,3.36,7.66.72,15.28,1.86,22.91,2.83.22,2.16,1.93,1.84,3.36,2,.89.13,1.56.61,1.37,1.65s-1,1.11-1.89,1q-19.11-1.67-38-4.89a52.27,52.27,0,0,0-9.8-.86C89,322.64,93.63,325.52,93.94,322.5Z"/><path class="cls-9" d="M79.13,274.11c1.81.44,2.28,1.11.38,2.18C79.38,275.57,79.26,274.84,79.13,274.11Z"/><path class="cls-12" d="M156,152.2c.31-1.75-.76-2.62-2-3.6-5.31-4.17-10.48-8.52-16.56-11.62-7.58-3.86-12.64-10.34-17.45-17-.81-6-3.76-11.69-2.09-18,.21-1-.37-2.34,1.07-2.92.23.29.47.57.71.86.9,2,2.83,2.08,4.6,2.44,7.34,1.51,14.73.61,22.15.5-5.55-2.71-11.42-1.19-17.12-1.63-3.39-.27-6.67-.49-8.7-3.77-.25-1.9-2-3.3-1.77-5.35s-.14-4.29,2.48-4.77c2.42-.45,2.47,2.17,2.83,3.32,1.34,4.27,5.29,4.5,8.36,6.12a2.22,2.22,0,0,0,2.39.14c.17,1.57,1.09,2.19,2.63,2.19,4.06,0,8-.31,11.43-2.9,2.11,1.39,2.11,1.39,5.06-3.35,2.42-3.37-2.55-4.79-2-7.66a9.38,9.38,0,0,1,6,1.92,11.79,11.79,0,0,1,1,6c-1.56,4.79-5,7.42-10.16,8.13,7.89,1,10.42-.9,12.07-8.14a5.56,5.56,0,0,1,3.15-4.8l1.91-.42c2.95.46,6.62-.89,8.11,3.23,1,3.61,2.4,7.5,6.5,7.85a76.46,76.46,0,0,0,32.68-4c2.6-.93,2.51-4.63,5.61-4.6.19,1-.35,2.26,1.11,2.73.7,6.06-1.38,12-1,18l-4.11,10a74.63,74.63,0,0,1-10.91,13l-5.13,4c-2.8,1.87-6.18,3.18-6.94,7.06-6.15,5-12.39,9.58-21,9.37-1.76,0-3.62,2-3.73,4.15-.09,1.83,1.46,2.78,3.1,3.45,4.88,2,9.74,4,14.6,6l.11,1c-3.68,6.78-8.68,12.51-14,18-4.83,2.76-7.56,7.26-10,12-3.41,1.45-3.39,6.36-7.6,7.57-.56-5.72-2.57-11-2.45-16.55-.81-3,2.31-5.07,2-7.95-.61-6,1.88-11.42,3.36-17C157.43,160.91,157.77,156.47,156,152.2Zm-1-22.13,0,0c4.08,6.85,10.93,10.23,18.26,9,5.19-.86,12.18-8,13.3-13.65.22-1.15-.88-1.18-1.68-1.32l-1-1c-.39-.3-.79-.87-1.16-.85-8,.48-16,2.43-24.12,2-2.3-.12-1,1.82-.69,3-.7,1-1.79.92-2.84,1s-2.09-2.63-2.94-.62C151.57,129.13,153.33,130,155,130.07Zm21.25-16.64a24.37,24.37,0,0,1-15.42-.36C164.07,118,171.65,118,176.28,113.43Zm12.46,9.66c-.07-.1-.12-.26-.22-.29s-.2.1-.31.16l.37.47Z"/><path class="cls-10" d="M110,45.11c.55-7,4.88-12.13,9.28-17C125,21.77,132,17.39,140.92,16.58c2.62-.23,4.93-1.6,7.32-2.83a29.5,29.5,0,0,1,15.28-3.67c8.68.47,17.55-1.27,25.95,2.14,3.72,1.52,6,.24,7.52-3.11l1,0a1.78,1.78,0,0,0,1.95,2c7.65,3.47,11.83,10.62,17.35,16.36.83.85.25,1.81.21,2.78-.13,3-.55,6.27,2,8.64,3.3,3.12,5.82,6.47,6.37,11.26.16,1.4,1.23,2.79,0,4-1.9,1.83-3.4-.48-4.09-1.3-6.53-7.71-15.64-12.15-23.11-18.63-4.07-3.53-8.72-4.71-13.73-2.85-3.27,1.22-6.91-1.61-9.94,1.23-.1.1-1.94-1-2.12-1.74-1.56-6.48-6.15-5.66-10.85-4.72h0c-4.61-1.11-9.21-2.46-14-1-5.5-5.26-19.81-2-23.34,2.05-4.1,4.69-7.79,9.59-9.77,15.71-.81,2.49-1.35,4.57.5,6.47,2.32,2.37,3.63-1.24,5.61-1.23-1.18,5.29-3.5,10.17-5.53,15.14-.85,2.08-2.75,3.68-2.58,6.27a1.9,1.9,0,1,1-3.76,0c.93-5.21-.51-10.62,1.41-15.73C111.64,50.84,110.71,48,110,45.11ZM171.31,15c-5.9-.37-11.12,1.6-16,4.54-.93.55-2.31,1.36-1.74,2.66.66,1.53,2,.5,3,.14A27.54,27.54,0,0,1,164.31,21c6.61-.33,12.74,1.18,18.86,3.5,1.84.7,4.72,2.86,6.16.13,1.18-2.25-1.29-4.22-3-5.68C182,15.33,176.48,15.67,171.31,15Z"/><path class="cls-15" d="M118.14,84c0-20.74,6.43-38.81,22.67-52.46,5.91-5,12.68-5.88,20-2.53,20.16,9.2,38.82,20.31,52.23,38.63a20.1,20.1,0,0,1,3.53,7.5,13.15,13.15,0,0,1-7.39,2c-8.18,0-16.47-.79-24.24,2.8-.12-.91,1-2.34,0-2.63-3.2-.92-3.64-3.39-4-6,2.62.23,4.86-.92,7.08-2a37.93,37.93,0,0,1,12.23-4c2.44-.31,4.84,1.4,7.71.54-1.9-2.19-4.26-2.26-6-3.47a16.46,16.46,0,0,0-6.47-7.84,145.69,145.69,0,0,1-16.62-12c-5.54-4.83-13.41-6.19-20.42-8.68-7.78-2.77-18.82,1.07-23.08,8.11a151.69,151.69,0,0,0-7.73,14.3c-2,4.19-1.85,8.82-1.53,13.37-.5.92-2.21,1-1.76,2.6,8.39-2.08,8.35-1.91,17.91.24,3.06.69,6.29,1.74,9.55.62,1.77.47.13,2.48,1.5,3.23s2.17,2.1,1.09,3.66c-1.2,1.73-2.71.45-4,.08-1.89-.54-3.65-1.27-3.34,1.9-2.94-.15-5.93-1.51-8.8-.53C131.69,83.63,124.8,82.85,118.14,84Z"/><path class="cls-16" d="M185,80c7.77-3.59,16.06-2.76,24.24-2.8a13.15,13.15,0,0,0,7.39-2c4.22-.12,3.51,3.3,3.55,5.56,0,2.63-2.55,2.22-4.34,2.51-1.18-1-1.07-3.57-2.64-3.56-1.91,0-1.92,2.26-2.3,3.81a10.84,10.84,0,0,1-1.19,3c-1.75,2.63-3.95,5.11-7.7,4.72,4.78-5,4.78-5,0-7.15-1.39-1.28-3.25-.92-5-1.71,2.43,8.31,1.15,10-7,9.9-.34,0-.67,0-1,0,.05-.67.09-1.34.13-2,1.68-.44,3.92-.64,3.52-3-.46-2.8-2.63-1.34-4.22-1.14-.32,0-.64,0-1,0L187,84.56l.15-.28.36-.66-.7.31c-2.62,0-2.93-1.72-2.84-3.75Z"/><path class="cls-15" d="M202,91.14c3.75.39,5.95-2.09,7.7-4.72a10.84,10.84,0,0,0,1.19-3c.38-1.55.39-3.8,2.3-3.81,1.57,0,1.46,2.54,2.64,3.56-.15.61-.29,1.22-.43,1.83-1.07,7.9-1.75,8.51-9.63,10.24-5.39,1.19-10.87,1.49-16.28,2.32-6.25,1-10.77-.56-13.43-6.49-1-5.22.8-7.26,6.75-7.58-.41,1.92-2,3.47-1.74,5.55-.31,4,3.35,4.51,5.57,5.81,2.58,1.5-.09-3.29,2.46-2.76.33,0,.66,0,1,0,8.12.15,9.4-1.59,7-9.9,1.7.79,3.56.43,5,1.71A6,6,0,0,0,202,91.14Z"/><path class="cls-16" d="M118.14,84c6.66-1.16,13.55-.38,20.11-2.6,2.87-1,5.86.38,8.8.53l-.09.38a4,4,0,0,0,5,.08c2.31-.38,4.65-.34,6.56,1,2.36,1.72,4.79,1.63,7.38,1,0,1.14.05,2.27.08,3.41l-1.91.42c-1.68-2.1-4-.8-6.06-1.19a9.38,9.38,0,0,0-6-1.92c-3.55,0-7.11.11-10.64-.1-2.83-.16-5.25.08-6.49,3.07-7,2.94-7,3-1.72,7.72l-.65.89c-3.07-1.62-7-1.85-8.36-6.12-.36-1.15-.41-3.77-2.83-3.32-2.62.48-2.24,2.86-2.48,4.77a5.62,5.62,0,0,1-6.43-3.58,5.94,5.94,0,0,1,1.44-5.93C115.67,80.64,116.35,84.49,118.14,84Z"/><path class="cls-5" d="M121,48.11c-2,0-3.29,3.6-5.61,1.23-1.85-1.9-1.31-4-.5-6.47,2-6.12,5.67-11,9.77-15.71,3.53-4,17.84-7.31,23.34-2.05l-2,0c-1.34.34-2.67-1.82-4,0h-2c-7.39,2.1-11.95,7.22-15,14h0c-3.15,1.41-3.15,4.17-3,7Z"/><path class="cls-5" d="M214.87,121l4.11-10c7.61-6.33,8.7-14.91,8.26-24,1.6,0,2,2.22,3.74,2,.33,6.82.37,13.53-5.42,18.64-.65.58-.39,2.18-.55,3.31-2,5.48-5.34,10.65-4.1,16.91-1.79,1.45-.26,3.9-1.81,5.86C216,130,218.19,124.53,214.87,121Z"/><path class="cls-15" d="M227.24,87.09c.44,9.09-.65,17.67-8.26,24-.39-6,1.69-12,1-18a44,44,0,0,0,0-4.87c-.45-4.43,1.36-6.08,5.68-4.93l1.2,1.89Z"/><path class="cls-15" d="M117.91,102c-1.67,6.26,1.28,12,2.09,18-5.71-2.43-7.39-8-10-12.84a2.16,2.16,0,0,0-.71-2.18l0-.12c-.13-2.47-.36-4.94-.35-7.41,0-2.11.68-4,3.2-4.24s2.77,1.82,3.18,3.62c.18.79.48,1.56.72,2.34C116.13,100.41,115.7,102,117.91,102Z"/><path class="cls-5" d="M176,91.12c2.66,5.93,7.18,7.44,13.43,6.49,5.41-.83,10.89-1.13,16.28-2.32,7.88-1.73,8.56-2.34,9.63-10.24,2.58.83,3.88,2.5,3.49,5.29-3.1,0-3,3.67-5.61,4.6a76.46,76.46,0,0,1-32.68,4c-4.1-.35-5.51-4.24-6.5-7.85Z"/><path class="cls-5" d="M120.62,97.46c2,3.28,5.31,3.5,8.7,3.77,5.7.44,11.57-1.08,17.12,1.63-7.42.11-14.81,1-22.15-.5-1.77-.36-3.7-.44-4.6-2.44Z"/><path class="cls-10" d="M125,39.11c3.07-6.74,7.63-11.86,15-14-.06.33,0,.79-.19,1-4.43,4-9.06,7.69-12.08,13C127.17,40.08,125.91,39.5,125,39.11Z"/><path class="cls-10" d="M122,46.11c-.14-2.83-.14-5.59,3-7C124.23,41.55,125.18,44.73,122,46.11Z"/><path class="cls-5" d="M117.91,102c-2.21.06-1.78-1.57-1.85-2.88,1-.09,1.9-3.76,2.92,0C117.54,99.64,118.12,101,117.91,102Z"/><path class="cls-10" d="M142,25.14c1.33-1.83,2.66.33,4,0C144.66,27.51,143.33,27.52,142,25.14Z"/><path class="cls-5" d="M200,11.1a1.78,1.78,0,0,1-1.95-2l2.27-.56h.11C200.24,9.41,200.09,10.25,200,11.1Z"/><path class="cls-5" d="M226.86,85.16l-1.2-1.89C226.84,83.41,228.7,83.11,226.86,85.16Z"/><path class="cls-10" d="M162,26.12l-.23.41.22-.42Z"/><path class="cls-4" d="M200.27,8.58,198,9.14l-1,0,.09-2.54C198.29,7,199.6,7.29,200.27,8.58Z"/><path class="cls-13" d="M185,215.12c-6.65,5.49-12.66,11.67-19.05,17.43-9.09,8.2-18.88,15.62-26.92,24.94-.53.61-1.19,1.49-2.05,1.09-2-.92-.29-3.11-1.77-5-2.14,5.69.31,11.54-1.84,16.88-1.53.82-1.63-6-4-.9a1.4,1.4,0,0,1-1.32.29c-3.72-3.41-9.74-1.64-13.08-6.92-4-6.31-7.16-12-8.49-19.94a108.72,108.72,0,0,1,.94-40.84c1.48-7,.92-14.32,3.62-21.05h0a1.83,1.83,0,0,0,2-2c6.85-3.49,14.51-4.08,21.79-6-1.07,3-4.69,4.46-4.77,8-.49-.25-.85-.16-1,.38,0,.12.13.28.21.42l.76-.83c1.91-1.52,3.68-2.06,5.87-.19,3,2.54,6.23,4.76,9.37,7.12,2.61,3.06,1.1,6.27.32,9.43-4.21,17-7.11,34.25-10,51.51l1.24.66,28.61-47.38,7.64-12c2.7-2.15,5.53-4.16,8.08-6.48,3.33-3,6.47-3.37,10.13-.53s7.37,5.13,11.89,8.25V173.15c1.2-4.61.31-9.35.91-14l2.91,0c3,4.05,7.11,5.77,12,6a2.22,2.22,0,0,0,1.77,2.08A95.53,95.53,0,0,0,237,171.14c.21,1.26.43,2.49,2,1l3,1c2.76,6.1,8.55,10.13,11.2,16.32.69,1.6,2.25,1.73,3.78,1.68,0,1.33,0,2.66,0,4s0,2.67,0,4c-4.44-.63-6.47,1-6.07,5.76a95.46,95.46,0,0,1,0,12.43c-.25,5.32,1.8,9.86,4.49,14.17s1.83,9,2.1,13.43c.2,3.28-3.85,2-6.12,2.17s-4.49-.32-4.38-3.31c.1-2.69-.73-4.31-3.53-5.12a5.63,5.63,0,0,1-3.12-3c-1.63-3.94-4.59-4.91-8.4-4.51-.34-1.34-.67-2.67-1-4,1.63-1.66,1.12-2.6-1-3a6.65,6.65,0,0,1-1-4c2.06-1,1.82-2.66,1.74-4.64-.25-6.06-4.13-10.83-5.53-16.51-1.13-4.58-4.37-4.87-8.9-1.78-1.41,1-3.07,2.84-4.76,1.14-1.42-1.42-.13-3,1-4.34.61-.68,1.72-1.49.58-2.45-.91-.76-1.87-.08-2.65.59-2.68,2.33-5.5,4.52-8,7C196.88,204.72,189.64,208.5,185,215.12Z"/><path class="cls-10" d="M220.91,128c-1.24-6.26,2.06-11.43,4.1-16.91,6.08-2.67,8.26-8.13,9.94-13.94,10.74,3,19.72,8.45,25.28,18.46,2.78,5,5.71,10.1,4.75,16.25-.57,3.71,1.19,7.18,1,10.86-.23,4.62-1.72,6-5.84,4.2-7.84-3.46-15.59-7.16-23.09-11.29A159.59,159.59,0,0,0,220.91,128Z"/><path class="cls-4" d="M219,165.12c-4.9-.18-9-1.9-12-6,1.64-5.19-1.47-4.3-4.5-3.51l.25-.14a1.2,1.2,0,0,0-1.11-1.27,1.18,1.18,0,0,1-.8-1.39c.68-3.9-3.16-8.29,1.27-11.79,2.43.3,3.39,2.4,4.91,3.87,3.62,3.49,5.47,8.55,10,11.19C220.91,158.4,218.13,162.16,219,165.12Z"/><path class="cls-11" d="M257,191.12c-1.53,0-3.09-.08-3.78-1.68-2.65-6.19-8.44-10.22-11.2-16.32,4.38.25,7.77,1.52,9.92,6.07C253.76,183.11,257.54,186.15,257,191.12Z"/><path class="cls-5" d="M217,156.12c-4.54-2.64-6.39-7.7-10-11.19-1.52-1.47-2.48-3.57-4.91-3.86-.82-1.29-1.26-3-3.23-3l5.13-4c2.37,4.49,5.83,8.2,8.7,12.33C214.72,149.33,216.8,152.32,217,156.12Z"/><path class="cls-11" d="M269,238.11c-3.3-3.71-5.93-7.54-6.15-13-.17-4.34-2.59-8.48-1.84-13,3.8.89,1.64,4.46,2.84,6.65A41.61,41.61,0,0,1,269,238.11Z"/><path class="cls-11" d="M257,199.12c0-1.34,0-2.68,0-4a11.78,11.78,0,0,1,4,9.64c0,2.12,0,4.24,0,6.37C256.55,208.15,256.94,203.57,257,199.12Z"/><path class="cls-11" d="M273,248.12c-5.91-2.14-7.52-5.77-4-9A11.14,11.14,0,0,1,273,248.12Z"/><path class="cls-11" d="M239,172.12c-1.57,1.51-1.79.28-2-1A2,2,0,0,1,239,172.12Z"/><path class="cls-16" d="M234,291.11a50.5,50.5,0,0,0-11.36.89c-2.15.49-5,2.46-6.74-.66a10.35,10.35,0,0,1-.2-9.1,18.67,18.67,0,0,1,3.51-4.79c1-1.17,2.07-2.32,1.76-3.93-.72-3.7,1.4-5.79,3.93-7.87,1.68-1.38,3.07-3.28,5.58-2.2A7.08,7.08,0,0,1,235,269.5c.41,3.82,1.29,7.23,6,7.62,0,.33,0,.66,0,1C241.39,283.91,242,289.82,234,291.11Z"/><path class="cls-13" d="M257,219.36c3.19,3.65,5.09,6.13,3.43,9.48a3.37,3.37,0,0,1-2.18,1.74c-1.31.12-1.23-1.22-1.24-2.17C257,225.87,257,223.32,257,219.36Z"/><path class="cls-17" d="M145.22,188c-3.14-2.36-6.39-4.58-9.37-7.12-2.19-1.87-4-1.33-5.87.19l0,0c.08-3.57,3.7-5,4.77-8l3-3.08c1.11.15,2.32.65,3.34.39,4.91-1.25,6.25,1.09,5.83,5.44-.26,2.69.08,5.21,2,7.28-.34,1.36,1.75,2.71,0,4.06C147.19,185,146.69,188.71,145.22,188Z"/><path class="cls-14" d="M149,183.14c-2-2.07-2.3-4.59-2-7.28.42-4.35-.92-6.69-5.83-5.44-1,.26-2.23-.24-3.34-.39a72.94,72.94,0,0,1,10.67-12.14c1.4,1.11,5.64-.36,4.22,3-2.66,6.28-1.21,12.64-1.69,18.94C150.9,181.31,151.09,182.87,149,183.14Z"/><path class="cls-7" d="M149,183.14c2.07-.27,1.88-1.83,2-3.33.48-6.3-1-12.66,1.69-18.94,1.42-3.34-2.82-1.87-4.22-3A12.89,12.89,0,0,1,156,152.2c1.76,4.27,1.42,8.71.31,13-1.48,5.62-4,11-3.36,17,.29,2.88-2.83,4.92-2,7.95l-1.93-1v-1.07c0-.29,0-.59,0-.89C150.77,185.85,148.68,184.5,149,183.14Z"/><path class="cls-11" d="M113,179.14a1.83,1.83,0,0,1-2,2A1.79,1.79,0,0,1,113,179.14Z"/><path class="cls-4" d="M109.29,104.91a2.16,2.16,0,0,1,.71,2.18A1.64,1.64,0,0,1,109.29,104.91Z"/><path class="cls-9" d="M185,215.12c4.65-6.62,11.89-10.4,17.51-16,2.51-2.5,5.33-4.69,8-7,.78-.67,1.74-1.35,2.65-.59,1.14,1,0,1.77-.58,2.45-1.17,1.3-2.46,2.92-1,4.34,1.69,1.7,3.35-.18,4.76-1.14,4.53-3.09,7.77-2.8,8.9,1.78,1.4,5.68,5.28,10.45,5.53,16.51.08,2,.32,3.63-1.74,4.64-.59-.57-1.41-1-1.71-1.71-.92-2.09-1.62-5.4-4-4.88-2.76.61-4.62,3.65-5.17,6.64a36.11,36.11,0,0,1-2.38,7.56c-2.77,6.61-7.83,9.5-14.85,9.39a142.7,142.7,0,0,0-21.37.94c-1.8.25-3,1.27-4.46,2s-2.77,1.59-4.11.19c-1.57-1.65-.78-3.8-.88-5.74-.09-1.69.89-2.35,2.47-2.41,9.56-.32,19.13-.58,28.68-1.07,2.11-.11,5.58,1.53,6.07-1.24.43-2.38-3.28-1.12-4.87-2.13-3.57-2.26-6.89-1.77-10.77-.21-3.38,1.36-7.41.89-10.93,2.53-1,.47-2.83.57-3.42-1.1s-.51-3.42,1.2-4.44c2.93-1.74,5-4.42,7.34-6.72C187.09,216.49,187.12,215.41,185,215.12Z"/><path class="cls-18" d="M174,302.28c-5.92,2-11.81.46-17.64-.39-7.51-1.09-15-2.47-22.4-4-3.2-.67-5.38,1-7.81,2.27-1.74.93-3.45,1.93-5.17,2.9.52-4.84,3.49-7.61,8.35-7.9A63.15,63.15,0,0,1,153,298.39c6.33,2.06,13.2.43,19.82.74,1.91.09,4.28-.58,4.21,2.64Z"/><path class="cls-9" d="M110.92,314.11c-5.9-.09-6.35-1.05-3.26-7.06l9.33-3.92c.05.79.09,1.58.14,2.36C114.51,308,110.06,309.13,110.92,314.11Z"/><path class="cls-7" d="M174,302.28l3-.51,1.6.64.15.14,4.37,6.54c-2.84-.08-5.2-1.36-6-4C176.52,303.22,174.8,303.41,174,302.28Z"/><path class="cls-9" d="M230,224.12c2.12.4,2.63,1.34,1,3C229.82,226.4,230,225.22,230,224.12Z"/><path class="cls-18" d="M117.13,305.49c0-.78-.09-1.57-.14-2.36l3.88-.07Z"/><path class="cls-18" d="M178.6,302.41l.6-.51c-.15.22-.29.44-.45.65Z"/><path class="cls-2" d="M122.14,318.67c-2.47.14-1.93-1.47-2-2.71,0-2,.76-3.19,3-2.93,1.68.19,2.8.88,2.7,2.82C125.72,318.5,123.54,318.2,122.14,318.67Z"/><path class="cls-14" d="M149,187.2c0,.3,0,.6,0,.9-.72.36-.66.71,0,1.06l1.93,1c-.12,5.59,1.89,10.83,2.45,16.55,4.21-1.21,4.19-6.12,7.6-7.57l4.4,3.14-28.61,47.38-1.24-.66c2.89-17.26,5.79-34.51,10-51.51.78-3.16,2.29-6.37-.32-9.43C146.69,188.71,147.19,185,149,187.2Z"/><path class="cls-14" d="M203.13,173.15v18.34c-4.52-3.12-8.34-5.51-11.89-8.25s-6.8-2.5-10.13.53c-2.55,2.32-5.38,4.33-8.08,6.48.56-1.87-2.57-1.34-2.07-3.17,5.36-5.46,10.36-11.19,14-18,2.61-.64,3.74-3.05,5.51-4.69.81-.75.18-3,1.52-2.74a38.59,38.59,0,0,1,8.84,2.82c2,.94.91,3.24,1,4.95C202,170.8,200,172.79,203.13,173.15Z"/><path class="cls-15" d="M184.89,168.07c-4.86-2-9.72-4-14.6-6-1.64-.67-3.19-1.62-3.1-3.45.11-2.18,2-4.19,3.73-4.15,8.58.21,14.82-4.4,21-9.37.39.71.78,1.42,1.18,2.13C190.09,154.08,189.12,161.71,184.89,168.07Z"/><path class="cls-6" d="M184.89,168.07c4.23-6.36,5.2-14,8.17-20.84,3.12,1.12,5.25,3.61,7.73,5.62a1.18,1.18,0,0,0,.8,1.39l1.11,1.27-.25.14,1.59,3.5c-.6,4.65.29,9.39-.91,14-3.09-.36-1.11-2.35-1.22-3.7-.13-1.71,1-4-1-4.95a38.59,38.59,0,0,0-8.84-2.82c-1.34-.25-.71,2-1.52,2.74-1.77,1.64-2.9,4.05-5.51,4.69C185,168.77,184.93,168.42,184.89,168.07Z"/><path class="cls-18" d="M134.89,88.17c1.24-3,3.66-3.23,6.49-3.07,3.53.21,7.09.08,10.64.1-.54,2.87,4.43,4.29,2,7.66-1.22-1.37-1.77-3.5-4.07-3.68-.44-.47-.82-1.26-1.31-1.34-2-.29-.44,1-.45,1.39-.11,6.75-3.4,8.68-10.1,5.87C138.34,92.18,136.33,90.31,134.89,88.17Z"/><path class="cls-15" d="M184.94,124.09c.8.14,1.9.17,1.68,1.32-1.12,5.68-8.11,12.79-13.3,13.65-7.33,1.22-14.18-2.16-18.26-9,4.72.64,8.78,4,13.84,3.3-1.22,3.61-4.44-1.09-6.13,1.81,3.1.24,6.55,3.83,8.25-1.9C177.34,132.76,181.75,129.35,184.94,124.09Z"/><path class="cls-6" d="M168.9,133.35c-5.06.75-9.12-2.66-13.84-3.3l0,0c.05-.63.1-1.26.14-1.89,1.05,0,2.14.09,2.84-1,6.11,1.82,12.07.24,18-.94,2.81-.56,5.94-.53,8-3.17l1,1c-3.19,5.26-7.6,8.67-13.92,9.17Z"/><path class="cls-18" d="M176,91.12h-2c-1.49-4.12-5.16-2.77-8.11-3.23,0-1.14-.05-2.27-.08-3.41,2.65-1.31,5.88.78,8.44-1.6s6.07-3.15,9.67-2.7c-.09,2,.22,3.76,2.84,3.75l.34.35-.15.28c-2.49.86-3.27,4-6,4.53-.23-2.08,1.33-3.63,1.74-5.55C176.83,83.86,175,85.9,176,91.12Z"/><path class="cls-15" d="M184,123.12c-2,2.64-5.15,2.61-8,3.17-5.94,1.18-11.9,2.76-18,.94-.3-1.14-1.61-3.08.69-3,8.16.43,16.07-1.52,24.12-2C183.19,122.25,183.59,122.82,184,123.12Z"/><path class="cls-6" d="M171,187.08c-.5,1.83,2.63,1.3,2.07,3.17l-7.64,12-4.4-3.14C163.4,194.34,166.13,189.84,171,187.08Z"/><path class="cls-16" d="M200.79,152.85c-2.48-2-4.61-4.5-7.73-5.62l-1.17-2.13c.76-3.88,4.14-5.19,6.94-7.06,2,.05,2.41,1.74,3.23,3C197.63,144.56,201.47,149,200.79,152.85Z"/><path class="cls-15" d="M138.1,95.1c6.7,2.81,10,.88,10.1-5.87,0-.41-1.52-1.68.45-1.39.49.08.87.87,1.31,1.34.09,2.4.24,4.81-1,7-3.4,2.59-7.37,2.91-11.43,2.9-1.54,0-2.46-.62-2.63-2.19l-.15-.69C136,96.2,137.24,96.22,138.1,95.1Z"/><path class="cls-15" d="M176.28,113.43c-4.63,4.56-12.21,4.56-15.42-.36A24.37,24.37,0,0,0,176.28,113.43Z"/><path class="cls-5" d="M160.9,93.11c-1.65,7.24-4.18,9.1-12.07,8.14,5.15-.71,8.6-3.34,10.16-8.13Z"/><path class="cls-7" d="M149,96.21c1.23-2.22,1.08-4.63,1-7,2.3.18,2.85,2.31,4.07,3.68C151.08,97.6,151.08,97.6,149,96.21Z"/><path class="cls-18" d="M160.9,93.11H159a11.79,11.79,0,0,0-1-6c2,.39,4.38-.91,6.06,1.19A5.56,5.56,0,0,0,160.9,93.11Z"/><path class="cls-15" d="M155.17,128.19c0,.63-.09,1.26-.14,1.89-1.7,0-3.46-1-2.8-2.51C153.08,125.56,154.07,128.27,155.17,128.19Z"/><path class="cls-15" d="M188.74,123.09l-.16.34-.37-.47c.11-.06.23-.19.31-.16S188.67,123,188.74,123.09Z"/><path class="cls-16" d="M134.76,96.23l.15.69a2.22,2.22,0,0,1-2.39-.14c.22-.29.43-.59.65-.89Z"/><path class="cls-5" d="M171.31,15c5.17.63,10.64.29,15,3.95,1.74,1.46,4.21,3.43,3,5.68-1.44,2.73-4.32.57-6.16-.13-6.12-2.32-12.25-3.83-18.86-3.5a27.54,27.54,0,0,0-7.78,1.34c-1,.36-2.33,1.39-3-.14-.57-1.3.81-2.11,1.74-2.66C160.19,16.64,165.41,14.67,171.31,15Z"/><path class="cls-12" d="M184,80.18c-3.6-.45-7,.19-9.67,2.7s-5.79.29-8.44,1.6c-2.59.6-5,.69-7.38-1-1.91-1.39-4.25-1.43-6.56-1l-5-.08.09-.38c-.31-3.17,1.45-2.44,3.34-1.9,1.28.37,2.79,1.65,4-.08,1.08-1.56.37-2.86-1.09-3.66s.27-2.76-1.5-3.23c-6.92-7.77-17.75-9.23-25.7-3.46-.32-4.55-.42-9.18,1.53-13.37a151.69,151.69,0,0,1,7.73-14.3c4.26-7,15.3-10.88,23.08-8.11,7,2.49,14.88,3.85,20.42,8.68a145.69,145.69,0,0,0,16.62,12,16.46,16.46,0,0,1,6.47,7.84c-10.06-1.28-17.5,1.89-21,9,.4,2.64.84,5.11,4,6,1,.29-.13,1.72,0,2.63Z"/><path class="cls-4" d="M126.09,69.61c7.95-5.77,18.78-4.31,25.7,3.46-3.26,1.12-6.49.07-9.55-.62-9.56-2.15-9.52-2.32-17.91-.24C123.88,70.64,125.59,70.53,126.09,69.61Z"/><path class="cls-4" d="M180.93,71.29c3.51-7.06,10.95-10.23,21-9,1.75,1.21,4.11,1.28,6,3.47-2.87.86-5.27-.85-7.71-.54a37.93,37.93,0,0,0-12.23,4C185.79,70.37,183.55,71.52,180.93,71.29Z"/><path class="cls-7" d="M181,89.09c2.71-.56,3.49-3.67,6-4.53.18.5.35,1,.52,1.49-.76,1.89,1.14,2.71,1.66,4.09,0,.66-.08,1.33-.13,2-2.55-.53.12,4.26-2.46,2.76C184.39,93.6,180.73,93.05,181,89.09Z"/><path class="cls-6" d="M202,91.14A6,6,0,0,1,202,84C206.75,86.13,206.75,86.13,202,91.14Z"/><path class="cls-18" d="M189.2,90.14c-.52-1.38-2.42-2.2-1.66-4.09.32,0,.64,0,1,0,1.59-.2,3.76-1.66,4.22,1.14C193.12,89.5,190.88,89.7,189.2,90.14Z"/><path class="cls-18" d="M186.83,83.93l.7-.31-.36.66Z"/><path class="cls-7" d="M134.76,96.23l-1.59-.34c-5.28-4.75-5.27-4.78,1.72-7.72,1.44,2.14,3.45,4,3.21,6.93C137.24,96.22,136,96.2,134.76,96.23Z"/><path class="cls-18" d="M147,82.32l5,.08A4,4,0,0,1,147,82.32Z"/><path class="cls-16" d="M204,159.15l-1.59-3.5c3-.79,6.14-1.68,4.5,3.51Z"/><path class="cls-17" d="M130,181.11l-.76.83c-.08-.14-.24-.3-.21-.42.15-.54.51-.63,1-.38Z"/><path class="cls-16" d="M202.7,155.51l-1.11-1.27A1.2,1.2,0,0,1,202.7,155.51Z"/><path class="cls-17" d="M149,189.16c-.67-.35-.73-.7,0-1.06C149,188.45,149,188.8,149,189.16Z"/><path class="cls-12" d="M168.9,133.35l2.12-.09c-1.7,5.73-5.15,2.14-8.25,1.9C164.46,132.26,167.68,137,168.9,133.35Z"/></g></g></svg>