<svg width="25" height="25" viewBox="0 0 25 25" fill="none" xmlns="http://www.w3.org/2000/svg">
<rect width="25" height="25" rx="5" fill="#D9D9D9"/>
<path d="M14.6283 6.43471C14.9067 6.15637 15.2842 6 15.6779 6C16.0716 6 16.4492 6.15637 16.7276 6.43471L18.5649 8.27207C18.7029 8.40995 18.8123 8.57365 18.8869 8.75383C18.9616 8.934 19 9.12712 19 9.32215C19 9.51718 18.9616 9.7103 18.8869 9.89047C18.8123 10.0706 18.7029 10.2344 18.5649 10.3722L9.73618 19.2012L5 20L5.79951 15.2637L14.6283 6.43471ZM14.4583 8.70413L16.2956 10.5415L17.5152 9.32178L15.6779 7.48516L14.4583 8.70413ZM15.2451 11.5919L13.4086 9.75458L7.18473 15.9786L6.81133 18.1886L9.0213 17.816L15.2451 11.5919Z" fill="black"/>
</svg>