<svg width="35" height="35" viewBox="0 0 35 35" fill="none" xmlns="http://www.w3.org/2000/svg">
<path fill-rule="evenodd" clip-rule="evenodd" d="M3 0C1.34315 0 0 1.34315 0 3V32C0 33.6569 1.34315 35 3 35H32C33.6569 35 35 33.6569 35 32V3C35 1.34315 33.6569 0 32 0H3ZM11.3333 30C12.8 30 14 28.92 14 27.6C14 26.28 12.8 25.2 11.3333 25.2C9.86667 25.2 8.68 26.28 8.68 27.6C8.68 28.92 9.86667 30 11.3333 30ZM22.0133 27.6C22.0133 26.28 23.2 25.2 24.6667 25.2C26.1333 25.2 27.3333 26.28 27.3333 27.6C27.3333 28.92 26.1333 30 24.6667 30C23.2 30 22.0133 28.92 22.0133 27.6ZM26.8629 18.672C26.3897 19.0137 25.8013 19.1999 25.1947 19.2H11.3333V21.6H24.6667C25.3739 21.6 26.0522 21.8529 26.5523 22.3029C27.0524 22.753 27.3333 23.3635 27.3333 24H11.3333C10.6261 24 9.94781 23.7471 9.44772 23.2971C8.94762 22.847 8.66667 22.2365 8.66667 21.6V8.4H6V6H8.66667C9.37391 6 10.0522 6.25286 10.5523 6.70294C11.0524 7.15303 11.3333 7.76348 11.3333 8.4V9.6H30L27.7973 17.3208C27.6657 17.8538 27.3361 18.3304 26.8629 18.672Z" fill="#CB0606"/>
</svg>
