<svg xmlns="http://www.w3.org/2000/svg" 
width="55" height="25"
viewBox="70 -20 120 120" fill="#999999">
<title>资源 9</title>
<g id="图层_2" data-name="图层 2">
<g id="图层_1-2" data-name="图层 1">
<path d="M194.31,42.57c-5.05-1-10,.56-14.52-1l.06-1.29h11.9a13,13,0,0,0,.22-1.64,9.72,9.72,0,0,0-.19-1.52C190.17,28.9,185,24,177,22.52c-10.57-1.9-21.27-3-31.87-4.75a14.58,14.58,0,0,1-6.47-2.7c-8.12-6.32-17-10.85-27.16-12.79C94.27-1,77.06-.47,59.87,2.12,49.29,3.71,39.07,6.43,30,12.37c-1,.69-2,1.53-3.81,2.91,6.87,0,12.36.62,17.58-3.23,3.74-2.75,8.65-3.92,13-5.79l.51.85C56,9.72,54.64,12.33,53.3,15c3.53,1.09,4.81-.29,5.73-3.08.79-2.37,2-6.07,3.68-6.43C70,3.85,77.48,3.23,85.57,2.16v13h4.76V2.93c15.4-.79,33.57,3.64,42.84,14.13a10,10,0,0,1-1.89.38L38,17.38c-9,0-17.93-.1-26.88,0C5.74,17.43,2.65,19.7,2.23,24c-.31,3.13-.06,6.31-.06,9.64l7.2.44.05,1.46-9.35.75c0,3.65-.21,7,.09,10.26a6.64,6.64,0,0,0,2,4.25,27.68,27.68,0,0,0,21.24,5.82C21.06,48.06,22.72,41,30,36a15.74,15.74,0,0,1,18.1-.62c8.08,4.87,10,12.37,7.51,21.36h86.21c-1.91-9.78-.22-15.65,5.9-20.24,5.52-4.13,11.64-4.78,17.73-1.71,9,4.56,10.84,12.48,8.78,22,5.08,0,9.8.09,14.51-.07a4.06,4.06,0,0,0,2.8-1.6A19.3,19.3,0,0,0,194.31,42.57Zm-60.83,8.82H61v-.92h72.51Z"/><path d="M158.07,37A13.83,13.83,0,1,0,158,64.62,13.83,13.83,0,0,0,158.07,37Zm.21,24a10.34,10.34,0,0,1-10.66-10.17v0A1.82,1.82,0,0,0,149,51.94a29.55,29.55,0,0,0,4-.86l.17-1.12a33.6,33.6,0,0,0-4.51-.89c-.31,0-.94,1-1,1.65a10.33,10.33,0,0,1,2.23-6.3c-.06.29-.07.53,0,.6a44.88,44.88,0,0,0,3.88,2.79l.87-1a31.35,31.35,0,0,0-2.4-3.57,1.41,1.41,0,0,0-1-.21,10.25,10.25,0,0,1,5.65-2.38c-.49.3-1,.76-1,1.1a34.39,34.39,0,0,0,.84,4.89c2.19-1.54,2.06-3.36,2-5,0-.29-.41-.75-.79-1a10.08,10.08,0,0,1,10.23,9.92A10.27,10.27,0,0,1,158.28,61Z"/><path d="M39.55,37a13.83,13.83,0,1,0,13.77,13.6A13.79,13.79,0,0,0,39.55,37Zm-.67,24a10.21,10.21,0,1,1,1-20.4,10.21,10.21,0,1,1-1,20.4Z"/><path d="M161.17,51c2.07.43,3.63.83,5.22,1,.35,0,1.08-.76,1.11-1.21s-.42-1.67-.74-1.7C164.92,48.93,163,48.8,161.17,51Z"/><path d="M160.43,46.49c-.09.15.49.74,1.07,1.56l3.71-3.82-2-1.6C162.3,43.91,161.31,45.16,160.43,46.49Z"/><path d="M156.77,54.78a27.83,27.83,0,0,0-1,4.26c0,.42.94,1.2,1.55,1.31.43.07,1.47-.75,1.44-1.1a41,41,0,0,0-.93-4.59Z"/><path d="M160.94,53.18l-.88.77c.92,1.39,1.78,2.83,2.83,4.12.15.19,1.36-.17,1.78-.59s.43-1.44.18-1.64C163.63,54.85,162.26,54.05,160.94,53.18Z"/><path d="M150,55.76c-.23.2.06,1.47.46,1.82a1.91,1.91,0,0,0,1.84,0A31.63,31.63,0,0,0,154.66,54l-.81-.89A41.07,41.07,0,0,0,150,55.76Z"/><path d="M43.09,51.46c2.07.42,3.64.83,5.22,1,.35,0,1.09-.77,1.12-1.21s-.42-1.68-.74-1.71C46.85,49.37,44.92,49.23,43.09,51.46Z"/><path d="M42.36,46.93c-.1.15.49.74,1.06,1.56l3.72-3.83-2-1.59C44.22,44.34,43.23,45.6,42.36,46.93Z"/><path d="M35.07,50.4a33.77,33.77,0,0,0-4.5-.89c-.33,0-1,1.1-1,1.72,0,.38.91,1.19,1.36,1.15a29.88,29.88,0,0,0,4-.86C35,51.14,35,50.77,35.07,50.4Z"/><path d="M38.69,55.22a26.66,26.66,0,0,0-.95,4.26c0,.42.94,1.2,1.54,1.3.43.08,1.48-.75,1.44-1.09a38.48,38.48,0,0,0-.93-4.59Z"/><path d="M40.7,42c0-.45-1-1.32-1.33-1.23-.61.15-1.55.89-1.53,1.36a34.59,34.59,0,0,0,.83,4.9C40.87,45.52,40.73,43.71,40.7,42Z"/><path d="M35.69,48.25l.87-1a32.8,32.8,0,0,0-2.41-3.57,1.83,1.83,0,0,0-1.81,0c-.41.33-.75,1.58-.54,1.76A45,45,0,0,0,35.69,48.25Z"/><path d="M42.87,53.62l-.89.76c.92,1.39,1.78,2.84,2.83,4.13.16.19,1.36-.18,1.78-.59s.44-1.44.19-1.65A47.07,47.07,0,0,0,42.87,53.62Z"/><path d="M31.92,56.2c-.23.19,0,1.46.46,1.81a1.84,1.84,0,0,0,1.83,0,30.23,30.23,0,0,0,2.37-3.6l-.8-.9A38.7,38.7,0,0,0,31.92,56.2Z"/></g></g></svg>
