<svg xmlns="http://www.w3.org/2000/svg" width="62" height="25" fill="#999999" viewBox="80 -20 112 112"><title>资源 2</title><g id="图层_2" data-name="图层 2"><g id="图层_1-2" data-name="图层 1"><path d="M232.33,46.93H215.22l-.09,1.72H237c1.7,11.56-6,23.33-31.2,19.79,2.36-9.16,1.54-17.72-5.7-24.65-5-4.8-11.08-6.4-17.89-6-13.43.82-20.9,12.92-18.65,30.76h-99c3.06-11.42.86-21.14-9.44-27.56-8.1-5-16.6-4.72-24.4.84C21.58,48.4,19.89,57.62,22.63,68,10.11,70.45-1.6,56.76.18,41.6L11,40.85l.05-1.57L2.53,38.06a67.28,67.28,0,0,1,.52-7.63c.55-3.12,2.32-4.9,5.91-4.69,4.14.25,8.32.11,12.48,0,1.72,0,3.43-.34,5.14-.53V23.55H6.17c.76-3.15.81-5.4,1.81-7.1C13.67,6.75,21.38,0,33.43,0c26,0,52-.12,77.93.05,20.49.12,37.94,8.59,54.15,20.33A15,15,0,0,0,172.07,23c13.15,1.8,26.42,2.87,39.46,5.26,5.33,1,10.4,4.25,15.16,7.18C230.27,37.61,232.38,41.33,232.33,46.93Zm-194-35C41.71,18.2,46.5,21.72,53,22.5a5.44,5.44,0,0,0,4.29-2.42c1.78-3.35,2.72-7.14,4.43-10.54.74-1.49,2.51-2.45,3.82-3.65l1.2,1c-1,5.14-2.09,10.28-3.23,15.85H98.06c-1.2-5.73-2.31-11-3.41-16.22l1.61-.92c1.19,1.19,2.79,2.18,3.51,3.62,1.73,3.4,2.78,7.16,4.65,10.46.85,1.5,3,3.17,4.55,3.22,10.48.29,21,.23,31.45.11a52,52,0,0,0,7.46-1.16l.48-1.62c-1.79-1.75-3.35-3.89-5.42-5.2C131.78,8,119.76,3.5,106.35,3.49c-12.81,0-25.62-.31-38.42-.14C57.55,3.49,47.38,4.82,38.35,11.94ZM155.62,48.67V47.33H72v1.34Z"/><path d="M25.71,59.89a17.68,17.68,0,0,1,18.09-18,18,18,0,1,1-18.09,18ZM43.39,73.26A13.26,13.26,0,0,0,57,60.17,13.31,13.31,0,1,0,43.39,73.26Z"/><path d="M184.7,42a18,18,0,1,1-17.9,18.15A17.79,17.79,0,0,1,184.7,42Zm.08,31.25A13.32,13.32,0,1,0,171.49,60,13.12,13.12,0,0,0,184.78,73.23Z"/><path d="M188.62,59.06c1.66-.3,3.3-.69,5-.83.28,0,.93,1.09.88,1.62s-.85,1.38-1.24,1.34a35.29,35.29,0,0,1-4.47-1Z"/><path d="M193,53.5c-2.09,1.57-3.29,3.33-6.07,2.5a45.76,45.76,0,0,1,3.44-4.12C190.51,51.73,191.81,52.75,193,53.5Z"/><path d="M187.82,62.17a37.19,37.19,0,0,1,3.8,2.57,1.89,1.89,0,0,1,.08,1.86c-.33.44-1.63.81-1.79.62-1.1-1.34-2-2.83-3-4.27Z"/><path d="M178.39,50.92l3.48,5.21-.92.93a32.31,32.31,0,0,1-4-3C176.74,53.83,177.66,52.46,178.39,50.92Z"/><path d="M180.16,60.24a38.42,38.42,0,0,1-4.59.82c-.34,0-1-1-1.06-1.54,0-.4.65-1.31,1-1.29,1.56.1,3.1.44,4.65.69Z"/><path d="M178.41,68.08c-.7-1.23-1.68-2.52-1.5-2.7a45.14,45.14,0,0,1,4.44-3.64C181.73,64.86,180,66,178.41,68.08Z"/><path d="M182.41,51.18c.92-.72,1.55-1.22,2.18-1.73.43.65,1.27,1.36,1.18,1.93a21,21,0,0,1-1.3,3.87C183.86,54,183.24,52.81,182.41,51.18Z"/><path d="M185.09,63.53c.37,2,.7,3.44.81,4.87,0,.35-.65,1-1.05,1.07s-1.63-.3-1.65-.55C183,67.2,182.72,65.35,185.09,63.53Z"/><path d="M46.63,60.57c1.83-2.22,3.75-2.09,5.59-1.91.32,0,.77,1.12.74,1.7s-.76,1.25-1.11,1.21A53,53,0,0,1,46.63,60.57Z"/><path d="M47,57.61c-.58-.83-1.16-1.42-1.07-1.56.87-1.34,1.86-2.59,2.82-3.87l2,1.6C49.53,55,48.39,56.12,47,57.61Z"/><path d="M38.44,60.63a28.11,28.11,0,0,1-4,.86c-.45,0-1.37-.76-1.35-1.14,0-.62.69-1.75,1-1.73a35.24,35.24,0,0,1,4.51.89C38.55,59.89,38.5,60.26,38.44,60.63Z"/><path d="M43.33,64.21a43.07,43.07,0,0,1,.93,4.6c0,.34-1,1.16-1.44,1.09-.61-.11-1.59-.89-1.55-1.31a28.9,28.9,0,0,1,.95-4.25Z"/><path d="M42.2,56.18a35.72,35.72,0,0,1-.83-4.89c0-.47.92-1.21,1.54-1.37.34-.08,1.31.79,1.32,1.24C44.27,52.82,44.4,54.64,42.2,56.18Z"/><path d="M39.22,57.36a42.73,42.73,0,0,1-3.88-2.78c-.21-.18.12-1.43.54-1.77a1.88,1.88,0,0,1,1.81,0,32.26,32.26,0,0,1,2.4,3.57Z"/><path d="M46.4,62.73c1.32.87,2.69,1.67,3.91,2.66.25.2.14,1.33-.19,1.64s-1.62.78-1.78.59c-1-1.29-1.9-2.73-2.82-4.12Z"/><path d="M40.12,63.56a31.63,31.63,0,0,1-2.37,3.61,1.89,1.89,0,0,1-1.84,0c-.41-.35-.69-1.62-.46-1.81a38.18,38.18,0,0,1,3.86-2.65Z"/></g></g></svg>
