<svg xmlns="http://www.w3.org/2000/svg" viewBox="0 0 198.76 84.28"><title>资源 6</title><g id="图层_2" data-name="图层 2"><g id="图层_1-2" data-name="图层 1"><path d="M196.9,55.85a48,48,0,0,1-5.75,0c-2.86-.09-4.13-1.54-4.09-4.76l11.25-.55c0-3.39.13-7-.09-10.55a4.65,4.65,0,0,0-1.88-2.7c-1.4-1.11-3.4-1.62-4.45-2.94a8.5,8.5,0,0,0-6.27-3.53c-10.13-.82-20.24-1.76-30.37-2.53-3.15-.23-6.43.25-8.16-3.52l-1.63,1.86.38-2.65c-2.05,1.85-4.16,2.47-6.74.91-.19,1.44-.34,2.56-.46,3.5a13.14,13.14,0,0,0-3.43-1c-5.33-.09-10.66,0-16,0q-11.25,0-22.49,0c-1.25,0-2.72.17-2.73-1.7,0-6.83,0-13.66.07-20.49a2.42,2.42,0,0,1,1.68-1.6c10-.35,20-.59,30-.83A4.25,4.25,0,0,1,126.8,3l0,.37-9,.74a32.26,32.26,0,0,0,6.24.61,5.29,5.29,0,0,1,4.71,2.57c3.11,4.29,6.38,8.46,9.62,12.66a3.78,3.78,0,0,0,1.43,1.18c1,.4,2,.57,3,.91a14.12,14.12,0,0,1,1.74.87,1.59,1.59,0,0,0-.25-1.45c-4.28-5.42-8.75-10.71-12.81-16.28A9.27,9.27,0,0,0,123.58,1C113.43.76,103.28.44,93.13.07,91,0,90.17.71,90.19,2.89c0,6.16,0,12.33-.14,18.49-.11,7.69,1,6.74-6.81,6.76q-38.49.09-77,0c-2,0-3.16.43-3.28,2.6q-.25,5-.67,10a2.84,2.84,0,0,1-.74,1.83c-2.13,1.66-1.57,4-1.29,6,.06.48,2.49.65,3.84,1,.24,0,.5,0,.75,0,2.16.3,2.76-.73,2.56-2.75a48.23,48.23,0,0,1,0-5l.81-.1a12.25,12.25,0,0,1,.45,2.13c.06,1.41-.1,2.84,0,4.24.16,2.37-.83,3.24-3.21,3.22C1,51.23,1,51.34,1.21,55.81c0,.5.07,1,.09,1.5.07,1.66.92,2.29,2.58,2.27,4.75-.06,9.5.09,14.24-.09a4.18,4.18,0,0,0,3-1.69,73.2,73.2,0,0,0,4.11-8.45c2.43-5.74,6.45-8.86,12.89-8.61,4.25.16,8.5,0,12.75,0a13.35,13.35,0,0,1,11.65,6.06c2.35,3.42,4.69,6.86,6.91,10.37a4.63,4.63,0,0,0,4.51,2.4c4.92-.15,9.84-.16,14.75,0,2.36.08,3.15-.59,3.14-3.06-.08-17,0-34,0-51V3.27h.84V5.8q0,24.62,0,49.24c0,3.43.14,3.55,3.49,3.56,11.33,0,22.67-.19,34,.13,4.67.13,8.21-.44,9.27-5.68,0-.15.2-.27.27-.42,1.22-2.66,2.45-5.31,3.5-7.61a9,9,0,0,0,2.44-1,12.51,12.51,0,0,1,8.66-3.24c4.66.07,9.33,0,14,.07a13.46,13.46,0,0,1,11.54,6.28c2,3,4.18,5.82,5.87,8.95,1.59,2.92,3.7,3.85,6.89,3.56,2.08-.18,4.65-1,5.9,2.16a23.07,23.07,0,0,0,.29-4.36C198.77,56.13,198.25,55.72,196.9,55.85ZM144.83,42.3h-.7c0-2.59-.11-5.18,0-7.76s0-4.57-3.38-4.17c-.16,0-.36-.24-.64-.44l4.69-1.43Zm50.6-2.93h.45V49l-.45,0Zm-9.79.1q-10.9-1.24-21.79-2.57a5.53,5.53,0,0,1-2.93-1.19,19.24,19.24,0,0,1,2.38-.26c4.16.06,8.32.16,12.47.27,1.52,0,3.06.27,3.63-1.74a1.5,1.5,0,0,1,1.18-.75,41.89,41.89,0,0,1,5.71.23,2.39,2.39,0,0,1,1.59,1.37c.14.39-.57,1.09-.89,1.62a36.92,36.92,0,0,1,4.81.39c.66.13,1.17,1,1.75,1.58-.65.52-1.29,1.46-2,1.47A41.19,41.19,0,0,1,185.64,39.47Z"/><path d="M193.58,61.34c-1.33,0-2.67-.06-4,0a3.85,3.85,0,0,1-3.87-2.12c-2-3.43-4.24-6.75-6.38-10.11C177,45.4,173.6,43,169.18,42.71c-5.07-.28-10.17-.23-15.24,0a10.5,10.5,0,0,0-10,6.95,86.66,86.66,0,0,1-4.84,9.81,3.87,3.87,0,0,1-2.81,1.74c-21.33.12-42.66.1-64,.16a4.22,4.22,0,0,1-4-2.34c-2.33-3.84-4.81-7.58-7.36-11.28a11.61,11.61,0,0,0-9.33-5.05c-5-.24-10-.23-15,0a10.68,10.68,0,0,0-10.11,7.15c-1.33,3.29-3.15,6.38-4.59,9.62a2.9,2.9,0,0,1-3.12,1.88c-4.75-.05-9.5-.09-14.24,0a10,10,0,0,0-3,1.07c.65,1.61.9,4.2,2,4.66,3.41,1.41,7.1,2.37,11,1.45a50.91,50.91,0,0,1,6.15-1A3.84,3.84,0,0,0,24.08,65c2-4.39,4.15-8.7,6.19-13.07,1.56-3.35,3.94-5.13,7.83-4.93,4.08.2,8.17.18,12.25,0,3.87-.18,6.46,1.52,8.42,4.69,2.24,3.6,4.64,7.11,6.87,10.72a4.16,4.16,0,0,0,3.83,2.26c7.75,0,15.49.21,23.24.2,15.33,0,30.66-.18,46-.23a4,4,0,0,0,4.21-2.72c1.44-3.45,3.18-6.77,4.79-10.15,1.16-2.44,2.75-4.57,5.65-4.66,5.41-.17,10.83-.17,16.25,0,3.3.08,6.44,3.11,6.9,6.53-4.58-3.76-9.58-5.77-15.36-4.88A17,17,0,0,0,148,58.07a17.76,17.76,0,0,0,8.7,24.37,16.19,16.19,0,0,0,13.61.16c9.59-4.31,12.32-12.24,10.38-22.47.86.45,1.2.51,1.27.68,2.18,5.41,7.27,4.78,11.61,5.38,1.85.26,2.66-1.56,2.71-3.26C196.36,61,194.79,61.35,193.58,61.34Zm-29.81,17.8a12.83,12.83,0,0,1-13-12.91c0-6.71,5.13-12.7,11.68-12.7,8.26,0,14.56,5.3,14.34,12.38S171.23,79.11,163.77,79.14Z"/><path d="M45,49.08A17.68,17.68,0,0,0,27.23,66.82c.1,10.2,8.59,17.92,17.68,17.44,10,0,17.44-7.4,17.53-17.46A17.42,17.42,0,0,0,45,49.08Zm-.28,30.37A12.44,12.44,0,0,1,31.89,66.54c.22-7.22,5.35-12.86,13.13-12.79,7.44.07,12.82,5.37,12.75,13.09C57.7,74.36,52.21,79.73,44.74,79.45Z"/><path d="M46.16,26.49v.07H84.37c.92,0,1.83,0,2.75-.06a1.89,1.89,0,0,0,2.08-2.2c-.1-7.32-.12-14.65-.29-22,0-.79-.82-1.55-1.25-2.33-.45.82-1.27,1.64-1.28,2.47-.11,6,0,12-.06,18,0,3.5-.12,3.59-3.69,3.59Q44.79,24,7,24.09c-1,0-2.06.77-3.09,1.18,1,.41,2.06,1.16,3.09,1.17C20,26.52,33.09,26.49,46.16,26.49Z"/><path d="M103.11,66.27v-.12c-10.32,0-20.64,0-31,0A7.42,7.42,0,0,0,70,67c.41.76.63,1.84,1.26,2.19a7.13,7.13,0,0,0,3.3.74q28.72.06,57.44,0c.5,0,1.13.18,1.47-.05,1-.71,1.91-1.58,2.86-2.38-.92-.4-1.84-1.14-2.76-1.15C123.42,66.23,113.26,66.27,103.11,66.27Z"/><path d="M161.21,76l-.74-.3a13.6,13.6,0,0,0,.32-2,12.26,12.26,0,0,0-.28-2,11.69,11.69,0,0,0-2,.66A10.59,10.59,0,0,0,157,73.65l-.66-.52c.71-1.21,1.43-2.42,2.15-3.63l-.28-.67a28.73,28.73,0,0,0-4.35.92,2.17,2.17,0,0,0-.31,2c2.51,3.1,5.38,5.75,9.68,5.93a23.88,23.88,0,0,0,3.42-.4l-2.82-5.57Z"/><path d="M171.74,58.39l0,0,.05,0Z"/><path d="M162.78,55c-2.77.19-6.06.35-7.16,3.92a1.87,1.87,0,0,1,2.8.68c.37.55,1.35.69,2.05,1a21.67,21.67,0,0,0,.3-2.25,18.82,18.82,0,0,0-.13-2.11l.64-.16c.73,1.27,1.45,2.55,2.42,4.25l2.58-4.28.56.22v4.45l4.9-2.36C169.57,55.14,166.1,54.77,162.78,55Z"/><path d="M173.55,69.72a18.76,18.76,0,0,0-4.08-.91l-.36.71L171,73.13l-1.16.81a6.38,6.38,0,0,0-1.19-1.82c-.41-.33-1.17-.21-1.78-.29a24.2,24.2,0,0,0,.79,4.12,3.82,3.82,0,0,0,2.64-.32,34.24,34.24,0,0,0,3.26-3.33C174.56,71.36,174.85,70.32,173.55,69.72Z"/><path d="M171.77,58.42l-3.12,4.81h5.69C174.77,61,173.47,59.62,171.77,58.42Z"/><path d="M171.76,58.41h0l0-.06Z"/><path d="M153.09,63.25h5.17l.39-.69-3.08-3.5C153.15,59.75,153.11,61.62,153.09,63.25Z"/><path d="M155.57,59.06h0a.56.56,0,0,0,0-.12l-.11.06Z"/><path d="M170,65.19l-.22,1.41a37.51,37.51,0,0,0,4.61,1.17c.33,0,1.17-1,1.15-1.53s-.81-1.45-1.29-1.47A29.13,29.13,0,0,0,170,65.19Z"/><path d="M157.74,65.45a22.71,22.71,0,0,0-4.27-.76c-.57,0-1.3.9-1.61,1.55-.13.27.59,1.37,1,1.41C154.63,67.85,156.48,67.9,157.74,65.45Z"/><path d="M51.16,66.85c3,1.8,3.08,1.93,2.94,2.78l-3.67-.39-.4.67,2.41,3.5-.14.65c-.6-.26-1.21-.5-1.79-.78-.79-.36-1.56-.76-2.34-1.14-.08.81-.18,1.63-.24,2.44,0,.57,0,1.15,0,1.73l-.62.16-2-3.67-1-.11c-.44,1.63-1.65,3.54-1.17,4.82.74,2,2.71.48,4.15.17.33-.07.64-.19,1-.27a9.42,9.42,0,0,0,7.59-8,4.72,4.72,0,0,1,.69-2c1.06-1.48.18-2.5-1-2.56C53.9,64.81,51.94,64.76,51.16,66.85Z"/><path d="M37.69,74.17l-.47-.77a5.27,5.27,0,0,0,.73-.92c.46-.88.86-1.8,1.29-2.7-.9,0-1.8,0-2.69-.07a4.19,4.19,0,0,1-1.2-.48c.24-.37.4-.9.74-1.07a28.59,28.59,0,0,1,2.77-1.07c-1-2.39-3.06-2.09-4.77-2.2-.35,0-1.21,1.25-1.11,1.78.81,4.12,2.65,7.7,6.2,10.15a2.39,2.39,0,0,0,2-.14,39.66,39.66,0,0,0,.91-4.49L41.33,72Z"/><path d="M51,56.88c-.54-.41-2.31-.27-2.46.09a14.49,14.49,0,0,0-.66,3.71l3-1.17,1.49-.63a16,16,0,0,1-.88,2.25A19.89,19.89,0,0,1,50.05,63l.38.83c1.16-.17,2.33-.28,3.47-.52,2-.42,2-1.45.75-2.77A30.77,30.77,0,0,0,51,56.88Z"/><path d="M35.1,62.93a23.63,23.63,0,0,0,4.07.94l.4-.74a21,21,0,0,1-1.19-1.91,10.16,10.16,0,0,1-.5-1.65c.53.17,1.06.35,1.59.51l2.29.73A22.11,22.11,0,0,0,41,56.87a2.75,2.75,0,0,0-2.28,0,21,21,0,0,0-3.81,3.85C34.58,61.18,34.77,62.79,35.1,62.93Z"/><path d="M45.28,60.5c.74-1.52,1.48-3,2.33-4.77-1.69-.68-3.62-1.73-4.4-.08-.57,1.22.53,3.23.88,4.89Z"/></g></g></svg>