<svg xmlns="http://www.w3.org/2000/svg" viewBox="0 0 247.55 92.34"><title>资源 7</title><g id="图层_2" data-name="图层 2"><g id="图层_1-2" data-name="图层 1"><path d="M247.36,61.65H228.27l0-2.17h17c-2.65-4.41-4.14-7.57-6.24-10.25-7.43-9.47-18-13.57-29.29-15.69-7.14-1.35-13.27-4-18.52-8.92a62,62,0,0,0-5.07-4.05C171.92,9.75,157,.28,138.32.18,100.84,0,63.36.22,25.88,0,12.28-.08.38,12.48,1,30.51h15l0,1.93H.34V59.23c4.36,0,8.48-.13,12.59,0,4.26.17,7.76-.53,11.3-3.61,7.15-6.22,18.8-7,25.94-.95,5.26,4.47,10.59,4.55,16.51,4.55q47.47,0,94.95,0a41.33,41.33,0,0,1,5.29.66l-.13,1.83H58.94c.87,6.38,1.62,11.87,2.4,17.56H172.58c-1.46-16.14,7.31-27.64,21.34-28.38a22,22,0,0,1,16.54,5.77c6.63,6,8.59,13.85,7.18,23h14.87C243.24,79.73,248.64,73.6,247.36,61.65ZM193.47,32.22a22.16,22.16,0,0,1-4.76,1.11c-6.33.08-12.68.2-19-.26a7.54,7.54,0,0,1-5.09-3.4c-2.69-4.77-4.6-10-7.17-14.82-.91-1.74-2.81-3-4.26-4.42l-1.43,1.06,9.68,21.11H116.09c0-6.85.12-13.28-.1-19.69,0-1.38-1.34-2.72-2-4.08-.67,1.42-1.84,2.82-1.91,4.26-.23,5,0,10-.11,15a32.54,32.54,0,0,1-.62,4.35l-1.69,0a29.71,29.71,0,0,1-.54-3.85c-.06-5.66.07-11.33-.12-17,0-.92-1.31-1.8-2-2.7-.68.89-1.92,1.77-1.94,2.68-.17,6.64-.09,13.28-.09,20.21H53.85c0-6.67.13-12.77-.1-18.86-.06-1.38-1.39-2.72-2.14-4.08-.74,1.36-2.08,2.69-2.13,4.08-.24,6-.11,11.94-.11,18.76-4.27-.23-8.3.13-12-.77C29.2,28.9,23.91,15,28.68,8.11c1-1.42,4.06-1.93,6.18-1.94,23.65-.13,47.31-.07,71-.07,9.5,0,19,.33,28.49-.09,13.33-.59,25.33,3.31,36.54,10,7.8,4.63,15.27,9.81,22.89,14.74Z"/><path d="M39.25,55.3c-10.94-.4-19.69,7.46-19.92,17.91A18.65,18.65,0,0,0,37.09,92.32c10.78.4,18.85-7.36,19.19-18.45C56.57,64.19,48.74,55.65,39.25,55.3Zm-1,32.22a13.75,13.75,0,0,1-14.1-13.66c-.08-7.63,6-13.61,14-13.72a13.5,13.5,0,0,1,13.56,13C51.73,81.16,45.89,87.39,38.22,87.52Z"/><path d="M194.9,55.28a18.51,18.51,0,1,0,18.89,18.49A18.55,18.55,0,0,0,194.9,55.28ZM195,87.51a13.71,13.71,0,1,1,14-13.82A13.84,13.84,0,0,1,195,87.51Z"/><path d="M14.55,78.87c.77-5.61,1.51-11,2.28-16.5H.55C-1.28,75.87,1,82.37,14.55,78.87Z"/><path d="M204.13,72a47.08,47.08,0,0,0-5,.83l.14,1.17a38.26,38.26,0,0,0,4.47,1c.39,0,1.18-.83,1.23-1.34S204.41,72,204.13,72Z"/><path d="M203.54,67.28c-1.19-.74-2.49-1.76-2.63-1.62a45.59,45.59,0,0,0-3.45,4.12C200.25,70.62,201.44,68.86,203.54,67.28Z"/><path d="M198.36,76l-.9.79c1,1.44,1.89,2.93,3,4.26.16.19,1.46-.17,1.78-.61a1.89,1.89,0,0,0-.07-1.86A35.84,35.84,0,0,0,198.36,76Z"/><path d="M187.5,67.83a30.43,30.43,0,0,0,4,3l.93-.93-3.49-5.2C188.21,66.24,187.28,67.61,187.5,67.83Z"/><path d="M190.66,72.7c-1.55-.25-3.09-.58-4.64-.68-.32,0-1,.88-1,1.29.07.57.71,1.56,1.05,1.54a40.3,40.3,0,0,0,4.6-.82C190.69,73.59,190.68,73.14,190.66,72.7Z"/><path d="M187.45,79.16c-.17.18.8,1.48,1.5,2.7,1.54-2.11,3.33-3.22,2.94-6.33A45,45,0,0,0,187.45,79.16Z"/><path d="M196.32,65.16c.08-.57-.76-1.28-1.18-1.92L193,65,195,69A21.48,21.48,0,0,0,196.32,65.16Z"/><path d="M193.74,82.7c0,.26,1.1.61,1.65.55s1.09-.72,1.06-1.07c-.11-1.42-.45-2.84-.81-4.87C193.26,79.13,193.58,81,193.74,82.7Z"/><path d="M45.73,71.76c-1.84-.18-3.76-.31-5.59,1.91,2.07.43,3.63.83,5.22,1,.35,0,1.08-.76,1.11-1.21S46.05,71.79,45.73,71.76Z"/><path d="M44.18,66.88l-2-1.6c-.95,1.28-1.94,2.53-2.82,3.87-.09.14.49.73,1.07,1.55Z"/><path d="M32.12,72.61a33.6,33.6,0,0,0-4.51-.89c-.32,0-1,1.11-1,1.72,0,.39.9,1.19,1.35,1.15a28.11,28.11,0,0,0,4-.86C32,73.36,32.06,73,32.12,72.61Z"/><path d="M35.74,77.43a28.1,28.1,0,0,0-1,4.26c0,.42.94,1.2,1.55,1.31.43.07,1.47-.75,1.44-1.1a41,41,0,0,0-.93-4.59Z"/><path d="M37.74,64.26c0-.45-1-1.32-1.32-1.24-.62.16-1.55.9-1.54,1.37a34.39,34.39,0,0,0,.84,4.89C37.91,67.74,37.78,65.92,37.74,64.26Z"/><path d="M32.73,70.46l.87-1a32.26,32.26,0,0,0-2.4-3.57,1.88,1.88,0,0,0-1.81,0c-.42.34-.75,1.58-.54,1.77A47,47,0,0,0,32.73,70.46Z"/><path d="M39.91,75.83,39,76.6c.92,1.39,1.78,2.83,2.82,4.12.16.19,1.37-.17,1.79-.59s.43-1.44.18-1.64C42.6,77.5,41.23,76.7,39.91,75.83Z"/><path d="M29,78.41c-.23.2.06,1.47.46,1.82a1.91,1.91,0,0,0,1.84,0,31.63,31.63,0,0,0,2.37-3.61l-.81-.89A41.07,41.07,0,0,0,29,78.41Z"/></g></g></svg>